<svg width="12" height="12" viewBox="0 0 12 12" fill="none" xmlns="http://www.w3.org/2000/svg">
<path d="M11.3633 6.53608C11.6565 6.24349 11.657 5.76862 11.3644 5.47542L6.59645 0.697415C6.30387 0.404213 5.82899 0.403712 5.53579 0.696297C5.24259 0.988881 5.24209 1.46375 5.53467 1.75696L9.77284 6.00407L5.52572 10.2422C5.23252 10.5348 5.23202 11.0097 5.5246 11.3029C5.81719 11.5961 6.29206 11.5966 6.58526 11.304L11.3633 6.53608ZM1.00099 5.24482C0.586781 5.24438 0.250641 5.57981 0.250204 5.99403C0.249767 6.40824 0.585199 6.74438 0.999413 6.74482L1.00099 5.24482ZM10.8343 5.25519L1.00099 5.24482L0.999413 6.74482L10.8327 6.75519L10.8343 5.25519Z" fill="#6828ED"/>
</svg>
