<svg width="166" height="330" viewBox="0 0 166 330" fill="none" xmlns="http://www.w3.org/2000/svg">
<path d="M0.462769 0L12.8274 83.89L49.3706 7.37169L36.459 91.1793L93.9324 28.8317L56.8926 105.11L130.189 62.4731L72.3115 124.445L154.92 105.307L81.3465 147.466L165.925 153.526L83.1938 172.126L162.229 202.848L77.6912 196.237L144.159 248.89L65.3266 217.654L113.321 287.56L47.1976 234.474L72.4553 315.422L24.9167 245.204L25.1932 330L0.462769 248.89L-24.2677 330L-23.9911 245.204L-71.5302 315.422L-46.272 234.474L-112.396 287.56L-64.4006 217.654L-143.234 248.89L-76.7657 196.237L-161.304 202.848L-82.2687 172.126L-165 153.526L-80.4205 147.466L-153.994 105.307L-71.3856 124.445L-129.264 62.4731L-55.9671 105.11L-93.0071 28.8317L-35.5335 91.1793L-48.4451 7.37169L-11.9019 83.89L0.462769 0Z" fill="#F0EAFD"/>
</svg>
