<svg width="160" height="122" viewBox="0 0 160 122" fill="none" xmlns="http://www.w3.org/2000/svg">
<path d="M-48.1379 32.5238C-48.1379 30.365 -49.8671 28.6146 -52 28.6146V0.816162C-34.6994 0.816162 -20.6745 15.0122 -20.6745 32.5238V90.2924C-20.6745 92.4512 -18.9454 94.2016 -16.8125 94.2016C-14.6795 94.2016 -12.9504 92.4512 -12.9504 90.2924V32.5238C-12.9504 15.0122 1.07444 0.816162 18.3753 0.816162C35.6756 0.816162 49.7003 15.0122 49.7003 32.5238V90.2924C49.7003 92.4512 51.4298 94.2016 53.5625 94.2016C55.6952 94.2016 57.4247 92.4512 57.4247 90.2924V32.5238C57.4247 15.0122 71.4494 0.816162 88.7497 0.816162C106.051 0.816162 120.076 15.0122 120.076 32.5238V90.2924C120.076 92.4512 121.804 94.2016 123.938 94.2016C126.07 94.2016 127.8 92.4512 127.8 90.2924V32.5238C127.8 15.0122 141.825 0.816162 159.125 0.816162V28.6146C156.992 28.6146 155.263 30.365 155.263 32.5238V90.2924C155.263 107.804 141.238 122 123.938 122C106.637 122 92.6119 107.804 92.6119 90.2924V32.5238C92.6119 30.365 90.8832 28.6146 88.7497 28.6146C86.6171 28.6146 84.8876 30.365 84.8876 32.5238V90.2924C84.8876 107.804 70.8628 122 53.5625 122C36.2621 122 22.2374 107.804 22.2374 90.2924V32.5238C22.2374 30.365 20.5079 28.6146 18.3753 28.6146C16.2418 28.6146 14.5131 30.365 14.5131 32.5238V90.2924C14.5131 107.804 0.488052 122 -16.8125 122C-34.1131 122 -48.1379 107.804 -48.1379 90.2924V32.5238Z" fill="white"/>
</svg>
