<svg width="157" height="302" viewBox="0 0 157 302" fill="none" xmlns="http://www.w3.org/2000/svg">
<path d="M5.50027 0L16.8215 76.772L50.281 6.74622L38.459 83.4429L91.0825 26.3854L57.1683 96.1918L124.28 57.1724L71.2861 113.886L146.923 96.3718L79.5587 134.954L157 140.5L81.2501 157.522L153.616 185.637L76.2118 179.587L137.071 227.772L64.8906 199.186L108.835 263.161L48.2914 214.579L71.4178 288.659L27.8906 224.399L28.1439 302L5.50027 227.772L-17.1433 302L-16.8901 224.399L-60.4176 288.659L-37.2908 214.579L-97.835 263.161L-53.8896 199.186L-126.071 227.772L-65.2113 179.587L-142.616 185.637L-70.2499 157.522L-146 140.5L-68.5577 134.954L-135.923 96.3718L-60.2852 113.886L-113.279 57.1724L-46.1678 96.1918L-80.0822 26.3854L-27.4585 83.4429L-39.2805 6.74622L-5.82097 76.772L5.50027 0Z" fill="#FF8C22"/>
</svg>
