<svg xmlns="http://www.w3.org/2000/svg" viewBox="0 0 156 62.67"><defs><style>.cls-1{fill:#fff;}</style></defs><g id="Calque_2" data-name="Calque 2"><g id="Calque_1-2" data-name="Calque 1"><path class="cls-1" d="M156,0V14.37a2,2,0,0,0-2,2V46.27a16.2,16.2,0,1,1-32.4,0V16.4a2,2,0,1,0-4,0V46.27a16.2,16.2,0,1,1-32.4,0V16.4a2,2,0,1,0-4,0V46.27a16.2,16.2,0,1,1-32.4,0V16.4a2,2,0,1,0-4,0V46.27a16.2,16.2,0,1,1-32.4,0V16.4a2,2,0,1,0-4,0V46.27A16.43,16.43,0,0,1,0,60.67V3.85A16,16,0,0,1,10.43,0a16.3,16.3,0,0,1,16.2,16.4V46.27a2,2,0,1,0,4,0V16.4a16.2,16.2,0,1,1,32.4,0V46.27a2,2,0,1,0,4,0V16.4a16.2,16.2,0,1,1,32.4,0V46.27a2,2,0,1,0,4,0V16.4a16.2,16.2,0,1,1,32.4,0V46.27a2,2,0,1,0,4,0V16.4A16.3,16.3,0,0,1,156,0Z"/></g></g></svg>