<svg width="59" height="39" viewBox="0 0 59 39" fill="none" xmlns="http://www.w3.org/2000/svg">
<path fill-rule="evenodd" clip-rule="evenodd" d="M56.6514 20.1932C56.6514 20.1932 44.1154 38.0114 28.6514 38.0114C13.1874 38.0114 0.651367 20.1932 0.651367 20.1932C0.651367 20.1932 13.1874 2.375 28.6514 2.375C44.1154 2.375 56.6514 20.1932 56.6514 20.1932ZM41.4307 20.1932C41.4307 27.3529 35.7094 33.1571 28.6514 33.1571C21.5934 33.1571 15.8719 27.3529 15.8719 20.1932C15.8719 13.0335 21.5934 7.22924 28.6514 7.22924C35.7094 7.22924 41.4307 13.0335 41.4307 20.1932ZM28.6514 27.6219C32.6959 27.6219 35.9744 24.2959 35.9744 20.1932C35.9744 16.0905 32.6959 12.7645 28.6514 12.7645C24.6069 12.7645 21.3283 16.0905 21.3283 20.1932C21.3283 24.2959 24.6069 27.6219 28.6514 27.6219Z" fill="#6828ED"/>
<circle cx="30.9971" cy="17.5" r="13.5" fill="white"/>
<path fill-rule="evenodd" clip-rule="evenodd" d="M58.4971 17.8182C58.4971 17.8182 45.9611 35.6364 30.4971 35.6364C15.0331 35.6364 2.49707 17.8182 2.49707 17.8182C2.49707 17.8182 15.0331 0 30.4971 0C45.9611 0 58.4971 17.8182 58.4971 17.8182ZM43.2765 17.8182C43.2765 24.9779 37.5551 30.7821 30.4971 30.7821C23.4391 30.7821 17.7176 24.9779 17.7176 17.8182C17.7176 10.6585 23.4391 4.85424 30.4971 4.85424C37.5551 4.85424 43.2765 10.6585 43.2765 17.8182ZM30.4971 25.2469C34.5416 25.2469 37.8201 21.9209 37.8201 17.8182C37.8201 13.7155 34.5416 10.3895 30.4971 10.3895C26.4526 10.3895 23.174 13.7155 23.174 17.8182C23.174 21.9209 26.4526 25.2469 30.4971 25.2469Z" fill="#101010"/>
<rect x="22.1006" y="23.5681" width="21.1631" height="4" transform="rotate(-45 22.1006 23.5681)" fill="white"/>
</svg>
