<svg width="209" height="292" viewBox="0 0 209 292" fill="none" xmlns="http://www.w3.org/2000/svg">
<path d="M47.2712 227V204.6H60.9672V208.952H52.4552V215H60.9672V219.256H52.4552V227H47.2712ZM64.4237 227V204.6H69.3197V227H64.4237ZM88.5292 218.488C88.5292 219.128 88.4865 219.843 88.4012 220.632H77.0092C77.0519 221.635 77.3932 222.413 78.0332 222.968C78.6732 223.523 79.5372 223.8 80.6252 223.8C82.1185 223.8 83.0785 223.32 83.5052 222.36H88.3052C88.0705 223.875 87.2385 225.112 85.8092 226.072C84.4012 227.011 82.6732 227.48 80.6252 227.48C78.0012 227.48 75.9319 226.755 74.4172 225.304C72.9025 223.853 72.1452 221.848 72.1452 219.288C72.1452 216.771 72.9025 214.787 74.4172 213.336C75.9319 211.864 77.9479 211.128 80.4652 211.128C82.8545 211.128 84.7959 211.811 86.2892 213.176C87.7825 214.541 88.5292 216.312 88.5292 218.488ZM77.0092 217.592H83.6972C83.6759 216.568 83.3879 215.779 82.8332 215.224C82.2785 214.669 81.4785 214.392 80.4332 214.392C79.3879 214.392 78.5559 214.691 77.9372 215.288C77.3399 215.864 77.0305 216.632 77.0092 217.592ZM88.6637 227L94.2957 219.224L88.7597 211.576H94.6157L97.2717 216.056L99.9597 211.576H105.816L100.28 219.224L105.912 227H100.056L97.2717 222.392L94.5197 227H88.6637ZM112.814 209.336C112.238 209.912 111.512 210.2 110.638 210.2C109.763 210.2 109.038 209.912 108.462 209.336C107.907 208.76 107.63 208.056 107.63 207.224C107.63 206.371 107.907 205.656 108.462 205.08C109.038 204.504 109.763 204.216 110.638 204.216C111.512 204.216 112.238 204.515 112.814 205.112C113.39 205.688 113.678 206.392 113.678 207.224C113.678 208.056 113.39 208.76 112.814 209.336ZM108.174 227V211.576H113.07V227H108.174ZM127.031 211.16C129.143 211.16 130.85 211.907 132.151 213.4C133.474 214.893 134.135 216.856 134.135 219.288C134.135 221.699 133.463 223.661 132.119 225.176C130.775 226.669 129.037 227.416 126.903 227.416C125.794 227.416 124.802 227.171 123.927 226.68C123.053 226.189 122.413 225.571 122.007 224.824V227H117.111V204.568H122.007V213.784C122.413 213.016 123.074 212.387 123.991 211.896C124.909 211.405 125.922 211.16 127.031 211.16ZM125.495 223.352C126.562 223.352 127.437 222.979 128.119 222.232C128.802 221.464 129.143 220.483 129.143 219.288C129.143 218.093 128.802 217.123 128.119 216.376C127.437 215.629 126.562 215.256 125.495 215.256C124.386 215.256 123.49 215.629 122.807 216.376C122.125 217.123 121.783 218.093 121.783 219.288C121.783 220.504 122.125 221.485 122.807 222.232C123.511 222.979 124.407 223.352 125.495 223.352ZM137.08 227V204.6H141.976V227H137.08ZM161.185 218.488C161.185 219.128 161.143 219.843 161.057 220.632H149.665C149.708 221.635 150.049 222.413 150.689 222.968C151.329 223.523 152.193 223.8 153.281 223.8C154.775 223.8 155.735 223.32 156.161 222.36H160.961C160.727 223.875 159.895 225.112 158.465 226.072C157.057 227.011 155.329 227.48 153.281 227.48C150.657 227.48 148.588 226.755 147.073 225.304C145.559 223.853 144.801 221.848 144.801 219.288C144.801 216.771 145.559 214.787 147.073 213.336C148.588 211.864 150.604 211.128 153.121 211.128C155.511 211.128 157.452 211.811 158.945 213.176C160.439 214.541 161.185 216.312 161.185 218.488ZM149.665 217.592H156.353C156.332 216.568 156.044 215.779 155.489 215.224C154.935 214.669 154.135 214.392 153.089 214.392C152.044 214.392 151.212 214.691 150.593 215.288C149.996 215.864 149.687 216.632 149.665 217.592Z" fill="#101010"/>
<path d="M5.79385 260V247.4H7.35985V260H5.79385ZM17.4273 255.374C17.4273 255.602 17.4093 255.914 17.3733 256.31H10.9473C10.9593 257.102 11.1993 257.726 11.6673 258.182C12.1353 258.626 12.7653 258.848 13.5573 258.848C14.6613 258.848 15.3933 258.44 15.7533 257.624H17.3193C17.1753 258.392 16.7553 259.016 16.0593 259.496C15.3633 259.976 14.5293 260.216 13.5573 260.216C12.2853 260.216 11.2713 259.826 10.5153 259.046C9.77133 258.254 9.39933 257.186 9.39933 255.842C9.39933 254.522 9.77133 253.466 10.5153 252.674C11.2593 251.882 12.2493 251.486 13.4853 251.486C14.6613 251.486 15.6093 251.846 16.3293 252.566C17.0613 253.286 17.4273 254.222 17.4273 255.374ZM10.9473 255.104H15.8793C15.8793 254.372 15.6633 253.796 15.2313 253.376C14.8113 252.956 14.2233 252.746 13.4673 252.746C12.7233 252.746 12.1233 252.962 11.6673 253.394C11.2233 253.826 10.9833 254.396 10.9473 255.104ZM22.2421 260.216C21.1981 260.216 20.3581 259.958 19.7221 259.442C19.0981 258.914 18.7861 258.272 18.7861 257.516H20.3341C20.3341 257.936 20.5141 258.284 20.8741 258.56C21.2341 258.824 21.7141 258.956 22.3141 258.956C22.7821 258.956 23.1541 258.848 23.4301 258.632C23.7061 258.416 23.8441 258.122 23.8441 257.75C23.8441 257.162 23.5741 256.802 23.0341 256.67L20.8201 256.094C19.6321 255.77 19.0381 255.026 19.0381 253.862C19.0381 253.178 19.3261 252.614 19.9021 252.17C20.4781 251.714 21.2281 251.486 22.1521 251.486C23.1601 251.486 23.9401 251.72 24.4921 252.188C25.0561 252.644 25.3381 253.244 25.3381 253.988H23.7901C23.7901 253.592 23.6401 253.28 23.3401 253.052C23.0401 252.812 22.6201 252.692 22.0801 252.692C21.6481 252.692 21.2881 252.794 21.0001 252.998C20.7241 253.19 20.5861 253.454 20.5861 253.79C20.5861 254.354 20.8921 254.708 21.5041 254.852L23.5741 255.428C24.1621 255.584 24.6181 255.86 24.9421 256.256C25.2661 256.652 25.4281 257.102 25.4281 257.606C25.4281 258.398 25.1461 259.034 24.5821 259.514C24.0181 259.982 23.2381 260.216 22.2421 260.216ZM32.1083 260V251.702H33.6743V253.592C33.8303 252.932 34.1363 252.434 34.5923 252.098C35.0483 251.75 35.5523 251.576 36.1043 251.576C36.4283 251.576 36.6803 251.6 36.8603 251.648V253.088C36.6803 253.052 36.4223 253.034 36.0863 253.034C35.3063 253.034 34.7063 253.346 34.2863 253.97C33.8783 254.594 33.6743 255.392 33.6743 256.364V260H32.1083ZM45.7281 255.374C45.7281 255.602 45.7101 255.914 45.6741 256.31H39.2481C39.2601 257.102 39.5001 257.726 39.9681 258.182C40.4361 258.626 41.0661 258.848 41.8581 258.848C42.9621 258.848 43.6941 258.44 44.0541 257.624H45.6201C45.4761 258.392 45.0561 259.016 44.3601 259.496C43.6641 259.976 42.8301 260.216 41.8581 260.216C40.5861 260.216 39.5721 259.826 38.8161 259.046C38.0721 258.254 37.7001 257.186 37.7001 255.842C37.7001 254.522 38.0721 253.466 38.8161 252.674C39.5601 251.882 40.5501 251.486 41.7861 251.486C42.9621 251.486 43.9101 251.846 44.6301 252.566C45.3621 253.286 45.7281 254.222 45.7281 255.374ZM39.2481 255.104H44.1801C44.1801 254.372 43.9641 253.796 43.5321 253.376C43.1121 252.956 42.5241 252.746 41.7681 252.746C41.0241 252.746 40.4241 252.962 39.9681 253.394C39.5241 253.826 39.2841 254.396 39.2481 255.104ZM47.7528 260V251.702H49.3188V253.214C49.4868 252.722 49.7868 252.314 50.2188 251.99C50.6508 251.654 51.1788 251.486 51.8028 251.486C53.2308 251.486 54.1188 252.08 54.4668 253.268C54.6588 252.752 54.9948 252.326 55.4748 251.99C55.9548 251.654 56.5068 251.486 57.1308 251.486C59.1228 251.486 60.1188 252.572 60.1188 254.744V260H58.5528V255.05C58.5528 253.574 57.9528 252.836 56.7528 252.836C55.3968 252.836 54.7188 253.784 54.7188 255.68V260H53.1528V255.158C53.1528 253.61 52.5588 252.836 51.3708 252.836C50.7228 252.836 50.2188 253.076 49.8588 253.556C49.4988 254.024 49.3188 254.732 49.3188 255.68V260H47.7528ZM67.3374 251.486C68.5254 251.486 69.4914 251.894 70.2354 252.71C70.9794 253.514 71.3514 254.564 71.3514 255.86C71.3514 257.132 70.9674 258.176 70.1994 258.992C69.4314 259.808 68.4474 260.216 67.2474 260.216C66.6114 260.216 66.0234 260.066 65.4834 259.766C64.9554 259.466 64.5594 259.058 64.2954 258.542V260H62.7294V247.4H64.2954V253.16C64.5594 252.644 64.9614 252.236 65.5014 251.936C66.0534 251.636 66.6654 251.486 67.3374 251.486ZM67.0314 258.812C67.8354 258.812 68.4954 258.536 69.0114 257.984C69.5274 257.432 69.7854 256.724 69.7854 255.86C69.7854 254.996 69.5274 254.288 69.0114 253.736C68.4954 253.172 67.8354 252.89 67.0314 252.89C66.2034 252.89 65.5254 253.166 64.9974 253.718C64.4814 254.27 64.2234 254.984 64.2234 255.86C64.2234 256.724 64.4814 257.432 64.9974 257.984C65.5254 258.536 66.2034 258.812 67.0314 258.812ZM77.0182 260.216C75.6982 260.216 74.6482 259.802 73.8682 258.974C73.0882 258.134 72.6982 257.09 72.6982 255.842C72.6982 254.594 73.0882 253.556 73.8682 252.728C74.6482 251.9 75.6982 251.486 77.0182 251.486C78.3262 251.486 79.3702 251.906 80.1502 252.746C80.9422 253.574 81.3382 254.606 81.3382 255.842C81.3382 257.09 80.9422 258.134 80.1502 258.974C79.3702 259.802 78.3262 260.216 77.0182 260.216ZM74.9842 257.984C75.4882 258.536 76.1662 258.812 77.0182 258.812C77.8702 258.812 78.5422 258.536 79.0342 257.984C79.5262 257.42 79.7722 256.706 79.7722 255.842C79.7722 254.99 79.5262 254.288 79.0342 253.736C78.5422 253.172 77.8702 252.89 77.0182 252.89C76.1662 252.89 75.4882 253.172 74.9842 253.736C74.4922 254.288 74.2462 254.996 74.2462 255.86C74.2462 256.712 74.4922 257.42 74.9842 257.984ZM86.4261 260.216C85.4661 260.216 84.6981 259.928 84.1221 259.352C83.5581 258.764 83.2761 257.918 83.2761 256.814V251.702H84.8421V256.436C84.8421 258.056 85.5141 258.866 86.8581 258.866C87.6501 258.866 88.2381 258.614 88.6221 258.11C89.0181 257.594 89.2161 256.97 89.2161 256.238V251.702H90.7821V260H89.2161V258.488C88.9881 259.016 88.6281 259.436 88.1361 259.748C87.6561 260.06 87.0861 260.216 86.4261 260.216ZM93.4735 260V251.702H95.0395V253.592C95.1955 252.932 95.5015 252.434 95.9575 252.098C96.4135 251.75 96.9175 251.576 97.4695 251.576C97.7935 251.576 98.0455 251.6 98.2255 251.648V253.088C98.0455 253.052 97.7875 253.034 97.4515 253.034C96.6715 253.034 96.0715 253.346 95.6515 253.97C95.2435 254.594 95.0395 255.392 95.0395 256.364V260H93.4735ZM102.521 260.216C101.477 260.216 100.637 259.958 100.001 259.442C99.3773 258.914 99.0653 258.272 99.0653 257.516H100.613C100.613 257.936 100.793 258.284 101.153 258.56C101.513 258.824 101.993 258.956 102.593 258.956C103.061 258.956 103.433 258.848 103.709 258.632C103.985 258.416 104.123 258.122 104.123 257.75C104.123 257.162 103.853 256.802 103.313 256.67L101.099 256.094C99.9113 255.77 99.3173 255.026 99.3173 253.862C99.3173 253.178 99.6053 252.614 100.181 252.17C100.757 251.714 101.507 251.486 102.431 251.486C103.439 251.486 104.219 251.72 104.771 252.188C105.335 252.644 105.617 253.244 105.617 253.988H104.069C104.069 253.592 103.919 253.28 103.619 253.052C103.319 252.812 102.899 252.692 102.359 252.692C101.927 252.692 101.567 252.794 101.279 252.998C101.003 253.19 100.865 253.454 100.865 253.79C100.865 254.354 101.171 254.708 101.783 254.852L103.853 255.428C104.441 255.584 104.897 255.86 105.221 256.256C105.545 256.652 105.707 257.102 105.707 257.606C105.707 258.398 105.425 259.034 104.861 259.514C104.297 259.982 103.517 260.216 102.521 260.216ZM115.197 255.374C115.197 255.602 115.179 255.914 115.143 256.31H108.717C108.729 257.102 108.969 257.726 109.437 258.182C109.905 258.626 110.535 258.848 111.327 258.848C112.431 258.848 113.163 258.44 113.523 257.624H115.089C114.945 258.392 114.525 259.016 113.829 259.496C113.133 259.976 112.299 260.216 111.327 260.216C110.055 260.216 109.041 259.826 108.285 259.046C107.541 258.254 107.169 257.186 107.169 255.842C107.169 254.522 107.541 253.466 108.285 252.674C109.029 251.882 110.019 251.486 111.255 251.486C112.431 251.486 113.379 251.846 114.099 252.566C114.831 253.286 115.197 254.222 115.197 255.374ZM108.717 255.104H113.649C113.649 254.372 113.433 253.796 113.001 253.376C112.581 252.956 111.993 252.746 111.237 252.746C110.493 252.746 109.893 252.962 109.437 253.394C108.993 253.826 108.753 254.396 108.717 255.104ZM117.222 260V251.702H118.788V253.214C118.956 252.722 119.256 252.314 119.688 251.99C120.12 251.654 120.648 251.486 121.272 251.486C122.7 251.486 123.588 252.08 123.936 253.268C124.128 252.752 124.464 252.326 124.944 251.99C125.424 251.654 125.976 251.486 126.6 251.486C128.592 251.486 129.588 252.572 129.588 254.744V260H128.022V255.05C128.022 253.574 127.422 252.836 126.222 252.836C124.866 252.836 124.188 253.784 124.188 255.68V260H122.622V255.158C122.622 253.61 122.028 252.836 120.84 252.836C120.192 252.836 119.688 253.076 119.328 253.556C118.968 254.024 118.788 254.732 118.788 255.68V260H117.222ZM139.56 255.374C139.56 255.602 139.542 255.914 139.506 256.31H133.08C133.092 257.102 133.332 257.726 133.8 258.182C134.268 258.626 134.898 258.848 135.69 258.848C136.794 258.848 137.526 258.44 137.886 257.624H139.452C139.308 258.392 138.888 259.016 138.192 259.496C137.496 259.976 136.662 260.216 135.69 260.216C134.418 260.216 133.404 259.826 132.648 259.046C131.904 258.254 131.532 257.186 131.532 255.842C131.532 254.522 131.904 253.466 132.648 252.674C133.392 251.882 134.382 251.486 135.618 251.486C136.794 251.486 137.742 251.846 138.462 252.566C139.194 253.286 139.56 254.222 139.56 255.374ZM133.08 255.104H138.012C138.012 254.372 137.796 253.796 137.364 253.376C136.944 252.956 136.356 252.746 135.6 252.746C134.856 252.746 134.256 252.962 133.8 253.394C133.356 253.826 133.116 254.396 133.08 255.104ZM141.585 260V251.702H143.151V253.232C143.379 252.692 143.739 252.266 144.231 251.954C144.735 251.642 145.341 251.486 146.049 251.486C148.113 251.486 149.145 252.62 149.145 254.888V260H147.579V255.572C147.579 254.636 147.411 253.946 147.075 253.502C146.751 253.058 146.223 252.836 145.491 252.836C144.735 252.836 144.153 253.082 143.745 253.574C143.349 254.066 143.151 254.744 143.151 255.608V260H141.585ZM155.008 258.686C155.44 258.686 155.788 258.656 156.052 258.596V259.982C155.692 260.066 155.23 260.108 154.666 260.108C154.414 260.108 154.192 260.096 154 260.072C153.82 260.048 153.604 259.982 153.352 259.874C153.1 259.766 152.89 259.616 152.722 259.424C152.554 259.22 152.41 258.938 152.29 258.578C152.17 258.206 152.11 257.762 152.11 257.246V253.016H150.616V251.702H152.11V249.074H153.676V251.702H155.764V253.016H153.676V256.904C153.676 257.636 153.784 258.116 154 258.344C154.216 258.572 154.552 258.686 155.008 258.686ZM160.635 260.216C159.591 260.216 158.751 259.958 158.115 259.442C157.491 258.914 157.179 258.272 157.179 257.516H158.727C158.727 257.936 158.907 258.284 159.267 258.56C159.627 258.824 160.107 258.956 160.707 258.956C161.175 258.956 161.547 258.848 161.823 258.632C162.099 258.416 162.237 258.122 162.237 257.75C162.237 257.162 161.967 256.802 161.427 256.67L159.213 256.094C158.025 255.77 157.431 255.026 157.431 253.862C157.431 253.178 157.719 252.614 158.295 252.17C158.871 251.714 159.621 251.486 160.545 251.486C161.553 251.486 162.333 251.72 162.885 252.188C163.449 252.644 163.731 253.244 163.731 253.988H162.183C162.183 253.592 162.033 253.28 161.733 253.052C161.433 252.812 161.013 252.692 160.473 252.692C160.041 252.692 159.681 252.794 159.393 252.998C159.117 253.19 158.979 253.454 158.979 253.79C158.979 254.354 159.285 254.708 159.897 254.852L161.967 255.428C162.555 255.584 163.011 255.86 163.335 256.256C163.659 256.652 163.821 257.102 163.821 257.606C163.821 258.398 163.539 259.034 162.975 259.514C162.411 259.982 161.631 260.216 160.635 260.216ZM173.291 260.216C172.247 260.216 171.407 259.958 170.771 259.442C170.147 258.914 169.835 258.272 169.835 257.516H171.383C171.383 257.936 171.563 258.284 171.923 258.56C172.283 258.824 172.763 258.956 173.363 258.956C173.831 258.956 174.203 258.848 174.479 258.632C174.755 258.416 174.893 258.122 174.893 257.75C174.893 257.162 174.623 256.802 174.083 256.67L171.869 256.094C170.681 255.77 170.087 255.026 170.087 253.862C170.087 253.178 170.375 252.614 170.951 252.17C171.527 251.714 172.277 251.486 173.201 251.486C174.209 251.486 174.989 251.72 175.541 252.188C176.105 252.644 176.387 253.244 176.387 253.988H174.839C174.839 253.592 174.689 253.28 174.389 253.052C174.089 252.812 173.669 252.692 173.129 252.692C172.697 252.692 172.337 252.794 172.049 252.998C171.773 253.19 171.635 253.454 171.635 253.79C171.635 254.354 171.941 254.708 172.553 254.852L174.623 255.428C175.211 255.584 175.667 255.86 175.991 256.256C176.315 256.652 176.477 257.102 176.477 257.606C176.477 258.398 176.195 259.034 175.631 259.514C175.067 259.982 174.287 260.216 173.291 260.216ZM182.258 260.216C180.938 260.216 179.888 259.802 179.108 258.974C178.328 258.134 177.938 257.09 177.938 255.842C177.938 254.594 178.328 253.556 179.108 252.728C179.888 251.9 180.938 251.486 182.258 251.486C183.566 251.486 184.61 251.906 185.39 252.746C186.182 253.574 186.578 254.606 186.578 255.842C186.578 257.09 186.182 258.134 185.39 258.974C184.61 259.802 183.566 260.216 182.258 260.216ZM180.224 257.984C180.728 258.536 181.406 258.812 182.258 258.812C183.11 258.812 183.782 258.536 184.274 257.984C184.766 257.42 185.012 256.706 185.012 255.842C185.012 254.99 184.766 254.288 184.274 253.736C183.782 253.172 183.11 252.89 182.258 252.89C181.406 252.89 180.728 253.172 180.224 253.736C179.732 254.288 179.486 254.996 179.486 255.86C179.486 256.712 179.732 257.42 180.224 257.984ZM188.606 260V251.702H190.172V253.232C190.4 252.692 190.76 252.266 191.252 251.954C191.756 251.642 192.362 251.486 193.07 251.486C195.134 251.486 196.166 252.62 196.166 254.888V260H194.6V255.572C194.6 254.636 194.432 253.946 194.096 253.502C193.772 253.058 193.244 252.836 192.512 252.836C191.756 252.836 191.174 253.082 190.766 253.574C190.37 254.066 190.172 254.744 190.172 255.608V260H188.606ZM202.03 258.686C202.462 258.686 202.81 258.656 203.074 258.596V259.982C202.714 260.066 202.252 260.108 201.688 260.108C201.436 260.108 201.214 260.096 201.022 260.072C200.842 260.048 200.626 259.982 200.374 259.874C200.122 259.766 199.912 259.616 199.744 259.424C199.576 259.22 199.432 258.938 199.312 258.578C199.192 258.206 199.132 257.762 199.132 257.246V253.016H197.638V251.702H199.132V249.074H200.698V251.702H202.786V253.016H200.698V256.904C200.698 257.636 200.806 258.116 201.022 258.344C201.238 258.572 201.574 258.686 202.03 258.686ZM19.5942 285.216C18.3102 285.216 17.3022 284.808 16.5702 283.992C15.8502 283.176 15.4902 282.132 15.4902 280.86C15.4902 279.6 15.8622 278.556 16.6062 277.728C17.3622 276.9 18.3702 276.486 19.6302 276.486C20.2782 276.486 20.8602 276.636 21.3762 276.936C21.8922 277.236 22.2822 277.644 22.5462 278.16V276.702H24.0942V285H22.5462V283.542C22.2822 284.046 21.8802 284.454 21.3402 284.766C20.8002 285.066 20.2182 285.216 19.5942 285.216ZM19.8102 283.812C20.6862 283.812 21.3702 283.53 21.8622 282.966C22.3662 282.39 22.6182 281.688 22.6182 280.86C22.6182 280.02 22.3662 279.318 21.8622 278.754C21.3702 278.178 20.6862 277.89 19.8102 277.89C18.9702 277.89 18.2982 278.172 17.7942 278.736C17.2902 279.288 17.0382 279.996 17.0382 280.86C17.0382 281.724 17.2902 282.432 17.7942 282.984C18.2982 283.536 18.9702 283.812 19.8102 283.812ZM33.1629 272.4H34.7289V285H33.1809V283.542C32.9169 284.046 32.5149 284.454 31.9749 284.766C31.4349 285.066 30.8529 285.216 30.2289 285.216C28.9449 285.216 27.9369 284.808 27.2049 283.992C26.4849 283.176 26.1249 282.132 26.1249 280.86C26.1249 279.6 26.4969 278.556 27.2409 277.728C27.9969 276.9 29.0049 276.486 30.2649 276.486C30.9129 276.486 31.4949 276.636 32.0109 276.936C32.5269 277.236 32.9169 277.644 33.1809 278.16V277.296H33.1629V272.4ZM30.4449 283.812C31.3209 283.812 32.0049 283.53 32.4969 282.966C33.0009 282.39 33.2529 281.688 33.2529 280.86C33.2529 280.02 33.0009 279.318 32.4969 278.754C32.0049 278.178 31.3209 277.89 30.4449 277.89C29.6049 277.89 28.9329 278.172 28.4289 278.736C27.9249 279.288 27.6729 279.996 27.6729 280.86C27.6729 281.724 27.9249 282.432 28.4289 282.984C28.9329 283.536 29.6049 283.812 30.4449 283.812ZM40.8637 285.216C39.5797 285.216 38.5717 284.808 37.8397 283.992C37.1197 283.176 36.7597 282.132 36.7597 280.86C36.7597 279.6 37.1317 278.556 37.8757 277.728C38.6317 276.9 39.6397 276.486 40.8997 276.486C41.5477 276.486 42.1297 276.636 42.6457 276.936C43.1617 277.236 43.5517 277.644 43.8157 278.16V276.702H45.3637V285H43.8157V283.542C43.5517 284.046 43.1497 284.454 42.6097 284.766C42.0697 285.066 41.4877 285.216 40.8637 285.216ZM41.0797 283.812C41.9557 283.812 42.6397 283.53 43.1317 282.966C43.6357 282.39 43.8877 281.688 43.8877 280.86C43.8877 280.02 43.6357 279.318 43.1317 278.754C42.6397 278.178 41.9557 277.89 41.0797 277.89C40.2397 277.89 39.5677 278.172 39.0637 278.736C38.5597 279.288 38.3077 279.996 38.3077 280.86C38.3077 281.724 38.5597 282.432 39.0637 282.984C39.5677 283.536 40.2397 283.812 41.0797 283.812ZM52.6684 276.486C53.8564 276.486 54.8224 276.894 55.5664 277.71C56.3104 278.514 56.6824 279.564 56.6824 280.86C56.6824 282.132 56.2984 283.176 55.5304 283.992C54.7624 284.808 53.7784 285.216 52.5784 285.216C51.9424 285.216 51.3544 285.066 50.8144 284.766C50.2864 284.466 49.8904 284.058 49.6264 283.542V288.834H48.0604V276.702H49.6264V278.16C49.8904 277.644 50.2924 277.236 50.8324 276.936C51.3844 276.636 51.9964 276.486 52.6684 276.486ZM52.3624 283.812C53.1664 283.812 53.8264 283.536 54.3424 282.984C54.8584 282.432 55.1164 281.724 55.1164 280.86C55.1164 279.996 54.8584 279.288 54.3424 278.736C53.8264 278.172 53.1664 277.89 52.3624 277.89C51.5344 277.89 50.8564 278.166 50.3284 278.718C49.8124 279.27 49.5544 279.984 49.5544 280.86C49.5544 281.724 49.8124 282.432 50.3284 282.984C50.8564 283.536 51.5344 283.812 52.3624 283.812ZM62.0989 283.686C62.5309 283.686 62.8789 283.656 63.1429 283.596V284.982C62.7829 285.066 62.3209 285.108 61.7569 285.108C61.5049 285.108 61.2829 285.096 61.0909 285.072C60.9109 285.048 60.6949 284.982 60.4429 284.874C60.1909 284.766 59.9809 284.616 59.8129 284.424C59.6449 284.22 59.5009 283.938 59.3809 283.578C59.2609 283.206 59.2009 282.762 59.2009 282.246V278.016H57.7069V276.702H59.2009V274.074H60.7669V276.702H62.8549V278.016H60.7669V281.904C60.7669 282.636 60.8749 283.116 61.0909 283.344C61.3069 283.572 61.6429 283.686 62.0989 283.686ZM70.9474 273.786L66.0154 275.892L65.4934 274.668L70.4254 272.616L70.9474 273.786ZM72.2974 280.374C72.2974 280.602 72.2794 280.914 72.2434 281.31H65.8174C65.8294 282.102 66.0694 282.726 66.5374 283.182C67.0054 283.626 67.6354 283.848 68.4274 283.848C69.5314 283.848 70.2634 283.44 70.6234 282.624H72.1894C72.0454 283.392 71.6254 284.016 70.9294 284.496C70.2334 284.976 69.3994 285.216 68.4274 285.216C67.1554 285.216 66.1414 284.826 65.3854 284.046C64.6414 283.254 64.2694 282.186 64.2694 280.842C64.2694 279.522 64.6414 278.466 65.3854 277.674C66.1294 276.882 67.1194 276.486 68.3554 276.486C69.5314 276.486 70.4794 276.846 71.1994 277.566C71.9314 278.286 72.2974 279.222 72.2974 280.374ZM65.8174 280.104H70.7494C70.7494 279.372 70.5334 278.796 70.1014 278.376C69.6814 277.956 69.0934 277.746 68.3374 277.746C67.5934 277.746 66.9934 277.962 66.5374 278.394C66.0934 278.826 65.8534 279.396 65.8174 280.104ZM77.1122 285.216C76.0682 285.216 75.2282 284.958 74.5922 284.442C73.9682 283.914 73.6562 283.272 73.6562 282.516H75.2042C75.2042 282.936 75.3842 283.284 75.7442 283.56C76.1042 283.824 76.5842 283.956 77.1842 283.956C77.6522 283.956 78.0242 283.848 78.3002 283.632C78.5762 283.416 78.7142 283.122 78.7142 282.75C78.7142 282.162 78.4442 281.802 77.9042 281.67L75.6902 281.094C74.5022 280.77 73.9082 280.026 73.9082 278.862C73.9082 278.178 74.1962 277.614 74.7722 277.17C75.3482 276.714 76.0982 276.486 77.0222 276.486C78.0302 276.486 78.8102 276.72 79.3622 277.188C79.9262 277.644 80.2082 278.244 80.2082 278.988H78.6602C78.6602 278.592 78.5102 278.28 78.2102 278.052C77.9102 277.812 77.4902 277.692 76.9502 277.692C76.5182 277.692 76.1582 277.794 75.8702 277.998C75.5942 278.19 75.4562 278.454 75.4562 278.79C75.4562 279.354 75.7622 279.708 76.3742 279.852L78.4442 280.428C79.0322 280.584 79.4882 280.86 79.8122 281.256C80.1362 281.652 80.2982 282.102 80.2982 282.606C80.2982 283.398 80.0162 284.034 79.4522 284.514C78.8882 284.982 78.1082 285.216 77.1122 285.216ZM92.7564 275.91L87.8244 273.804L88.3464 272.634L93.2784 274.686L92.7564 275.91ZM90.4164 285.216C89.1324 285.216 88.1244 284.808 87.3924 283.992C86.6724 283.176 86.3124 282.132 86.3124 280.86C86.3124 279.6 86.6844 278.556 87.4284 277.728C88.1844 276.9 89.1924 276.486 90.4524 276.486C91.1004 276.486 91.6824 276.636 92.1984 276.936C92.7144 277.236 93.1044 277.644 93.3684 278.16V276.702H94.9164V285H93.3684V283.542C93.1044 284.046 92.7024 284.454 92.1624 284.766C91.6224 285.066 91.0404 285.216 90.4164 285.216ZM90.6324 283.812C91.5084 283.812 92.1924 283.53 92.6844 282.966C93.1884 282.39 93.4404 281.688 93.4404 280.86C93.4404 280.02 93.1884 279.318 92.6844 278.754C92.1924 278.178 91.5084 277.89 90.6324 277.89C89.7924 277.89 89.1204 278.172 88.6164 278.736C88.1124 279.288 87.8604 279.996 87.8604 280.86C87.8604 281.724 88.1124 282.432 88.6164 282.984C89.1204 283.536 89.7924 283.812 90.6324 283.812ZM104.524 285L100.87 276.702H102.544L105.154 282.912L107.782 276.702H109.456L105.802 285H104.524ZM114.17 285.216C112.85 285.216 111.8 284.802 111.02 283.974C110.24 283.134 109.85 282.09 109.85 280.842C109.85 279.594 110.24 278.556 111.02 277.728C111.8 276.9 112.85 276.486 114.17 276.486C115.478 276.486 116.522 276.906 117.302 277.746C118.094 278.574 118.49 279.606 118.49 280.842C118.49 282.09 118.094 283.134 117.302 283.974C116.522 284.802 115.478 285.216 114.17 285.216ZM112.136 282.984C112.64 283.536 113.318 283.812 114.17 283.812C115.022 283.812 115.694 283.536 116.186 282.984C116.678 282.42 116.924 281.706 116.924 280.842C116.924 279.99 116.678 279.288 116.186 278.736C115.694 278.172 115.022 277.89 114.17 277.89C113.318 277.89 112.64 278.172 112.136 278.736C111.644 279.288 111.398 279.996 111.398 280.86C111.398 281.712 111.644 282.42 112.136 282.984ZM123.307 285.216C122.263 285.216 121.423 284.958 120.787 284.442C120.163 283.914 119.851 283.272 119.851 282.516H121.399C121.399 282.936 121.579 283.284 121.939 283.56C122.299 283.824 122.779 283.956 123.379 283.956C123.847 283.956 124.219 283.848 124.495 283.632C124.771 283.416 124.909 283.122 124.909 282.75C124.909 282.162 124.639 281.802 124.099 281.67L121.885 281.094C120.697 280.77 120.103 280.026 120.103 278.862C120.103 278.178 120.391 277.614 120.967 277.17C121.543 276.714 122.293 276.486 123.217 276.486C124.225 276.486 125.005 276.72 125.557 277.188C126.121 277.644 126.403 278.244 126.403 278.988H124.855C124.855 278.592 124.705 278.28 124.405 278.052C124.105 277.812 123.685 277.692 123.145 277.692C122.713 277.692 122.353 277.794 122.065 277.998C121.789 278.19 121.651 278.454 121.651 278.79C121.651 279.354 121.957 279.708 122.569 279.852L124.639 280.428C125.227 280.584 125.683 280.86 126.007 281.256C126.331 281.652 126.493 282.102 126.493 282.606C126.493 283.398 126.211 284.034 125.647 284.514C125.083 284.982 124.303 285.216 123.307 285.216ZM133.174 285V276.702H134.74V278.592C134.896 277.932 135.202 277.434 135.658 277.098C136.114 276.75 136.618 276.576 137.17 276.576C137.494 276.576 137.746 276.6 137.926 276.648V278.088C137.746 278.052 137.488 278.034 137.152 278.034C136.372 278.034 135.772 278.346 135.352 278.97C134.944 279.594 134.74 280.392 134.74 281.364V285H133.174ZM146.794 280.374C146.794 280.602 146.776 280.914 146.74 281.31H140.314C140.326 282.102 140.566 282.726 141.034 283.182C141.502 283.626 142.132 283.848 142.924 283.848C144.028 283.848 144.76 283.44 145.12 282.624H146.686C146.542 283.392 146.122 284.016 145.426 284.496C144.73 284.976 143.896 285.216 142.924 285.216C141.652 285.216 140.638 284.826 139.882 284.046C139.138 283.254 138.766 282.186 138.766 280.842C138.766 279.522 139.138 278.466 139.882 277.674C140.626 276.882 141.616 276.486 142.852 276.486C144.028 276.486 144.976 276.846 145.696 277.566C146.428 278.286 146.794 279.222 146.794 280.374ZM140.314 280.104H145.246C145.246 279.372 145.03 278.796 144.598 278.376C144.178 277.956 143.59 277.746 142.834 277.746C142.09 277.746 141.49 277.962 141.034 278.394C140.59 278.826 140.35 279.396 140.314 280.104ZM150.842 285L147.188 276.702H148.862L151.472 282.912L154.1 276.702H155.774L152.12 285H150.842ZM164.196 280.374C164.196 280.602 164.178 280.914 164.142 281.31H157.716C157.728 282.102 157.968 282.726 158.436 283.182C158.904 283.626 159.534 283.848 160.326 283.848C161.43 283.848 162.162 283.44 162.522 282.624H164.088C163.944 283.392 163.524 284.016 162.828 284.496C162.132 284.976 161.298 285.216 160.326 285.216C159.054 285.216 158.04 284.826 157.284 284.046C156.54 283.254 156.168 282.186 156.168 280.842C156.168 279.522 156.54 278.466 157.284 277.674C158.028 276.882 159.018 276.486 160.254 276.486C161.43 276.486 162.378 276.846 163.098 277.566C163.83 278.286 164.196 279.222 164.196 280.374ZM157.716 280.104H162.648C162.648 279.372 162.432 278.796 162 278.376C161.58 277.956 160.992 277.746 160.236 277.746C159.492 277.746 158.892 277.962 158.436 278.394C157.992 278.826 157.752 279.396 157.716 280.104ZM166.221 285V276.702H167.787V278.232C168.015 277.692 168.375 277.266 168.867 276.954C169.371 276.642 169.977 276.486 170.685 276.486C172.749 276.486 173.781 277.62 173.781 279.888V285H172.215V280.572C172.215 279.636 172.047 278.946 171.711 278.502C171.387 278.058 170.859 277.836 170.127 277.836C169.371 277.836 168.789 278.082 168.381 278.574C167.985 279.066 167.787 279.744 167.787 280.608V285H166.221ZM179.458 285.216C178.498 285.216 177.73 284.928 177.154 284.352C176.59 283.764 176.308 282.918 176.308 281.814V276.702H177.874V281.436C177.874 283.056 178.546 283.866 179.89 283.866C180.682 283.866 181.27 283.614 181.654 283.11C182.05 282.594 182.248 281.97 182.248 281.238V276.702H183.814V285H182.248V283.488C182.02 284.016 181.66 284.436 181.168 284.748C180.688 285.06 180.118 285.216 179.458 285.216ZM189.296 285.216C188.252 285.216 187.412 284.958 186.776 284.442C186.152 283.914 185.84 283.272 185.84 282.516H187.388C187.388 282.936 187.568 283.284 187.928 283.56C188.288 283.824 188.768 283.956 189.368 283.956C189.836 283.956 190.208 283.848 190.484 283.632C190.76 283.416 190.898 283.122 190.898 282.75C190.898 282.162 190.628 281.802 190.088 281.67L187.874 281.094C186.686 280.77 186.092 280.026 186.092 278.862C186.092 278.178 186.38 277.614 186.956 277.17C187.532 276.714 188.282 276.486 189.206 276.486C190.214 276.486 190.994 276.72 191.546 277.188C192.11 277.644 192.392 278.244 192.392 278.988H190.844C190.844 278.592 190.694 278.28 190.394 278.052C190.094 277.812 189.674 277.692 189.134 277.692C188.702 277.692 188.342 277.794 188.054 277.998C187.778 278.19 187.64 278.454 187.64 278.79C187.64 279.354 187.946 279.708 188.558 279.852L190.628 280.428C191.216 280.584 191.672 280.86 191.996 281.256C192.32 281.652 192.482 282.102 192.482 282.606C192.482 283.398 192.2 284.034 191.636 284.514C191.072 284.982 190.292 285.216 189.296 285.216Z" fill="#545454"/>
<path d="M35.9399 71.39L58.2599 67.21L62.5199 71.39L89.6499 67.21L94.4699 71.39L120.5 67L126.25 71.18L153.33 67.21V129.2L127.32 135.97L121.42 132.75L94.6399 137.79L88.9999 133.23L60.5599 137.79L55.7299 132.42L35.9399 136.45V71.39Z" fill="#101010"/>
<path d="M35.8699 71.32C42.5899 70.02 51.5499 67.95 58.1699 66.7C58.2521 66.6837 58.3372 66.688 58.4174 66.7124C58.4976 66.7368 58.5706 66.7806 58.6299 66.84L62.9399 70.97L62.4399 70.81L75.9699 68.56L89.5199 66.4C89.6355 66.3842 89.7531 66.393 89.8651 66.4257C89.9771 66.4584 90.081 66.5144 90.1699 66.59C90.1699 66.59 95.0099 70.75 95.0199 70.75L94.3299 70.56C100.8 69.43 113.87 67.2 120.33 66.17C120.441 66.1513 120.555 66.1549 120.665 66.1806C120.775 66.2064 120.878 66.2538 120.97 66.32L126.73 70.56L126.13 70.41L153.28 66.76C153.347 66.7513 153.416 66.7573 153.481 66.7776C153.546 66.798 153.605 66.8321 153.656 66.8778C153.706 66.9234 153.746 66.9794 153.772 67.0419C153.799 67.1045 153.812 67.1721 153.81 67.24C153.73 72.4 153.71 77.57 153.69 82.74C153.69 91.74 153.6 104.64 153.69 113.74L153.84 129.24C153.838 129.356 153.799 129.467 153.729 129.559C153.659 129.651 153.561 129.718 153.45 129.75L127.51 136.75C127.412 136.779 127.309 136.788 127.208 136.776C127.106 136.764 127.008 136.731 126.92 136.68L121.01 133.56L121.58 133.65L94.8699 138.76C94.7284 138.787 94.5828 138.783 94.443 138.749C94.3032 138.714 94.1725 138.65 94.0599 138.56L88.4099 134.02L89.2199 134.24C84.4799 135.02 79.7399 135.81 74.9999 136.55L60.7199 138.8C60.5495 138.83 60.3743 138.816 60.2113 138.758C60.0483 138.7 59.9031 138.601 59.7899 138.47L54.9699 133.1L55.9699 133.42C49.3699 134.753 42.7665 136.063 36.1599 137.35C36.0251 137.378 35.8856 137.376 35.7517 137.344C35.6179 137.311 35.4931 137.249 35.3865 137.161C35.28 137.074 35.1944 136.964 35.1361 136.839C35.0779 136.714 35.0484 136.578 35.0499 136.44C35.0499 117.5 35.6599 90.5 35.8999 71.32H35.8699ZM36.0199 71.45C36.4499 90.54 36.6899 117.66 36.8699 136.45L35.7499 135.56C42.3432 134.147 48.9365 132.777 55.5299 131.45C55.7089 131.404 55.8971 131.409 56.0737 131.464C56.2502 131.518 56.4081 131.621 56.5299 131.76L61.3699 137.12L60.4399 136.79L74.6599 134.49C79.3999 133.71 84.1499 132.97 88.8899 132.24C89.032 132.214 89.1781 132.22 89.3179 132.256C89.4577 132.292 89.588 132.359 89.6999 132.45L95.3099 137.03L94.4999 136.83L121.32 131.93C121.511 131.892 121.71 131.924 121.88 132.02L127.76 135.29L127.17 135.21L153.25 128.71L152.86 129.23L153.01 113.73C153.01 98.73 153.14 82.17 152.91 67.23L153.45 67.7L126.45 72.01C126.246 72.0368 126.039 71.9869 125.87 71.87L120.08 67.71L120.72 67.86L107.72 70.1L94.7199 72.24C94.5972 72.2598 94.4717 72.2521 94.3524 72.2175C94.2331 72.1829 94.1229 72.1223 94.0299 72.04L89.2299 67.84L89.8799 68.03L76.3099 70.03L62.6099 71.97C62.519 71.9825 62.4266 71.9736 62.3398 71.9441C62.253 71.9146 62.1743 71.8652 62.1099 71.8L57.8699 67.56L58.3199 67.7C51.8699 68.79 42.5899 70.39 36.0099 71.45H36.0199Z" fill="#101010"/>
<path d="M37.4512 75.6584C41.6622 75.0466 45.9206 74.8235 50.1725 74.992C52.2936 75.1113 54.4146 75.4017 56.5357 75.4562C59.7174 75.5728 62.9016 75.228 66.0754 75.0205C70.315 74.8261 74.5597 74.6731 78.7993 74.8701C81.9654 75.0076 85.1937 75.2098 88.3416 75.648V75.8296C80.9619 76.833 73.4992 76.8538 66.0754 76.4674C62.9016 76.2626 59.7174 75.9177 56.5357 76.0318C54.4146 76.0863 52.2936 76.3793 50.1725 76.496C46.9892 76.6153 43.8015 76.5243 40.6302 76.2237C39.5697 76.1277 38.5117 76.0085 37.4512 75.8296V75.648V75.6584Z" fill="white"/>
<path d="M37.4512 84.58C41.6622 83.9682 45.9206 83.7451 50.1725 83.9136C52.2936 84.0329 54.4146 84.3233 56.5357 84.3778C59.7174 84.4945 62.9016 84.1496 66.0754 83.9422C70.315 83.7477 74.5597 83.5947 78.7993 83.7918C81.9654 83.9292 85.1937 84.1315 88.3416 84.5697V84.7512C80.9619 85.7547 73.4992 85.7754 66.0754 85.3891C62.9016 85.1842 59.7174 84.8393 56.5357 84.9534C54.4146 85.0079 52.2936 85.3009 50.1725 85.4176C46.9892 85.5369 43.8015 85.4459 40.6302 85.1453C39.5697 85.0494 38.5117 84.9301 37.4512 84.7512V84.5697V84.58Z" fill="white"/>
<path d="M37.4512 93.5018C41.6622 92.8899 45.9206 92.6669 50.1725 92.8354C52.2936 92.9547 54.4146 93.2451 56.5357 93.2995C59.7174 93.4162 62.9016 93.0714 66.0754 92.8639C70.315 92.6694 74.5597 92.5165 78.7993 92.7135C81.9654 92.851 85.1937 93.0532 88.3416 93.4914V93.6729C80.9619 94.6764 73.4992 94.6972 66.0754 94.3108C62.9016 94.106 59.7174 93.7611 56.5357 93.8752C54.4146 93.9296 52.2936 94.2227 50.1725 94.3393C46.9892 94.4587 43.8015 94.3677 40.6302 94.0671C39.5697 93.9711 38.5117 93.8519 37.4512 93.6729V93.4914V93.5018Z" fill="white"/>
<path d="M37.4512 102.424C41.6622 101.812 45.9206 101.589 50.1725 101.757C52.2936 101.876 54.4146 102.167 56.5357 102.221C59.7174 102.338 62.9016 101.993 66.0754 101.786C70.315 101.591 74.5597 101.438 78.7993 101.635C81.9654 101.773 85.1937 101.975 88.3416 102.413V102.595C80.9619 103.598 73.4992 103.619 66.0754 103.233C62.9016 103.028 59.7174 102.683 56.5357 102.797C54.4146 102.851 52.2936 103.144 50.1725 103.261C46.9892 103.38 43.8015 103.289 40.6302 102.989C39.5697 102.893 38.5117 102.774 37.4512 102.595V102.413V102.424Z" fill="white"/>
<path d="M37.4512 111.345C41.6622 110.733 45.9206 110.51 50.1725 110.679C52.2936 110.798 54.4146 111.088 56.5357 111.143C59.7174 111.26 62.9016 110.915 66.0754 110.707C70.315 110.513 74.5597 110.36 78.7993 110.557C81.9654 110.694 85.1937 110.897 88.3416 111.335V111.516C80.9619 112.52 73.4992 112.541 66.0754 112.154C62.9016 111.949 59.7174 111.604 56.5357 111.719C54.4146 111.773 52.2936 112.066 50.1725 112.183C46.9892 112.302 43.8015 112.211 40.6302 111.91C39.5697 111.815 38.5117 111.695 37.4512 111.516V111.335V111.345Z" fill="white"/>
<path d="M37.4512 120.267C41.6622 119.655 45.9206 119.432 50.1725 119.6C52.2936 119.72 54.4146 120.01 56.5357 120.065C59.7174 120.181 62.9016 119.836 66.0754 119.629C70.315 119.434 74.5597 119.281 78.7993 119.479C81.9654 119.616 85.1937 119.818 88.3416 120.256V120.438C80.9619 121.441 73.4992 121.462 66.0754 121.076C62.9016 120.871 59.7174 120.526 56.5357 120.64C54.4146 120.695 52.2936 120.988 50.1725 121.104C46.9892 121.224 43.8015 121.133 40.6302 120.832C39.5697 120.736 38.5117 120.617 37.4512 120.438V120.256V120.267Z" fill="white"/>
<path d="M37.4512 129.189C38.2481 128.577 39.0539 128.354 39.8586 128.522C40.26 128.641 40.6614 128.932 41.0628 128.986C41.6649 129.103 42.2675 128.758 42.8681 128.551C43.6704 128.356 44.4737 128.203 45.276 128.4C45.8752 128.538 46.4861 128.74 47.0818 129.178V129.36C45.6852 130.363 44.273 130.384 42.8681 129.998C42.2675 129.793 41.6649 129.448 41.0628 129.562C40.6614 129.616 40.26 129.909 39.8586 130.026C39.2562 130.145 38.6529 130.054 38.0528 129.754C37.8521 129.658 37.6519 129.539 37.4512 129.36V129.178V129.189Z" fill="white"/>
<path d="M41.6699 66.61L63.9899 62.43L68.2499 66.61L95.3799 62.43L100.2 66.61L126.23 62.23L131.98 66.41L159.06 62.43V124.43L133.05 131.2L127.15 127.98L100.36 133.01L94.7299 128.45L66.2799 133.01L61.4599 127.65L41.6699 131.67V66.61Z" fill="white"/>
<path d="M41.5898 66.56C48.2998 65.25 57.2698 63.19 63.8898 61.93C63.972 61.917 64.0562 61.9228 64.1359 61.9471C64.2156 61.9713 64.2887 62.0133 64.3498 62.07L68.6598 66.2L68.1598 66.04L81.6998 63.8L95.2498 61.64C95.3647 61.6222 95.4821 61.629 95.5941 61.6601C95.7062 61.6911 95.8104 61.7456 95.8998 61.82L100.75 65.99L100.06 65.79C106.53 64.66 119.6 62.44 126.06 61.4C126.171 61.3812 126.285 61.3849 126.395 61.4106C126.505 61.4364 126.608 61.4837 126.7 61.55L132.43 65.76L131.87 65.56L159.02 61.92C159.086 61.9114 159.154 61.9172 159.218 61.9369C159.282 61.9567 159.341 61.99 159.392 62.0345C159.442 62.079 159.482 62.1338 159.509 62.1951C159.536 62.2564 159.55 62.3229 159.55 62.39C159.47 67.56 159.45 72.73 159.43 77.89C159.43 86.89 159.34 99.8 159.43 108.89L159.58 124.39C159.581 124.506 159.544 124.62 159.473 124.712C159.402 124.805 159.302 124.871 159.19 124.9L133.19 131.9C132.993 131.95 132.785 131.921 132.61 131.82L126.68 128.65L127.25 128.74L100.55 133.99C100.408 134.016 100.262 134.01 100.122 133.974C99.9819 133.938 99.8516 133.871 99.7398 133.78L94.0898 129.25L94.8898 129.46C90.1598 130.25 85.4198 131.03 80.6698 131.77L66.4498 134.03C66.2794 134.06 66.1042 134.046 65.9412 133.988C65.7782 133.93 65.633 133.831 65.5198 133.7L60.6998 128.33L61.6998 128.65C55.0731 129.99 48.4631 131.293 41.8698 132.56C41.7352 132.587 41.5964 132.583 41.4633 132.55C41.3303 132.516 41.2062 132.454 41.1001 132.367C40.9941 132.28 40.9085 132.17 40.8497 132.047C40.7908 131.923 40.7601 131.787 40.7598 131.65C40.7598 112.71 41.3698 85.71 41.6098 66.53L41.5898 66.56ZM41.7398 66.69C42.1698 85.78 42.4098 112.9 42.5898 131.69L41.4798 130.79C48.0731 129.383 54.6631 128.01 61.2498 126.67C61.4297 126.625 61.6186 126.632 61.7951 126.688C61.9717 126.745 62.1291 126.849 62.2498 126.99L67.0898 132.34L66.1598 132.02L80.3798 129.71C85.1198 128.93 89.8698 128.2 94.6098 127.46C94.7527 127.436 94.8991 127.443 95.039 127.481C95.1788 127.519 95.3088 127.587 95.4198 127.68L101.03 132.26L100.22 132.06L127.03 127.16C127.224 127.123 127.426 127.154 127.6 127.25L133.48 130.51L132.89 130.44L158.97 123.94L158.57 124.45L158.73 108.95C158.73 93.95 158.85 77.4 158.62 62.45L159.17 62.93L132.17 67.23C132.067 67.2484 131.962 67.2455 131.86 67.2214C131.759 67.1973 131.663 67.1526 131.58 67.09C131.58 67.09 125.81 62.94 125.8 62.93L126.44 63.08L113.44 65.32L100.44 67.46C100.318 67.4841 100.192 67.4794 100.072 67.4464C99.9526 67.4135 99.8421 67.353 99.7498 67.27L94.8698 63.04L95.5298 63.23L81.9598 65.23L68.3398 67.19C68.2498 67.2029 68.158 67.1953 68.0713 67.1676C67.9847 67.1398 67.9055 67.0928 67.8398 67.03L63.6298 62.8L64.0798 62.94C57.6098 64.01 48.3198 65.62 41.7398 66.68V66.69Z" fill="#101010"/>
<path d="M64.0901 62.4299C65.2201 68.1399 64.9001 73.9099 64.3101 79.6499C64.3101 85.3899 65.2301 91.1099 65.0501 96.8599C64.9908 100.706 64.6566 104.542 64.0501 108.34H63.8701C62.9817 102.649 62.7001 96.8802 63.0301 91.1299C63.0301 87.2999 63.8101 83.4799 63.6401 79.6499C63.4701 75.8199 62.8201 72.0099 63.1901 68.1699C63.2889 66.2436 63.5161 64.326 63.8701 62.4299H64.0901Z" fill="#101010"/>
<path d="M66.1801 133.01C65.0501 126.01 65.3701 118.93 65.9601 111.9C65.9601 104.9 65.0401 97.83 65.2201 90.78C65.2794 86.0712 65.6133 81.3698 66.2201 76.7H66.4201C67.3092 83.7025 67.5903 90.7689 67.2601 97.82C67.2101 102.51 66.4801 107.2 66.6501 111.9C66.8201 116.6 67.4701 121.27 67.1001 125.97C67.0014 128.314 66.7744 130.651 66.4201 132.97L66.1801 133.01Z" fill="#101010"/>
<path d="M95.2804 108.34C95.0504 102.62 94.7004 91.1101 94.5804 85.3401C94.0909 77.6684 94.3253 69.9678 95.2804 62.3401H95.4804C96.4255 69.9685 96.6598 77.6683 96.1804 85.3401C96.0504 91.0601 95.7004 102.58 95.4804 108.34H95.2804Z" fill="#101010"/>
<path d="M126.23 62.23C127.603 77.1986 127.603 92.2614 126.23 107.23C124.858 92.2614 124.858 77.1986 126.23 62.23Z" fill="#101010"/>
<path d="M133.05 131.2C131.675 115.296 131.675 99.3037 133.05 83.4C134.425 99.3037 134.425 115.296 133.05 131.2Z" fill="#101010"/>
<path d="M100.26 133.01C99.6137 131.59 99.3714 130.019 99.5602 128.47C99.6902 127.72 100.02 126.97 100.08 126.21C100.15 123.94 99.1802 121.7 99.3802 119.41C99.4473 117.853 99.7857 116.32 100.38 114.88H100.58C101.446 117.035 101.726 119.382 101.39 121.68C101.31 123.19 100.59 124.68 100.74 126.21C100.89 127.74 101.55 129.21 101.17 130.75C101.052 131.534 100.816 132.296 100.47 133.01H100.26Z" fill="#101010"/>
<path d="M95.38 82.0701C95.38 82.0701 75.97 85.1701 76.17 97.6201C76.37 110.07 95.38 112.68 95.38 112.68L100.38 117.11C100.38 117.11 122.81 119.24 123.68 103.62C123.68 103.62 124.68 87.9101 100.68 88.3101L95.38 82.0701Z" fill="#101010" stroke="#101010" stroke-width="2" stroke-linecap="round" stroke-linejoin="round"/>
<path d="M103.98 95.37C104.018 94.8939 103.981 94.4147 103.87 93.95C103.72 93.6365 103.475 93.3781 103.17 93.2112C102.865 93.0444 102.515 92.9775 102.17 93.02C100.98 93.2 100.7 93.27 100.7 93.27C99.19 91.78 97.87 90.56 97.15 91.5C96.7864 92.0192 96.6134 92.648 96.66 93.28C96.61 94.39 96.43 97.78 96.43 97.78C96.43 97.78 96.21 99.32 96.93 99.93C97.65 100.54 99.73 101.99 100.51 102.54L102.27 102.17C102.27 102.17 103.51 101.94 103.51 103.46C103.51 104.07 103.37 108.54 103.34 109.67C103.34 110.53 102.41 110.81 100.65 111.17C100.561 111.164 100.473 111.144 100.39 111.11C100.164 111.018 99.9492 110.901 99.75 110.76C98.75 110.06 97.46 109.05 96.62 108.4C96.3548 108.192 96.1404 107.926 95.9931 107.623C95.8458 107.32 95.7695 106.987 95.77 106.65V104.11" stroke="white" stroke-width="2" stroke-miterlimit="10"/>
<path d="M100.022 91.225C100.483 92.6376 100.635 94.1375 100.463 95.6226L100.46 95.6474L100.46 95.6723L100.37 101.432L100.37 101.433L100.29 107.183H100.29V107.19V109.992C100.127 110.501 99.9661 110.988 99.7988 111.468C99.7452 111.309 99.6923 111.15 99.6391 110.989C99.527 110.652 99.4136 110.31 99.29 109.955V107.174L99.37 101.418L99.37 101.417L99.46 95.658L99.4604 95.6326L99.4582 95.6073C99.3302 94.1184 99.5245 92.6242 100.022 91.225Z" fill="white" stroke="white"/>
<path d="M24.1602 47.6101C23.184 48.5253 22.0748 49.2873 20.8702 49.8701C19.8884 50.0741 19.0021 50.5982 18.3502 51.3601C17.6238 52.8035 17.0022 54.2974 16.4902 55.8301C15.982 57.0735 15.3872 58.2798 14.7102 59.4401C14.6882 59.4597 14.6597 59.4706 14.6302 59.4706C14.6007 59.4706 14.5722 59.4597 14.5502 59.4401C14.1754 58.3888 14.0651 57.2615 14.229 56.1576C14.393 55.0536 14.8261 54.007 15.4902 53.1101C16.2402 51.8601 17.6902 51.2001 18.6102 50.1101C19.5302 49.0201 20.3202 47.8001 21.8702 47.4801C22.5928 47.2697 23.3573 47.249 24.0902 47.4201C24.1068 47.4297 24.1206 47.4436 24.1301 47.4603C24.1397 47.477 24.1447 47.4958 24.1447 47.5151C24.1447 47.5343 24.1397 47.5532 24.1301 47.5698C24.1206 47.5865 24.1068 47.6004 24.0902 47.6101H24.1602Z" fill="#101010"/>
<path d="M19.3801 41.5601C14.8431 44.0358 11.1278 47.7825 8.69012 52.3401C8.05012 53.3701 7.52012 54.5601 6.87012 55.5601C7.05012 48.8601 12.3701 41.8401 19.3801 41.5601Z" fill="#101010"/>
<path d="M172.61 141.8C173.579 140.895 174.677 140.14 175.87 139.56C176.861 139.366 177.757 138.841 178.41 138.07C179.15 136.618 179.776 135.11 180.28 133.56C180.792 132.315 181.387 131.106 182.06 129.94C182.07 129.929 182.082 129.92 182.096 129.915C182.11 129.909 182.125 129.906 182.14 129.906C182.155 129.906 182.17 129.909 182.183 129.915C182.197 129.92 182.209 129.929 182.22 129.94C182.596 130.991 182.708 132.119 182.544 133.223C182.38 134.327 181.945 135.374 181.28 136.27C180.53 137.52 179.09 138.17 178.17 139.27C177.25 140.37 176.45 141.65 174.87 141.96C174.147 142.17 173.383 142.191 172.65 142.02C172.633 142.01 172.619 141.996 172.61 141.98C172.6 141.963 172.595 141.944 172.595 141.925C172.595 141.906 172.6 141.887 172.61 141.87C172.619 141.854 172.633 141.84 172.65 141.83L172.61 141.8Z" fill="#101010"/>
<path d="M177.4 147.85C181.932 145.371 185.643 141.625 188.08 137.07C188.72 136.07 189.25 134.9 189.9 133.86C189.73 140.55 184.4 147.57 177.4 147.86V147.85Z" fill="#101010"/>
</svg>
