<svg width="194" height="194" viewBox="0 0 194 194" fill="none" xmlns="http://www.w3.org/2000/svg">
<path d="M146.02 55.7957H36.8503C33.9453 55.7957 31.5903 58.1506 31.5903 61.0557V132.916C31.5903 135.821 33.9453 138.176 36.8503 138.176H146.02C148.925 138.176 151.28 135.821 151.28 132.916V61.0557C151.28 58.1506 148.925 55.7957 146.02 55.7957Z" fill="#101010"/>
<path d="M33.5117 67.1557C43.3394 66.5439 53.2777 66.3208 63.2008 66.4893C68.1511 66.6086 73.1013 66.899 78.0515 66.9535C85.4768 67.0702 92.9081 66.7253 100.315 66.5179C110.21 66.3234 120.116 66.1704 130.01 66.3675C137.399 66.5049 144.934 66.7071 152.28 67.1454V67.3269C135.057 68.3304 117.641 68.3511 100.315 67.9647C92.9081 67.7599 85.4768 67.415 78.0515 67.5291C73.1013 67.5836 68.1511 67.8766 63.2008 67.9933C55.7717 68.1126 48.3322 68.0216 40.931 67.721C38.4559 67.6251 35.9868 67.5058 33.5117 67.3269V67.1454V67.1557Z" fill="white"/>
<path d="M33.5117 79.1557C43.3394 78.5439 53.2777 78.3208 63.2008 78.4893C68.1511 78.6086 73.1013 78.899 78.0515 78.9535C85.4768 79.0702 92.9081 78.7253 100.315 78.5179C110.21 78.3234 120.116 78.1704 130.01 78.3675C137.399 78.5049 144.934 78.7071 152.28 79.1454V79.3269C135.057 80.3304 117.641 80.3511 100.315 79.9647C92.9081 79.7599 85.4768 79.415 78.0515 79.5291C73.1013 79.5836 68.1511 79.8766 63.2008 79.9933C55.7717 80.1126 48.3322 80.0216 40.931 79.721C38.4559 79.6251 35.9868 79.5058 33.5117 79.3269V79.1454V79.1557Z" fill="white"/>
<path d="M33.5117 91.1557C43.3394 90.5439 53.2777 90.3208 63.2008 90.4893C68.1511 90.6086 73.1013 90.899 78.0515 90.9535C85.4768 91.0702 92.9081 90.7253 100.315 90.5179C110.21 90.3234 120.116 90.1704 130.01 90.3675C137.399 90.5049 144.934 90.7071 152.28 91.1454V91.3269C135.057 92.3304 117.641 92.3511 100.315 91.9647C92.9081 91.7599 85.4768 91.415 78.0515 91.5291C73.1013 91.5836 68.1511 91.8766 63.2008 91.9933C55.7717 92.1126 48.3322 92.0216 40.931 91.721C38.4559 91.6251 35.9868 91.5058 33.5117 91.3269V91.1454V91.1557Z" fill="white"/>
<path d="M33.5117 103.156C43.3394 102.544 53.2777 102.321 63.2008 102.489C68.1511 102.609 73.1013 102.899 78.0515 102.953C85.4768 103.07 92.9081 102.725 100.315 102.518C110.21 102.323 120.116 102.17 130.01 102.367C137.399 102.505 144.934 102.707 152.28 103.145V103.327C135.057 104.33 117.641 104.351 100.315 103.965C92.9081 103.76 85.4768 103.415 78.0515 103.529C73.1013 103.584 68.1511 103.877 63.2008 103.993C55.7717 104.113 48.3322 104.022 40.931 103.721C38.4559 103.625 35.9868 103.506 33.5117 103.327V103.145V103.156Z" fill="white"/>
<path d="M33.5117 115.156C43.3394 114.544 53.2777 114.321 63.2008 114.489C68.1511 114.609 73.1013 114.899 78.0515 114.953C85.4768 115.07 92.9081 114.725 100.315 114.518C110.21 114.323 120.116 114.17 130.01 114.367C137.399 114.505 144.934 114.707 152.28 115.145V115.327C135.057 116.33 117.641 116.351 100.315 115.965C92.9081 115.76 85.4768 115.415 78.0515 115.529C73.1013 115.584 68.1511 115.877 63.2008 115.993C55.7717 116.113 48.3322 116.022 40.931 115.721C38.4559 115.625 35.9868 115.506 33.5117 115.327V115.145V115.156Z" fill="white"/>
<path d="M33.5117 127.156C43.3394 126.544 53.2777 126.321 63.2008 126.489C68.1511 126.609 73.1013 126.899 78.0515 126.953C85.4768 127.07 92.9081 126.725 100.315 126.518C110.21 126.323 120.116 126.17 130.01 126.367C137.399 126.505 144.934 126.707 152.28 127.145V127.327C135.057 128.33 117.641 128.351 100.315 127.965C92.9081 127.76 85.4768 127.415 78.0515 127.529C73.1013 127.584 68.1511 127.877 63.2008 127.993C55.7717 128.113 48.3322 128.022 40.931 127.721C38.4559 127.625 35.9868 127.506 33.5117 127.327V127.145V127.156Z" fill="white"/>
<path d="M146.02 138.266C113.6 138.326 79.6302 139.326 47.2502 138.996L41.0702 138.936C39.3302 138.826 36.3802 139.176 34.6902 138.456C33.6102 138.024 32.6813 137.283 32.0197 136.326C31.3581 135.369 30.9931 134.239 30.9702 133.076L31.0402 126.896L31.1802 114.546C31.3202 97.2056 31.3102 79.3356 31.1302 62.0756C31.0068 61.2441 31.0613 60.3958 31.2901 59.5869C31.5189 58.778 31.9168 58.0269 32.4574 57.3832C32.9981 56.7395 33.6693 56.2179 34.4265 55.8528C35.1838 55.4878 36.0099 55.2877 36.8502 55.2656C53.3235 55.0723 69.7869 54.9423 86.2402 54.8756C106.3 54.7856 126.44 54.6956 146.51 54.8256C148.054 54.9508 149.496 55.6418 150.561 56.7658C151.626 57.8899 152.238 59.3677 152.28 60.9156C152.28 63.0256 152.28 65.0456 152.28 67.1156C152.28 81.3856 151.76 102.016 151.61 116.496C151.53 120.616 151.54 124.726 151.5 128.846C151.43 129.846 151.5 132.526 151.5 133.486C151.348 134.806 150.716 136.025 149.724 136.91C148.732 137.795 147.45 138.285 146.12 138.286L146.02 138.266ZM146.02 138.066C147.289 138.053 148.509 137.574 149.447 136.72C150.386 135.867 150.978 134.698 151.11 133.436C151.11 132.516 151.11 129.816 151.11 128.826C151.11 120.596 150.75 100.306 150.62 91.8256C150.44 81.6156 150.37 71.2056 150.27 60.9856C150.237 59.8827 149.777 58.8356 148.989 58.0638C148.2 57.292 147.144 56.8555 146.04 56.8456H141.8C123.294 56.9056 104.774 56.879 86.2402 56.7656C69.7802 56.7056 53.3169 56.5756 36.8502 56.3756C36.1473 56.3968 35.4567 56.566 34.8236 56.8722C34.1905 57.1784 33.6291 57.6147 33.1761 58.1527C32.7231 58.6906 32.3887 59.3181 32.1947 59.994C32.0007 60.67 31.9514 61.3793 32.0502 62.0756C31.8202 83.3756 31.8702 105.546 32.1502 126.896L32.2302 133.076C32.2653 133.984 32.5691 134.861 33.1031 135.596C33.6372 136.331 34.3775 136.892 35.2302 137.206C36.1313 137.489 37.0809 137.584 38.0202 137.486H41.1002C75.6002 137.006 111.53 138.076 146.1 138.156L146.02 138.066Z" fill="#101010"/>
<path d="M156.78 55.7957H47.6101C44.7051 55.7957 42.3501 58.1506 42.3501 61.0557V132.916C42.3501 135.821 44.7051 138.176 47.6101 138.176H156.78C159.685 138.176 162.04 135.821 162.04 132.916V61.0557C162.04 58.1506 159.685 55.7957 156.78 55.7957Z" fill="white"/>
<path d="M156.77 138.266C124.36 138.326 90.3902 139.326 58.0002 138.996L51.8302 138.936C50.0802 138.826 47.1302 139.176 45.4502 138.456C44.3652 138.024 43.4321 137.281 42.7684 136.32C42.1047 135.359 41.74 134.223 41.7202 133.056L41.7902 126.876L41.9702 114.526C42.1202 97.2056 42.1002 79.3356 41.9702 62.0556C41.8468 61.2241 41.9013 60.3758 42.1301 59.5669C42.3589 58.758 42.7568 58.0069 43.2974 57.3632C43.8381 56.7195 44.5093 56.1979 45.2665 55.8328C46.0238 55.4678 46.8499 55.2676 47.6902 55.2456C64.1502 55.0523 80.6102 54.9223 97.0702 54.8556C117.14 54.7656 137.27 54.6756 157.34 54.8056C158.884 54.9308 160.326 55.6218 161.391 56.7458C162.456 57.8699 163.068 59.3477 163.11 60.8956C163.11 63.0056 163.11 65.0256 163.11 67.0956C163.11 81.3656 162.58 101.996 162.43 116.476C162.35 120.596 162.36 124.706 162.33 128.826C162.26 129.826 162.33 132.506 162.27 133.466C162.118 134.786 161.486 136.005 160.494 136.89C159.502 137.775 158.22 138.265 156.89 138.266H156.77ZM156.77 138.066C158.039 138.053 159.259 137.574 160.197 136.72C161.136 135.867 161.728 134.697 161.86 133.436C161.86 132.516 161.86 129.816 161.86 128.826C161.86 120.596 161.5 100.306 161.38 91.8256C161.19 81.6156 161.12 71.2056 161.03 60.9856C160.992 59.8826 160.53 58.8369 159.74 58.0659C158.95 57.2948 157.894 56.8578 156.79 56.8456H152.55C134.05 56.9056 115.49 56.8456 96.9902 56.7656C80.5302 56.7056 64.0702 56.5756 47.6102 56.3756C46.9073 56.3968 46.2167 56.566 45.5836 56.8722C44.9505 57.1784 44.3891 57.6147 43.9361 58.1527C43.4831 58.6906 43.1487 59.3181 42.9547 59.994C42.7607 60.67 42.7114 61.3793 42.8102 62.0756C42.5702 83.3756 42.6302 105.546 42.9002 126.896L42.9702 133.076C43.0066 133.983 43.3109 134.86 43.8448 135.595C44.3787 136.33 45.1182 136.89 45.9702 137.206C46.8713 137.489 47.8209 137.584 48.7602 137.486H51.8502C86.3402 137.006 122.27 138.076 156.79 138.156L156.77 138.066Z" fill="#101010"/>
<path d="M162.03 68.7654H42.3501V58.9254C42.3501 58.097 42.6785 57.3024 43.2633 56.7157C43.8481 56.129 44.6417 55.7981 45.4701 55.7954H158.91C159.738 55.7981 160.532 56.129 161.117 56.7157C161.702 57.3024 162.03 58.097 162.03 58.9254V68.7654Z" fill="white"/>
<path d="M162.11 68.8355C137.84 69.3655 111.65 69.8355 87.4202 69.4255C74.0402 69.1555 55.7302 68.9955 42.3502 69.1455C42.2995 69.1469 42.249 69.138 42.2017 69.1195C42.1545 69.101 42.1114 69.0733 42.0751 69.0378C42.0387 69.0024 42.0098 68.9601 41.9901 68.9133C41.9704 68.8665 41.9602 68.8163 41.9602 68.7655L41.8402 59.8355C41.7293 59.2122 41.7678 58.5715 41.9528 57.966C42.1377 57.3605 42.4637 56.8076 42.904 56.3527C43.3443 55.8977 43.8863 55.5538 44.4854 55.3492C45.0845 55.1445 45.7236 55.085 46.3502 55.1755C69.9502 54.8055 96.4702 54.6755 120.06 54.7955C131.45 54.9155 146.76 55.0555 158.06 55.3055C158.672 55.2009 159.301 55.2483 159.89 55.4436C160.48 55.6389 161.013 55.9761 161.441 56.4255C161.87 56.8749 162.182 57.4227 162.349 58.0208C162.516 58.6189 162.534 59.249 162.4 59.8555L162.14 68.8555L162.11 68.8355ZM161.96 68.6955L161.7 59.8155C161.821 59.1558 161.724 58.4745 161.422 57.8753C161.121 57.276 160.632 56.7916 160.03 56.4955C159.389 56.2695 158.704 56.1976 158.03 56.2855C151.33 56.3955 144.62 56.5555 137.93 56.6055C129.01 56.7355 111.1 56.8455 102.19 56.8355C91.8302 56.8855 76.9602 56.7255 66.4502 56.6655C64.2802 56.6655 47.1102 56.4155 45.2802 56.3955C43.4502 56.3755 42.6602 58.1755 42.8502 59.8355L42.7302 68.7655L42.3502 68.3855C49.8002 68.4655 64.7402 68.4555 72.1902 68.3855C101.52 67.7055 132.62 68.0555 161.96 68.7255V68.6955Z" fill="#101010"/>
<path d="M50.3101 64.7557C51.6797 64.7557 52.7901 63.6453 52.7901 62.2757C52.7901 60.906 51.6797 59.7957 50.3101 59.7957C48.9404 59.7957 47.8301 60.906 47.8301 62.2757C47.8301 63.6453 48.9404 64.7557 50.3101 64.7557Z" fill="#6828ED"/>
<path d="M52.8404 62.2757C52.8404 66.3757 48.1104 65.8457 47.5504 62.2757C47.4983 61.8979 47.5278 61.5133 47.6369 61.1478C47.7459 60.7823 47.932 60.4444 48.1827 60.1568C48.4333 59.8693 48.7426 59.6388 49.0898 59.4809C49.437 59.3229 49.814 59.2412 50.1954 59.2412C50.5768 59.2412 50.9538 59.3229 51.301 59.4809C51.6482 59.6388 51.9575 59.8693 52.2081 60.1568C52.4587 60.4444 52.6449 60.7823 52.7539 61.1478C52.863 61.5133 52.8925 61.8979 52.8404 62.2757ZM52.7404 62.2757C52.5004 59.7157 48.4604 59.6657 48.1004 62.2757C47.7004 65.2757 52.6504 64.8057 52.7404 62.2757Z" fill="#101010"/>
<path d="M58.8604 64.7557C60.23 64.7557 61.3404 63.6453 61.3404 62.2757C61.3404 60.906 60.23 59.7957 58.8604 59.7957C57.4907 59.7957 56.3804 60.906 56.3804 62.2757C56.3804 63.6453 57.4907 64.7557 58.8604 64.7557Z" fill="#6828ED"/>
<path d="M61.4005 62.2757C61.4005 66.3757 56.6604 65.8457 56.1104 62.2757C56.0584 61.8979 56.0879 61.5133 56.1969 61.1478C56.306 60.7823 56.4921 60.4444 56.7427 60.1568C56.9933 59.8693 57.3027 59.6388 57.6498 59.4809C57.997 59.3229 58.374 59.2412 58.7555 59.2412C59.1369 59.2412 59.5139 59.3229 59.8611 59.4809C60.2082 59.6388 60.5176 59.8693 60.7682 60.1568C61.0188 60.4444 61.2049 60.7823 61.314 61.1478C61.423 61.5133 61.4525 61.8979 61.4005 62.2757ZM61.3004 62.2757C61.0605 59.7157 57.0105 59.6657 56.6505 62.2757C56.2505 65.2757 61.2104 64.8057 61.3004 62.2757Z" fill="#101010"/>
<path d="M67.5303 64.7557C68.9 64.7557 70.0103 63.6453 70.0103 62.2757C70.0103 60.906 68.9 59.7957 67.5303 59.7957C66.1606 59.7957 65.0503 60.906 65.0503 62.2757C65.0503 63.6453 66.1606 64.7557 67.5303 64.7557Z" fill="#6828ED"/>
<path d="M70.0704 62.2757C70.0704 66.3757 65.3304 65.8457 64.7804 62.2757C64.7283 61.8979 64.7578 61.5133 64.8668 61.1478C64.9759 60.7823 65.162 60.4444 65.4126 60.1568C65.6633 59.8693 65.9726 59.6388 66.3198 59.4809C66.6669 59.3229 67.0439 59.2412 67.4254 59.2412C67.8068 59.2412 68.1838 59.3229 68.531 59.4809C68.8782 59.6388 69.1875 59.8693 69.4381 60.1568C69.6887 60.4444 69.8748 60.7823 69.9839 61.1478C70.093 61.5133 70.1224 61.8979 70.0704 62.2757ZM69.9704 62.2757C69.7304 59.7157 65.6904 59.6657 65.3204 62.2757C64.9204 65.2757 69.8804 64.8057 69.9704 62.2757Z" fill="#101010"/>
<path d="M122.161 87.0857H77.6305C73.4276 87.0857 70.0205 90.4928 70.0205 94.6957V119.406C70.0205 123.609 73.4276 127.016 77.6305 127.016H122.161C126.363 127.016 129.771 123.609 129.771 119.406V94.6957C129.771 90.4928 126.363 87.0857 122.161 87.0857Z" fill="white"/>
<path d="M122.16 127.016C114.4 126.956 106.64 127.766 98.8803 128.016H81.4103C79.5903 127.916 77.2003 128.256 75.3503 127.706C73.4919 127.182 71.8609 126.054 70.7147 124.501C69.5685 122.947 68.9723 121.056 69.0203 119.126V106.076V94.3957C69.1005 92.1645 70.0422 90.0512 71.6478 88.4997C73.2533 86.9483 75.3976 86.0794 77.6303 86.0757H118.38C120.2 86.1757 122.59 85.8357 124.44 86.3857C126.297 86.909 127.927 88.0352 129.073 89.5868C130.219 91.1384 130.816 93.0273 130.77 94.9557V108.076C130.59 111.966 130.41 115.826 130.12 119.736C129.931 121.728 129.007 123.578 127.528 124.926C126.049 126.274 124.121 127.022 122.12 127.026L122.16 127.016ZM122.16 127.016C123.116 127.013 124.062 126.821 124.943 126.451C125.825 126.081 126.624 125.54 127.295 124.86C127.966 124.179 128.496 123.373 128.854 122.486C129.212 121.6 129.391 120.652 129.38 119.696L129.05 113.886L128.77 108.076V96.4257C128.77 94.6857 128.77 92.8057 127.83 91.3057C127.158 90.2034 126.186 89.3147 125.028 88.7429C123.871 88.1711 122.574 87.9397 121.29 88.0757H77.6203C75.915 88.0745 74.2756 88.7344 73.0466 89.9167C71.8177 91.099 71.095 92.7116 71.0303 94.4157V119.116C70.979 120.608 71.43 122.075 72.3112 123.28C73.1923 124.486 74.4527 125.361 75.8903 125.766C77.2503 126.166 79.8903 125.956 81.4203 126.006H98.8803C106.64 126.266 114.4 127.066 122.16 127.006V127.016Z" fill="#101010"/>
<path d="M92.3104 87.0757V84.1757C92.309 83.8859 92.365 83.5988 92.475 83.3307C92.5849 83.0626 92.7468 82.8189 92.9512 82.6136C93.1556 82.4082 93.3986 82.2453 93.6661 82.1341C93.9337 82.0229 94.2206 81.9657 94.5104 81.9657H105.28C105.57 81.9657 105.857 82.0229 106.125 82.1341C106.392 82.2453 106.635 82.4082 106.84 82.6136C107.044 82.8189 107.206 83.0626 107.316 83.3307C107.426 83.5988 107.482 83.8859 107.48 84.1757V87.0757H111.18V82.4157C111.182 81.946 111.09 81.4807 110.911 81.0464C110.733 80.6122 110.47 80.2174 110.138 79.8848C109.807 79.5523 109.413 79.2884 108.979 79.1084C108.545 78.9284 108.08 78.8357 107.61 78.8357H92.1804C91.7107 78.8357 91.2457 78.9284 90.8119 79.1084C90.3781 79.2884 89.9841 79.5523 89.6525 79.8848C89.3208 80.2174 89.0581 80.6122 88.8792 81.0464C88.7004 81.4807 88.609 81.946 88.6104 82.4157V87.0757H92.3104Z" fill="#6828ED"/>
<path d="M92.31 87.0757C92.11 84.8057 91.05 82.2857 93.86 81.2957C96.8 80.6957 99.86 81.0457 102.86 80.9557C103.898 80.939 104.936 80.979 105.97 81.0757C106.67 81.2403 107.294 81.6335 107.745 82.1932C108.196 82.7529 108.448 83.447 108.46 84.1657V87.1657L107.46 86.1657H111.16L110.16 87.1657V82.6657C110.21 80.5757 108.47 79.6657 106.62 79.9157H93.15C91.67 79.7657 90.09 80.2357 89.71 81.8157C89.45 83.5557 89.32 85.3957 89.09 87.1657L88.61 86.6857C89.72 86.8257 90.95 87.0457 92.31 87.1657V87.0757ZM92.31 87.0757C91.2 87.1857 89.96 87.4057 88.61 87.5457C88.5004 87.5573 88.3906 87.5265 88.3031 87.4595C88.2157 87.3925 88.1573 87.2945 88.14 87.1857C87.95 85.6457 87.8 84.1057 87.63 82.5757C87.5864 81.3751 88.0174 80.2056 88.8296 79.3204C89.6419 78.4352 90.77 77.9054 91.97 77.8457C92.78 77.8457 94.56 77.8457 95.39 77.8457H104.39C105.22 77.8457 106.99 77.8457 107.81 77.8457C108.528 77.8733 109.229 78.0686 109.857 78.4159C110.486 78.7632 111.025 79.2529 111.43 79.8457C111.949 80.6446 112.211 81.5834 112.18 82.5357V87.0757C112.18 87.3409 112.075 87.5953 111.887 87.7828C111.7 87.9703 111.445 88.0757 111.18 88.0757H107.48C107.215 88.0757 106.96 87.9703 106.773 87.7828C106.585 87.5953 106.48 87.3409 106.48 87.0757V84.1557C106.37 82.9257 105.43 82.9257 104.3 82.9657H99.89C97.9871 83.0334 96.0819 82.9599 94.19 82.7457C92.25 82.8657 92.62 85.8257 92.31 87.0857V87.0757Z" fill="#101010"/>
<path d="M86.7602 87.0757C88.1352 100.35 88.1352 113.731 86.7602 127.006C85.3853 113.731 85.3853 100.35 86.7602 87.0757Z" fill="#101010"/>
<path d="M113.07 87.0756C114.21 92.0756 113.88 97.0756 113.3 102.076C113.13 105.406 113.85 108.736 113.92 112.076C114.1 117.076 114.17 122.336 112.92 127.136C111.954 122.178 111.654 117.113 112.03 112.076C112.09 108.756 112.81 105.426 112.65 102.076C112.49 98.7256 111.82 95.4356 112.2 92.0756C112.294 90.3941 112.518 88.7225 112.87 87.0756C112.87 87.0491 112.881 87.0236 112.899 87.0049C112.918 86.9861 112.944 86.9756 112.97 86.9756C112.997 86.9756 113.022 86.9861 113.041 87.0049C113.06 87.0236 113.07 87.0491 113.07 87.0756Z" fill="#101010"/>
<path d="M98.0906 30.1555C97.8106 27.8455 97.5606 24.4955 97.3906 22.1555C96.9109 19.4739 97.1525 16.713 98.0906 14.1555C98.0994 14.1363 98.1135 14.1201 98.1312 14.1087C98.1489 14.0974 98.1696 14.0913 98.1906 14.0913C98.2117 14.0913 98.2323 14.0974 98.25 14.1087C98.2678 14.1201 98.2818 14.1363 98.2906 14.1555C99.2288 16.713 99.4704 19.4739 98.9906 22.1555C98.8206 24.5155 98.5706 27.8455 98.2906 30.1555C98.2906 30.182 98.2801 30.2074 98.2613 30.2262C98.2426 30.2449 98.2171 30.2555 98.1906 30.2555C98.1641 30.2555 98.1387 30.2449 98.1199 30.2262C98.1012 30.2074 98.0906 30.182 98.0906 30.1555Z" fill="#101010"/>
<path d="M50.2404 38.6756C48.9124 38.2691 47.7424 37.4623 46.8904 36.3656C46.5689 35.7538 46.2151 35.1596 45.8304 34.5856C44.4504 33.1256 42.3704 32.4356 41.0604 30.8656C40.1216 29.8432 39.3913 28.6476 38.9104 27.3456C38.9004 27.319 38.901 27.2896 38.9122 27.2635C38.9234 27.2374 38.9442 27.2167 38.9704 27.2056C40.3067 27.658 41.5307 28.391 42.5604 29.3556C44.1304 30.6656 44.8204 32.7456 46.2804 34.1256C47.4004 34.8656 48.7204 35.3956 49.4304 36.6356C49.8496 37.2108 50.1675 37.8533 50.3704 38.5356C50.3739 38.5547 50.3728 38.5745 50.367 38.5931C50.3613 38.6117 50.351 38.6287 50.3373 38.6425C50.3235 38.6562 50.3065 38.6665 50.2879 38.6722C50.2693 38.678 50.2495 38.6791 50.2304 38.6756H50.2404Z" fill="#101010"/>
<path d="M146.2 38.0755C146.607 36.7475 147.414 35.5775 148.51 34.7255C149.08 34.3455 149.78 34.0955 150.29 33.6755C151.75 32.2855 152.44 30.2055 154.01 28.8955C155.033 27.9599 156.229 27.2329 157.53 26.7555C157.557 26.7477 157.586 26.7495 157.611 26.7604C157.637 26.7714 157.658 26.7908 157.67 26.8155C157.218 28.1518 156.485 29.3759 155.52 30.4055C154.21 31.9855 152.13 32.6755 150.75 34.1255C150.01 35.2455 149.48 36.5655 148.24 37.2855C147.662 37.6976 147.02 38.0118 146.34 38.2155C146.26 38.2155 146.18 38.1555 146.2 38.0755Z" fill="#101010"/>
</svg>
