<svg width="477" height="400" viewBox="0 0 477 400" fill="none" xmlns="http://www.w3.org/2000/svg">
<g clip-path="url(#clip0_269_27986)">
<rect width="477" height="400" rx="16" fill="#6828ED"/>
<path fill-rule="evenodd" clip-rule="evenodd" d="M249.777 154.54C250.795 153.552 252.158 153 253.576 153C258.477 153 260.893 158.96 257.375 162.372L208.256 210.023C204.795 213.381 199 210.928 199 206.107C199 204.631 199.598 203.218 200.657 202.19L249.777 154.54ZM199 157.19C199 160.892 203.45 162.775 206.107 160.197C208.808 157.576 206.953 153 203.19 153C200.876 153 199 154.876 199 157.19ZM199 258.018C199 256.542 199.598 255.129 200.657 254.101L303.288 154.54C304.306 153.552 305.669 153 307.087 153C311.988 153 314.404 158.96 310.887 162.372L208.256 261.934C204.795 265.291 199 262.839 199 258.018ZM199 309.929C199 308.453 199.598 307.04 200.657 306.012L356.799 154.54C357.818 153.552 359.18 153 360.599 153C365.499 153 367.915 158.96 364.398 162.372L208.256 313.845C204.795 317.202 199 314.75 199 309.929ZM199 361.84C199 360.364 199.598 358.951 200.657 357.923L410.31 154.54C411.329 153.552 412.691 153 414.11 153C419.011 153 421.427 158.96 417.909 162.373L208.256 365.756C204.795 369.114 199 366.661 199 361.84ZM199 413.751C199 412.275 199.598 410.862 200.657 409.834L463.821 154.54C464.839 153.552 466.202 153 467.62 153C472.522 153 474.938 158.96 471.42 162.373L208.256 417.668C204.795 421.025 199 418.572 199 413.751ZM231.381 445C226.48 445 224.064 439.04 227.581 435.628L490.744 180.333C494.205 176.976 500 179.428 500 184.249C500 185.725 499.402 187.138 498.343 188.166L235.18 443.46C234.162 444.448 232.799 445 231.381 445ZM284.892 445C279.991 445 277.575 439.04 281.093 435.628L490.744 232.244C494.205 228.887 500 231.339 500 236.16C500 237.636 499.402 239.049 498.343 240.077L288.691 443.46C287.673 444.448 286.31 445 284.892 445ZM338.403 445C333.502 445 331.086 439.04 334.604 435.628L490.744 284.155C494.205 280.798 500 283.25 500 288.071C500 289.547 499.402 290.96 498.343 291.988L342.202 443.46C341.184 444.448 339.821 445 338.403 445ZM391.914 445C387.013 445 384.597 439.04 388.115 435.628L490.744 336.066C494.205 332.709 500 335.161 500 339.982C500 341.458 499.402 342.871 498.343 343.899L395.713 443.46C394.695 444.448 393.332 445 391.914 445ZM445.425 445C440.524 445 438.108 439.04 441.626 435.627L490.744 387.977C494.205 384.62 500 387.072 500 391.894C500 393.369 499.402 394.782 498.343 395.81L449.225 443.46C448.207 444.448 446.844 445 445.425 445ZM495.81 445C492.047 445 490.192 440.424 492.893 437.803C495.55 435.226 500 437.108 500 440.81C500 443.124 498.124 445 495.81 445Z" fill="white"/>
<g filter="url(#filter0_d_269_27986)">
<rect x="71" y="88" width="336" height="224.713" rx="17.121" fill="white"/>
</g>
<path d="M102.884 143.991V133.617H105.67L108.427 140.983L111.183 133.617H113.91V143.991H111.613V137.263L109.316 143.991H107.537L105.181 137.218V143.991H102.884ZM122.134 143.146C121.422 143.858 120.464 144.214 119.259 144.214C118.053 144.214 117.09 143.858 116.369 143.146C115.647 142.435 115.287 141.526 115.287 140.419C115.287 139.313 115.647 138.409 116.369 137.707C117.09 136.996 118.053 136.64 119.259 136.64C120.464 136.64 121.422 136.996 122.134 137.707C122.855 138.409 123.216 139.313 123.216 140.419C123.216 141.526 122.855 142.435 122.134 143.146ZM119.259 142.287C119.782 142.287 120.197 142.114 120.503 141.768C120.81 141.422 120.963 140.973 120.963 140.419C120.963 139.866 120.81 139.417 120.503 139.071C120.197 138.725 119.782 138.552 119.259 138.552C118.725 138.552 118.305 138.725 117.999 139.071C117.702 139.417 117.554 139.866 117.554 140.419C117.554 140.973 117.702 141.422 117.999 141.768C118.305 142.114 118.725 142.287 119.259 142.287ZM124.519 143.991V136.848H126.787V137.885C127.212 137.065 127.982 136.655 129.099 136.655C130.838 136.655 131.707 137.628 131.707 139.575V143.991H129.425V140.316C129.425 139.703 129.326 139.259 129.128 138.982C128.941 138.705 128.62 138.567 128.165 138.567C127.246 138.567 126.787 139.13 126.787 140.256V143.991H124.519ZM137.141 142.228C137.457 142.228 137.719 142.213 137.926 142.183V143.991C137.491 144.07 136.988 144.11 136.415 144.11C136.158 144.11 135.93 144.095 135.733 144.065C135.535 144.036 135.313 143.971 135.066 143.873C134.819 143.764 134.616 143.621 134.458 143.443C134.3 143.265 134.162 143.008 134.043 142.672C133.935 142.336 133.88 141.941 133.88 141.487V138.641H132.754V136.848H133.88V134.728H136.148V136.848H137.763V138.641H136.148V141.012C136.148 141.496 136.232 141.822 136.4 141.99C136.568 142.149 136.815 142.228 137.141 142.228ZM142.026 144.184C140.988 144.184 140.168 143.833 139.566 143.132C138.963 142.43 138.662 141.526 138.662 140.419C138.662 139.333 138.973 138.434 139.595 137.722C140.218 137.011 141.038 136.655 142.056 136.655C142.559 136.655 143.009 136.764 143.404 136.981C143.799 137.199 144.096 137.495 144.293 137.87V136.848H146.546V143.991H144.293V142.983C144.096 143.339 143.79 143.631 143.375 143.858C142.969 144.075 142.52 144.184 142.026 144.184ZM142.678 142.302C143.221 142.302 143.641 142.124 143.938 141.768C144.234 141.412 144.382 140.963 144.382 140.419C144.382 139.886 144.234 139.441 143.938 139.086C143.641 138.73 143.221 138.552 142.678 138.552C142.164 138.552 141.749 138.725 141.433 139.071C141.127 139.417 140.974 139.866 140.974 140.419C140.974 140.973 141.127 141.427 141.433 141.783C141.749 142.129 142.164 142.302 142.678 142.302ZM148.429 143.991V136.848H150.696V137.885C151.121 137.065 151.892 136.655 153.008 136.655C154.747 136.655 155.617 137.628 155.617 139.575V143.991H153.334V140.316C153.334 139.703 153.235 139.259 153.038 138.982C152.85 138.705 152.529 138.567 152.074 138.567C151.156 138.567 150.696 139.13 150.696 140.256V143.991H148.429ZM161.05 142.228C161.366 142.228 161.628 142.213 161.836 142.183V143.991C161.401 144.07 160.897 144.11 160.324 144.11C160.067 144.11 159.84 144.095 159.642 144.065C159.445 144.036 159.222 143.971 158.975 143.873C158.728 143.764 158.526 143.621 158.368 143.443C158.21 143.265 158.071 143.008 157.953 142.672C157.844 142.336 157.79 141.941 157.79 141.487V138.641H156.663V136.848H157.79V134.728H160.057V136.848H161.673V138.641H160.057V141.012C160.057 141.496 160.141 141.822 160.309 141.99C160.477 142.149 160.724 142.228 161.05 142.228ZM171.835 133.617H174.103V143.991H171.85V142.983C171.652 143.339 171.346 143.631 170.931 143.858C170.526 144.075 170.077 144.184 169.583 144.184C168.545 144.184 167.725 143.833 167.122 143.132C166.52 142.43 166.218 141.526 166.218 140.419C166.218 139.333 166.53 138.434 167.152 137.722C167.774 137.011 168.595 136.655 169.612 136.655C170.116 136.655 170.566 136.764 170.961 136.981C171.356 137.199 171.652 137.495 171.85 137.87V137.263H171.835V133.617ZM170.235 142.302C170.778 142.302 171.198 142.124 171.494 141.768C171.791 141.412 171.939 140.963 171.939 140.419C171.939 139.886 171.791 139.441 171.494 139.086C171.198 138.73 170.778 138.552 170.235 138.552C169.721 138.552 169.306 138.725 168.99 139.071C168.683 139.417 168.53 139.866 168.53 140.419C168.53 140.973 168.683 141.427 168.99 141.783C169.306 142.129 169.721 142.302 170.235 142.302ZM178.549 144.184C177.7 144.184 177.047 143.932 176.593 143.428C176.138 142.914 175.911 142.193 175.911 141.264V136.848H178.208V140.76C178.208 141.768 178.604 142.272 179.394 142.272C180.313 142.272 180.772 141.743 180.772 140.686V136.848H183.025V143.991H180.772V142.969C180.347 143.779 179.606 144.184 178.549 144.184ZM196.3 135.81C196.033 136.077 195.697 136.211 195.292 136.211C194.887 136.211 194.551 136.077 194.284 135.81C194.028 135.544 193.899 135.218 193.899 134.832C193.899 134.437 194.028 134.106 194.284 133.839C194.551 133.572 194.887 133.439 195.292 133.439C195.697 133.439 196.033 133.577 196.3 133.854C196.567 134.121 196.7 134.447 196.7 134.832C196.7 135.218 196.567 135.544 196.3 135.81ZM189.097 136.151C189.097 135.628 189.181 135.183 189.349 134.817C189.517 134.442 189.74 134.165 190.016 133.987C190.293 133.81 190.569 133.681 190.846 133.602C191.123 133.523 191.414 133.484 191.72 133.484C192.244 133.484 192.679 133.538 193.025 133.647V135.262C192.975 135.262 192.876 135.257 192.728 135.247C192.59 135.227 192.481 135.218 192.402 135.218C191.711 135.218 191.365 135.519 191.365 136.122V136.848H193.025V138.641H191.365V143.991H189.097V138.641H187.823V136.848H189.097V136.151ZM194.151 143.991V136.848H196.419V143.991H194.151ZM198.288 143.991V136.848H200.556V137.885C200.981 137.065 201.751 136.655 202.868 136.655C204.607 136.655 205.476 137.628 205.476 139.575V143.991H203.194V140.316C203.194 139.703 203.095 139.259 202.897 138.982C202.71 138.705 202.389 138.567 201.934 138.567C201.015 138.567 200.556 139.13 200.556 140.256V143.991H198.288ZM210.136 144.184C209.099 144.184 208.278 143.833 207.676 143.132C207.073 142.43 206.772 141.526 206.772 140.419C206.772 139.333 207.083 138.434 207.705 137.722C208.328 137.011 209.148 136.655 210.166 136.655C210.67 136.655 211.119 136.764 211.514 136.981C211.909 137.199 212.206 137.495 212.403 137.87V136.848H214.656V143.991H212.403V142.983C212.206 143.339 211.9 143.631 211.485 143.858C211.08 144.075 210.63 144.184 210.136 144.184ZM210.788 142.302C211.331 142.302 211.751 142.124 212.048 141.768C212.344 141.412 212.492 140.963 212.492 140.419C212.492 139.886 212.344 139.441 212.048 139.086C211.751 138.73 211.331 138.552 210.788 138.552C210.274 138.552 209.859 138.725 209.543 139.071C209.237 139.417 209.084 139.866 209.084 140.419C209.084 140.973 209.237 141.427 209.543 141.783C209.859 142.129 210.274 142.302 210.788 142.302ZM216.539 143.991V136.848H218.806V137.885C219.231 137.065 220.002 136.655 221.118 136.655C222.857 136.655 223.727 137.628 223.727 139.575V143.991H221.444V140.316C221.444 139.703 221.345 139.259 221.148 138.982C220.96 138.705 220.639 138.567 220.185 138.567C219.266 138.567 218.806 139.13 218.806 140.256V143.991H216.539ZM228.801 144.214C227.636 144.214 226.707 143.868 226.015 143.176C225.324 142.475 224.978 141.556 224.978 140.419C224.978 139.283 225.324 138.369 226.015 137.678C226.707 136.986 227.636 136.64 228.801 136.64C229.859 136.64 230.718 136.902 231.38 137.426C232.042 137.949 232.418 138.661 232.507 139.56H230.239C230.071 138.888 229.597 138.552 228.816 138.552C228.322 138.552 227.937 138.715 227.66 139.041C227.384 139.367 227.245 139.827 227.245 140.419C227.245 141.012 227.384 141.472 227.66 141.798C227.937 142.124 228.322 142.287 228.816 142.287C229.597 142.287 230.071 141.971 230.239 141.338H232.507C232.418 142.218 232.042 142.919 231.38 143.443C230.718 143.957 229.859 144.214 228.801 144.214ZM241.076 140.049C241.076 140.345 241.056 140.676 241.017 141.042H235.741C235.76 141.506 235.918 141.867 236.215 142.124C236.511 142.381 236.911 142.509 237.415 142.509C238.107 142.509 238.552 142.287 238.749 141.842H240.972C240.864 142.544 240.478 143.117 239.816 143.561C239.164 143.996 238.364 144.214 237.415 144.214C236.2 144.214 235.242 143.878 234.54 143.206C233.839 142.534 233.488 141.605 233.488 140.419C233.488 139.254 233.839 138.335 234.54 137.663C235.242 136.981 236.175 136.64 237.341 136.64C238.448 136.64 239.347 136.956 240.039 137.589C240.73 138.221 241.076 139.041 241.076 140.049ZM235.741 139.634H238.838C238.828 139.16 238.695 138.794 238.438 138.537C238.181 138.28 237.811 138.152 237.326 138.152C236.842 138.152 236.457 138.29 236.17 138.567C235.894 138.834 235.75 139.189 235.741 139.634ZM242.373 143.991V136.848H244.641V137.885C244.799 137.52 245.056 137.223 245.411 136.996C245.777 136.769 246.202 136.655 246.686 136.655C247.812 136.655 248.558 137.095 248.924 137.974C249.121 137.579 249.423 137.263 249.828 137.026C250.233 136.779 250.692 136.655 251.206 136.655C252.896 136.655 253.74 137.623 253.74 139.56V143.991H251.458V139.975C251.458 139.036 251.102 138.567 250.391 138.567C249.591 138.567 249.19 139.15 249.19 140.316V143.991H246.908V139.96C246.908 139.031 246.557 138.567 245.856 138.567C245.461 138.567 245.159 138.7 244.952 138.967C244.744 139.224 244.641 139.674 244.641 140.316V143.991H242.373ZM262.554 140.049C262.554 140.345 262.534 140.676 262.495 141.042H257.219C257.238 141.506 257.396 141.867 257.693 142.124C257.989 142.381 258.389 142.509 258.893 142.509C259.585 142.509 260.03 142.287 260.227 141.842H262.45C262.342 142.544 261.956 143.117 261.294 143.561C260.642 143.996 259.842 144.214 258.893 144.214C257.678 144.214 256.72 143.878 256.018 143.206C255.317 142.534 254.966 141.605 254.966 140.419C254.966 139.254 255.317 138.335 256.018 137.663C256.72 136.981 257.653 136.64 258.819 136.64C259.926 136.64 260.825 136.956 261.517 137.589C262.208 138.221 262.554 139.041 262.554 140.049ZM257.219 139.634H260.316C260.306 139.16 260.173 138.794 259.916 138.537C259.659 138.28 259.289 138.152 258.804 138.152C258.32 138.152 257.935 138.29 257.648 138.567C257.372 138.834 257.228 139.189 257.219 139.634ZM263.851 143.991V136.848H266.119V137.885C266.543 137.065 267.314 136.655 268.431 136.655C270.169 136.655 271.039 137.628 271.039 139.575V143.991H268.757V140.316C268.757 139.703 268.658 139.259 268.46 138.982C268.272 138.705 267.951 138.567 267.497 138.567C266.578 138.567 266.119 139.13 266.119 140.256V143.991H263.851ZM276.473 142.228C276.789 142.228 277.051 142.213 277.258 142.183V143.991C276.823 144.07 276.319 144.11 275.746 144.11C275.489 144.11 275.262 144.095 275.065 144.065C274.867 144.036 274.645 143.971 274.398 143.873C274.151 143.764 273.948 143.621 273.79 143.443C273.632 143.265 273.494 143.008 273.375 142.672C273.266 142.336 273.212 141.941 273.212 141.487V138.641H272.086V136.848H273.212V134.728H275.48V136.848H277.095V138.641H275.48V141.012C275.48 141.496 275.564 141.822 275.732 141.99C275.9 142.149 276.147 142.228 276.473 142.228Z" fill="#101010"/>
<path d="M351.403 181.095C351.779 181.095 352.085 180.976 352.322 180.739C352.569 180.502 352.722 180.176 352.782 179.761H355.123C354.975 180.709 354.585 181.485 353.953 182.087C353.32 182.68 352.471 182.977 351.403 182.977C349.121 182.977 347.807 181.707 347.461 179.168H346.513L346.854 178.027H347.372V177.715V177.375H346.513L346.854 176.233H347.461C347.827 173.714 349.141 172.454 351.403 172.454C352.49 172.454 353.35 172.756 353.982 173.358C354.624 173.951 355.02 174.722 355.168 175.67H352.826C352.678 174.781 352.209 174.336 351.418 174.336C350.499 174.336 349.946 174.969 349.758 176.233H352.263L351.907 177.375H349.669V177.715V178.027H352.263L351.907 179.168H349.744C349.832 179.81 350.005 180.294 350.262 180.62C350.529 180.936 350.909 181.095 351.403 181.095Z" fill="#101010"/>
<rect x="102.372" y="159.055" width="273.184" height="38.5276" rx="19.2638" stroke="#545454" stroke-opacity="0.2" stroke-width="0.993395"/>
<path d="M122.257 182.512C122.257 181.297 122.46 180.319 122.865 179.578C123.27 178.827 123.937 178.21 124.866 177.725L126.481 176.881C127.222 176.495 127.593 175.962 127.593 175.28C127.593 174.914 127.479 174.623 127.252 174.406C127.034 174.178 126.743 174.065 126.377 174.065C125.913 174.065 125.552 174.218 125.295 174.524C125.048 174.821 124.925 175.25 124.925 175.814H122.48C122.48 174.727 122.83 173.857 123.532 173.205C124.243 172.543 125.187 172.212 126.362 172.212C127.518 172.212 128.423 172.479 129.075 173.013C129.727 173.536 130.053 174.262 130.053 175.191C130.053 176.535 129.386 177.557 128.052 178.259L126.555 179.059C126.12 179.296 125.809 179.519 125.621 179.726C125.444 179.934 125.305 180.21 125.206 180.556H129.964V182.512H122.257ZM135.115 182.735C133.989 182.735 133.085 182.463 132.403 181.92C131.721 181.366 131.346 180.62 131.277 179.682H133.603C133.643 180.037 133.801 180.314 134.078 180.512C134.354 180.709 134.7 180.808 135.115 180.808C135.639 180.808 136.044 180.65 136.33 180.334C136.627 180.008 136.775 179.573 136.775 179.03C136.775 178.516 136.637 178.101 136.36 177.785C136.093 177.469 135.723 177.31 135.249 177.31C134.448 177.31 133.905 177.641 133.618 178.303H131.514V172.435H138.539V174.287H133.663V176.436C134.157 175.902 134.873 175.636 135.812 175.636C136.8 175.636 137.59 175.947 138.183 176.569C138.776 177.182 139.072 177.987 139.072 178.985C139.072 180.082 138.712 180.981 137.99 181.682C137.279 182.384 136.321 182.735 135.115 182.735ZM147.524 181.386C146.813 182.285 145.77 182.735 144.397 182.735C143.024 182.735 141.976 182.285 141.255 181.386C140.544 180.487 140.188 179.183 140.188 177.473C140.188 175.764 140.544 174.46 141.255 173.561C141.976 172.662 143.024 172.212 144.397 172.212C145.77 172.212 146.813 172.662 147.524 173.561C148.245 174.46 148.606 175.764 148.606 177.473C148.606 179.183 148.245 180.487 147.524 181.386ZM144.397 180.808C145.681 180.808 146.324 179.697 146.324 177.473C146.324 175.25 145.681 174.139 144.397 174.139C143.112 174.139 142.47 175.25 142.47 177.473C142.47 178.61 142.628 179.45 142.945 179.993C143.261 180.536 143.745 180.808 144.397 180.808ZM160.666 181.386C159.954 182.285 158.912 182.735 157.538 182.735C156.165 182.735 155.118 182.285 154.396 181.386C153.685 180.487 153.329 179.183 153.329 177.473C153.329 175.764 153.685 174.46 154.396 173.561C155.118 172.662 156.165 172.212 157.538 172.212C158.912 172.212 159.954 172.662 160.666 173.561C161.387 174.46 161.747 175.764 161.747 177.473C161.747 179.183 161.387 180.487 160.666 181.386ZM157.538 180.808C158.823 180.808 159.465 179.697 159.465 177.473C159.465 175.25 158.823 174.139 157.538 174.139C156.254 174.139 155.612 175.25 155.612 177.473C155.612 178.61 155.77 179.45 156.086 179.993C156.402 180.536 156.886 180.808 157.538 180.808ZM170.203 181.386C169.492 182.285 168.449 182.735 167.076 182.735C165.703 182.735 164.655 182.285 163.934 181.386C163.223 180.487 162.867 179.183 162.867 177.473C162.867 175.764 163.223 174.46 163.934 173.561C164.655 172.662 165.703 172.212 167.076 172.212C168.449 172.212 169.492 172.662 170.203 173.561C170.925 174.46 171.285 175.764 171.285 177.473C171.285 179.183 170.925 180.487 170.203 181.386ZM167.076 180.808C168.361 180.808 169.003 179.697 169.003 177.473C169.003 175.25 168.361 174.139 167.076 174.139C165.792 174.139 165.149 175.25 165.149 177.473C165.149 178.61 165.308 179.45 165.624 179.993C165.94 180.536 166.424 180.808 167.076 180.808ZM179.741 181.386C179.03 182.285 177.987 182.735 176.614 182.735C175.241 182.735 174.193 182.285 173.472 181.386C172.761 180.487 172.405 179.183 172.405 177.473C172.405 175.764 172.761 174.46 173.472 173.561C174.193 172.662 175.241 172.212 176.614 172.212C177.987 172.212 179.03 172.662 179.741 173.561C180.462 174.46 180.823 175.764 180.823 177.473C180.823 179.183 180.462 180.487 179.741 181.386ZM176.614 180.808C177.898 180.808 178.541 179.697 178.541 177.473C178.541 175.25 177.898 174.139 176.614 174.139C175.329 174.139 174.687 175.25 174.687 177.473C174.687 178.61 174.845 179.45 175.161 179.993C175.478 180.536 175.962 180.808 176.614 180.808Z" fill="#101010"/>
<path d="M107.848 237.488C106.168 237.488 104.819 236.979 103.802 235.962C102.784 234.934 102.275 233.615 102.275 232.005C102.275 230.394 102.784 229.08 103.802 228.062C104.819 227.035 106.168 226.521 107.848 226.521C109.349 226.521 110.57 226.891 111.508 227.633C112.457 228.364 113 229.347 113.138 230.582H110.589C110.451 229.989 110.145 229.525 109.671 229.189C109.196 228.843 108.594 228.67 107.862 228.67C106.894 228.67 106.138 228.971 105.595 229.574C105.052 230.167 104.78 230.977 104.78 232.005C104.78 233.032 105.052 233.847 105.595 234.45C106.138 235.043 106.894 235.339 107.862 235.339C108.594 235.339 109.196 235.171 109.671 234.835C110.145 234.489 110.451 234.02 110.589 233.427H113.138C113 234.662 112.457 235.65 111.508 236.391C110.57 237.122 109.349 237.488 107.848 237.488ZM117.305 237.384C116.268 237.384 115.447 237.034 114.845 236.332C114.242 235.631 113.941 234.727 113.941 233.62C113.941 232.533 114.252 231.634 114.874 230.923C115.497 230.211 116.317 229.856 117.335 229.856C117.839 229.856 118.288 229.964 118.683 230.182C119.078 230.399 119.375 230.695 119.573 231.071V230.048H121.825V237.192H119.573V236.184C119.375 236.54 119.069 236.831 118.654 237.058C118.249 237.276 117.799 237.384 117.305 237.384ZM117.957 235.502C118.5 235.502 118.92 235.324 119.217 234.969C119.513 234.613 119.661 234.163 119.661 233.62C119.661 233.086 119.513 232.642 119.217 232.286C118.92 231.93 118.5 231.753 117.957 231.753C117.443 231.753 117.028 231.925 116.712 232.271C116.406 232.617 116.253 233.067 116.253 233.62C116.253 234.173 116.406 234.628 116.712 234.983C117.028 235.329 117.443 235.502 117.957 235.502ZM128.302 229.856C129.28 229.856 130.071 230.201 130.673 230.893C131.286 231.585 131.592 232.494 131.592 233.62C131.592 234.736 131.281 235.645 130.658 236.347C130.036 237.039 129.231 237.384 128.243 237.384C127.729 237.384 127.27 237.271 126.864 237.043C126.459 236.816 126.163 236.53 125.975 236.184V240.156H123.708V230.048H125.975V231.071C126.163 230.715 126.469 230.424 126.894 230.196C127.319 229.969 127.788 229.856 128.302 229.856ZM127.591 235.502C128.085 235.502 128.49 235.329 128.806 234.983C129.122 234.628 129.28 234.173 129.28 233.62C129.28 233.067 129.122 232.617 128.806 232.271C128.49 231.925 128.085 231.753 127.591 231.753C127.077 231.753 126.662 231.925 126.346 232.271C126.03 232.617 125.872 233.067 125.872 233.62C125.872 234.183 126.03 234.638 126.346 234.983C126.672 235.329 127.087 235.502 127.591 235.502ZM135.845 237.384C134.808 237.384 133.987 237.034 133.385 236.332C132.782 235.631 132.481 234.727 132.481 233.62C132.481 232.533 132.792 231.634 133.414 230.923C134.037 230.211 134.857 229.856 135.875 229.856C136.378 229.856 136.828 229.964 137.223 230.182C137.618 230.399 137.915 230.695 138.112 231.071V230.048H140.365V237.192H138.112V236.184C137.915 236.54 137.609 236.831 137.194 237.058C136.789 237.276 136.339 237.384 135.845 237.384ZM136.497 235.502C137.04 235.502 137.46 235.324 137.757 234.969C138.053 234.613 138.201 234.163 138.201 233.62C138.201 233.086 138.053 232.642 137.757 232.286C137.46 231.93 137.04 231.753 136.497 231.753C135.983 231.753 135.568 231.925 135.252 232.271C134.946 232.617 134.793 233.067 134.793 233.62C134.793 234.173 134.946 234.628 135.252 234.983C135.568 235.329 135.983 235.502 136.497 235.502ZM145.508 237.414C144.342 237.414 143.414 237.068 142.722 236.377C142.03 235.675 141.685 234.756 141.685 233.62C141.685 232.484 142.03 231.57 142.722 230.878C143.414 230.187 144.342 229.841 145.508 229.841C146.565 229.841 147.425 230.103 148.087 230.626C148.749 231.15 149.124 231.861 149.213 232.76H146.946C146.778 232.088 146.304 231.753 145.523 231.753C145.029 231.753 144.644 231.916 144.367 232.242C144.09 232.568 143.952 233.027 143.952 233.62C143.952 234.213 144.09 234.672 144.367 234.998C144.644 235.324 145.029 235.487 145.523 235.487C146.304 235.487 146.778 235.171 146.946 234.539H149.213C149.124 235.418 148.749 236.12 148.087 236.643C147.425 237.157 146.565 237.414 145.508 237.414ZM152.661 229.011C152.394 229.278 152.058 229.411 151.653 229.411C151.248 229.411 150.912 229.278 150.645 229.011C150.388 228.744 150.26 228.418 150.26 228.033C150.26 227.637 150.388 227.306 150.645 227.04C150.912 226.773 151.248 226.64 151.653 226.64C152.058 226.64 152.394 226.778 152.661 227.055C152.928 227.321 153.061 227.647 153.061 228.033C153.061 228.418 152.928 228.744 152.661 229.011ZM150.512 237.192V230.048H152.779V237.192H150.512ZM158.401 235.428C158.717 235.428 158.979 235.413 159.186 235.384V237.192C158.751 237.271 158.247 237.31 157.674 237.31C157.418 237.31 157.19 237.295 156.993 237.266C156.795 237.236 156.573 237.172 156.326 237.073C156.079 236.964 155.876 236.821 155.718 236.643C155.56 236.465 155.422 236.209 155.303 235.873C155.194 235.537 155.14 235.141 155.14 234.687V231.841H154.014V230.048H155.14V227.929H157.408V230.048H159.023V231.841H157.408V234.213C157.408 234.697 157.492 235.023 157.66 235.191C157.828 235.349 158.075 235.428 158.401 235.428ZM166.041 228.062L161.773 229.544L161.284 228.21L165.552 226.743L166.041 228.062ZM167.509 233.249C167.509 233.546 167.489 233.877 167.449 234.242H162.173C162.193 234.707 162.351 235.067 162.647 235.324C162.944 235.581 163.344 235.71 163.848 235.71C164.54 235.71 164.984 235.487 165.182 235.043H167.405C167.296 235.744 166.911 236.317 166.249 236.762C165.597 237.197 164.796 237.414 163.848 237.414C162.633 237.414 161.674 237.078 160.973 236.406C160.271 235.734 159.921 234.806 159.921 233.62C159.921 232.454 160.271 231.535 160.973 230.863C161.674 230.182 162.608 229.841 163.774 229.841C164.88 229.841 165.78 230.157 166.471 230.789C167.163 231.422 167.509 232.242 167.509 233.249ZM162.173 232.834H165.271C165.261 232.36 165.127 231.995 164.871 231.738C164.614 231.481 164.243 231.352 163.759 231.352C163.275 231.352 162.89 231.491 162.603 231.767C162.326 232.034 162.183 232.39 162.173 232.834ZM172.409 237.192V230.048H174.677V231.545C174.796 231.031 175.038 230.636 175.403 230.359C175.779 230.073 176.194 229.93 176.648 229.93C176.885 229.93 177.083 229.949 177.241 229.989V232.093C176.974 232.064 176.747 232.049 176.559 232.049C175.304 232.049 174.677 232.844 174.677 234.435V237.192H172.409ZM185.441 233.249C185.441 233.546 185.421 233.877 185.381 234.242H180.105C180.125 234.707 180.283 235.067 180.58 235.324C180.876 235.581 181.276 235.71 181.78 235.71C182.472 235.71 182.916 235.487 183.114 235.043H185.337C185.228 235.744 184.843 236.317 184.181 236.762C183.529 237.197 182.729 237.414 181.78 237.414C180.565 237.414 179.606 237.078 178.905 236.406C178.203 235.734 177.853 234.806 177.853 233.62C177.853 232.454 178.203 231.535 178.905 230.863C179.606 230.182 180.54 229.841 181.706 229.841C182.813 229.841 183.712 230.157 184.403 230.789C185.095 231.422 185.441 232.242 185.441 233.249ZM180.105 232.834H183.203C183.193 232.36 183.06 231.995 182.803 231.738C182.546 231.481 182.175 231.352 181.691 231.352C181.207 231.352 180.822 231.491 180.535 231.767C180.258 232.034 180.115 232.39 180.105 232.834ZM189.627 237.414C188.6 237.414 187.779 237.192 187.167 236.747C186.554 236.302 186.248 235.734 186.248 235.043H188.501C188.501 235.29 188.609 235.492 188.827 235.65C189.044 235.808 189.326 235.887 189.672 235.887C189.919 235.887 190.116 235.828 190.264 235.71C190.422 235.591 190.501 235.428 190.501 235.221C190.501 234.894 190.329 234.692 189.983 234.613L188.234 234.168C187.651 234.02 187.206 233.768 186.9 233.412C186.594 233.057 186.441 232.622 186.441 232.108C186.441 231.436 186.717 230.893 187.271 230.478C187.824 230.053 188.565 229.841 189.494 229.841C190.521 229.841 191.307 230.038 191.85 230.434C192.403 230.829 192.68 231.372 192.68 232.064H190.442C190.442 231.817 190.353 231.624 190.175 231.486C190.007 231.347 189.77 231.278 189.464 231.278C189.217 231.278 189.019 231.333 188.871 231.441C188.723 231.55 188.649 231.693 188.649 231.871C188.649 232.187 188.851 232.4 189.257 232.508L190.946 232.968C191.509 233.116 191.949 233.363 192.265 233.709C192.591 234.045 192.754 234.46 192.754 234.954C192.754 235.695 192.473 236.293 191.909 236.747C191.356 237.192 190.595 237.414 189.627 237.414ZM197.811 235.428C198.127 235.428 198.389 235.413 198.596 235.384V237.192C198.161 237.271 197.658 237.31 197.084 237.31C196.828 237.31 196.6 237.295 196.403 237.266C196.205 237.236 195.983 237.172 195.736 237.073C195.489 236.964 195.286 236.821 195.128 236.643C194.97 236.465 194.832 236.209 194.713 235.873C194.605 235.537 194.55 235.141 194.55 234.687V231.841H193.424V230.048H194.55V227.929H196.818V230.048H198.433V231.841H196.818V234.213C196.818 234.697 196.902 235.023 197.07 235.191C197.238 235.349 197.485 235.428 197.811 235.428ZM202.696 237.384C201.658 237.384 200.838 237.034 200.236 236.332C199.633 235.631 199.332 234.727 199.332 233.62C199.332 232.533 199.643 231.634 200.265 230.923C200.888 230.211 201.708 229.856 202.726 229.856C203.229 229.856 203.679 229.964 204.074 230.182C204.469 230.399 204.766 230.695 204.963 231.071V230.048H207.216V237.192H204.963V236.184C204.766 236.54 204.459 236.831 204.045 237.058C203.639 237.276 203.19 237.384 202.696 237.384ZM203.348 235.502C203.891 235.502 204.311 235.324 204.608 234.969C204.904 234.613 205.052 234.163 205.052 233.62C205.052 233.086 204.904 232.642 204.608 232.286C204.311 231.93 203.891 231.753 203.348 231.753C202.834 231.753 202.419 231.925 202.103 232.271C201.797 232.617 201.644 233.067 201.644 233.62C201.644 234.173 201.797 234.628 202.103 234.983C202.419 235.329 202.834 235.502 203.348 235.502ZM209.099 237.192V230.048H211.366V231.086C211.791 230.266 212.562 229.856 213.678 229.856C215.417 229.856 216.287 230.829 216.287 232.775V237.192H214.004V233.516C214.004 232.904 213.905 232.459 213.708 232.182C213.52 231.906 213.199 231.767 212.744 231.767C211.826 231.767 211.366 232.331 211.366 233.457V237.192H209.099ZM221.72 235.428C222.036 235.428 222.298 235.413 222.506 235.384V237.192C222.071 237.271 221.567 237.31 220.994 237.31C220.737 237.31 220.51 237.295 220.312 237.266C220.115 237.236 219.892 237.172 219.645 237.073C219.398 236.964 219.196 236.821 219.038 236.643C218.88 236.465 218.741 236.209 218.623 235.873C218.514 235.537 218.46 235.141 218.46 234.687V231.841H217.333V230.048H218.46V227.929H220.727V230.048H222.343V231.841H220.727V234.213C220.727 234.697 220.811 235.023 220.979 235.191C221.147 235.349 221.394 235.428 221.72 235.428ZM230.828 233.249C230.828 233.546 230.808 233.877 230.769 234.242H225.493C225.512 234.707 225.671 235.067 225.967 235.324C226.263 235.581 226.664 235.71 227.167 235.71C227.859 235.71 228.304 235.487 228.501 235.043H230.724C230.616 235.744 230.23 236.317 229.568 236.762C228.916 237.197 228.116 237.414 227.167 237.414C225.952 237.414 224.994 237.078 224.292 236.406C223.591 235.734 223.24 234.806 223.24 233.62C223.24 232.454 223.591 231.535 224.292 230.863C224.994 230.182 225.927 229.841 227.093 229.841C228.2 229.841 229.099 230.157 229.791 230.789C230.482 231.422 230.828 232.242 230.828 233.249ZM225.493 232.834H228.59C228.58 232.36 228.447 231.995 228.19 231.738C227.933 231.481 227.563 231.352 227.079 231.352C226.594 231.352 226.209 231.491 225.923 231.767C225.646 232.034 225.503 232.39 225.493 232.834Z" fill="black"/>
<rect x="376.053" y="254.397" width="8.70404" height="274.177" rx="4.35202" transform="rotate(90 376.053 254.397)" fill="#EAEAEA"/>
<rect x="337.051" y="254.34" width="8.70404" height="235.176" rx="4.35202" transform="rotate(90 337.051 254.34)" fill="#6828ED"/>
<rect x="293.364" y="217.84" width="75.7251" height="24.3713" rx="3.48161" fill="#6828ED"/>
<path d="M306.53 234.767C305.403 234.767 304.499 234.496 303.818 233.952C303.136 233.399 302.76 232.653 302.691 231.714H305.018C305.058 232.07 305.216 232.347 305.492 232.544C305.769 232.742 306.115 232.841 306.53 232.841C307.053 232.841 307.458 232.682 307.745 232.366C308.041 232.04 308.19 231.606 308.19 231.062C308.19 230.548 308.051 230.133 307.775 229.817C307.508 229.501 307.137 229.343 306.663 229.343C305.863 229.343 305.319 229.674 305.033 230.336H302.928V224.467H309.953V226.32H305.077V228.469C305.571 227.935 306.288 227.668 307.226 227.668C308.214 227.668 309.005 227.979 309.598 228.602C310.19 229.215 310.487 230.02 310.487 231.018C310.487 232.114 310.126 233.013 309.405 233.715C308.693 234.416 307.735 234.767 306.53 234.767ZM318.939 233.419C318.227 234.318 317.185 234.767 315.811 234.767C314.438 234.767 313.391 234.318 312.67 233.419C311.958 232.519 311.602 231.215 311.602 229.506C311.602 227.797 311.958 226.493 312.67 225.593C313.391 224.694 314.438 224.245 315.811 224.245C317.185 224.245 318.227 224.694 318.939 225.593C319.66 226.493 320.02 227.797 320.02 229.506C320.02 231.215 319.66 232.519 318.939 233.419ZM315.811 232.841C317.096 232.841 317.738 231.729 317.738 229.506C317.738 227.283 317.096 226.171 315.811 226.171C314.527 226.171 313.885 227.283 313.885 229.506C313.885 230.642 314.043 231.482 314.359 232.025C314.675 232.569 315.159 232.841 315.811 232.841ZM332.08 233.419C331.369 234.318 330.326 234.767 328.953 234.767C327.58 234.767 326.532 234.318 325.811 233.419C325.1 232.519 324.744 231.215 324.744 229.506C324.744 227.797 325.1 226.493 325.811 225.593C326.532 224.694 327.58 224.245 328.953 224.245C330.326 224.245 331.369 224.694 332.08 225.593C332.801 226.493 333.162 227.797 333.162 229.506C333.162 231.215 332.801 232.519 332.08 233.419ZM328.953 232.841C330.237 232.841 330.88 231.729 330.88 229.506C330.88 227.283 330.237 226.171 328.953 226.171C327.668 226.171 327.026 227.283 327.026 229.506C327.026 230.642 327.184 231.482 327.501 232.025C327.817 232.569 328.301 232.841 328.953 232.841ZM341.618 233.419C340.906 234.318 339.864 234.767 338.491 234.767C337.117 234.767 336.07 234.318 335.349 233.419C334.637 232.519 334.282 231.215 334.282 229.506C334.282 227.797 334.637 226.493 335.349 225.593C336.07 224.694 337.117 224.245 338.491 224.245C339.864 224.245 340.906 224.694 341.618 225.593C342.339 226.493 342.7 227.797 342.7 229.506C342.7 231.215 342.339 232.519 341.618 233.419ZM338.491 232.841C339.775 232.841 340.417 231.729 340.417 229.506C340.417 227.283 339.775 226.171 338.491 226.171C337.206 226.171 336.564 227.283 336.564 229.506C336.564 230.642 336.722 231.482 337.038 232.025C337.354 232.569 337.839 232.841 338.491 232.841ZM351.155 233.419C350.444 234.318 349.402 234.767 348.028 234.767C346.655 234.767 345.608 234.318 344.886 233.419C344.175 232.519 343.819 231.215 343.819 229.506C343.819 227.797 344.175 226.493 344.886 225.593C345.608 224.694 346.655 224.245 348.028 224.245C349.402 224.245 350.444 224.694 351.155 225.593C351.877 226.493 352.237 227.797 352.237 229.506C352.237 231.215 351.877 232.519 351.155 233.419ZM348.028 232.841C349.313 232.841 349.955 231.729 349.955 229.506C349.955 227.283 349.313 226.171 348.028 226.171C346.744 226.171 346.102 227.283 346.102 229.506C346.102 230.642 346.26 231.482 346.576 232.025C346.892 232.569 347.376 232.841 348.028 232.841ZM357.937 232.885C358.312 232.885 358.618 232.766 358.855 232.529C359.102 232.292 359.256 231.966 359.315 231.551H361.657C361.508 232.5 361.118 233.275 360.486 233.878C359.853 234.471 359.004 234.767 357.937 234.767C355.654 234.767 354.34 233.498 353.994 230.958H353.046L353.387 229.817H353.905V229.506V229.165H353.046L353.387 228.024H353.994C354.36 225.504 355.674 224.245 357.937 224.245C359.023 224.245 359.883 224.546 360.515 225.149C361.158 225.742 361.553 226.512 361.701 227.461H359.359C359.211 226.572 358.742 226.127 357.951 226.127C357.033 226.127 356.479 226.759 356.292 228.024H358.796L358.441 229.165H356.203V229.506V229.817H358.796L358.441 230.958H356.277C356.366 231.601 356.539 232.085 356.795 232.411C357.062 232.727 357.443 232.885 357.937 232.885Z" fill="white"/>
<circle cx="331.226" cy="259.184" r="6.66917" fill="white" stroke="#6828ED" stroke-width="4.94013"/>
<path d="M331.869 246.731C331.524 247.108 330.929 247.108 330.584 246.731L325.398 241.057C324.887 240.499 325.283 239.6 326.04 239.6L336.412 239.6C337.169 239.6 337.565 240.499 337.055 241.057L331.869 246.731Z" fill="#6828ED"/>
</g>
<defs>
<filter id="filter0_d_269_27986" x="29.0089" y="88" width="419.982" height="308.696" filterUnits="userSpaceOnUse" color-interpolation-filters="sRGB">
<feFlood flood-opacity="0" result="BackgroundImageFix"/>
<feColorMatrix in="SourceAlpha" type="matrix" values="0 0 0 0 0 0 0 0 0 0 0 0 0 0 0 0 0 0 127 0" result="hardAlpha"/>
<feOffset dy="41.9911"/>
<feGaussianBlur stdDeviation="20.9955"/>
<feComposite in2="hardAlpha" operator="out"/>
<feColorMatrix type="matrix" values="0 0 0 0 0 0 0 0 0 0 0 0 0 0 0 0 0 0 0.15 0"/>
<feBlend mode="normal" in2="BackgroundImageFix" result="effect1_dropShadow_269_27986"/>
<feBlend mode="normal" in="SourceGraphic" in2="effect1_dropShadow_269_27986" result="shape"/>
</filter>
<clipPath id="clip0_269_27986">
<rect width="477" height="400" fill="white"/>
</clipPath>
</defs>
</svg>
