<svg width="194" height="194" viewBox="0 0 194 194" fill="none" xmlns="http://www.w3.org/2000/svg">
<path d="M36.2168 121.453L86.8168 166.813L158.697 135.763L102.867 91.4429L36.2168 121.453Z" fill="#101010"/>
<path d="M36.3069 121.463C51.1769 134.253 73.0569 153.193 87.3769 166.183L86.4669 166.033C98.4669 160.893 110.607 156.093 122.607 150.953C134.287 146.023 146.937 140.433 158.467 135.243L158.337 136.243C151.277 130.823 137.187 119.863 130.187 114.383C121.887 107.953 110.307 98.7429 102.187 92.2929L103.247 92.4229C84.3769 100.883 55.5369 113.253 36.2469 121.503L36.3069 121.463ZM36.1069 121.463C47.1969 116.233 74.8569 103.183 85.6069 98.2129C91.1869 95.6029 96.8269 93.0829 102.427 90.5329C102.599 90.4501 102.791 90.4183 102.981 90.4414C103.171 90.4644 103.35 90.5413 103.497 90.6629C121.277 104.663 141.497 120.993 159.037 135.353C159.112 135.413 159.17 135.492 159.206 135.582C159.241 135.672 159.253 135.769 159.24 135.865C159.227 135.96 159.189 136.051 159.131 136.127C159.073 136.204 158.996 136.265 158.907 136.303C152.907 138.823 146.847 141.303 140.857 143.873C129.157 148.803 116.537 154.413 105.017 159.643C99.0169 162.303 93.1369 165.043 87.1469 167.643C86.9976 167.708 86.8327 167.73 86.6716 167.705C86.5105 167.68 86.3598 167.61 86.2369 167.503C71.6069 154.703 50.5569 134.843 36.1069 121.503V121.463Z" fill="#101010"/>
<path d="M42.5552 122.791C50.225 122.179 57.9812 121.956 65.7255 122.125C69.5888 122.244 73.452 122.535 77.3153 122.589C83.1103 122.706 88.9099 122.361 94.6907 122.153C102.413 121.959 110.144 121.806 117.866 122.003C123.632 122.14 129.512 122.343 135.246 122.781V122.962C121.805 123.966 108.212 123.987 94.6907 123.6C88.9099 123.395 83.1103 123.051 77.3153 123.165C73.452 123.219 69.5888 123.512 65.7255 123.629C59.9275 123.748 54.1215 123.657 48.3454 123.357C46.4137 123.261 44.4868 123.141 42.5552 122.962V122.781V122.791Z" fill="white"/>
<path d="M47.5552 129.791C55.225 129.179 62.9812 128.956 70.7255 129.125C74.5888 129.244 78.452 129.535 82.3153 129.589C88.1103 129.706 93.9099 129.361 99.6907 129.153C107.413 128.959 115.144 128.806 122.866 129.003C128.632 129.14 134.512 129.343 140.246 129.781V129.962C126.805 130.966 113.212 130.987 99.6907 130.6C93.9099 130.395 88.1103 130.051 82.3153 130.165C78.452 130.219 74.5888 130.512 70.7255 130.629C64.9275 130.748 59.1215 130.657 53.3454 130.357C51.4137 130.261 49.4868 130.141 47.5552 129.962V129.781V129.791Z" fill="white"/>
<path d="M56.5552 135.791C64.225 135.179 71.9812 134.956 79.7255 135.125C83.5888 135.244 87.452 135.535 91.3153 135.589C97.1103 135.706 102.91 135.361 108.691 135.153C116.413 134.959 124.144 134.806 131.866 135.003C137.632 135.14 143.512 135.343 149.246 135.781V135.962C135.805 136.966 122.212 136.987 108.691 136.6C102.91 136.395 97.1103 136.051 91.3153 136.165C87.452 136.219 83.5888 136.512 79.7255 136.629C73.9275 136.748 68.1215 136.657 62.3454 136.357C60.4137 136.261 58.4868 136.141 56.5552 135.962V135.781V135.791Z" fill="white"/>
<path d="M65.5366 142.791C71.3048 142.179 77.1379 141.956 82.9622 142.125C85.8676 142.244 88.7731 142.535 91.6785 142.589C96.0367 142.706 100.398 142.361 104.746 142.153C110.553 141.959 116.368 141.806 122.175 142.003C126.512 142.14 130.934 142.343 135.246 142.781V142.962C125.137 143.966 114.915 143.987 104.746 143.6C100.398 143.395 96.0367 143.051 91.6785 143.165C88.7731 143.219 85.8676 143.512 82.9622 143.629C78.6017 143.748 74.2352 143.657 69.8912 143.357C68.4385 143.261 66.9893 143.141 65.5366 142.962V142.781V142.791Z" fill="white"/>
<path d="M75.5269 151.791C78.5947 151.179 81.697 150.956 84.7946 151.125C86.3398 151.244 87.8851 151.535 89.4303 151.589C91.7482 151.706 94.068 151.361 96.3802 151.153C99.4688 150.959 102.561 150.806 105.65 151.003C107.956 151.14 110.308 151.343 112.602 151.781V151.962C107.225 152.966 101.789 152.987 96.3802 152.6C94.068 152.395 91.7482 152.051 89.4303 152.165C87.8851 152.219 86.3398 152.512 84.7946 152.629C82.4755 152.748 80.1532 152.657 77.8428 152.357C77.0702 152.261 76.2995 152.141 75.5269 151.962V151.781V151.791Z" fill="white"/>
<path d="M85.0728 159.791C85.9178 159.179 86.7723 158.956 87.6255 159.125C88.0512 159.244 88.4768 159.535 88.9025 159.589C89.5409 159.706 90.1799 159.361 90.8168 159.153C91.6675 158.959 92.5193 158.806 93.3701 159.003C94.0054 159.14 94.6532 159.343 95.2849 159.781V159.962C93.804 160.966 92.3065 160.987 90.8168 160.6C90.1799 160.395 89.5409 160.051 88.9025 160.165C88.4768 160.219 88.0512 160.512 87.6255 160.629C86.9867 160.748 86.3471 160.657 85.7107 160.357C85.4979 160.261 85.2856 160.141 85.0728 159.962V159.781V159.791Z" fill="white"/>
<path d="M36.2168 109.453L86.8168 154.813L158.697 123.763L102.867 79.4429L36.2168 109.453Z" fill="white"/>
<path d="M36.3069 109.463C51.1769 122.253 73.0569 141.193 87.3769 154.183L86.4669 154.033C98.4669 148.893 110.607 144.093 122.607 138.953C134.287 134.023 146.937 128.433 158.467 123.243L158.337 124.243C151.277 118.823 137.187 107.863 130.187 102.383C121.887 95.9529 110.307 86.7429 102.187 80.2929L103.247 80.4229C84.4169 88.8429 55.5769 101.213 36.3069 109.463ZM36.1069 109.463C47.1969 104.233 74.8569 91.1829 85.6069 86.2129C91.1869 83.6029 96.8269 81.0829 102.427 78.5329C102.599 78.4501 102.791 78.4183 102.981 78.4414C103.171 78.4644 103.35 78.5413 103.497 78.6629C121.277 92.6629 141.497 108.993 159.037 123.353C159.125 123.411 159.195 123.492 159.239 123.588C159.283 123.683 159.299 123.789 159.286 123.894C159.272 123.998 159.229 124.097 159.162 124.178C159.095 124.259 159.007 124.32 158.907 124.353C152.907 126.873 146.847 129.353 140.857 131.923C129.157 136.853 116.537 142.463 105.017 147.693C99.0169 150.353 93.1369 153.093 87.1469 155.693C86.9976 155.758 86.8327 155.78 86.6716 155.755C86.5105 155.73 86.3598 155.66 86.2369 155.553C71.6069 142.753 50.5569 122.893 36.1069 109.553V109.463Z" fill="#101010"/>
<path d="M158.627 123.683C148.177 108.683 137.537 94.0229 127.227 79.1729C117.227 64.5229 107.507 49.4529 97.0669 35.0529L97.9369 34.7229L99.4869 45.8629C100.487 52.8629 102.957 72.0229 103.887 79.3229L103.507 78.6329C121.977 92.9629 140.307 109.023 158.627 123.683ZM158.767 123.833C140.377 109.423 120.357 94.9829 102.207 80.2429C102.103 80.1598 102.017 80.0569 101.953 79.9401C101.89 79.8234 101.85 79.6951 101.837 79.5629C101.007 72.1829 98.8369 53.1829 98.1269 46.0229L96.9869 34.8329C96.9785 34.7295 97.0039 34.6262 97.0591 34.5384C97.1144 34.4506 97.1966 34.3831 97.2934 34.3459C97.3902 34.3088 97.4965 34.304 97.5963 34.3323C97.6961 34.3606 97.784 34.4204 97.8469 34.5029C107.817 49.7629 118.497 64.3529 128.927 79.3629C139.037 94.1729 148.807 109.193 158.767 123.833Z" fill="#101010"/>
<path d="M97.4569 114.063C108.293 114.063 117.077 105.279 117.077 94.443C117.077 83.6072 108.293 74.823 97.4569 74.823C86.6211 74.823 77.8369 83.6072 77.8369 94.443C77.8369 105.279 86.6211 114.063 97.4569 114.063Z" fill="#6828ED"/>
<path d="M117.177 94.443C117.307 108.863 103.307 119.313 89.7369 113.093C73.6569 105.583 72.7369 82.663 89.5469 75.353C103.227 69.593 117.307 79.943 117.177 94.443ZM116.977 94.443C116.817 77.953 95.8569 69.823 84.2469 81.233C76.8669 88.153 76.2469 101.003 83.8069 108.093C95.4469 119.403 116.977 110.863 116.977 94.443Z" fill="#101010"/>
<path d="M97.4167 34.8729C80.0767 56.6829 54.5367 88.9329 36.5567 109.763L36.5067 109.173C52.4067 123.863 71.1367 140.003 87.3667 154.233L85.9867 154.783C88.9067 116.043 93.5667 73.7129 97.4167 34.9129V34.8729ZM97.4967 34.6829C95.2767 62.6829 92.9667 96.8229 90.4967 124.603C89.5667 134.733 88.6567 144.823 87.6567 154.893C87.6364 155.114 87.5292 155.318 87.3587 155.461C87.1881 155.603 86.9681 155.672 86.7467 155.653C86.5668 155.634 86.3981 155.557 86.2667 155.433C82.0801 151.653 77.9067 147.823 73.7467 143.943C67.5467 138.163 54.9567 126.683 48.6667 121.023L35.9267 109.763C35.8515 109.683 35.8096 109.578 35.8096 109.468C35.8096 109.358 35.8515 109.253 35.9267 109.173C35.9267 109.173 51.0567 90.1129 51.0667 90.1029C61.3067 77.1729 86.6267 47.7629 97.4967 34.6829Z" fill="#101010"/>
<path d="M63.6766 3.14296C64.7723 3.99815 65.5759 5.17205 65.9766 6.50296C66.1266 7.16296 66.1066 7.90296 66.3166 8.50296C67.0866 10.393 68.7866 11.763 69.4366 13.763C69.9407 15.0356 70.192 16.3942 70.1766 17.763C70.1766 17.7921 70.165 17.8201 70.1444 17.8407C70.1238 17.8614 70.0958 17.873 70.0666 17.873C68.9763 16.9782 68.0956 15.8552 67.4866 14.583C66.4866 12.803 66.5866 10.583 65.7266 8.80296C64.9466 7.70296 63.9066 6.74296 63.7266 5.33296C63.545 4.64533 63.4808 3.93198 63.5366 3.22296C63.5403 3.20396 63.5484 3.18613 63.5605 3.17098C63.5725 3.15583 63.588 3.14381 63.6057 3.13595C63.6234 3.1281 63.6427 3.12463 63.662 3.12585C63.6813 3.12707 63.7001 3.13294 63.7166 3.14296H63.6766Z" fill="#101010"/>
<path d="M132.467 1.76294C132.356 7.84506 130.855 13.8211 128.077 19.2329C128.185 13.1505 129.686 7.17387 132.467 1.76294V1.76294Z" fill="#101010"/>
<path d="M155.577 60.1529C156.768 59.042 158.23 58.2627 159.817 57.8929C160.607 57.7529 161.467 57.7929 162.237 57.5829C164.497 56.8429 166.377 55.1429 168.717 54.5229C170.269 54.0371 171.891 53.814 173.517 53.8629C173.538 53.864 173.559 53.8713 173.576 53.8841C173.594 53.8969 173.607 53.9145 173.614 53.9348C173.622 53.955 173.623 53.977 173.618 53.998C173.613 54.019 173.602 54.0381 173.587 54.0529C171.735 55.6301 169.517 56.7168 167.137 57.2129C165.627 57.6629 163.897 57.5229 162.447 58.2129C160.997 58.9029 159.767 60.0329 158.117 60.2129C157.304 60.3759 156.472 60.4231 155.647 60.3529C155.625 60.3519 155.604 60.3445 155.587 60.3317C155.569 60.3189 155.556 60.3013 155.549 60.2811C155.541 60.2608 155.54 60.2388 155.545 60.2178C155.55 60.1968 155.561 60.1777 155.577 60.1629V60.1529Z" fill="#101010"/>
<path d="M22.4166 57.003C25.0066 57.383 28.7166 58.073 31.3266 58.563C34.3685 58.849 37.3007 59.8458 39.8866 61.473C39.9058 61.4818 39.922 61.4959 39.9334 61.5136C39.9448 61.5313 39.9508 61.5519 39.9508 61.573C39.9508 61.5941 39.9448 61.6147 39.9334 61.6324C39.922 61.6501 39.9058 61.6642 39.8866 61.673C36.8352 61.8623 33.7822 61.3278 30.9766 60.113C28.4466 59.293 24.8766 58.113 22.4166 57.203C22.3166 57.203 22.3466 56.983 22.4666 57.003H22.4166Z" fill="#101010"/>
</svg>
