<svg width="194" height="194" viewBox="0 0 194 194" fill="none" xmlns="http://www.w3.org/2000/svg">
<path d="M105.657 157.91C135.783 150.988 154.039 118.541 146.433 85.4378C138.827 52.3343 108.239 31.11 78.1127 38.032C47.9863 44.954 29.7299 77.4011 37.3359 110.505C44.942 143.608 75.5302 164.832 105.657 157.91Z" fill="#101010"/>
<path d="M59.0044 48.8394C63.2154 48.2276 67.4738 48.0045 71.7257 48.173C73.8468 48.2923 75.9679 48.5827 78.089 48.6372C81.2706 48.7539 84.4548 48.409 87.6286 48.2016C91.8682 48.0071 96.113 47.8541 100.353 48.0512C103.519 48.1886 106.747 48.3909 109.895 48.8291V49.0106C102.515 50.0245 95.0524 50.0452 87.6312 49.6588C84.4574 49.454 81.2732 49.1091 78.0915 49.2232C75.9705 49.2777 73.8494 49.5707 71.7283 49.6874C68.545 49.8067 65.3573 49.7157 62.186 49.4151C61.1255 49.3192 60.0675 49.1999 59.007 49.021V48.8394H59.0044Z" fill="white"/>
<path d="M69.895 42.8755C74.106 42.2636 78.3644 42.0405 82.6163 42.2091C84.7374 42.3283 86.8585 42.6188 88.9796 42.6732C92.1612 42.7899 95.3454 42.445 98.5193 42.2376C102.759 42.0431 107.004 41.8901 111.243 42.0872C114.409 42.2246 117.638 42.4269 120.785 42.8651V43.0466C113.406 44.0605 105.943 44.0812 98.5219 43.6949C95.348 43.49 92.1638 43.1451 88.9822 43.2592C86.8611 43.3137 84.74 43.6067 82.6189 43.7234C79.4356 43.8427 76.2479 43.7517 73.0766 43.4511C72.0161 43.3552 70.9581 43.2359 69.8976 43.057V42.8755H69.895Z" fill="white"/>
<path d="M51.2256 56.6184C55.4366 56.0065 59.695 55.7834 63.9469 55.952C66.068 56.0713 68.1891 56.3617 70.3101 56.4161C73.4918 56.5328 76.676 56.1879 79.8498 55.9805C84.0894 55.786 88.3342 55.633 92.5737 55.8301C95.7398 55.9675 98.9681 56.1698 102.116 56.608V56.7895C94.7363 57.793 87.2736 57.8267 79.8498 57.4274C76.676 57.2226 73.4918 56.8777 70.3101 56.9918C68.1891 57.0462 66.068 57.3392 63.9469 57.4559C60.7639 57.5795 57.5762 57.4929 54.4046 57.1966C53.3441 57.1007 52.2861 56.9814 51.2256 56.8025V56.621V56.6184Z" fill="white"/>
<path d="M46.0396 64.3974C50.2506 63.7856 54.509 63.5625 58.7609 63.731C60.8819 63.8503 63.003 64.1407 65.1241 64.1952C68.3057 64.3119 71.4899 63.967 74.6638 63.7596C78.9034 63.5651 83.1481 63.4121 87.3877 63.6092C90.5538 63.7466 93.7821 63.9488 96.93 64.3871V64.5686C89.5503 65.5721 82.0876 65.6058 74.6638 65.2065C71.4899 65.0016 68.3057 64.6567 65.1241 64.7708C63.003 64.8253 60.8819 65.1183 58.7609 65.235C55.5779 65.3586 52.3902 65.272 49.2186 64.9757C48.158 64.8797 47.1001 64.7605 46.0396 64.5815V64.4V64.3974Z" fill="white"/>
<path d="M42.1499 72.9544C46.3609 72.3426 50.6193 72.1195 54.8712 72.288C56.9923 72.4073 59.1134 72.6977 61.2345 72.7522C64.4161 72.8689 67.6003 72.524 70.7741 72.3166C75.0137 72.1221 79.2585 71.9691 83.498 72.1662C86.6641 72.3036 89.8924 72.5058 93.0403 72.9441V73.1256C85.6606 74.1291 78.1979 74.1628 70.7741 73.7635C67.6003 73.5586 64.4161 73.2137 61.2345 73.3278C59.1134 73.3823 56.9923 73.6753 54.8712 73.792C51.6882 73.9156 48.5005 73.829 45.3289 73.5327C44.2684 73.4367 43.2104 73.3175 42.1499 73.1385V72.957V72.9544Z" fill="white"/>
<path d="M38.7788 82.2893C42.9898 81.6774 47.2482 81.4543 51.5001 81.6229C53.6212 81.7422 55.7423 82.0326 57.8634 82.087C61.045 82.2037 64.2292 81.8588 67.403 81.6514C71.6426 81.4569 75.8874 81.3039 80.127 81.501C83.293 81.6384 86.5213 81.8407 89.6692 82.2789V82.4604C82.2895 83.4639 74.8268 83.4976 67.403 83.0983C64.2292 82.8935 61.045 82.5486 57.8634 82.6627C55.7423 82.7171 53.6212 83.0101 51.5001 83.1268C48.3171 83.2504 45.1294 83.1638 41.9578 82.8675C40.8973 82.7716 39.8393 82.6523 38.7788 82.4734V82.2919V82.2893Z" fill="white"/>
<path d="M37.7417 92.4021C41.9527 91.7902 46.2111 91.5671 50.463 91.7357C52.5841 91.8549 54.7052 92.1454 56.8263 92.1998C60.0079 92.3165 63.1921 91.9716 66.3659 91.7642C70.6055 91.5697 74.8503 91.4167 79.0898 91.6138C82.2559 91.7512 85.4842 91.9535 88.6321 92.3917V92.5732C81.2524 93.5767 73.7897 93.6104 66.3659 93.2111C63.1921 93.0062 60.0079 92.6614 56.8263 92.7755C54.7052 92.8299 52.5841 93.1229 50.463 93.2396C47.28 93.3632 44.0923 93.2766 40.9207 92.9803C39.8602 92.8844 38.8022 92.7651 37.7417 92.5862V92.4047V92.4021Z" fill="white"/>
<path d="M38.001 101.996C42.212 101.384 46.4704 101.161 50.7223 101.33C52.8434 101.449 54.9645 101.739 57.0855 101.794C60.2672 101.91 63.4514 101.566 66.6252 101.358C70.8648 101.164 75.1096 101.011 79.3491 101.208C82.5152 101.345 85.7435 101.547 88.8914 101.986V102.167C81.5117 103.171 74.049 103.191 66.6252 102.805C63.4514 102.6 60.2672 102.255 57.0855 102.369C54.9645 102.424 52.8434 102.717 50.7223 102.834C47.539 102.953 44.3513 102.862 41.18 102.561C40.1195 102.465 39.0615 102.346 38.001 102.167V101.986V101.996Z" fill="white"/>
<path d="M39.2974 110.812C43.5084 110.2 47.7668 109.977 52.0187 110.146C54.1398 110.265 56.2608 110.556 58.3819 110.61C61.5635 110.727 64.7478 110.382 67.9216 110.174C72.1612 109.98 76.4059 109.827 80.6455 110.024C83.8116 110.162 87.0399 110.364 90.1878 110.802V110.983C82.8081 111.987 75.3454 112.008 67.9216 111.621C64.7478 111.417 61.5635 111.072 58.3819 111.186C56.2608 111.24 54.1398 111.533 52.0187 111.65C48.8354 111.769 45.6477 111.678 42.4764 111.378C41.4158 111.282 40.3579 111.162 39.2974 110.983V110.802V110.812Z" fill="white"/>
<path d="M42.6685 120.147C46.8795 119.535 51.1379 119.312 55.3898 119.481C57.5108 119.6 59.6319 119.89 61.753 119.945C64.9346 120.062 68.1189 119.717 71.2927 119.509C75.5323 119.315 79.777 119.162 84.0166 119.359C87.1827 119.496 90.411 119.699 93.5589 120.137V120.318C86.1792 121.322 78.7165 121.343 71.2927 120.956C68.1189 120.751 64.9346 120.406 61.753 120.521C59.6319 120.575 57.5108 120.868 55.3898 120.985C52.2065 121.104 49.0188 121.013 45.8475 120.712C44.7869 120.617 43.729 120.497 42.6685 120.318V120.137V120.147Z" fill="white"/>
<path d="M47.0767 128.445C51.2877 127.833 55.5461 127.61 59.798 127.778C61.9191 127.898 64.0401 128.188 66.1612 128.243C69.3428 128.359 72.5271 128.014 75.7009 127.807C79.9405 127.612 84.1852 127.459 88.4248 127.657C91.5909 127.794 94.8192 127.996 97.9671 128.434V128.616C90.5874 129.619 83.1247 129.64 75.7009 129.254C72.5271 129.049 69.3428 128.704 66.1612 128.818C64.0401 128.873 61.9191 129.166 59.798 129.282C56.6147 129.402 53.427 129.311 50.2557 129.01C49.1951 128.914 48.1372 128.795 47.0767 128.616V128.434V128.445Z" fill="white"/>
<path d="M53.0405 137.261C57.2515 136.649 61.5099 136.426 65.7618 136.595C67.8829 136.714 70.004 137.004 72.1251 137.059C75.3067 137.176 78.4909 136.831 81.6648 136.623C85.9043 136.429 90.1491 136.276 94.3887 136.473C97.5547 136.61 100.783 136.812 103.931 137.251V137.432C96.5512 138.436 89.0886 138.456 81.6648 138.07C78.4909 137.865 75.3067 137.52 72.1251 137.634C70.004 137.689 67.8829 137.982 65.7618 138.099C62.5786 138.218 59.3909 138.127 56.2196 137.826C55.159 137.73 54.1011 137.611 53.0405 137.432V137.251V137.261Z" fill="white"/>
<path d="M61.8569 145.818C66.068 145.206 70.3263 144.983 74.5782 145.152C76.6993 145.271 78.8204 145.561 80.9415 145.616C84.1231 145.733 87.3073 145.388 90.4812 145.18C94.7207 144.986 98.9655 144.833 103.205 145.03C106.371 145.167 109.599 145.369 112.747 145.808V145.989C105.368 146.993 97.905 147.013 90.4812 146.627C87.3073 146.422 84.1231 146.077 80.9415 146.191C78.8204 146.246 76.6993 146.539 74.5782 146.656C71.395 146.775 68.2073 146.684 65.036 146.383C63.9754 146.287 62.9175 146.168 61.8569 145.989V145.808V145.818Z" fill="white"/>
<path d="M74.3032 152.819C78.5142 152.207 82.7726 151.984 87.0245 152.153C89.1456 152.272 91.2667 152.562 93.3878 152.617C96.5694 152.734 99.7536 152.389 102.927 152.181C107.167 151.987 111.412 151.834 115.651 152.031C118.817 152.168 122.046 152.371 125.194 152.809V152.99C117.814 153.994 110.351 154.015 102.927 153.628C99.7536 153.423 96.5694 153.078 93.3878 153.193C91.2667 153.247 89.1456 153.54 87.0245 153.657C83.8412 153.776 80.6536 153.685 77.4822 153.384C76.4217 153.289 75.3638 153.169 74.3032 152.99V152.809V152.819Z" fill="white"/>
<path d="M117.35 157.911C147.476 150.989 165.733 118.542 158.127 85.4384C150.521 52.3349 119.933 31.1106 89.8061 38.0326C59.6796 44.9546 41.4232 77.4017 49.0293 110.505C56.6353 143.609 87.2236 164.833 117.35 157.911Z" fill="white"/>
<path d="M158.215 85.4321C163.544 107.929 156.919 133.89 138.446 148.587C109.044 171.746 69.5941 157.017 53.8675 125.25C44.5508 106.718 44.014 83.7259 53.8675 65.2715C64.784 43.8428 89.2232 31.4249 112.887 37.1606C135.913 42.3959 153.213 62.8314 158.215 85.4321ZM158.039 85.4736C150.348 50.7454 113.089 26.6875 79.3645 42.7356C48.8266 57.5676 40.1089 97.6115 55.3143 126.544C71.0384 157.329 109.249 169.345 137.453 147.338C155.749 132.946 163.347 107.901 158.039 85.4736Z" fill="#101010"/>
<path d="M94.4298 102.201C94.4298 102.201 91.1238 98.2908 92.0391 94.1316C92.9544 89.9724 95.8742 85.8106 100.365 82.3801C104.856 78.9495 131.58 56.5355 133.556 57.1579C135.532 57.7802 131.946 64.0682 130.392 67.9837C128.839 71.8991 119.385 89.9335 117.049 94.9225C114.712 99.9114 111.463 104.174 106.521 106C101.579 107.825 97.7437 106.111 94.4298 102.201Z" fill="#101010"/>
<path d="M98.2309 102.201C98.2309 102.201 94.9274 98.2908 95.8531 94.1316C96.7788 89.9724 99.6882 85.808 104.179 82.3801C108.67 78.9521 135.394 56.5355 137.354 57.1579C139.315 57.7802 135.747 64.0682 134.193 67.9837C132.64 71.8991 123.186 89.9335 120.85 94.9225C118.513 99.9114 115.264 104.174 110.322 106C105.38 107.825 101.537 106.111 98.2309 102.201Z" fill="#FF8C22"/>
<path d="M98.1636 102.258C96.53 100.147 95.3113 97.5076 95.5291 94.7876C95.9077 91.7123 97.3442 88.8496 99.1749 86.3836C100.279 84.9303 101.538 83.6017 102.93 82.4215C112.472 74.4532 122.559 67.1539 132.459 59.6186C133.626 58.7733 134.769 57.9305 136.022 57.1993C136.455 56.9815 136.864 56.6807 137.401 56.7403C138.843 57.1371 138.342 59.017 138.075 60.0464C137.264 62.808 135.972 65.3699 134.964 68.0199C131.074 77.1914 126.306 85.961 121.903 94.8757C119.486 100.163 115.506 105.204 109.614 106.664C104.846 107.877 101.179 105.86 98.1662 102.255L98.1636 102.258ZM98.3011 102.141C100.098 104.262 102.481 106.101 105.315 106.394C109.495 106.767 113.372 104.242 115.97 101.161C118.698 97.9511 120.204 93.9449 122.079 90.2291C125.229 83.9151 128.613 77.5804 131.795 71.2871C133.091 68.7538 134.175 66.1219 135.449 63.6092C136.078 62.3601 136.638 61.0772 137.126 59.7664C137.315 59.1026 137.668 58.265 137.362 57.6453C137.331 57.6271 137.315 57.5934 137.271 57.5805L137.243 57.5649H137.23C137.234 57.5675 137.238 57.5689 137.243 57.5689C137.248 57.5689 137.252 57.5675 137.256 57.5649C136.95 57.6302 136.655 57.7385 136.379 57.8864C135.147 58.5625 133.957 59.3142 132.817 60.1372C122.6 67.2368 113.841 76.1672 103.868 83.591C102.5 84.6434 101.231 85.8195 100.077 87.1045C98.2414 89.1789 96.7064 91.6085 96.0607 94.3234C95.4332 97.0824 96.6234 99.9632 98.3062 102.131L98.3011 102.141Z" fill="#101010"/>
<path d="M107.652 100.759C111.14 100.759 113.968 97.9313 113.968 94.4428C113.968 90.9542 111.14 88.1262 107.652 88.1262C104.163 88.1262 101.335 90.9542 101.335 94.4428C101.335 97.9313 104.163 100.759 107.652 100.759Z" fill="white"/>
<path d="M111.31 99.704C109.887 100.666 108.199 101.309 106.433 101.229C103.58 101.133 101.226 98.7134 100.987 95.9C100.614 92.4046 102.634 88.5981 106.145 87.5609C107.521 87.1854 108.979 87.2456 110.319 87.7332C111.659 88.2208 112.816 89.1118 113.628 90.2836C115.915 93.6545 114.466 97.5569 111.308 99.704H111.31ZM111.207 99.5536C114.456 97.2691 113.615 91.969 110.548 89.9257C106.469 87.1149 100.259 90.5558 101.97 95.6848C103.238 99.105 107.869 101.864 111.207 99.5536Z" fill="#101010"/>
<path d="M32.4941 80.4431C31.5315 80.6091 30.5755 80.6583 29.6117 80.7024C28.3477 80.7517 26.9291 80.7828 25.6763 80.6532C24.5218 80.552 22.172 81.0758 20.9893 81.2288C18.7106 81.6074 16.4128 81.2755 14.1432 80.8269C12.5948 80.6065 11.0599 80.8269 9.50021 80.8269L9.48779 80.648C11.0116 79.638 12.5859 79.0863 14.1714 79.0066C15.4975 79.0377 16.8157 79.3955 18.1317 79.6522C19.0605 79.8208 20.0638 80.0438 20.9915 80.2383C21.9444 80.451 22.9044 80.4354 23.8559 80.1916C24.331 80.049 24.8096 79.8182 25.2847 79.6471C25.4619 79.5771 25.8275 79.45 26.0059 79.3878C27.6875 78.8692 29.3916 79.1285 31.0721 79.6471C31.5525 79.7959 32.0294 80.0001 32.5009 80.259L32.4941 80.4405V80.4431Z" fill="#101010"/>
<path d="M37.7274 115.421C36.5463 115.619 35.3599 115.717 34.1728 115.714C33.5113 115.751 32.7954 115.691 32.1338 115.626C31.1788 115.525 29.2268 116.054 28.2515 116.202C26.6614 116.518 25.0246 116.329 23.4468 115.997C23.1362 115.919 22.6393 115.79 22.3272 115.756C21.1687 115.631 19.9854 115.79 18.8145 115.795L18.7881 115.618C19.9916 114.612 21.3112 114.052 22.6564 113.977C23.7621 114.008 24.8476 114.361 25.9284 114.623C26.694 114.794 27.4922 115.009 28.2578 115.209C29.0334 115.422 29.8254 115.408 30.598 115.165C30.9831 115.025 31.3744 114.796 31.7611 114.623C31.9055 114.55 32.2084 114.426 32.359 114.363C33.7489 113.845 35.2008 114.104 36.5783 114.623C36.9753 114.775 37.3643 114.98 37.7414 115.237L37.7259 115.416L37.7274 115.421Z" fill="#101010"/>
<path d="M2.60732 97.497C5.0387 97.1806 7.46156 97.121 9.89199 97.2921C11.1219 97.3907 13.627 96.8695 14.891 96.7165C17.4454 96.299 20.0215 96.745 22.5692 97.1651C24.1018 97.2947 25.6241 97.1288 27.1633 97.121L27.1699 97.2999C25.5292 98.3087 23.8551 98.8552 22.1738 98.9309C20.2542 98.8583 18.3337 98.3138 16.4189 98.0026C14.9373 97.6966 13.2969 97.3181 11.8257 97.7433C11.4577 97.847 11.05 98.0026 10.681 98.1504C10.3395 98.2697 9.87024 98.4408 9.52776 98.5342C7.98946 98.9931 6.43887 98.822 4.90057 98.4823C4.13003 98.3154 3.36306 98.0419 2.60259 97.6629L2.60732 97.4814L2.60732 97.497Z" fill="#101010"/>
<path d="M53.6185 103.772C54.176 103.16 54.915 102.797 55.6773 102.906C56.0429 102.989 56.4241 103.249 56.7819 103.269C57.1515 103.281 57.515 103.174 57.8191 102.963C59.1156 102.131 60.8193 102.048 62.1002 102.963L62.1184 103.145C61.6505 103.617 61.0662 103.957 60.4247 104.131C59.7832 104.305 59.1071 104.307 58.4648 104.135C57.9462 103.99 57.3628 103.679 56.8338 103.85C56.4837 103.938 56.1596 104.262 55.8173 104.413C55.4753 104.537 55.104 104.555 54.7516 104.465C54.3408 104.388 53.9558 104.21 53.6314 103.946L53.6133 103.765L53.6185 103.772Z" fill="#101010"/>
<path d="M61.4416 66.5419C62.3985 66.9646 63.4227 67.4832 64.3536 67.9603C64.9111 68.2689 65.689 68.6915 66.2672 68.9431C67.2713 69.4786 68.039 70.3702 68.4194 71.4427L68.3157 71.5905C67.546 71.5799 66.7898 71.3871 66.1091 71.0278C65.4478 70.7245 65.0044 70.1255 64.4703 69.6561L63.6664 68.9431C62.9015 68.23 62.0666 67.4443 61.3457 66.6871L61.4494 66.5367L61.4416 66.5419Z" fill="#101010"/>
<path d="M92.5368 42.9636C92.9387 43.9256 93.3147 45.0095 93.6725 45.9974C93.8644 46.6042 94.1367 47.4469 94.383 48.0278C94.7422 49.1069 94.6858 50.2812 94.2248 51.3209L94.0485 51.3572C93.491 50.8217 93.0688 50.1614 92.8168 49.4306C92.5575 48.7538 92.6379 48.0122 92.5731 47.3043L92.4823 46.236C92.4175 45.1988 92.3527 44.0449 92.3501 42.9999L92.529 42.9636H92.5368Z" fill="#101010"/>
<path d="M154.284 93.7892C153.778 94.4426 153.081 94.8627 152.303 94.8264C151.932 94.7745 151.525 94.5463 151.172 94.5671C150.802 94.5836 150.446 94.7191 150.159 94.9535C149.563 95.4304 148.838 95.7179 148.077 95.7789C147.316 95.8399 146.555 95.6716 145.89 95.2957L145.859 95.1194C146.287 94.6105 146.841 94.2239 147.467 93.9989C148.092 93.7739 148.766 93.7185 149.42 93.8385C149.951 93.9396 150.555 94.2041 151.071 93.9914C151.411 93.8748 151.709 93.5247 152.039 93.3484C152.369 93.1976 152.738 93.1498 153.096 93.211C153.511 93.2519 153.909 93.3963 154.253 93.631L154.284 93.8099V93.7892Z" fill="#101010"/>
<path d="M132.127 51.4557C131.453 54.1188 129.119 56.8648 126.583 57.9331C127.247 55.2649 129.596 52.5318 132.127 51.4506V51.4557Z" fill="#101010"/>
<path d="M73.938 125.374C73.938 123.907 74.8454 119.279 75.2991 117.149C77.0152 118.806 82.7554 117.74 86.3652 117.622C89.975 117.504 106.367 118.332 112.877 118.332C119.386 118.332 121.339 118.332 127.198 117.977C131.884 117.693 134.871 118.095 135.778 118.332V123.836L133.707 134.547L91.6912 133.659H73.938V125.374Z" fill="#FFF4E9"/>
<path d="M73.9996 133.846C73.9801 133.815 73.971 133.779 73.9737 133.742V133.519C73.9555 131.222 73.787 128.919 73.6495 126.627C73.5925 123.516 73.9866 120.44 74.4923 117.375C74.7179 116.273 75.8251 116.193 76.7845 116.948H76.8208L76.8856 116.968C78.6774 117.279 80.5651 117.139 82.3984 117.139C87.491 117.072 92.6122 116.693 97.6971 116.968C106.586 117.487 115.472 118.646 124.374 118.07C126.915 117.785 129.446 117.344 132.021 117.391C133.442 117.379 134.861 117.506 136.258 117.77L136.31 118.13C136.771 121.641 136.447 125.152 135.674 128.582C135.293 130.473 134.801 132.392 134.824 134.321V134.271L134.046 135.335C124.029 135.643 114.025 135.853 104.001 135.418C96.481 135.086 89.0417 134.316 81.5504 133.929C79.0508 133.784 76.5044 133.794 73.9996 133.844V133.846ZM74.1267 133.714C75.3418 133.509 76.5677 133.373 77.7984 133.307C89.0468 132.705 100.295 133.825 111.539 133.719C118.786 133.719 126.798 133.776 134.007 133.672L133.229 134.733C133.178 134.483 133.161 134.228 133.177 133.973C133.312 131.681 133.934 129.469 134.474 127.255C135.177 124.34 135.55 121.273 135.314 118.283L135.7 118.706C135.102 118.568 134.496 118.466 133.885 118.4C132.009 118.192 130.118 118.154 128.235 118.286C126.332 118.451 124.426 118.732 122.512 118.75C114.733 118.877 105.481 118.568 97.6582 118.459C92.6485 118.402 87.4262 118.703 82.4113 118.687C81.1304 118.687 79.8494 118.662 78.5503 118.581C77.802 118.56 77.0591 118.447 76.3385 118.244C76.2164 118.197 76.0999 118.137 75.991 118.065C75.8682 117.968 75.7372 117.881 75.5995 117.806C75.5762 117.793 75.5684 117.806 75.5554 117.788H75.5347H75.5554C75.6617 117.772 75.781 117.687 75.7758 117.583V117.642C75.1937 120.279 74.7762 122.949 74.526 125.637C74.4067 126.985 74.4689 128.344 74.4197 129.7C74.3782 130.955 74.3134 132.293 74.1889 133.54L74.1759 133.667V133.732V133.763C74.1753 133.754 74.1719 133.746 74.1664 133.739C74.1608 133.732 74.1533 133.727 74.1448 133.724L74.1267 133.714Z" fill="#101010"/>
<path d="M84.7372 117.865C84.999 119.16 85.0948 120.483 85.0224 121.802C84.9732 122.458 84.8487 123.114 84.8254 123.77C84.8047 124.427 84.8333 125.085 84.9109 125.738C85.0573 127.045 85.1248 128.359 85.1132 129.674C85.0947 130.994 84.9689 132.311 84.7372 133.61H84.6594C84.3165 131.662 84.2069 129.68 84.3327 127.706C84.3586 126.396 84.6361 125.084 84.5739 123.77C84.4649 122.473 84.2497 121.153 84.3975 119.834C84.4355 119.172 84.5222 118.514 84.6568 117.865H84.7372Z" fill="#101010"/>
<path d="M95.1507 118.034C95.4112 119.329 95.507 120.651 95.436 121.97C95.3867 122.626 95.2597 123.282 95.2363 123.938C95.2178 124.596 95.2472 125.253 95.3245 125.906C95.4683 127.213 95.5358 128.528 95.5267 129.843C95.5082 131.163 95.3825 132.479 95.1507 133.779H95.073C94.7292 131.831 94.6186 129.849 94.7436 127.875C94.7696 126.565 95.047 125.253 94.9874 123.938C94.8785 122.642 94.6607 121.322 94.8111 120.002C94.8477 119.341 94.9344 118.683 95.0704 118.034H95.1507Z" fill="#101010"/>
<path d="M105.357 117.865C105.617 119.16 105.713 120.483 105.642 121.802C105.59 122.458 105.466 123.114 105.443 123.77C105.42 124.428 105.447 125.086 105.523 125.74C105.667 127.047 105.734 128.362 105.725 129.677C105.705 130.997 105.58 132.313 105.349 133.613H105.271C104.926 131.665 104.816 129.683 104.942 127.709C104.968 126.399 105.246 125.087 105.183 123.772C105.077 122.476 104.859 121.156 105.007 119.836C105.044 119.175 105.13 118.517 105.266 117.868L105.357 117.865Z" fill="#101010"/>
<path d="M115.319 118.96C115.58 120.252 115.677 121.572 115.607 122.888C115.555 123.544 115.431 124.2 115.407 124.856C115.386 125.514 115.416 126.172 115.496 126.824C115.639 128.131 115.707 129.446 115.698 130.761C115.677 132.081 115.551 133.397 115.319 134.697H115.241C114.899 132.749 114.789 130.767 114.915 128.792C114.941 127.48 115.218 126.168 115.156 124.856C115.05 123.547 114.832 122.24 114.98 120.92C115.017 120.259 115.104 119.601 115.239 118.952L115.319 118.96Z" fill="#101010"/>
<path d="M124.986 118.96C125.247 120.255 125.342 121.577 125.271 122.896C125.22 123.552 125.095 124.208 125.072 124.864C125.052 125.521 125.081 126.179 125.16 126.832C125.304 128.139 125.371 129.453 125.362 130.768C125.342 132.088 125.217 133.405 124.986 134.704H124.908C124.565 132.756 124.454 130.774 124.579 128.8C124.605 127.488 124.882 126.176 124.82 124.864C124.714 123.555 124.496 122.248 124.646 120.928C124.683 120.266 124.77 119.608 124.906 118.96H124.986Z" fill="#101010"/>
<path d="M81.8618 118.607C82.0913 118.734 82.3098 118.88 82.5153 119.043C82.5153 119.188 82.5153 119.333 82.5153 119.476V121.651C82.3312 121.776 82.0615 121.981 81.867 122.084C81.6725 121.981 81.4029 121.776 81.2188 121.651V119.476C81.2188 119.333 81.2188 119.188 81.2188 119.043C81.4255 118.88 81.6449 118.735 81.8748 118.607H81.8618Z" fill="#101010"/>
<path d="M81.8616 123.01C81.6817 123.245 81.4813 123.464 81.2626 123.663C81.0629 123.65 80.8659 123.663 80.6662 123.663H77.6765C77.4617 123.463 77.2624 123.246 77.0801 123.015C77.2617 122.784 77.4611 122.567 77.6765 122.367H80.6662C80.8659 122.367 81.0629 122.367 81.2626 122.367C81.4813 122.567 81.6817 122.787 81.8616 123.023V123.01Z" fill="#101010"/>
<path d="M76.4813 123.01C76.7155 123.171 76.935 123.352 77.1373 123.552C77.1373 123.734 77.1373 123.915 77.1373 124.097V126.814C76.9337 127.009 76.7171 127.19 76.4891 127.356C76.261 127.19 76.0445 127.009 75.8408 126.814V124.097C75.8408 123.915 75.8408 123.734 75.8408 123.552C76.0416 123.352 76.2604 123.17 76.4943 123.01H76.4813Z" fill="#101010"/>
<path d="M76.4814 127.955C76.6867 127.718 76.9114 127.498 77.153 127.299C77.3786 127.312 77.6016 127.299 77.8272 127.299H81.1981C81.4373 127.498 81.6617 127.715 81.8697 127.947C81.6611 128.178 81.4367 128.395 81.1981 128.595H77.8272C77.6016 128.595 77.3786 128.595 77.153 128.595C76.9107 128.397 76.686 128.179 76.4814 127.942V127.955Z" fill="#101010"/>
<path d="M79.1703 131.248C79.3945 131.33 79.6136 131.425 79.8263 131.533C79.8263 131.629 79.8263 131.725 79.8263 131.819C79.8263 132.104 79.8263 132.674 79.8263 132.959V133.245C79.6422 133.328 79.3699 133.462 79.178 133.53C78.9887 133.462 78.7165 133.328 78.5298 133.245V132.959C78.5298 132.674 78.5298 132.104 78.5298 131.819C78.5349 131.724 78.5349 131.628 78.5298 131.533C78.7418 131.426 78.96 131.33 79.1832 131.248H79.1703Z" fill="#101010"/>
<path d="M87.6621 121.459C87.8935 121.597 88.1122 121.755 88.3155 121.931C88.3155 122.09 88.3155 122.248 88.3155 122.406C88.3155 122.878 88.3155 123.829 88.3155 124.301V124.776C88.1314 124.913 87.8618 125.134 87.6673 125.25C87.4702 125.134 87.2006 124.913 87.019 124.776V122.406C87.019 122.248 87.019 122.09 87.019 121.931C87.2234 121.755 87.4429 121.597 87.6751 121.459H87.6621Z" fill="#101010"/>
<path d="M87.6621 120.925C87.8149 120.691 87.9885 120.472 88.1807 120.269C88.357 120.282 88.5334 120.269 88.6993 120.269H91.3364C91.5254 120.472 91.6988 120.689 91.855 120.918C91.6975 121.145 91.5242 121.362 91.3364 121.566H88.7175C88.5411 121.566 88.3648 121.566 88.1989 121.566C88.0072 121.364 87.8337 121.145 87.6803 120.912L87.6621 120.925Z" fill="#101010"/>
<path d="M91.8836 121.459C92.1154 121.598 92.3349 121.756 92.5397 121.931C92.5397 122.09 92.5397 122.248 92.5397 122.406V124.776C92.3556 124.913 92.0885 125.134 91.8914 125.25C91.6969 125.134 91.4273 124.913 91.2432 124.776V122.406C91.2432 122.248 91.2432 122.09 91.2432 121.931C91.4466 121.755 91.6652 121.597 91.8966 121.459H91.8836Z" fill="#101010"/>
<path d="M87.6621 125.715C87.8149 125.482 87.9885 125.263 88.1807 125.061C88.357 125.074 88.5334 125.061 88.6993 125.061H91.3364C91.5242 125.265 91.6975 125.481 91.855 125.709C91.6982 125.938 91.5248 126.154 91.3364 126.358H88.7175C88.5411 126.358 88.3648 126.358 88.1989 126.358C88.0072 126.154 87.8337 125.935 87.6803 125.702L87.6621 125.715Z" fill="#101010"/>
<path d="M87.6621 126.316C87.8937 126.455 88.1124 126.615 88.3155 126.793C88.3155 126.951 88.3155 127.11 88.3155 127.268C88.3155 127.742 88.3155 128.697 88.3155 129.171V129.648C88.1314 129.786 87.8618 130.009 87.6673 130.123C87.4431 129.976 87.2267 129.818 87.019 129.648V127.268C87.019 127.11 87.019 126.951 87.019 126.793C87.2232 126.615 87.4427 126.455 87.6751 126.316H87.6621Z" fill="#101010"/>
<path d="M91.8836 126.316C92.1156 126.456 92.3351 126.616 92.5397 126.793C92.5397 126.951 92.5397 127.11 92.5397 127.268V129.648C92.3556 129.786 92.0885 130.009 91.8914 130.123C91.6969 130.009 91.4273 129.786 91.2432 129.648V127.268C91.2432 127.11 91.2432 126.951 91.2432 126.793C91.4464 126.615 91.665 126.455 91.8966 126.316H91.8836Z" fill="#101010"/>
<path d="M87.6621 130.553C87.8149 130.32 87.9885 130.101 88.1807 129.9C88.357 129.9 88.5334 129.9 88.6993 129.9H91.3364C91.5242 130.103 91.6975 130.32 91.855 130.548C91.6975 130.776 91.5242 130.992 91.3364 131.196H88.7175C88.5411 131.196 88.3648 131.196 88.1989 131.196C88.0072 130.993 87.8337 130.773 87.6803 130.54L87.6621 130.553Z" fill="#101010"/>
<path d="M98.1043 121.433C98.3356 121.573 98.555 121.732 98.7604 121.908C98.7604 122.066 98.7604 122.224 98.7604 122.383V124.753C98.5763 124.887 98.3092 125.11 98.1121 125.227C97.9176 125.11 97.648 124.89 97.4639 124.753V122.383C97.4639 122.224 97.4639 122.066 97.4639 121.908C97.6678 121.732 97.8864 121.573 98.1173 121.433H98.1043Z" fill="#101010"/>
<path d="M98.1045 120.899C98.2588 120.667 98.4322 120.449 98.6231 120.246C98.7994 120.259 98.9732 120.246 99.1417 120.246H101.781C101.969 120.45 102.142 120.666 102.3 120.894C102.143 121.123 101.97 121.339 101.781 121.542H99.1598C98.9835 121.542 98.8098 121.542 98.6412 121.542C98.4498 121.339 98.2763 121.12 98.1226 120.886L98.1045 120.899Z" fill="#101010"/>
<path d="M98.1045 125.691C98.2581 125.459 98.4316 125.24 98.6231 125.038C98.7994 125.038 98.9732 125.038 99.1417 125.038H101.781C101.969 125.242 102.142 125.458 102.3 125.686C102.143 125.915 101.97 126.131 101.781 126.334H99.1598C98.9835 126.334 98.8098 126.334 98.6412 126.334C98.4504 126.131 98.2769 125.911 98.1226 125.678L98.1045 125.691Z" fill="#101010"/>
<path d="M98.1043 126.293C98.3363 126.433 98.5558 126.592 98.7604 126.77C98.7604 126.928 98.7604 127.086 98.7604 127.244V129.63C98.5763 129.767 98.3092 129.99 98.1121 130.104C97.9176 129.99 97.648 129.767 97.4639 129.63V127.244C97.4639 127.086 97.4639 126.928 97.4639 126.77C97.6671 126.592 97.8857 126.432 98.1173 126.293H98.1043Z" fill="#101010"/>
<path d="M102.329 126.293C102.56 126.435 102.779 126.597 102.982 126.778C102.969 126.936 102.982 127.094 102.982 127.252C102.982 127.727 102.982 128.681 102.982 129.155V129.63C102.798 129.767 102.528 129.99 102.334 130.104C102.11 129.958 101.893 129.799 101.686 129.63V129.153C101.686 128.678 101.686 127.724 101.686 127.25C101.686 127.091 101.686 126.933 101.686 126.775C101.89 126.597 102.109 126.437 102.342 126.298L102.329 126.293Z" fill="#101010"/>
<path d="M98.1045 130.53C98.2581 130.297 98.4316 130.079 98.6231 129.876C98.7994 129.889 98.9732 129.876 99.1417 129.876H101.781C101.969 130.08 102.142 130.297 102.3 130.525C102.142 130.753 101.969 130.969 101.781 131.173H99.1598C98.9835 131.173 98.8098 131.173 98.6412 131.173C98.4504 130.969 98.2769 130.75 98.1226 130.517L98.1045 130.53Z" fill="#101010"/>
<path d="M112.63 121.19C112.477 121.423 112.303 121.641 112.111 121.843C111.937 121.83 111.764 121.843 111.593 121.843H108.974C108.787 121.639 108.613 121.422 108.455 121.195C108.613 120.967 108.787 120.751 108.974 120.547H111.593C111.769 120.547 111.943 120.547 112.111 120.547C112.303 120.75 112.476 120.969 112.63 121.203V121.19Z" fill="#101010"/>
<path d="M107.856 121.19C108.092 121.366 108.311 121.563 108.512 121.778C108.512 121.975 108.512 122.172 108.512 122.37V125.32C108.311 125.532 108.094 125.728 107.864 125.909C107.635 125.728 107.418 125.531 107.216 125.32V122.37C107.216 122.172 107.216 121.975 107.216 121.778C107.416 121.563 107.634 121.366 107.869 121.19H107.856Z" fill="#101010"/>
<path d="M108.439 125.909C108.594 125.677 108.767 125.459 108.958 125.256C109.134 125.269 109.308 125.256 109.477 125.256H112.096C112.284 125.459 112.458 125.675 112.614 125.904C112.458 126.132 112.284 126.349 112.096 126.552H109.477C109.303 126.552 109.129 126.552 108.958 126.552C108.768 126.348 108.595 126.128 108.439 125.896V125.909Z" fill="#101010"/>
<path d="M112.63 126.539C112.86 126.667 113.079 126.812 113.286 126.975C113.273 127.12 113.286 127.265 113.286 127.408V129.583C113.102 129.708 112.832 129.913 112.638 130.019C112.444 129.913 112.174 129.708 111.99 129.583V127.408C111.99 127.265 111.99 127.12 111.99 126.975C112.195 126.812 112.414 126.666 112.643 126.539H112.63Z" fill="#101010"/>
<path d="M112.63 130.53C112.451 130.765 112.253 130.984 112.036 131.186C111.837 131.173 111.637 131.186 111.44 131.186H108.461C108.247 130.984 108.048 130.767 107.864 130.538C108.048 130.308 108.247 130.091 108.461 129.889H111.44C111.637 129.889 111.837 129.889 112.036 129.889C112.253 130.089 112.452 130.308 112.63 130.543V130.53Z" fill="#101010"/>
<path d="M122.497 121.073C122.343 121.306 122.169 121.525 121.978 121.729C121.805 121.716 121.628 121.729 121.46 121.729H118.841C118.653 121.525 118.48 121.309 118.322 121.081C118.48 120.853 118.653 120.636 118.841 120.433H121.46C121.634 120.433 121.81 120.433 121.978 120.433C122.17 120.635 122.343 120.854 122.497 121.086V121.073Z" fill="#101010"/>
<path d="M117.731 121.073C117.966 121.251 118.185 121.449 118.387 121.664C118.374 121.861 118.387 122.056 118.387 122.253V125.204C118.186 125.416 117.969 125.613 117.739 125.792C117.508 125.613 117.291 125.416 117.09 125.204V122.248C117.09 122.051 117.09 121.856 117.09 121.659C117.29 121.443 117.509 121.245 117.744 121.068L117.731 121.073Z" fill="#101010"/>
<path d="M118.307 125.787C118.461 125.555 118.634 125.337 118.825 125.134C118.999 125.134 119.175 125.134 119.344 125.134H121.963C122.151 125.337 122.324 125.554 122.481 125.782C122.325 126.01 122.151 126.227 121.963 126.43H119.344C119.17 126.43 118.994 126.43 118.825 126.43C118.634 126.227 118.46 126.008 118.307 125.774V125.787Z" fill="#101010"/>
<path d="M122.497 126.417C122.727 126.545 122.946 126.691 123.153 126.853C123.153 126.998 123.153 127.143 123.153 127.288V129.461C122.969 129.588 122.699 129.791 122.505 129.897C122.31 129.793 122.041 129.588 121.856 129.461V127.296C121.856 127.151 121.856 127.006 121.856 126.861C122.062 126.698 122.28 126.552 122.51 126.425L122.497 126.417Z" fill="#101010"/>
<path d="M122.497 130.408C122.317 130.642 122.118 130.861 121.901 131.061C121.703 131.061 121.504 131.061 121.307 131.061H118.327C118.113 130.86 117.914 130.643 117.731 130.413C117.913 130.182 118.113 129.966 118.327 129.765H121.307C121.504 129.765 121.703 129.765 121.901 129.765C122.118 129.965 122.318 130.185 122.497 130.421V130.408Z" fill="#101010"/>
<path d="M127.457 121.239C127.611 121.006 127.785 120.787 127.976 120.583C128.152 120.596 128.326 120.583 128.494 120.583H131.113C131.302 120.786 131.475 121.003 131.632 121.231C131.475 121.46 131.302 121.676 131.113 121.88H128.494C128.321 121.88 128.147 121.88 127.976 121.88C127.784 121.677 127.611 121.459 127.457 121.226V121.239Z" fill="#101010"/>
<path d="M132.231 121.239C132.465 121.417 132.685 121.614 132.887 121.828C132.887 122.025 132.887 122.222 132.887 122.419V125.37C132.684 125.58 132.468 125.777 132.239 125.958C132.009 125.777 131.793 125.58 131.59 125.37V122.419C131.59 122.222 131.59 122.025 131.59 121.828C131.791 121.613 132.01 121.416 132.244 121.239H132.231Z" fill="#101010"/>
<path d="M131.647 125.958C131.494 126.192 131.32 126.411 131.129 126.614C130.955 126.601 130.781 126.614 130.61 126.614H127.991C127.803 126.411 127.63 126.194 127.473 125.966C127.63 125.738 127.803 125.522 127.991 125.318H130.61C130.787 125.318 130.96 125.318 131.129 125.318C131.321 125.52 131.495 125.738 131.647 125.971V125.958Z" fill="#101010"/>
<path d="M127.457 126.588C127.687 126.716 127.906 126.862 128.113 127.024C128.113 127.169 128.113 127.314 128.113 127.46V129.63C127.929 129.754 127.659 129.959 127.465 130.066C127.27 129.959 127.001 129.757 126.816 129.63V127.457C126.816 127.312 126.816 127.167 126.816 127.021C127.022 126.858 127.24 126.713 127.47 126.586L127.457 126.588Z" fill="#101010"/>
<path d="M127.457 130.579C127.636 130.344 127.836 130.125 128.053 129.926C128.25 129.939 128.45 129.926 128.65 129.926H131.627C131.841 130.127 132.04 130.344 132.223 130.574C132.04 130.804 131.841 131.021 131.627 131.222H128.65C128.45 131.222 128.25 131.222 128.053 131.222C127.836 131.021 127.637 130.801 127.457 130.566V130.579Z" fill="#101010"/>
</svg>
