<svg width="142" height="141" viewBox="0 0 142 141" fill="none" xmlns="http://www.w3.org/2000/svg">
<g clip-path="url(#clip0_246_198999)">
<path fill-rule="evenodd" clip-rule="evenodd" d="M8.77093 59.9019V76.5319C8.77093 78.0979 9.24493 78.8659 11.2519 78.8659H13.6579C16.3929 78.8659 17.6699 77.8069 18.6179 75.8019L19.4929 73.8699L20.8789 74.2699L19.7849 80.6159H0.273926V79.2309C3.70193 78.5009 3.88393 78.3909 3.88393 77.0429V59.9019C3.88393 58.5159 3.70093 58.4439 0.273926 57.7509V56.3639H12.4909V57.7499C8.95293 58.4429 8.77093 58.5159 8.77093 59.9019ZM36.1249 67.2689C36.1249 69.4939 34.8489 72.0829 26.3869 72.4839C26.6059 75.9119 28.3569 78.1729 31.3109 78.1729C32.9519 78.1729 34.4469 77.5189 35.7959 76.2389L36.5619 77.1529C35.0299 79.4129 32.5139 80.9809 29.5959 80.9809C24.8919 80.9809 21.4629 77.5899 21.4629 72.3009C21.4629 67.1589 25.6209 63.1109 30.5079 63.1109C34.5199 63.1109 36.1249 65.5539 36.1249 67.2689ZM30.2889 64.5699C27.6269 64.5699 26.4589 67.4149 26.3499 71.0619C32.1499 70.1859 32.3689 67.9609 32.3689 66.6849C32.3689 65.1899 31.1649 64.5699 30.2889 64.5699ZM43.4189 80.9809C39.1889 80.9809 37.6199 79.2679 37.6199 77.5179C37.6199 76.1659 38.9699 74.9629 40.6839 75.3269L41.1579 75.9109C40.0639 77.8069 40.8659 79.5219 43.6369 79.5219C45.3869 79.5219 46.6269 78.5729 46.6269 77.1159C46.6269 75.4009 45.2049 74.7079 43.0179 73.8329C39.9169 72.5929 38.0939 71.1709 38.0939 68.3259C38.0939 65.5169 40.5739 63.1109 44.3299 63.1109C48.3409 63.1109 50.1289 65.0069 50.1289 66.6479C50.1289 67.9609 48.9619 69.2369 46.9189 68.7999L46.5179 68.2169C47.7579 66.5389 47.1379 64.5699 44.4029 64.5699C42.7609 64.5699 41.6669 65.5909 41.6669 66.9399C41.6669 68.5449 43.3809 69.3109 45.3499 70.0039C48.4139 71.0619 50.9309 72.4829 50.9309 75.6199C50.9319 78.7939 48.6709 80.9809 43.4189 80.9809ZM54.6159 56.3639H74.0919L74.2739 62.7459H72.9599L72.3049 60.7409C71.6489 58.7349 70.2249 58.1149 68.1839 58.1149H63.1139V67.1599H68.1099C69.1689 67.1599 69.2409 66.9779 69.9699 63.8409H71.3559V72.5929H69.9699C69.2409 69.5669 69.1679 69.1289 68.1099 69.1289H63.1139V76.5329C63.1139 78.0989 63.5889 78.8669 65.5939 78.8669H68.0009C70.7359 78.8669 72.0129 77.8079 72.9599 75.8029L73.8359 73.8709L75.2219 74.2709L74.1289 80.6169H54.6159V79.2319C58.0439 78.5019 58.2269 78.3919 58.2269 77.0439V59.9019C58.2269 58.5159 58.0439 58.4439 54.6159 57.7509V56.3639ZM90.2119 76.2389L90.9779 77.1529C89.4469 79.4129 86.9299 80.9809 84.0119 80.9809C79.3079 80.9809 75.8799 77.5899 75.8799 72.3009C75.8799 67.1589 79.6719 63.1109 84.6319 63.1109C88.5339 63.1109 90.2839 65.2259 90.2839 66.9029C90.2839 68.2889 89.4099 69.7109 86.8919 69.2749L86.4909 68.6539C87.1479 67.0129 87.4399 64.5329 84.7049 64.5329C81.8969 64.5329 80.7669 67.7419 80.7669 71.6449C80.7669 75.5099 82.5909 78.1719 85.7269 78.1719C87.3659 78.1729 88.8619 77.5189 90.2119 76.2389ZM102.977 78.6469V69.2369C102.977 67.2679 102.248 66.3919 100.826 66.3919C98.6379 66.3919 96.7769 69.8199 96.7769 74.9999V80.6149H92.1819V57.8959C92.1819 56.5459 92.0729 56.4739 89.8489 55.7449V54.3579H96.9589C96.7759 55.8169 96.7759 67.1949 96.7759 67.9609H96.8489C98.0169 65.0799 100.132 63.1109 103.086 63.1109C105.711 63.1109 107.571 64.8979 107.571 68.3619V76.8969C107.571 78.5009 107.826 78.6469 110.269 79.2309V80.6159C108.191 80.8349 106.55 80.9809 105.529 80.9809C103.853 80.9809 102.977 80.2509 102.977 78.6469ZM118.551 79.5219C121.615 79.5219 122.453 75.9479 122.453 72.3009C122.453 68.3249 121.869 64.5689 118.551 64.5689C115.489 64.5689 114.649 68.1429 114.649 71.7909C114.648 75.7669 115.304 79.5219 118.551 79.5219ZM118.187 80.9809C113.226 80.9809 109.762 77.6979 109.762 72.5919C109.762 66.9029 113.336 63.1109 118.915 63.1109C123.876 63.1109 127.339 66.3929 127.339 71.4989C127.339 77.1879 123.766 80.9809 118.187 80.9809ZM134.015 80.9809C129.785 80.9809 128.216 79.2679 128.216 77.5179C128.216 76.1659 129.565 74.9629 131.28 75.3269L131.754 75.9109C130.66 77.8069 131.462 79.5219 134.233 79.5219C135.983 79.5219 137.223 78.5729 137.223 77.1159C137.223 75.4009 135.8 74.7079 133.614 73.8329C130.513 72.5929 128.69 71.1709 128.69 68.3259C128.69 65.5169 131.17 63.1109 134.926 63.1109C138.938 63.1109 140.725 65.0069 140.725 66.6479C140.725 67.9609 139.557 69.2369 137.516 68.7999L137.114 68.2169C138.355 66.5389 137.734 64.5699 134.999 64.5699C133.358 64.5699 132.264 65.5909 132.264 66.9399C132.264 68.5449 133.978 69.3109 135.949 70.0039C139.011 71.0619 141.528 72.4829 141.528 75.6199C141.527 78.7939 139.267 80.9809 134.015 80.9809Z" fill="white"/>
<path d="M141.491 85.0439H0.223145V86.8119H141.491V85.0439Z" fill="white"/>
</g>
<defs>
<clipPath id="clip0_246_198999">
<rect width="141.73" height="33.17" fill="white" transform="translate(0 54)"/>
</clipPath>
</defs>
</svg>
