<svg width="92" height="91" viewBox="0 0 92 91" fill="none" xmlns="http://www.w3.org/2000/svg">
<g clip-path="url(#clip0_426_64533)">
<path d="M18.6835 36.8711C18.3725 36.7248 18.0433 36.6608 17.7232 36.6608C16.8635 36.6608 16.0495 37.1455 15.6654 37.9686L13.9643 41.6177C13.946 41.5812 13.9277 41.5354 13.9094 41.4988C13.507 40.6391 12.501 38.4899 12.2815 38.0052C12.2723 37.9869 12.2632 37.9595 12.2541 37.9412C12.2449 37.9229 12.2358 37.9046 12.2358 37.9046C12.2358 37.9046 12.2358 37.9046 12.2358 37.9137C12.0163 37.4747 11.6504 37.1089 11.1749 36.8803C10.8639 36.7339 10.5347 36.6699 10.2146 36.6699C9.36401 36.6699 8.5409 37.1546 8.15678 37.9777L6.45568 41.6177L4.75458 37.9777C4.22413 36.8437 2.87971 36.3498 1.7365 36.8803C0.602429 37.4107 0.108561 38.7643 0.639012 39.8983L4.3979 47.9466C4.78202 48.7697 5.60513 49.2544 6.45568 49.2544C6.77578 49.2544 7.10502 49.1812 7.41598 49.044C7.91899 48.8063 8.29397 48.413 8.51346 47.9466V47.9557C8.51346 47.9557 8.51346 47.9466 8.52261 47.9466L9.84874 45.0931C9.84874 45.084 9.85788 45.084 9.85788 45.0748L10.37 43.9682L10.745 44.9468C10.745 44.9468 10.745 44.9468 10.7359 44.9468C10.7359 44.9468 10.7907 45.0931 10.8365 45.1937L11.7328 47.535L11.8974 47.9466C11.9157 47.9831 11.934 48.0106 11.9522 48.0472C11.9614 48.0655 11.9705 48.0837 11.9797 48.102C11.998 48.1386 12.0163 48.1661 12.0437 48.2026C12.0529 48.2209 12.062 48.2392 12.0803 48.2575C12.0986 48.2941 12.126 48.3215 12.1535 48.3581C12.1626 48.3764 12.1717 48.3856 12.19 48.4038C12.2175 48.4404 12.2449 48.4679 12.2723 48.5045C12.2815 48.5136 12.2906 48.5227 12.2998 48.5319C12.5833 48.8428 12.9491 49.0715 13.3424 49.1812C13.3515 49.1812 13.3515 49.1812 13.3607 49.1812C13.5619 49.2361 13.7722 49.2635 13.9826 49.2635C14.3027 49.2635 14.6319 49.1904 14.9429 49.0532C15.3727 48.852 15.702 48.541 15.9306 48.1661C15.9672 48.102 16.0038 48.0289 16.0404 47.9557C16.0404 47.9557 16.0404 47.9649 16.0312 47.9649V47.9557L19.7901 39.9075C20.3114 38.7551 19.8176 37.4016 18.6835 36.8711ZM9.11708 45.2394C8.7604 45.276 8.40371 45.2029 8.1202 44.9193C7.98301 44.7822 7.87326 44.6267 7.78181 44.4621L6.78492 42.322L8.69638 38.2338C8.97075 37.6485 9.56522 37.2644 10.2146 37.2644C10.4615 37.2644 10.6993 37.3193 10.9188 37.4199C11.3212 37.6119 11.6321 37.9412 11.7876 38.3619C11.9431 38.7826 11.9248 39.2399 11.7328 39.6423L9.11708 45.2394ZM19.2414 39.6423L15.4825 47.6905C15.4551 47.7454 15.4276 47.8002 15.4002 47.846C15.2264 48.1295 14.9795 48.3581 14.6777 48.4953C14.449 48.5959 14.2112 48.6508 13.9734 48.6508C13.818 48.6508 13.6625 48.6325 13.5162 48.5868H13.4979C13.1961 48.5045 12.9308 48.3307 12.7205 48.102L12.7113 48.0837C12.6931 48.0563 12.6748 48.038 12.6565 48.0106L12.629 47.974C12.6107 47.9466 12.5924 47.9283 12.5742 47.9008L12.565 47.8825L12.5467 47.8551C12.5376 47.8368 12.5193 47.8094 12.501 47.7819L12.4827 47.7545L12.4736 47.7362C12.4644 47.7271 12.4553 47.7088 12.4553 47.6996L12.2998 47.3064L11.7236 45.8065C12.0894 45.7882 12.4278 45.6236 12.7205 45.3309C12.876 45.1754 13.0223 44.9834 13.1503 44.7456L13.1595 44.7273L13.1686 44.709L14.4948 41.8647L14.6136 41.6177L16.1959 38.2247C16.4702 37.6394 17.0647 37.2552 17.714 37.2552C17.961 37.2552 18.1988 37.3101 18.4183 37.4107C18.8207 37.6028 19.1316 37.932 19.2871 38.3527C19.4517 38.7826 19.4334 39.2399 19.2414 39.6423Z" fill="white"/>
<path d="M26.9425 39.3587C26.9242 39.3129 26.915 39.2581 26.915 39.1941C26.915 39.13 26.9516 39.066 27.0156 38.9837C27.0888 38.9014 27.1894 38.8648 27.3266 38.8648H28.6161C28.7716 38.8648 28.9088 38.9197 29.0368 39.0203C29.1649 39.13 29.2563 39.2581 29.3112 39.4227L30.866 44.087L32.3019 39.4227C32.4116 39.0477 32.6494 38.8648 33.0061 38.8648H34.0853C34.442 38.8648 34.6706 39.0477 34.7895 39.4227L36.2254 44.087L37.7801 39.4227C37.835 39.2581 37.9265 39.13 38.0545 39.0203C38.1825 38.9105 38.3289 38.8648 38.4752 38.8648H39.7648C39.9019 38.8648 40.0025 38.9014 40.0666 38.9837C40.1397 39.066 40.1672 39.1392 40.1672 39.1941C40.1672 39.2581 40.158 39.3129 40.1397 39.3587L37.5149 46.7027C37.3686 47.1051 37.0851 47.3063 36.6644 47.3063H35.823C35.384 47.3063 35.1096 47.1051 34.9815 46.7027L33.5457 42.1756L32.1098 46.7027C31.9818 47.1051 31.6982 47.3063 31.2684 47.3063H30.4087C29.988 47.3063 29.7136 47.1051 29.5673 46.7027L26.9425 39.3587Z" fill="white"/>
<path d="M40.5332 46.7667V39.4319C40.5332 39.2764 40.5881 39.1483 40.6978 39.0386C40.8076 38.9288 40.9356 38.874 41.0911 38.874H42.1886C42.3532 38.874 42.4812 38.9288 42.591 39.0386C42.7007 39.1483 42.7556 39.2764 42.7556 39.4319V46.7576C42.7556 46.913 42.7007 47.0411 42.591 47.1508C42.4812 47.2606 42.3441 47.3154 42.1977 47.3154H41.1002C40.9448 47.3154 40.8167 47.2606 40.707 47.16C40.5881 47.0502 40.5332 46.9222 40.5332 46.7667Z" fill="white"/>
<path d="M43.2944 39.9806V39.4319C43.2944 39.2672 43.3493 39.1392 43.4591 39.0294C43.5688 38.9197 43.6968 38.874 43.8523 38.874H50.7207C50.8762 38.874 51.0043 38.9288 51.114 39.0294C51.2238 39.1392 51.2786 39.2672 51.2786 39.4319V40.0903C51.2786 40.255 51.2421 40.4104 51.178 40.5568C51.1049 40.7031 51.05 40.8129 50.986 40.8769L50.7299 41.1421L46.1022 45.6509H50.7939C50.9585 45.6509 51.0866 45.7058 51.1872 45.8064C51.2878 45.9162 51.3427 46.0442 51.3427 46.2088V46.7667C51.3427 46.9313 51.2878 47.0594 51.1872 47.16C51.0866 47.2606 50.9494 47.3154 50.7939 47.3154H43.9621C43.8066 47.3154 43.6786 47.2606 43.5688 47.16C43.4591 47.0594 43.4042 46.9222 43.4042 46.7667V46.1174C43.4042 45.7424 43.5871 45.3674 43.9529 45.0016L48.4343 40.5568H43.8523C43.6968 40.5568 43.5688 40.5019 43.4591 40.4013C43.3493 40.2733 43.2944 40.1452 43.2944 39.9806Z" fill="white"/>
<path d="M51.8735 46.7667V39.4319C51.8735 39.2764 51.9284 39.1483 52.0382 39.0386C52.1479 38.9288 52.2759 38.874 52.4314 38.874H53.5289C53.6935 38.874 53.8216 38.9288 53.9313 39.0386C54.0411 39.1483 54.0959 39.2764 54.0959 39.4319V46.7576C54.0959 46.913 54.0411 47.0411 53.9313 47.1508C53.8216 47.2606 53.6844 47.3154 53.5381 47.3154H52.4406C52.2851 47.3154 52.1571 47.2606 52.0473 47.16C51.9284 47.0502 51.8735 46.9222 51.8735 46.7667Z" fill="white"/>
<path d="M55.1836 39.4319C55.1836 39.2764 55.2385 39.1483 55.3482 39.0386C55.458 38.9288 55.586 38.874 55.7415 38.874H60.5247C61.6953 38.874 62.5642 39.2124 63.1221 39.8891C63.433 40.2641 63.5885 40.7397 63.5885 41.3159C63.5885 41.892 63.3233 42.3951 62.7928 42.8341C63.5428 43.2365 63.9269 43.8675 63.9269 44.7181C63.9269 45.5686 63.6251 46.218 63.0215 46.657C62.4178 47.096 61.677 47.3154 60.8082 47.3154H55.7506C55.5952 47.3154 55.4671 47.2606 55.3574 47.1508C55.2476 47.0411 55.1927 46.913 55.1927 46.7576V39.4319H55.1836ZM57.3969 42.1481H60.543C60.7899 42.1481 60.9911 42.075 61.1374 41.9286C61.2838 41.7823 61.3569 41.5719 61.3569 41.3067C61.3569 41.0415 61.2838 40.8311 61.1374 40.6848C60.9911 40.5385 60.7899 40.4653 60.543 40.4653H57.3969V42.1481ZM57.3969 45.7149H60.7625C61.0643 45.7149 61.2929 45.6235 61.4575 45.4406C61.6222 45.2577 61.6953 45.0107 61.6953 44.6998C61.6953 44.3888 61.613 44.1419 61.4575 43.959C61.2929 43.7761 61.0643 43.6846 60.7625 43.6846H57.3969V45.7149Z" fill="white"/>
<path d="M72.3141 46.4375C71.5093 47.1417 70.3386 47.4892 68.7839 47.4892C67.2291 47.4892 66.0584 47.1325 65.2536 46.4375C64.4488 45.7332 64.0464 44.6175 64.0464 43.0901C64.0464 41.5628 64.4488 40.447 65.2536 39.752C66.0584 39.0477 67.2382 38.7002 68.7839 38.7002C70.3295 38.7002 71.5093 39.0477 72.3141 39.752C73.1189 40.4562 73.5213 41.5719 73.5213 43.0901C73.5122 44.6175 73.1098 45.7241 72.3141 46.4375ZM70.7045 40.9866C70.3112 40.5202 69.671 40.2824 68.7839 40.2824C67.8967 40.2824 67.2565 40.5202 66.8633 40.9866C66.4609 41.4531 66.2688 42.1573 66.2688 43.0901C66.2688 44.023 66.47 44.7181 66.8633 45.1936C67.2657 45.6601 67.9059 45.8979 68.7839 45.8979C69.671 45.8979 70.3112 45.6601 70.7045 45.1936C71.0977 44.7272 71.2989 44.023 71.2989 43.0901C71.2989 42.1573 71.0977 41.4622 70.7045 40.9866Z" fill="white"/>
<path d="M73.4206 46.7667L74.8931 41.1695C75.2955 39.6422 76.5942 38.874 78.7983 38.874H81.9719C82.1182 38.874 82.2371 38.9288 82.3377 39.0386C82.4383 39.1483 82.484 39.2764 82.484 39.4227V46.7759C82.484 46.9313 82.4292 47.0594 82.3194 47.16C82.2097 47.2606 82.0816 47.3154 81.9261 47.3154H80.8195C80.6549 47.3154 80.5268 47.2606 80.4262 47.16C80.3256 47.0594 80.2708 46.9222 80.2708 46.7667V45.2668H76.0912L75.6979 46.7484C75.6613 46.913 75.5699 47.0411 75.4327 47.1417C75.2955 47.2423 75.1492 47.2972 74.9937 47.2972H73.8322C73.6767 47.2972 73.567 47.2514 73.5029 47.1691C73.4389 47.0777 73.4023 47.0045 73.4023 46.9405C73.4023 46.8765 73.4115 46.8124 73.4206 46.7667ZM76.521 43.6023H80.2708V40.5293H78.5971C78.2221 40.5293 77.8929 40.6391 77.6094 40.8494C77.3259 41.0598 77.1429 41.3524 77.0423 41.7091L76.521 43.6023Z" fill="white"/>
<path d="M82.8408 39.9806V39.4319C82.8408 39.2672 82.8957 39.1392 82.9963 39.0294C83.106 38.9197 83.2341 38.874 83.3987 38.874H90.8616C91.0262 38.874 91.1543 38.9288 91.264 39.0294C91.3738 39.1392 91.4195 39.2672 91.4195 39.4319V39.9806C91.4195 40.1452 91.3646 40.2733 91.264 40.3739C91.1543 40.4745 91.0262 40.5293 90.8616 40.5293H88.2368V46.7576C88.2368 46.913 88.1819 47.0411 88.0722 47.1417C87.9624 47.2423 87.8344 47.2972 87.6789 47.2972H86.5814C86.4259 47.2972 86.2979 47.2423 86.1882 47.1417C86.0784 47.0411 86.0235 46.913 86.0235 46.7576V40.5293H83.3987C83.2341 40.5293 83.106 40.4745 82.9963 40.3739C82.8957 40.2733 82.8408 40.1452 82.8408 39.9806Z" fill="white"/>
</g>
<defs>
<clipPath id="clip0_426_64533">
<rect width="90.9998" height="12.5936" fill="white" transform="translate(0.428711 36.6607)"/>
</clipPath>
</defs>
</svg>
