<svg width="92" height="91" viewBox="0 0 92 91" fill="none" xmlns="http://www.w3.org/2000/svg">
<g clip-path="url(#clip0_428_64533)">
<path d="M21.5583 59.9259H10.7399C5.37326 59.9259 0.982422 55.4465 0.982422 49.9716V39.5469C0.982422 34.072 5.37326 29.5926 10.7399 29.5926H21.5583C26.9249 29.5926 31.3158 34.072 31.3158 39.5469V49.9716C31.3158 55.4465 26.9249 59.9259 21.5583 59.9259Z" fill="black"/>
<path d="M21.5583 59.9259H10.7399C5.37326 59.9259 0.982422 55.4465 0.982422 49.9716V39.5469C0.982422 34.072 5.37326 29.5926 10.7399 29.5926H21.5583C26.9249 29.5926 31.3158 34.072 31.3158 39.5469V49.9716C31.3158 55.4465 26.9249 59.9259 21.5583 59.9259Z" fill="white"/>
<path fill-rule="evenodd" clip-rule="evenodd" d="M8.53303 54.227C7.71696 54.227 7.04932 53.5637 7.04932 52.7531V36.6342C7.04932 35.8236 7.71696 35.1603 8.53303 35.1603H23.3324C24.1485 35.1603 24.816 35.8236 24.816 36.6342V52.7531C24.816 53.5637 24.1485 54.227 23.3324 54.227H8.53303Z" fill="white"/>
<path fill-rule="evenodd" clip-rule="evenodd" d="M22.8561 53.2671C23.6714 53.2568 24.3257 52.58 24.2986 51.7749C24.2721 50.9866 23.6267 50.3613 22.8362 50.3582C22.0241 50.3552 21.3586 51.0169 21.3646 51.8216C21.3708 52.6277 22.041 53.2772 22.8561 53.2671ZM11.5688 51.8027C11.5629 51.0276 10.9124 50.3746 10.1299 50.3585C9.31995 50.3418 8.63523 50.9928 8.62308 51.7907C8.61081 52.5891 9.27944 53.2629 10.0878 53.2667C10.8922 53.2705 11.5746 52.5959 11.5688 51.8027ZM21.2454 48.6081C23.6317 48.0962 24.7975 46.523 24.818 44.0935C24.8248 43.2836 24.7775 42.4693 24.6929 41.6635C24.3449 38.345 22.5306 36.2788 19.2925 35.558C17.3132 35.1172 15.3087 35.1096 13.3267 35.5395C10.3547 36.1842 8.4844 37.992 7.91596 40.9962C7.70794 42.0952 7.63014 43.2393 7.6604 44.3582C7.71961 46.5453 8.79941 47.9847 10.927 48.4715C12.6906 48.8749 13.6737 49.1794 16.1932 49.2127C18.7128 49.2461 19.6487 48.9505 21.2454 48.6081ZM27.4152 39.0196C27.4156 39.6738 27.4164 40.3281 27.4155 40.9822C27.414 41.9304 27.2557 42.1007 26.2163 42.1958C26.2163 42.3784 26.2139 42.5692 26.2167 42.7598C26.2651 46.0474 26.3155 49.335 26.362 52.6227C26.37 53.1895 26.4424 53.7708 26.3443 54.3204C26.1277 55.5334 25.131 56.141 23.9297 55.901C22.1748 55.5502 20.4109 55.2427 18.6621 54.8646C16.7617 54.4536 14.895 54.6594 13.0254 55.0379C11.54 55.3388 10.0549 55.6434 8.56458 55.9187C7.20563 56.1697 6.10283 55.2628 6.13143 53.8812C6.20363 50.3988 6.30955 46.9171 6.4076 43.4353C6.41916 43.0272 6.46682 42.6201 6.49732 42.2179C5.47042 42.0741 5.31744 41.8963 5.31625 40.9126C5.31553 40.298 5.31613 39.6835 5.31661 39.0688C5.31744 37.9197 5.45005 37.7653 6.56833 37.6306C6.62742 37.2506 6.65733 36.857 6.75252 36.4796C7.13438 34.9675 8.5112 33.879 10.1078 33.8731C14.2778 33.8577 18.4478 33.8542 22.6176 33.8745C24.4888 33.8837 25.8811 35.2694 26.0913 37.2484C26.1036 37.3643 26.1093 37.481 26.1209 37.6333C27.239 37.7519 27.4144 37.9478 27.4152 39.0196Z" fill="black"/>
<path fill-rule="evenodd" clip-rule="evenodd" d="M78.3601 48.8609C78.2366 49.9185 77.5983 50.6538 76.5927 50.9053C75.9406 51.0684 75.2135 51.0851 74.5459 50.9871C73.7006 50.8629 73.1732 50.258 73.0215 49.3976C72.8715 48.5475 73.138 47.8372 73.8613 47.3416C74.0598 47.2056 74.2802 47.0865 74.5076 47.0126C75.7757 46.6004 77.076 46.7983 78.3747 46.7521C78.3747 47.506 78.4382 48.1919 78.3601 48.8609ZM77.2927 40.7612C75.7907 40.3267 74.3001 40.4437 72.8612 41.0641C72.6798 41.1423 72.3977 41.3747 72.4217 41.4682C72.48 41.6967 72.6502 41.9828 72.8494 42.0665C73.1118 42.1766 73.4488 42.1525 73.7468 42.1198C74.3478 42.0541 74.9424 41.8777 75.5425 41.8633C77.668 41.8122 78.8556 43.3583 78.3435 45.5141C77.6621 45.5141 76.9694 45.512 76.2768 45.5147C75.2064 45.5189 74.1635 45.6516 73.2079 46.1909C72.0029 46.8708 71.411 48.0272 71.5737 49.3913C71.7382 50.7698 72.6006 51.8653 73.9086 52.1778C75.5567 52.5713 77.1124 52.4121 78.4361 50.9878V52.2168H79.8363C79.7797 49.3119 79.799 46.4569 79.6372 43.6123C79.5571 42.202 78.6949 41.1669 77.2927 40.7612ZM90.6017 45.8439H83.8406C83.9735 44.4025 84.3747 43.1297 85.6525 42.3525C86.8004 41.6545 88.0237 41.6463 89.164 42.3423C90.4339 43.1174 90.6525 44.4044 90.6017 45.8439ZM91.9815 46.5541C91.9637 46.064 91.9978 45.5713 91.9692 45.0822C91.843 42.9171 90.6416 41.2507 88.8551 40.7377C86.7633 40.1369 84.552 40.8201 83.4583 42.5782C82.0756 44.8008 81.9103 47.2075 83.118 49.5365C84.8121 52.8035 88.7174 52.7699 91.0145 51.7887C91.1228 51.7425 91.2326 51.5682 91.243 51.4449C91.2733 51.0834 91.2538 50.7179 91.2538 50.2939C89.9266 50.982 88.5731 51.1423 87.166 50.9323C85.2394 50.6447 83.8626 49.0567 83.8761 47.0505H84.4739C86.8022 47.0505 89.1306 47.0421 91.4591 47.0587C91.8452 47.0614 91.9955 46.94 91.9815 46.5541ZM68.3843 46.9778C67.8944 46.6247 67.3406 46.357 66.801 46.0803C66.1526 45.7479 65.4681 45.4839 64.8357 45.1247C64.0536 44.6804 63.7634 44.0357 63.9394 43.2389C64.1132 42.4525 64.6874 42.0351 65.4236 41.9738C66.1743 41.9111 66.941 41.9804 67.6957 42.0473C68.2497 42.0964 68.6739 41.9268 68.8627 41.4863C68.9662 41.2446 68.939 41.0728 68.666 41.0079C68.1444 40.8839 67.6258 40.7189 67.0966 40.6626C65.962 40.542 64.8395 40.5715 63.8345 41.2433C62.1121 42.3949 62.0392 44.7924 63.7321 45.9744C64.3392 46.3983 65.0441 46.679 65.7033 47.0272C66.3009 47.3429 66.9185 47.6269 67.4881 47.9881C68.0744 48.3599 68.2535 48.9725 68.1774 49.6399C68.1008 50.3115 67.7043 50.7789 67.073 50.9688C66.6484 51.0966 66.1901 51.1447 65.7446 51.1598C64.6487 51.1969 63.6287 50.8729 62.5875 50.3318C62.5875 50.7733 62.5641 51.1079 62.5983 51.4362C62.6131 51.5774 62.7173 51.7841 62.8316 51.8287C64.4805 52.472 66.1798 52.7163 67.853 52.0249C69.9566 51.1557 70.2371 48.313 68.3843 46.9778ZM47.8749 42.0998C47.7944 43.655 46.5259 44.9584 44.7879 45.1138C43.6713 45.2135 42.5388 45.1324 41.3464 45.1324V38.1351C41.633 38.1351 41.9179 38.1239 42.2016 38.1372C43.1697 38.1824 44.156 38.1331 45.1011 38.3085C46.9505 38.6518 47.9769 40.1307 47.8749 42.0998ZM45.6392 37.1965C43.8041 36.8501 41.8902 36.9282 39.9824 36.8148V52.2306H41.3171C41.3171 50.454 41.3346 48.7205 41.3055 46.9879C41.2976 46.5117 41.4466 46.4088 41.8943 46.4066C43.0375 46.4006 44.2024 46.4577 45.3185 46.2596C47.2653 45.914 48.7278 44.8379 49.2143 42.7982C49.8314 40.2112 48.319 37.7024 45.6392 37.1965ZM58.8127 41.9146C57.9056 44.4317 57.0097 46.953 56.1082 49.4721C56.0436 49.6524 55.9684 49.8287 55.8617 50.0996C54.7333 47.2685 53.6568 44.5553 52.5697 41.8463C52.206 40.9399 51.6228 40.6177 50.5764 40.7442C50.6801 40.9991 50.7636 41.2083 50.85 41.4162C52.2441 44.7751 53.6404 48.1331 55.0281 51.4946C55.1043 51.6789 55.18 51.9094 55.1374 52.09C54.7829 53.5954 53.4098 54.6888 51.8758 54.7172C51.6224 54.722 51.3689 54.7178 51.1109 54.7178V55.9665C51.3332 56.0053 51.5343 56.0661 51.7369 56.0717C53.1998 56.1124 54.4778 55.6328 55.3257 54.4172C55.8971 53.5978 56.348 52.6649 56.7046 51.7257C58.0199 48.2603 59.2739 44.7711 60.5495 41.2905C60.6119 41.1196 60.6599 40.9434 60.7183 40.758C59.7157 40.6596 59.1381 41.0113 58.8127 41.9146Z" fill="white"/>
</g>
<defs>
<clipPath id="clip0_428_64533">
<rect width="91" height="30.8148" fill="white" transform="translate(0.982422 29.5926)"/>
</clipPath>
</defs>
</svg>
