<svg width="171" height="26" viewBox="0 0 171 26" fill="none" xmlns="http://www.w3.org/2000/svg">
<g clip-path="url(#clip0_211_13375)">
<path d="M41.82 23.4257C34.9691 19.4703 31.428 12.8585 26.8412 2.34448C38.0337 0.889778 47.0687 1.58961 52.5875 4.77589C57.7375 7.74924 59.502 14.3345 56.5287 19.4845C53.5553 24.6345 46.97 26.399 41.82 23.4257Z" fill="#6828ED"/>
<path d="M16.6726 2.81694C23.5236 6.77233 27.0647 13.3841 31.6514 23.8981C20.459 25.3528 11.424 24.653 5.90518 21.4667C0.75519 18.4934 -1.00933 11.9081 1.96402 6.7581C4.93737 1.6081 11.5226 -0.156414 16.6726 2.81694Z" fill="#FF8C22"/>
<path d="M76.7662 21.6552C78.6487 21.6552 79.9381 20.8558 80.6344 19.5406V21.32H84.5542V8.89009H80.6344V15.5692C80.6344 17.2455 79.9123 18.3286 78.2361 18.3286C76.7404 18.3286 76.173 17.4002 76.173 15.6982V8.89009H72.1759V16.575C72.1759 19.7985 73.7748 21.6552 76.7662 21.6552ZM87.818 8.89009V21.32H91.7636V14.8214C91.7636 12.913 92.5888 11.8815 94.1619 11.8815C95.7607 11.8815 96.3539 12.8357 96.3539 14.9245V21.32H100.325V13.6351C100.325 10.2569 98.8037 8.55485 95.7865 8.55485C93.904 8.55485 92.4857 9.30271 91.7636 10.6953V8.89009H87.818ZM103.482 3.26828V21.32H107.428V3.26828H103.482ZM112.671 7.7812C114.089 7.7812 115.12 6.6981 115.12 5.38291C115.12 4.04193 114.089 2.95882 112.671 2.95882C111.252 2.95882 110.246 4.04193 110.246 5.38291C110.246 6.6981 111.252 7.7812 112.671 7.7812ZM110.685 8.89009V21.32H114.63V8.89009H110.685ZM117.887 8.89009V21.32H121.833V14.9245C121.833 12.5778 122.684 11.8815 123.948 11.8815C125.16 11.8815 125.779 12.5778 125.779 14.3056V21.32H129.75V14.9245C129.75 12.5778 130.601 11.8815 131.839 11.8815C133.051 11.8815 133.695 12.6036 133.695 14.3314V21.32H137.667V13.6093C137.667 11.0047 136.816 8.55485 133.257 8.55485C131.426 8.55485 129.956 9.50901 129.286 10.85C128.744 9.5348 127.609 8.55485 125.392 8.55485C123.664 8.55485 122.375 9.45743 121.833 10.6953V8.89009H117.887ZM142.765 7.7812C144.183 7.7812 145.215 6.6981 145.215 5.38291C145.215 4.04193 144.183 2.95882 142.765 2.95882C141.347 2.95882 140.341 4.04193 140.341 5.38291C140.341 6.6981 141.347 7.7812 142.765 7.7812ZM140.779 8.89009V21.32H144.725V8.89009H140.779ZM154.506 18.2512C153.526 18.2512 152.779 17.9675 152.779 16.1366V12.0105H155.589V8.89009H152.779V5.20239H148.833V8.89009H146.873V12.0105H148.833V16.9618C148.833 21.1137 151.386 21.5263 153.243 21.5263C154.377 21.5263 155.306 21.4231 155.873 21.32V18.1738C155.512 18.2254 154.996 18.2512 154.506 18.2512ZM163.082 21.6552C164.81 21.6552 166.357 20.8042 167.028 19.5664V21.32H170.948V3.26828H167.028V10.6695C166.357 9.40586 164.939 8.55485 163.134 8.55485C159.524 8.55485 157.228 11.3915 157.228 15.105C157.228 18.8443 159.369 21.6552 163.082 21.6552ZM164.217 18.3801C162.386 18.3801 161.251 16.9876 161.251 15.105C161.251 13.2225 162.386 11.8557 164.217 11.8557C166.177 11.8557 167.183 13.3257 167.183 15.105C167.183 16.9102 166.177 18.3801 164.217 18.3801Z" fill="#101010"/>
</g>
<defs>
<clipPath id="clip0_211_13375">
<rect width="171" height="25.08" fill="white" transform="translate(0 0.459991)"/>
</clipPath>
</defs>
</svg>
