<svg width="142" height="141" viewBox="0 0 142 141" fill="none" xmlns="http://www.w3.org/2000/svg">
<g clip-path="url(#clip0_246_199016)">
<path d="M49.3093 73.7594H49.3423H49.5202C50.2418 74.2536 50.5186 74.5502 51.0425 75.0543V75.0873H51.0096C51.0096 75.0873 50.97 75.0543 50.9107 74.9983C50.8415 74.939 50.7328 74.8599 50.5944 74.7413C50.3176 74.5238 49.8827 74.2075 49.3093 73.8022V73.7693V73.7594ZM50.2879 73.7001H48.8447V74.2734C48.9831 74.3228 49.1017 74.3821 49.2204 74.4316C49.8827 74.6886 50.199 74.8863 50.2089 74.8962C50.2484 74.9291 51.7213 75.6969 52.947 76.8139C54.1728 77.9408 54.3804 77.8419 55.8829 79.5125L56.0707 79.73C55.3195 78.6327 54.2321 77.4762 52.4923 75.9044C52.3045 75.7364 52.1068 75.5585 51.919 75.3706C51.3061 74.7973 50.713 74.1746 50.2879 73.7001Z" fill="white"/>
<path d="M53.968 77.0664C52.9037 76.0581 51.4704 74.6742 50.5412 73.6066H50.2611C50.9267 74.3677 51.734 75.208 52.4951 75.8901C54.3634 77.5705 55.4837 78.7864 56.2416 79.9528L55.8692 79.5278C54.3634 77.8572 54.169 77.956 52.9334 76.8291C51.6977 75.6923 50.1919 74.9114 50.1919 74.9114C50.1919 74.9114 49.7471 74.6248 48.7783 74.2887V74.7335C50.0766 75.1981 50.6466 75.5243 50.6466 75.5243C50.6466 75.5243 52.5478 76.5919 53.9416 77.9363C55.1344 79.0928 55.4046 79.3894 55.6781 79.6958C55.6781 79.6958 56.2547 80.1011 56.5414 80.2197C56.5414 80.2197 56.0538 79.0335 53.968 77.0664Z" fill="#101010"/>
<path d="M53.9688 77.0658C52.9013 76.0476 51.4679 74.6736 50.5519 73.606H50.5189H50.2389V73.6389C50.888 74.3902 51.7117 75.2304 52.4696 75.9224C54.3379 77.6029 55.4549 78.8088 56.2062 79.9753H56.2391L55.8602 79.5502C54.3609 77.8796 54.16 77.9785 52.9243 76.8516C51.6887 75.7148 50.196 74.924 50.196 74.924L50.1631 74.957L50.196 74.924C50.196 74.924 49.7413 74.6472 48.7627 74.3012V74.3342V74.779C49.4151 75.0163 49.8797 75.214 50.1861 75.3524C50.3344 75.4314 50.4563 75.4809 50.5222 75.5204C50.6013 75.5599 50.6343 75.5797 50.6343 75.5797C50.6343 75.5797 50.7496 75.6489 50.9506 75.7675C51.5503 76.1333 52.8782 76.9834 53.9128 77.9818C55.1188 79.1383 55.3857 79.4349 55.6625 79.7413C55.6625 79.7413 56.2358 80.1466 56.5225 80.2554H56.5554V80.2224C56.5554 80.2224 56.0711 79.0362 53.9853 77.0691C55.02 78.0576 55.6625 78.8385 56.0381 79.3822C56.2358 79.6491 56.3643 79.8666 56.4368 80.0049C56.4731 80.0741 56.506 80.1236 56.5225 80.1631C56.5225 80.2027 56.5554 80.2125 56.5554 80.2125H56.5884V80.1796C56.4599 80.1203 56.2391 79.9918 56.0612 79.883C55.8866 79.7644 55.7383 79.6656 55.7383 79.6656C55.4681 79.3591 55.1913 79.0626 53.9952 77.906C52.6014 76.5616 50.7035 75.494 50.7035 75.494C50.7035 75.494 50.1235 75.158 48.8253 74.6934V74.7263H48.8582V74.2815H48.8253C49.313 74.4594 49.6688 74.6176 49.9061 74.7263C50.0214 74.7856 50.1038 74.8252 50.1631 74.8548C50.2191 74.8943 50.2487 74.9042 50.2487 74.9042C50.2487 74.9042 50.341 74.9537 50.4959 75.0525C50.9835 75.3194 52.0478 75.9718 52.977 76.8219C54.2127 77.9587 54.4104 77.8599 55.9129 79.5206L56.2885 79.9456H56.3215V79.9127C55.5571 78.7462 54.4433 77.5304 52.5849 75.8499C51.8205 75.1678 51 74.3177 50.3509 73.5664H50.318V73.5994H50.598V73.5664V73.5994C51.5173 74.6571 52.954 76.041 54.0314 77.0493L53.9688 77.0658Z" fill="#101010"/>
<path d="M51.0334 75.0552C50.4996 74.551 50.2327 74.2644 49.5012 73.7602H49.3232C50.4897 74.5708 51.0334 75.0552 51.0334 75.0552Z" fill="#101010"/>
<path d="M51.0334 75.0552C50.4996 74.551 50.2327 74.2545 49.5012 73.7503H49.3232V73.7833C49.9065 74.1886 50.3315 74.5049 50.6182 74.7323C50.7566 74.841 50.8554 74.93 50.9345 74.9893C50.9938 75.0387 51.0334 75.0684 51.0334 75.0684H51.0663V75.0354C51.0663 75.0354 50.5226 74.5412 49.3562 73.7405V73.7734H49.5341V73.7405C50.2557 74.2446 50.5325 74.5412 51.0663 75.0354L51.0334 75.0552Z" fill="#101010"/>
<path d="M50.5983 73.701H50.3709C51.0135 74.4325 51.7845 75.2234 52.516 75.8758C54.3843 77.5661 55.5013 78.7721 56.2624 79.9385V79.9715H56.2295L55.8539 79.5366C54.3513 77.8759 54.1536 77.9747 52.918 76.8478C51.9888 75.9977 50.9212 75.3453 50.4368 75.0685C50.2787 74.9795 50.1897 74.9301 50.1897 74.9301C50.1897 74.9301 50.1568 74.8971 50.1007 74.8807C50.0414 74.8477 49.9623 74.8016 49.8437 74.7423C49.6164 74.6335 49.2902 74.4951 48.8354 74.3271V74.7324C50.0909 75.1871 50.6543 75.5133 50.6543 75.5133C50.6543 75.5133 52.5522 76.5809 53.946 77.9253C55.1421 79.0818 55.4189 79.3784 55.6858 79.6848C55.7188 79.6848 55.844 79.7936 56.012 79.9023C56.1702 80.011 56.3679 80.1198 56.4964 80.189C56.4964 80.189 56.4964 80.189 56.4964 80.156C56.4635 80.1231 56.447 80.0671 56.4173 79.9979C56.3382 79.8595 56.2097 79.6519 56.0219 79.3751C55.6364 78.8413 54.9939 78.0505 53.9559 77.0719V77.0389V77.0719C52.9081 76.0834 51.5242 74.7489 50.595 73.6912" fill="#101010"/>
<path d="M48.8423 74.7279V74.7674C49.4552 74.9948 49.9 75.1826 50.1867 75.321C50.3448 75.3902 50.4536 75.4396 50.5326 75.4791C50.6018 75.5187 50.6414 75.5385 50.6414 75.5385C50.6414 75.5385 50.76 75.6077 50.9577 75.7263C51.5508 76.092 52.8754 76.9421 53.9232 77.9405C55.1292 79.107 55.3961 79.3936 55.6729 79.71C55.6729 79.71 56.2462 80.1153 56.5329 80.2339H56.5658V80.2009C56.5658 80.2009 56.0815 79.0147 53.9957 77.0476V77.0805C55.0337 78.0592 55.6762 78.85 56.0518 79.3838C56.2396 79.6605 56.3681 79.8681 56.4472 80.0065C56.4868 80.0757 56.5164 80.135 56.5263 80.1647C56.3879 80.1054 56.2001 79.9966 56.0321 79.8879C55.8739 79.7792 55.7355 79.6803 55.7157 79.6704C55.4389 79.364 55.172 79.0674 53.9759 77.9109C52.5723 76.5665 50.6842 75.4989 50.6842 75.4989C50.6842 75.4989 50.1208 75.1727 48.8654 74.718L48.8423 74.7279ZM50.3877 73.6899H50.3481C50.9906 74.4214 51.7815 75.232 52.513 75.8943C54.2527 77.4661 55.35 78.6226 56.1012 79.7199L55.9035 79.5024C54.401 77.8318 54.2033 77.9307 52.9677 76.8038C51.7518 75.6867 50.269 74.9058 50.2295 74.886C50.2295 74.886 49.9033 74.6883 49.241 74.4214C49.1224 74.372 49.0037 74.3226 48.8654 74.2732V74.3127C49.3102 74.4808 49.6463 74.6191 49.8637 74.7279C49.9824 74.7872 50.0713 74.8366 50.1306 74.8663C50.19 74.8992 50.2097 74.9157 50.2097 74.9157C50.2097 74.9157 50.3086 74.9651 50.4667 75.0541C50.9412 75.3309 52.0187 75.9833 52.9479 76.8334C54.1835 77.9603 54.3713 77.8615 55.8739 79.5222L56.2495 79.9571H56.2825V79.9242C55.5213 78.7577 54.4043 77.5418 52.536 75.8614C51.8144 75.209 51.0335 74.4181 50.391 73.6866L50.3877 73.6899ZM50.6677 73.6866H50.6282C51.5475 74.7444 52.9413 76.0788 53.9891 77.0674V77.0344C52.9512 76.0558 51.5772 74.7312 50.648 73.6834" fill="#101010"/>
<path d="M49.497 73.7764H49.3784C49.955 74.1718 50.3669 74.498 50.647 74.7056C50.3175 74.3991 50.0341 74.1421 49.497 73.7764Z" fill="#101010"/>
<path d="M49.3826 73.7761H49.4913C50.0251 74.1517 50.3117 74.3989 50.6478 74.7152C50.3711 74.4977 49.946 74.1814 49.3826 73.7761ZM49.5012 73.7366H49.3232V73.7695C49.9065 74.1748 50.3315 74.501 50.6083 74.7185C50.7566 74.8272 50.8554 74.9162 50.9246 74.9755C50.9938 75.0249 51.0235 75.0546 51.0334 75.0645H51.0663V75.0315C50.5325 74.5274 50.2557 74.2407 49.5341 73.7366H49.5012Z" fill="#101010"/>
<path d="M0.599121 64.8809H10.0592V68.0738H8.90261C8.34904 68.0738 8.18099 68.2913 8.18099 68.8349V76.0412C8.18099 76.3872 8.46766 76.7035 8.94215 76.7035H11.6704C12.0263 76.7035 12.4711 76.4564 12.4711 75.9522V73.3623H16.2472V79.9062H0.599121V76.7134H1.70625C2.22027 76.7134 2.48717 76.5453 2.48717 76.0214V68.8349C2.48717 68.3703 2.39821 68.0738 1.77545 68.0738H0.599121V64.8809Z" fill="white"/>
<path d="M17.8945 64.8809H33.4504V69.7048H29.5589V68.9041C29.5589 68.4099 29.3118 68.0738 28.5573 68.0738H25.17V70.7922H28.8274V73.7083H25.17V76.7035H28.7154C29.1833 76.7035 29.5589 76.4168 29.5589 75.883V75.0626H33.4504V79.9062H17.8945V76.7134H18.7348C19.1796 76.7134 19.486 76.5354 19.486 76.0807V68.8646C19.486 68.3802 19.4069 68.0738 18.7842 68.0738H17.8945V64.8809Z" fill="white"/>
<path d="M41.2007 64.8809H57.1289V69.7048H53.2308V68.8844C53.2308 68.4494 52.964 68.0738 52.3708 68.0738H48.8452V70.7922H52.1039V73.7083H48.8452V75.8731C48.8452 76.4761 49.0989 76.7134 49.8798 76.7134H51.1154V79.9062H41.2007V76.7134H42.5154C42.8943 76.7134 43.1579 76.4662 43.1579 76.0807V68.8646C43.1579 68.4099 43.0789 68.0738 42.4594 68.0738H41.2007V64.8809Z" fill="white"/>
<path d="M66.1509 68.8306C66.1509 68.2671 66.3288 68.0793 66.8725 68.0793H68.0389V64.8765H58.6382V68.0793H59.8343C60.4669 68.0793 60.5559 68.366 60.5559 68.8306V76.0368C60.5559 76.6002 60.2099 76.7189 59.8145 76.7189H58.6382V79.9019H68.0389V76.7189H66.8922C66.4375 76.7189 66.1509 76.5409 66.1509 76.017V68.8306Z" fill="white"/>
<path d="M81.8916 64.8791H85.2228V70.1578H81.8718C81.8718 70.1578 80.9129 67.8546 78.2044 67.8546C76.178 67.8546 74.5964 69.3175 74.5964 72.0261C74.5964 76.6128 77.1368 76.9983 78.2341 76.9983C80.4879 76.9983 81.0118 75.4068 81.0118 74.7642H78.9162V71.9964H86.1224C86.1224 71.9964 86.0894 73.1233 86.0894 73.924C86.0894 74.3095 85.7138 80.1714 77.6377 80.1714C71.8055 80.1714 68.751 76.8401 68.751 72.0953C68.751 68.9419 71.2223 64.6518 77.1434 64.6518C80.4549 64.6518 81.8883 66.006 81.8883 66.006V64.8791H81.8916Z" fill="white"/>
<path d="M103.75 76.7159C103.108 76.7159 102.91 76.1426 102.525 75.2134C102.208 74.4522 98.5508 64.8835 98.5508 64.8835H92.7582C92.7582 64.8835 88.8239 75.5198 88.646 75.9745C88.4186 76.5083 88.0924 76.7159 87.5092 76.7159H86.6689V79.8989H93.7566V76.8741H92.7779C92.3529 76.8741 92.254 76.5479 92.3924 76.0932C92.5605 75.5693 92.8471 74.7488 92.8471 74.7488H97.1471C97.1471 74.7488 97.3844 75.4902 97.6117 76.1722C97.7798 76.6863 97.2361 76.8741 96.9099 76.8741H96.0697V79.8989H104.601V76.7159H103.75ZM93.5391 72.6828L95.0219 68.2642H95.0713L96.4848 72.6828H93.5391Z" fill="white"/>
<path d="M123.758 76.7159C123.175 76.7159 123.086 76.4391 122.789 76.0536C122.502 75.6681 120.703 72.8607 120.703 72.8607C120.703 72.8607 123.333 72.1292 123.333 69.3219C123.333 66.5244 120.99 65.526 119.992 65.269C118.993 65.012 116.838 64.8835 116.255 64.8835H113.359H105.984V68.0763H106.993C107.635 68.0763 107.714 68.3927 107.714 68.8276V75.9647C107.714 76.281 107.665 76.7159 106.963 76.7159H105.984V79.8989H115.029V76.7159H114.11C113.477 76.7159 113.398 76.3699 113.398 75.9943V73.5626H115.415L119.122 79.8989H124.796V76.7159H123.758ZM115.454 70.9628H113.398V67.8688H115.632C116.285 67.8688 117.441 68.106 117.441 69.4504C117.441 70.4587 116.7 70.9628 115.454 70.9628Z" fill="white"/>
<path d="M133.158 64.6513C126.851 64.6513 124.568 68.8722 124.568 72.2529C124.568 76.7408 127.731 80.1709 133.099 80.1709C137.883 80.1709 141.649 77.5513 141.649 72.4407C141.649 67.5872 138.051 64.6513 133.158 64.6513ZM133.257 76.9978C131.873 76.9978 130.42 76.1773 130.42 71.9959C130.42 69.4159 131.408 67.8145 133.099 67.8145C134.7 67.8145 135.867 68.8722 135.867 72.2826C135.867 75.9697 134.651 76.9978 133.257 76.9978Z" fill="white"/>
<path d="M42.4859 64.8107V64.8799H42.6341C42.5748 64.847 42.5254 64.8305 42.476 64.8107H42.4859ZM39.5994 63.7431L39.7675 65.6016C39.9355 65.7894 40.1036 65.9673 40.2914 66.1353L40.1233 64.1386H40.1563L40.3342 66.1749C40.5023 66.3232 40.6703 66.4714 40.8482 66.6098L40.6703 64.4648H40.7098L40.8878 66.6494C40.9866 66.7285 41.0954 66.7976 41.1942 66.8767V64.8898H41.2272V64.7712H41.2601V64.8898H41.6753C40.9339 64.5834 40.2321 64.188 39.5994 63.753V63.7431ZM39.0459 63.3576L39.1842 64.9294C39.3523 65.1468 39.5302 65.3643 39.7279 65.5719L39.5698 63.7431H39.6027C39.4149 63.6146 39.237 63.4861 39.059 63.3576H39.0459ZM38.5055 62.9227L38.6043 64.1188C38.7724 64.3659 38.9503 64.6229 39.1579 64.8799L39.0195 63.328C38.8416 63.1896 38.6735 63.0611 38.5055 62.9227ZM37.9618 62.4581L38.0112 63.1303C38.1496 63.3873 38.3177 63.674 38.5055 63.9705C38.5384 64.0035 38.545 64.0298 38.5648 64.0496L38.4659 62.893C38.288 62.7448 38.12 62.5965 37.9618 62.4581ZM37.4478 61.9737C37.4873 62.0825 37.5565 62.2406 37.6455 62.4284C37.7344 62.6064 37.8432 62.8238 37.9717 63.0512L37.9321 62.4284C37.7443 62.2703 37.5862 62.1121 37.4478 61.9737ZM36.6767 61.1829C36.7097 62.0034 36.8448 62.8832 36.9832 63.5059C37.0326 63.753 37.1018 64.0199 37.171 64.2967C37.171 64.3363 37.2039 64.356 37.2039 64.356C37.0359 64.2769 36.9173 64.188 36.8283 64.1089C36.7492 64.0595 36.6701 63.9804 36.5713 63.8914C36.6042 63.9606 36.6108 64.0199 36.6207 64.0792C36.6603 64.1682 36.6998 64.2769 36.7393 64.3857C36.8876 64.7613 37.1051 65.2556 37.4016 65.7894C37.975 66.857 38.8152 68.0629 39.9124 68.6066V68.6396L39.8795 68.6725C39.8795 68.6725 39.8004 68.6725 39.6719 68.6725C39.7213 68.7055 39.751 68.7121 39.751 68.7121C39.237 68.6528 38.7625 68.4946 38.5351 68.4056C38.5681 68.4386 38.5845 68.4551 38.6142 68.4847C38.7328 68.6033 38.9305 68.7813 39.237 69.0185C39.8696 69.493 40.9471 70.2047 42.7659 71.1537V71.1866C42.7659 71.1866 42.7066 71.2196 42.5682 71.2262H42.5353C42.4859 71.2262 42.4167 71.2262 42.3376 71.2262C42.1399 71.2262 41.8631 71.1932 41.4974 71.1174C41.5303 71.1174 41.5369 71.1504 41.5567 71.1504C41.6456 71.2097 41.7741 71.2888 41.9422 71.3876C42.2486 71.5754 42.6638 71.8226 43.1383 72.0796V68.9065C43.1383 68.4518 43.0592 68.1157 42.4364 68.1157H41.181V67.137C39.3128 65.8619 37.8399 63.2621 37.3456 61.9375C36.9107 61.5124 36.6537 61.2159 36.6537 61.2159" fill="white"/>
<path d="M45.6392 67.3486L45.8764 70.1066C46.084 70.3241 46.262 70.5218 46.4102 70.7195L46.1928 68.1988H46.1598C46.0709 68.0307 45.9522 67.833 45.804 67.6155C45.7545 67.5266 45.6853 67.4475 45.626 67.3585L45.6392 67.3486ZM41.1876 67.1015V68.09H42.443C43.0658 68.09 43.1449 68.4261 43.1449 68.8709V72.0539C43.1844 72.0869 43.2239 72.0935 43.2635 72.1133C44.2718 72.6569 45.5272 73.2402 46.5058 73.4082V68.8314C46.5058 68.8314 46.4168 68.604 46.229 68.2679L46.4465 70.7788V70.8117V71.0391H46.4135C46.2554 70.7821 45.2076 69.3092 41.639 67.3915C41.4809 67.3025 41.3227 67.2037 41.1646 67.0949L41.1876 67.1015ZM41.2041 64.8807H41.1646V66.8676C41.2337 66.917 41.3029 66.9664 41.382 67.0158L41.2041 64.8807ZM42.6078 64.8807H42.4595L42.4924 65.0784V65.1113H42.4595C42.4595 65.1113 42.4595 65.1113 42.4265 65.1113C42.4265 65.1509 42.4265 65.1706 42.3936 65.1706C42.1366 65.1014 41.8895 65.0125 41.6423 64.9037H41.2173L41.3952 67.0587C41.5632 67.1674 41.7313 67.2663 41.9092 67.3651L41.7214 65.0817H41.7544L41.9521 67.3948C41.9521 67.3948 41.985 67.3948 41.9916 67.4277C42.1498 67.5068 42.298 67.5958 42.4562 67.6748L42.2486 65.3024H42.2816H42.3145L42.5221 67.6946C42.6901 67.7935 42.8681 67.8923 43.0361 68.0011L42.789 65.1344H42.8285L43.0757 68.0307C43.2437 68.1394 43.4216 68.2482 43.5897 68.3569L43.3327 65.421H43.3722L43.6193 68.3767C43.7973 68.4953 43.9653 68.6139 44.1334 68.7326L43.8862 65.767H43.9192L44.1762 68.7622C44.3541 68.8907 44.5222 69.0192 44.6902 69.1477L44.4332 66.1822H44.4728L44.7298 69.1873C44.9077 69.3355 45.0955 69.4838 45.2636 69.6321L45.0066 66.7456H45.0395L45.2965 69.6716C45.4942 69.8397 45.6623 69.9978 45.8204 70.156L45.5832 67.3882C44.9604 66.5578 43.9917 65.5792 42.6275 64.9663" fill="white"/>
<path d="M46.1657 67.8925C45.8 67.2698 45.0487 66.133 44.2381 65.5695C43.0618 64.7392 42.1128 64.3635 42.1128 64.3635L42.3699 64.8677C42.3699 64.8677 40.3928 64.1164 39.5526 63.5134C38.2873 62.5941 36.4981 60.8345 36.4981 60.8345C36.3993 62.1196 36.9528 64.0472 36.9528 64.0472C36.7057 63.9286 36.2905 63.3849 36.2905 63.3849C37.1604 67.0424 39.345 68.4461 39.345 68.4461C39.1967 68.4461 38.06 68.0507 38.06 68.0507C39.177 69.6224 42.3007 71.0063 42.3007 71.0063C41.9646 71.0063 40.9069 70.779 40.9069 70.779C43.7241 73.0031 46.6007 73.6753 46.6007 73.6753V73.4282C44.594 73.1316 41.411 71.0261 41.411 71.0261C42.3699 71.2732 42.7653 71.1151 42.7653 71.1151C39.1078 69.227 38.4356 68.278 38.4356 68.278C39.088 68.6141 39.8788 68.6141 39.8788 68.6141C37.6843 67.5169 36.4783 63.7902 36.4783 63.7902C36.8737 64.1955 37.1406 64.2844 37.1406 64.2844C36.5772 62.1394 36.5574 60.963 36.5574 60.963C36.6167 61.1113 37.714 62.3569 39.7404 63.7408C41.1046 64.6601 42.4984 65.0753 42.4984 65.0753L42.4391 64.7095C42.4391 64.7095 42.7455 64.7095 44.1689 65.7573C45.1278 66.4592 45.8494 67.5663 46.1756 68.1792L46.1427 67.8925H46.1657Z" fill="#101010"/>
<path d="M46.167 67.8941H46.1999C45.8342 67.2713 45.073 66.1346 44.2723 65.5612C43.0861 64.7408 42.1371 64.3552 42.1371 64.3552H42.1042V64.3882L42.3612 64.8923H42.3942V64.8594C42.3942 64.8594 42.2755 64.8198 42.0778 64.7408C41.4847 64.5035 40.2194 63.9697 39.5967 63.515C38.9541 63.0504 38.193 62.3782 37.59 61.8247C37.2836 61.5479 37.0265 61.3007 36.8288 61.1228C36.6509 60.9449 36.5323 60.8361 36.5323 60.8361H36.4993C36.4993 60.9449 36.4993 61.0635 36.4993 61.1821C36.4993 62.4375 36.9639 64.0488 36.9639 64.0488H36.9969V64.0159C36.8783 63.9664 36.7102 63.7984 36.5718 63.6501C36.5125 63.571 36.4532 63.5018 36.4038 63.4425C36.3642 63.3931 36.3445 63.3634 36.3445 63.3634H36.3115V63.3964C37.1913 67.0638 39.3759 68.4773 39.3759 68.4773V68.4444C39.343 68.4444 39.2474 68.4114 39.1189 68.3752C38.9212 68.3159 38.6642 68.2368 38.4566 68.1676C38.249 68.0984 38.0908 68.0391 38.0908 68.0391H38.0579V68.072C39.1848 69.6438 42.3184 71.0376 42.3184 71.0376V71.0046C42.1602 71.0046 41.8043 70.9453 41.4979 70.886C41.1915 70.8366 40.9246 70.7773 40.9246 70.7773H40.8916V70.8102C43.7188 73.0344 46.6052 73.7065 46.6052 73.7065H46.6382V73.4594L46.6052 73.4265C45.6068 73.2782 44.3119 72.6851 43.2739 72.1216C42.75 71.8449 42.2854 71.5681 41.9592 71.3704C41.7912 71.2715 41.6627 71.1825 41.5737 71.1232C41.4748 71.0639 41.4254 71.0343 41.4254 71.0343V71.0672C41.8406 71.176 42.147 71.2056 42.3645 71.2056C42.6512 71.2056 42.7797 71.1562 42.7797 71.1562V71.1232V71.0903C40.9608 70.1512 39.8734 69.4494 39.2507 68.9749C38.9442 68.7278 38.7466 68.5498 38.6279 68.4411C38.5686 68.3818 38.5291 68.3323 38.4994 68.3027C38.4665 68.2697 38.4665 68.2697 38.4665 68.2697C39.1288 68.6157 39.9196 68.6157 39.9196 68.6157L39.9525 68.5828V68.5498C38.8553 68.0061 38.0052 66.8001 37.4318 65.7326C37.1452 65.1988 36.9277 64.7045 36.7794 64.3388C36.7102 64.1509 36.6509 64.0027 36.6213 63.9038C36.5817 63.7951 36.5619 63.7358 36.5619 63.7358H36.529C36.9244 64.1509 37.1913 64.2399 37.2012 64.2399V64.207C36.9244 63.1295 36.7761 62.2991 36.697 61.7357C36.6575 61.4589 36.6377 61.2414 36.6278 61.103C36.6278 60.9548 36.5949 60.8856 36.5949 60.8856H36.5619C36.5949 60.935 36.6608 61.0338 36.7992 61.192C37.2341 61.6764 38.2325 62.6352 39.7548 63.683C41.119 64.6024 42.5128 65.0175 42.5227 65.0175V64.9846L42.4633 64.609H42.4304C42.4633 64.609 42.806 64.6782 44.1405 65.6568C45.0895 66.3586 45.8111 67.4658 46.1373 68.0786H46.1703V68.0457L46.1373 67.759H46.1044H46.0714L46.1044 68.0457H46.1373H46.1703C45.8342 67.4328 45.1126 66.3257 44.1537 65.6139C42.7302 64.576 42.4238 64.5661 42.4139 64.5661V64.5991L42.4732 64.9648H42.5062V64.9319C42.5062 64.9319 42.4172 64.8989 42.2591 64.8627C41.8043 64.6946 40.7664 64.2893 39.7482 63.6073C38.74 62.9153 37.959 62.253 37.4252 61.7489C37.1583 61.5017 36.9508 61.2843 36.8025 61.1261C36.6641 60.9679 36.585 60.8592 36.5652 60.8296H36.5323V60.8625C36.5323 60.8625 36.5652 62.0388 37.1155 64.1938H37.1485C37.0891 64.1608 36.842 64.0653 36.496 63.6995H36.4631V63.7325C36.4631 63.7325 37.6691 67.469 39.8735 68.5762V68.5432V68.5103C39.8735 68.5103 39.824 68.5103 39.7351 68.5103C39.4879 68.5103 38.9245 68.4312 38.4401 68.1841H38.4072V68.217C38.4072 68.217 39.0991 69.1759 42.7467 71.0639V71.031V70.998C42.7467 70.998 42.7467 70.998 42.7138 70.998C42.6643 71.031 42.5358 71.0474 42.3282 71.0474C42.1207 71.0474 41.8142 71.0145 41.3991 70.9091H41.3661V70.942C41.3661 70.942 44.5491 73.0475 46.5657 73.3342H46.5327V73.5912H46.5657V73.5583C46.5657 73.5583 46.5162 73.5583 46.4372 73.5253C45.844 73.3672 43.3332 72.6159 40.8718 70.6685V70.7015C40.8718 70.7015 41.9295 70.9288 42.2755 70.9288H42.3085V70.8959C42.3085 70.8959 42.2591 70.8629 42.1701 70.8267C41.5572 70.54 39.0365 69.3044 38.0678 67.9402V67.9732C38.0678 67.9732 38.3544 68.072 38.6609 68.1709C38.8092 68.2203 38.9673 68.2697 39.0958 68.3093C39.2243 68.3488 39.3232 68.3686 39.3627 68.3686H39.3957V68.3356C39.3957 68.3356 39.3627 68.3027 39.2968 68.2664C38.8718 67.9501 37.1122 66.4772 36.3511 63.2745H36.3181C36.3181 63.2745 36.417 63.4129 36.5554 63.5611C36.6937 63.7094 36.8618 63.8775 36.9804 63.9368H37.0134V63.9038C37.0134 63.9038 36.9804 63.805 36.9442 63.6369C36.8058 63.1229 36.5389 61.9762 36.5389 61.047C36.5389 60.9284 36.5389 60.8098 36.5718 60.7109H36.5389V60.7439C36.5389 60.7439 38.3281 62.4935 39.5934 63.4129C40.4435 64.0257 42.4106 64.777 42.4106 64.777H42.4436V64.744L42.1964 64.2399H42.1635V64.2729C42.1635 64.2729 42.2327 64.3058 42.3315 64.3421C42.6578 64.4903 43.409 64.8561 44.2888 65.469C45.0895 66.0324 45.8506 67.1692 46.2065 67.792H46.2395H46.2065H46.2395L46.167 67.8941Z" fill="#101010"/>
<path d="M46.4637 71.022C46.3055 70.765 45.2577 69.2921 41.6892 67.3645C39.5441 66.2178 37.834 63.1633 37.3496 61.7893C37.3496 61.7893 38.8324 65.7433 42.0351 67.3941C44.0221 68.4222 45.7618 69.8358 46.4538 70.8045V71.022H46.4637Z" fill="#101010"/>
<path d="M46.4628 71.0225H46.4958C46.3277 70.7655 45.2799 69.2827 41.7015 67.365C39.5762 66.2183 37.8562 63.1638 37.3718 61.7898H37.3389C37.3389 61.7898 38.8315 65.7537 42.0343 67.4045C44.0212 68.4425 45.761 69.8461 46.443 70.8149H46.476H46.443V71.0324H46.476H46.5089H46.476H46.5089L46.476 70.8149C45.784 69.8363 44.0443 68.4326 42.0574 67.3946C40.456 66.5742 39.2895 65.1705 38.5185 63.9843C38.133 63.3813 37.8463 62.8376 37.6585 62.4422C37.5596 62.2445 37.4904 62.0863 37.4509 61.9677C37.4015 61.859 37.3718 61.7997 37.3718 61.7997H37.3389V61.8326C37.8232 63.2165 39.5334 66.271 41.6883 67.4276C45.2568 69.3453 46.3047 70.8182 46.4529 71.0752H46.4859V71.0422H46.4529L46.4628 71.0225Z" fill="#101010"/>
<path d="M37.9884 63.1685L37.939 62.259L37.9884 63.1685Z" fill="#101010"/>
<path d="M37.9189 62.2585L37.9684 63.168H38.0079L37.9585 62.2585H37.9189Z" fill="#101010"/>
<path d="M38.5937 64.1528L38.4751 62.7689L38.5937 64.1528Z" fill="#101010"/>
<path d="M38.4517 62.7659L38.5802 64.1597H38.6131L38.5044 62.7659H38.4549H38.4517Z" fill="#101010"/>
<path d="M39.1814 64.999L39.043 63.279L39.1814 64.999Z" fill="#101010"/>
<path d="M39.0195 63.2849L39.1579 65.0049H39.1975L39.0624 63.2849H39.0195Z" fill="#101010"/>
<path d="M39.7681 65.7119L39.6001 63.7349L39.7681 65.7119Z" fill="#101010"/>
<path d="M39.5825 63.7383L39.7506 65.7153H39.7901L39.6221 63.7383H39.5825Z" fill="#101010"/>
<path d="M41.4412 67.1089L41.2402 64.7661L41.4412 67.1089Z" fill="#101010"/>
<path d="M41.2285 64.7666L41.4262 67.1094H41.4592L41.2714 64.7567H41.2318L41.2285 64.7666Z" fill="#101010"/>
<path d="M40.3273 66.2271L40.1494 64.1314L40.3273 66.2271Z" fill="#101010"/>
<path d="M40.1333 64.1368L40.3112 66.2324H40.3508L40.1728 64.1368H40.1333Z" fill="#101010"/>
<path d="M40.8895 66.8062L40.6885 64.4535L40.8895 66.8062Z" fill="#101010"/>
<path d="M40.6768 64.4569L40.8843 66.8096H40.9173L40.7295 64.4569H40.6899H40.6768Z" fill="#101010"/>
<path d="M41.9825 67.3926L41.7881 65.0498L41.9825 67.3926Z" fill="#101010"/>
<path d="M41.77 65.0546L41.9677 67.4072H42.0007L41.8129 65.0546H41.7733H41.77Z" fill="#101010"/>
<path d="M42.5321 67.7397L42.3179 65.2487L42.5321 67.7397Z" fill="#101010"/>
<path d="M42.3047 65.2585L42.5189 67.7495H42.5518L42.3475 65.2585H42.308H42.3047Z" fill="#101010"/>
<path d="M43.0846 68.0698L42.8276 65.0845L43.0846 68.0698Z" fill="#101010"/>
<path d="M42.8086 65.0807L43.0656 68.0562H43.1051L42.8481 65.0807H42.8086Z" fill="#101010"/>
<path d="M43.6395 68.4688L43.3726 65.3648L43.6395 68.4688Z" fill="#101010"/>
<path d="M43.355 65.3638L43.6186 68.4678H43.6614L43.3945 65.354H43.355V65.3638Z" fill="#101010"/>
<path d="M44.1893 68.8506L43.9224 65.6972L44.1893 68.8506Z" fill="#101010"/>
<path d="M43.9023 65.701L44.1692 68.8643H44.2088L43.9452 65.7109H43.9023V65.701Z" fill="#101010"/>
<path d="M44.7341 69.2153L44.4771 66.1015L44.7341 69.2153Z" fill="#101010"/>
<path d="M44.4551 66.1035L44.7121 69.2173H44.7516L44.4946 66.1035H44.4551Z" fill="#101010"/>
<path d="M45.3138 69.7134L45.0469 66.6589L45.3138 69.7134Z" fill="#101010"/>
<path d="M45.0249 66.6534L45.2918 69.731H45.3313L45.0644 66.6633H45.0249V66.6534Z" fill="#101010"/>
<path d="M45.8693 70.231L45.6123 67.2555L45.8693 70.231Z" fill="#101010"/>
<path d="M45.5933 67.2478L45.8503 70.2266H45.8898L45.6328 67.2478H45.5933Z" fill="#101010"/>
<path d="M46.4399 70.9243L46.2026 68.1565L46.4399 70.9243Z" fill="#101010"/>
<path d="M46.1831 68.1667L46.4171 70.9346H46.4599L46.2226 68.1667H46.1831Z" fill="#101010"/>
<path d="M36.5153 60.8779C36.5153 60.9767 36.5153 61.0756 36.5153 61.1744C36.5153 62.1135 36.7822 63.2602 36.9107 63.7643C36.9602 63.9423 36.9799 64.0411 36.9799 64.0411V64.0741H36.947C36.8185 64.0148 36.6504 63.8467 36.512 63.6984C36.433 63.6095 36.3736 63.5205 36.3242 63.4711C37.0953 66.6145 38.835 68.0676 39.2601 68.384C39.3194 68.4235 39.3491 68.4433 39.3491 68.4433V68.4762V68.5092C39.2996 68.5092 39.2008 68.4762 39.0723 68.44C38.9438 68.407 38.7856 68.3609 38.6373 68.3016C38.41 68.2324 38.2024 68.1632 38.1035 68.1237C39.0921 69.4779 41.5633 70.6839 42.1762 70.9706C42.2652 71.0101 42.3146 71.0299 42.3146 71.0299V71.0628L42.2816 71.0958C41.995 71.0958 41.1943 70.9376 40.9472 70.8882C43.3987 72.7861 45.8699 73.5374 46.4532 73.6956C46.5026 73.6956 46.5421 73.7285 46.5619 73.7285V73.5209C44.5453 73.2244 41.3821 71.1287 41.3821 71.1287V71.0958H41.415C41.8302 71.2045 42.1367 71.2342 42.3541 71.2342C42.542 71.2342 42.6507 71.2012 42.71 71.1946C39.092 69.3264 38.4199 68.3774 38.4199 68.3774V68.3444H38.4528C38.9372 68.5916 39.5006 68.6608 39.7576 68.6706C39.7906 68.6706 39.7972 68.6706 39.8071 68.6706C37.6521 67.5141 36.4758 63.8665 36.4758 63.8665V63.8335H36.5087C36.8152 64.1597 37.0524 64.2784 37.1315 64.3179C36.5779 62.1827 36.5483 61.0163 36.5483 61.0163H36.5812H36.6142C36.6142 61.0492 36.7031 61.1547 36.8514 61.3128C36.97 61.4512 37.148 61.6292 37.3655 61.8367H37.3984C37.3984 61.8367 37.3984 61.8697 37.4314 61.8862C37.4643 61.8862 37.4643 61.9191 37.4808 61.9356C37.6291 62.0641 37.7872 62.2124 37.9651 62.3705V62.3211H37.9981V62.4002C38.1563 62.5386 38.3243 62.677 38.5022 62.8253H38.5352V62.8582C38.9108 63.1646 39.3359 63.481 39.8104 63.7973C40.8285 64.4892 41.8665 64.8945 42.3212 65.0527C42.42 65.0922 42.4892 65.112 42.5288 65.1219L42.4793 64.7759H42.5123C42.5123 64.7759 42.8187 64.8089 44.2422 65.8336C44.8254 66.2587 45.3098 66.8221 45.6854 67.3362V67.3691C45.9128 67.6755 46.0907 67.9721 46.2192 68.1995V68.0017C45.8535 67.379 45.1022 66.2521 44.3015 65.6886C43.4217 65.0758 42.6606 64.7001 42.3443 64.5617C42.2948 64.5288 42.2454 64.5222 42.2157 64.5024L42.453 64.967V65H42.42C42.42 65 40.4529 64.2586 39.6127 63.6457C38.4363 62.7956 36.8053 61.2239 36.5779 60.9965" fill="#101010"/>
<path d="M36.4915 60.8225V60.8554C36.4915 60.9543 36.4915 61.0729 36.4915 61.1915C36.4915 62.3283 36.8771 63.7715 36.9462 64.0286C36.8276 63.9594 36.6892 63.8111 36.5607 63.6727C36.4915 63.6035 36.4322 63.5244 36.3927 63.475C36.3432 63.4157 36.3235 63.386 36.3235 63.386H36.2905V63.419C37.0715 66.7206 38.92 68.1935 39.2857 68.4604C39.2363 68.4274 39.177 68.4274 39.0979 68.4109C38.9101 68.3516 38.6531 68.2726 38.4455 68.1935C38.2379 68.1243 38.0797 68.0749 38.0797 68.0749H38.0468V68.1078C39.065 69.5313 41.724 70.8064 42.2282 71.0338C42.0404 71.0338 41.7537 70.9745 41.4868 70.9349C41.1804 70.8756 40.9233 70.8163 40.9233 70.8163H40.8904V70.8493C43.7175 73.0833 46.5941 73.7456 46.5941 73.7456H46.627V73.7127V73.4655V73.4326C46.5941 73.4326 46.5677 73.4326 46.5381 73.4326C45.5496 73.2645 44.3041 72.6813 43.2859 72.1376C43.2463 72.1047 43.2068 72.0981 43.1673 72.0783C42.6928 71.8213 42.2776 71.5742 41.9712 71.3864C41.813 71.2875 41.6746 71.1985 41.5856 71.1491C41.5527 71.1162 41.5461 71.1162 41.5362 71.1096C41.902 71.1985 42.1788 71.2183 42.3765 71.2183C42.6631 71.2183 42.7817 71.1689 42.7817 71.1689H42.8147V71.1359C40.986 70.187 39.9085 69.4851 39.2857 69.0106C38.9694 68.7734 38.7717 68.5955 38.6531 68.4769C38.6036 68.4274 38.574 68.3879 38.5443 68.3582C39.1869 68.6647 39.9184 68.6647 39.9184 68.6647H39.9513V68.6317C38.864 68.0782 38.0138 66.8821 37.4405 65.8145C37.1538 65.2807 36.9265 64.7765 36.7881 64.4108C36.7387 64.2922 36.6991 64.1834 36.6596 64.1043C36.6596 64.0549 36.6266 64.0055 36.62 63.9758C36.62 63.9363 36.5871 63.9066 36.5871 63.8869C36.9429 64.2526 37.2 64.3317 37.2 64.3317H37.2329V64.2988C37.1637 64.022 37.1044 63.7649 37.0451 63.5178C36.8869 62.816 36.7881 62.2525 36.7387 61.8374C36.6892 61.5507 36.6695 61.3431 36.6596 61.1948C36.6596 61.1355 36.6596 61.0861 36.6596 61.0465C36.6991 61.096 36.7683 61.1849 36.8672 61.2937C36.9957 61.442 37.1835 61.6298 37.4306 61.867C37.4306 61.8341 37.3977 61.8275 37.3977 61.8077C37.1802 61.6001 37.0121 61.4222 36.8836 61.2838C36.7354 61.1256 36.6563 61.0169 36.6464 60.9774H36.6134L36.5805 61.0103C36.5805 61.0103 36.6134 62.1767 37.1637 64.3119C37.0846 64.2724 36.8474 64.1538 36.541 63.8276H36.508V63.8605C36.508 63.8605 37.6843 67.5081 39.8492 68.6548C39.8162 68.6548 39.8096 68.6548 39.7899 68.6548C39.5427 68.6218 38.9694 68.5757 38.485 68.3286H38.4521V68.3615C38.4521 68.3615 39.1243 69.3204 42.7422 71.1887C42.6829 71.2216 42.5742 71.2282 42.3863 71.2282C42.1689 71.2282 41.8624 71.1953 41.4473 71.0898H41.4143V71.1228C41.4143 71.1228 44.5775 73.2085 46.5941 73.5051V73.7225C46.5612 73.7225 46.5348 73.7225 46.4854 73.6896C45.9021 73.5314 43.4309 72.79 40.9794 70.8822C41.2265 70.9316 42.0272 71.0997 42.3138 71.0997L42.3468 71.0667V71.0338C42.3468 71.0338 42.2974 71.0008 42.2084 70.9745C41.5955 70.6878 39.1341 69.472 38.1357 68.1276C38.2346 68.1605 38.4422 68.2363 38.6695 68.3055C38.8178 68.3549 38.976 68.4044 39.1045 68.4439C39.233 68.4834 39.3318 68.5032 39.3813 68.5032V68.4703C39.3813 68.4703 39.3417 68.4373 39.2824 68.4011C38.8574 68.0946 37.1176 66.6415 36.3465 63.4981C36.3861 63.5475 36.4652 63.6364 36.5344 63.7155C36.6728 63.8737 36.8408 64.0417 36.9693 64.101H37.0023V64.0681C37.0023 64.0681 36.9693 63.9594 36.9232 63.7913C36.7947 63.2872 36.5278 62.1405 36.5278 61.2014C36.5278 61.1026 36.5278 61.0037 36.5278 60.9049C36.7551 61.1223 38.3862 62.704 39.5625 63.5541C40.4027 64.1669 42.3798 64.9083 42.3798 64.9083H42.4127V64.8754L42.1755 64.4207C42.2084 64.4207 42.2447 64.4536 42.304 64.4701C42.6203 64.6184 43.3814 64.9841 44.2612 65.6069C45.0619 66.1604 45.8132 67.2972 46.1789 67.92V68.1177C46.0504 67.8805 45.8725 67.5938 45.655 67.2775V67.3467C45.8824 67.6729 46.0603 67.9793 46.1888 68.2067H46.2218V68.1737L46.1888 67.9068H46.1559H46.1888H46.1559H46.1888C45.8231 67.284 45.0718 66.1473 44.2612 65.5838C43.8658 65.307 43.5099 65.0797 43.1936 64.9017C42.561 64.5459 42.126 64.3778 42.126 64.3778H42.0931V64.4108L42.3303 64.8754C42.271 64.8424 42.1722 64.8161 42.0437 64.7666C41.4604 64.5294 40.1853 63.9956 39.5625 63.5409C38.9298 63.0862 38.1687 62.414 37.5558 61.8604C37.2593 61.5836 36.9924 61.3365 36.8046 61.1586C36.6167 60.9708 36.508 60.862 36.508 60.862H36.475L36.4915 60.8225Z" fill="#101010"/>
<path d="M37.3828 61.8295C37.3828 61.8624 37.4158 61.8789 37.4158 61.9086C37.5739 62.047 37.7321 62.1952 37.9199 62.3633V62.3139C37.742 62.1557 37.5838 62.0173 37.4355 61.8789C37.4026 61.846 37.4026 61.846 37.3861 61.8295" fill="#101010"/>
<path d="M37.9556 62.343V62.3924C38.1137 62.5308 38.2818 62.6593 38.4597 62.8076V62.7681C38.2818 62.6198 38.1137 62.4715 37.9556 62.343Z" fill="#101010"/>
<path d="M38.4956 62.7906V62.84C38.8614 63.1267 39.2864 63.443 39.751 63.7593C41.1053 64.6786 42.4991 65.0938 42.4991 65.0938H42.532V65.0609L42.4991 64.8632L42.4661 64.7149C42.565 64.7479 42.9604 64.8829 44.1664 65.7528C44.7397 66.1779 45.2241 66.7413 45.5997 67.2554V67.2224H45.6326C45.257 66.6985 44.7726 66.1351 44.1993 65.7199C42.766 64.6721 42.4694 64.6622 42.4595 64.6622V64.6951L42.509 65.0411C42.4694 65.0411 42.4002 65.0016 42.3014 64.9719C41.8368 64.8039 40.7988 64.4085 39.7906 63.7165C39.3161 63.3903 38.8811 63.074 38.5154 62.7774" fill="#101010"/>
<path d="M38.1426 63.4377C38.2711 63.665 38.4194 63.9122 38.5676 64.1494V64.1165C38.4095 63.8792 38.2711 63.6519 38.1426 63.4344" fill="#101010"/>
<path d="M38.5977 64.1612C38.7855 64.438 38.9733 64.7247 39.1809 65.0015V64.9422C38.9733 64.6753 38.7855 64.4182 38.6174 64.1612" fill="#101010"/>
<path d="M39.2009 64.9867H39.168C39.8731 65.9356 40.7397 66.8253 41.692 67.3393C45.0628 69.1483 46.1864 70.5619 46.4434 70.9375V70.9045V70.7563C46.305 70.5685 46.1304 70.3609 45.9129 70.1434V70.2126H45.88H45.847V70.1039C45.6888 69.9457 45.5208 69.7776 45.3363 69.6096V69.6986H45.3033V69.5799C45.132 69.4317 44.9573 69.2834 44.7662 69.1351V69.1944H44.7333V69.1055C44.5685 68.9769 44.3972 68.8484 44.2193 68.7199V68.8287H44.1863H44.1534V68.6804C43.9853 68.5618 43.8173 68.453 43.6393 68.3344V68.4333H43.6064V68.3048C43.4383 68.196 43.2703 68.0873 43.0924 67.9786V68.028H43.0594V67.9489C42.8914 67.8402 42.7134 67.7413 42.5421 67.6425V67.7018H42.5091H42.4762V67.6227C42.3147 67.5337 42.1566 67.4448 41.9918 67.3657H41.9589H41.9259V67.3327C41.748 67.2339 41.5766 67.135 41.4119 67.0362V67.0691H41.3789V67.0098C41.201 66.9011 41.0264 66.7726 40.855 66.6441V66.7627H40.8221L40.7891 66.6144C40.6112 66.476 40.4431 66.3277 40.2751 66.1795H40.2422V66.1465C40.0576 65.9785 39.8764 65.8005 39.7116 65.6127V65.6621V65.5633C39.5107 65.3557 39.336 65.1481 39.168 64.9307" fill="#101010"/>
<path d="M37.342 61.7677C37.8264 63.1516 39.5365 66.2061 41.6816 67.3626C45.2501 69.2902 46.3078 70.7532 46.4561 71.0103H46.4891L46.522 70.9773H46.4891H46.522H46.4891H46.522L46.4891 70.7598C46.4891 70.7598 46.489 70.7269 46.4561 70.7269L46.4891 70.885H46.4561V70.918C46.1991 70.5424 45.0722 69.1288 41.7014 67.3198C40.7524 66.8058 39.8825 65.9161 39.1708 64.9672C38.9632 64.6904 38.7655 64.4136 38.5876 64.1269C38.4393 63.8897 38.291 63.6426 38.1625 63.4152C38.291 63.6327 38.4294 63.86 38.5876 64.0973V64.0182C38.5546 63.9852 38.5546 63.9688 38.5381 63.9391C38.3404 63.6426 38.1823 63.3559 38.034 63.0989V63.1384H38.001V63.0198C37.8725 62.7924 37.7638 62.575 37.6847 62.397C37.5859 62.1993 37.5167 62.0412 37.4672 61.9324C37.4672 61.8995 37.4672 61.8995 37.4343 61.883C37.4343 61.8501 37.4013 61.8237 37.4013 61.8039L37.3684 61.7545H37.3354L37.342 61.7677Z" fill="#101010"/>
<path d="M38.6035 64.1096V64.159C38.7716 64.416 38.9594 64.673 39.167 64.9399V64.8707C38.9693 64.6137 38.7913 64.3567 38.6233 64.1096" fill="#101010"/>
<path d="M39.193 64.9202V64.9795C39.361 65.2003 39.539 65.4145 39.7268 65.6221V65.5628C39.5291 65.3585 39.3512 65.1377 39.1831 64.9202" fill="#101010"/>
<path d="M39.7739 65.6057V65.665C39.9519 65.843 40.1199 66.0209 40.3077 66.189V66.1395C40.1199 65.9616 39.942 65.7837 39.7739 65.6057Z" fill="#101010"/>
<path d="M40.3433 66.1753V66.2247C40.5113 66.373 40.6794 66.5213 40.8573 66.6597V66.6102C40.6794 66.4719 40.5113 66.3236 40.3433 66.1753Z" fill="#101010"/>
<path d="M40.896 66.639V66.6917C41.064 66.817 41.242 66.9356 41.4199 67.0542V67.0048C41.3507 66.9652 41.2815 66.9191 41.2123 66.8697C41.1135 66.7972 41.0047 66.7181 40.9059 66.639" fill="#101010"/>
<path d="M41.4546 67.034V67.0736C41.6226 67.1823 41.7907 67.2812 41.9686 67.3701V67.3306C41.8006 67.2416 41.6325 67.1428 41.4645 67.034" fill="#101010"/>
<path d="M41.9985 67.3551V67.3946C41.9985 67.3946 42.0315 67.3946 42.0315 67.4276C42.1995 67.5066 42.3478 67.5956 42.5159 67.6846V67.6351C42.3676 67.5561 42.2094 67.4671 42.0611 67.388C42.0282 67.388 42.0282 67.388 42.0117 67.3551" fill="#101010"/>
<path d="M42.541 67.6443V67.6838C42.7189 67.7826 42.887 67.8914 43.0649 67.9902V67.9408C42.8969 67.842 42.7288 67.7431 42.5509 67.6443" fill="#101010"/>
<path d="M43.0947 67.9687V68.0083C43.2727 68.117 43.4407 68.2257 43.6088 68.3345V68.2949C43.4407 68.1862 43.2727 68.0775 43.0947 67.9687Z" fill="#101010"/>
<path d="M43.646 68.3193V68.3687C43.8239 68.4775 43.992 68.5961 44.16 68.7114V68.6653C43.992 68.5566 43.8239 68.4379 43.646 68.3193Z" fill="#101010"/>
<path d="M44.1934 68.6941V68.7435C44.3713 68.8753 44.5492 69.0038 44.7074 69.1323V69.0796C44.5393 68.9511 44.3713 68.8226 44.1934 68.6941Z" fill="#101010"/>
<path d="M44.748 69.1097V69.1592C44.9457 69.3074 45.1138 69.4557 45.2818 69.604V69.5546C45.1138 69.4063 44.9359 69.258 44.748 69.1097Z" fill="#101010"/>
<path d="M45.3208 69.5813V69.6307C45.5185 69.8021 45.6865 69.9668 45.8447 70.125V70.0657C45.6865 69.9075 45.5086 69.7494 45.3208 69.5813Z" fill="#101010"/>
<path d="M45.877 70.1063V70.1689C46.0944 70.3863 46.2724 70.5939 46.4107 70.7817V70.7125C46.2625 70.5214 46.0845 70.327 45.877 70.1063Z" fill="#101010"/>
<path d="M37.9191 62.2585V62.308V62.3673L37.9586 63.0395V63.168H37.9981V63.1185L37.9487 62.4562V62.387V62.3376V62.2585H37.9092H37.9191Z" fill="#101010"/>
<path d="M38.4585 62.7669L38.5771 64.0519V64.1211V64.1541V64.187H38.6101V64.1376L38.5211 62.9415V62.8723V62.8229V62.7899H38.4882L38.4585 62.7669Z" fill="#101010"/>
<path d="M39.0388 63.2849H39.0059L39.1442 64.8632V64.9324V65.0049H39.1772V64.9357L39.0487 63.3541V63.2981L39.0388 63.2849Z" fill="#101010"/>
<path d="M39.5989 63.7383H39.5659L39.7142 65.5572V65.6264V65.7153H39.7472H39.7801V65.6659V65.6066L39.6121 63.7482L39.5989 63.7383Z" fill="#101010"/>
<path d="M41.2434 64.7676H41.2104L41.3983 67.0115V67.051V67.1104H41.4312H41.4642V67.0774V67.028L41.2862 64.873V64.7544H41.2533L41.2434 64.7676Z" fill="#101010"/>
<path d="M40.1494 64.1365H40.1824H40.1494ZM40.3471 66.1729L40.1692 64.1365L40.3471 66.1729Z" fill="white"/>
<path d="M40.1501 64.1368H40.1172L40.2951 66.1336V66.1929V66.2324H40.3281H40.361V66.183L40.1831 64.1467H40.1501V64.1368Z" fill="#101010"/>
<path d="M40.6768 64.4569L40.8646 66.6119V66.6613L40.8975 66.8096V66.6909V66.6415L40.7196 64.4569H40.6801H40.6768Z" fill="#101010"/>
<path d="M41.7871 65.0533H41.8201H41.7871ZM42.0046 67.3467L41.8069 65.0435L42.0046 67.3467Z" fill="#101010"/>
<path d="M41.7877 65.0537H41.7548L41.9426 67.3273V67.3767V67.4097H41.9821V67.3602L41.7844 65.057H41.7515L41.7877 65.0537Z" fill="#101010"/>
<path d="M42.3208 65.2484H42.3537H42.3208ZM42.5383 67.6406L42.3406 65.2484L42.5383 67.6406Z" fill="#101010"/>
<path d="M42.3205 65.2472H42.2876L42.4952 67.6098V67.6592V67.7383H42.5281V67.6889V67.6394L42.3205 65.2472Z" fill="#101010"/>
<path d="M42.8086 65.0807L43.0557 67.9474V67.9869V68.0562H43.0887H43.1216V68.0166V67.9672L42.8745 65.0807H42.8349H42.8086Z" fill="#101010"/>
<path d="M43.3546 65.3629L43.6083 68.2889V68.3383V68.4668H43.6413V68.3581V68.3185L43.3843 65.353H43.3447L43.3546 65.3629Z" fill="#101010"/>
<path d="M43.9023 65.701L44.1528 68.6666V68.716V68.8643H44.1857H44.2187V68.7555V68.6962L43.9748 65.7109H43.932L43.9023 65.701Z" fill="#101010"/>
<path d="M44.4551 66.1035L44.7022 69.0789V69.1283V69.2173H44.7417V69.158V69.1086L44.4946 66.1035H44.4551Z" fill="#101010"/>
<path d="M45.043 66.664H45.0759H45.043ZM45.3099 69.5801L45.0627 66.6541L45.3099 69.5801Z" fill="#101010"/>
<path d="M45.0427 66.6534H45.0098L45.2569 69.5431V69.6025V69.731H45.2964V69.642V69.5926L45.0295 66.6633L45.0427 66.6534Z" fill="#101010"/>
<path d="M45.6213 67.2478H45.5884L45.8355 70.0684V70.1244V70.2266H45.8685H45.9014V70.164V70.1046L45.6741 67.3467V67.3138V67.2478H45.6213Z" fill="#101010"/>
<path d="M46.1992 68.1599L46.4167 70.7004V70.7795V70.9277H46.4496H46.4826V70.7795L46.2651 68.2588V68.1599H46.2322H46.1992Z" fill="#101010"/>
</g>
<defs>
<clipPath id="clip0_246_199016">
<rect width="141.333" height="20.1904" fill="white" transform="translate(0.333496 60.6191)"/>
</clipPath>
</defs>
</svg>
