<svg width="91" height="91" viewBox="0 0 91 91" fill="none" xmlns="http://www.w3.org/2000/svg">
<g clip-path="url(#clip0_211_13460)">
<path d="M59.81 49.6118V45.8711H66.8881C66.8774 45.6047 66.8708 45.3366 66.8708 45.0677C66.8708 44.727 66.8799 44.388 66.8963 44.0515H59.8109V40.4592H67.4053C67.5505 39.8414 67.7245 39.2343 67.9258 38.6404H57.9912V51.4314H67.9043C67.7056 50.8367 67.5331 50.2305 67.3896 49.6126H59.81V49.6118Z" fill="white"/>
<path d="M28.2447 44.6272C24.9437 44.6272 22.258 41.9415 22.258 38.6404H20.3262C20.3262 42.6797 23.3665 46.0196 27.2788 46.498V51.4314H29.2106V46.498C33.1229 46.0196 36.1633 42.6797 36.1633 38.6404H34.2315C34.2315 41.9415 31.5458 44.6272 28.2447 44.6272Z" fill="white"/>
<path d="M47.5919 38.6396H39.585V51.4306H47.5919C51.1238 51.4306 53.9877 48.5675 53.9877 45.0347C53.9877 41.5019 51.1247 38.6396 47.5919 38.6396ZM47.5919 49.498H41.5185V40.5739H47.5919C50.0523 40.5739 52.0535 42.5758 52.0535 45.0356C52.0535 47.4953 50.0523 49.498 47.5919 49.498Z" fill="white"/>
<path d="M16.9345 40.5021V38.5686H4.97412V51.4305H6.90758C6.90758 48.6838 9.1421 46.4501 11.8889 46.4501H13.141V44.5166H11.8889C9.93396 44.5166 8.16713 45.334 6.90758 46.6422V40.5021H16.9345Z" fill="white"/>
<path d="M84.8843 38.6379C83.7724 40.5664 81.7795 41.7269 79.5533 41.7418C79.5392 41.7418 79.5244 41.7418 79.5104 41.7418C77.3014 41.7418 75.3119 40.6101 74.1818 38.7088L74.1332 38.6271H72.335V51.4313H74.2685V41.7723C75.721 43.0038 77.5744 43.6909 79.5657 43.6761C81.5164 43.6629 83.3303 42.9799 84.7539 41.7731V51.4313H86.6874V38.6271L84.8843 38.6379Z" fill="white"/>
</g>
<defs>
<clipPath id="clip0_211_13460">
<rect width="82" height="12.8627" fill="white" transform="translate(4.97412 38.5686)"/>
</clipPath>
</defs>
</svg>
