<svg width="92" height="91" viewBox="0 0 92 91" fill="none" xmlns="http://www.w3.org/2000/svg">
<g clip-path="url(#clip0_211_13419)">
<path fill-rule="evenodd" clip-rule="evenodd" d="M22.0673 62.9232C20.4113 62.9232 19.0049 62.3772 17.8499 61.2864C16.6949 60.1944 16.1177 58.8672 16.1177 57.3036C16.1177 55.7394 16.6949 54.4116 17.8499 53.3202C19.0049 52.2288 20.4107 51.6834 22.0679 51.6834C23.2661 51.6834 24.3239 51.9444 25.2395 52.467C26.1551 52.989 26.8187 53.7096 27.2297 54.6282C27.3305 54.8346 27.3425 55.0254 27.2651 55.2018C27.1871 55.3782 27.0209 55.503 26.7647 55.5762L24.7139 56.1852C24.5123 56.2452 24.3407 56.262 24.1991 56.235C24.0575 56.2086 23.8859 56.079 23.6837 55.8456C23.4887 55.6062 23.2529 55.425 22.9769 55.302C22.7009 55.179 22.3973 55.1172 22.0673 55.1172C21.4613 55.1172 20.9465 55.3302 20.5217 55.7562C20.0975 56.1822 19.8857 56.6982 19.8857 57.3036C19.8857 57.909 20.0975 58.4244 20.5217 58.8504C20.9465 59.2764 21.4613 59.4894 22.0673 59.4894C22.3973 59.4894 22.7003 59.4282 22.9769 59.3046C23.2529 59.1816 23.4887 59.0004 23.6837 58.761C23.8925 58.5276 24.0659 58.398 24.2039 58.371C24.3419 58.3446 24.5123 58.3614 24.7139 58.4214L26.7647 59.0304C27.0209 59.1036 27.1871 59.2284 27.2651 59.4048C27.3425 59.5812 27.3305 59.7726 27.2291 59.9784C26.8187 60.897 26.1551 61.6176 25.2395 62.1396C24.3233 62.6622 23.2661 62.9232 22.0673 62.9232ZM28.3157 62.1054V48.0798C28.3157 47.9334 28.3631 47.8134 28.4573 47.7198C28.5515 47.6268 28.6727 47.5806 28.8209 47.5806H31.5689C31.7165 47.5806 31.8377 47.6268 31.9319 47.7204C32.0267 47.8134 32.0735 47.9334 32.0735 48.0798V62.1048C32.0735 62.2446 32.0249 62.3646 31.9271 62.4642C31.8293 62.5638 31.7135 62.6142 31.5791 62.6142H28.8413C28.6997 62.6142 28.5773 62.5638 28.4723 62.4642C28.3679 62.3646 28.3163 62.2446 28.3163 62.1048L28.3157 62.1054ZM38.8769 59.6196C39.3689 59.6196 39.7409 59.4798 39.9929 59.2008C40.2455 58.9212 40.3721 58.512 40.3721 57.9726V52.4328C40.3721 52.3128 40.4261 52.2078 40.5335 52.1178C40.6415 52.0278 40.7627 51.9834 40.8971 51.9834H43.6145C43.7489 51.9834 43.8701 52.0284 43.9781 52.1178C44.0861 52.2078 44.1401 52.3128 44.1401 52.4328V58.4718C44.1401 59.7696 43.6649 60.8376 42.7157 61.6758C41.7653 62.5146 40.4927 62.9334 38.8967 62.9334C37.2869 62.9334 35.9939 62.511 35.0171 61.6656C34.0409 60.8202 33.5531 59.7558 33.5531 58.4712V52.4322C33.5531 52.3122 33.6047 52.2072 33.7091 52.1172C33.8135 52.0272 33.9329 51.9828 34.0679 51.9828H36.7853C36.9197 51.9828 37.0433 52.0278 37.1537 52.1172C37.2653 52.2072 37.3205 52.3122 37.3205 52.4322V57.972C37.3205 58.4976 37.4555 58.9038 37.7249 59.19C37.9943 59.4762 38.3777 59.619 38.8763 59.619L38.8769 59.6196ZM49.3265 57.3036C49.3265 57.9096 49.5371 58.4256 49.9583 58.8516C50.3789 59.2776 50.8925 59.49 51.4985 59.49C52.1045 59.49 52.6181 59.277 53.0393 58.851C53.4599 58.425 53.6705 57.909 53.6705 57.3042C53.6705 56.6982 53.4605 56.1822 53.0393 55.7562C52.6181 55.3302 52.1045 55.1178 51.4985 55.1178C50.8925 55.1178 50.3789 55.3308 49.9583 55.7568C49.5371 56.1828 49.3265 56.6988 49.3265 57.3042V57.3036ZM48.8723 47.5812C49.0205 47.5812 49.1417 47.6274 49.2359 47.721C49.3301 47.814 49.3775 47.934 49.3775 48.0804V52.6722C49.7273 52.3458 50.1233 52.0998 50.5643 51.9336C51.0053 51.7668 51.4853 51.684 52.0037 51.684C53.5391 51.684 54.8303 52.2264 55.8779 53.3112C56.9249 54.396 57.4487 55.7268 57.4487 57.3042C57.4487 58.881 56.9249 60.2124 55.8779 61.2966C54.8303 62.3814 53.5391 62.9238 52.0037 62.9238C51.4853 62.9238 51.0053 62.841 50.5637 62.6742C50.1233 62.508 49.7273 62.2584 49.3775 61.926V62.1156C49.3775 62.262 49.3301 62.3814 49.2359 62.475C49.1417 62.568 49.0199 62.6148 48.8723 62.6148H46.1243C45.9761 62.6148 45.8549 62.568 45.7607 62.475C45.6665 62.3814 45.6197 62.262 45.6197 62.115V48.0804C45.6197 47.934 45.6665 47.814 45.7607 47.7204C45.8549 47.6274 45.9767 47.5812 46.1243 47.5812H48.8723ZM40.4861 32.2386C42.1385 32.2386 43.5443 32.787 44.7041 33.8826C45.8639 34.9776 46.4441 36.3048 46.4441 37.863C46.4441 39.4212 45.8639 40.7478 44.7041 41.8434C43.5443 42.9384 42.1385 43.4862 40.4861 43.4862C38.8343 43.4862 37.4279 42.9384 36.2681 41.8434C35.1083 40.7478 34.5281 39.4212 34.5281 37.863C34.5281 36.3048 35.1083 34.9776 36.2681 33.882C37.4279 32.787 38.8343 32.2392 40.4861 32.2392V32.2386ZM50.9393 28.1346C51.0881 28.1346 51.2093 28.1808 51.3035 28.2744C51.3983 28.3674 51.4451 28.4874 51.4451 28.6344V33.2274C51.7961 32.901 52.1921 32.655 52.6337 32.4882C53.0753 32.322 53.5559 32.2386 54.0749 32.2386C55.6127 32.2386 56.9057 32.781 57.9539 33.8664C59.0027 34.9524 59.5271 36.2844 59.5271 37.8624C59.5271 39.4404 59.0027 40.7724 57.9539 41.8578C56.9057 42.9432 55.6127 43.4856 54.0749 43.4856C53.5559 43.4856 53.0753 43.4028 52.6337 43.236C52.1921 43.0698 51.7961 42.8196 51.4457 42.4866V42.6768C51.4457 42.8232 51.3977 42.9432 51.3035 43.0368C51.2093 43.1292 51.0875 43.176 50.9393 43.176H48.1883C48.0401 43.176 47.9183 43.1292 47.8241 43.0362C47.7299 42.9432 47.6825 42.8232 47.6825 42.6762V28.6338C47.6825 28.4874 47.7299 28.3674 47.8241 28.2738C47.9189 28.1808 48.0401 28.1346 48.1883 28.1346H50.9393ZM76.6553 32.2398C78.2741 32.2398 79.5893 32.7474 80.6003 33.7632C81.6119 34.7784 82.1177 36.0252 82.1177 37.5036V38.1132C82.1177 38.346 82.0673 38.5326 81.9659 38.6724C81.8651 38.8122 81.7199 38.8824 81.5309 38.8824H74.8157C74.9165 39.3744 75.1625 39.7644 75.5537 40.0506C75.9449 40.3374 76.4171 40.4802 76.9697 40.4802C77.3405 40.4802 77.6831 40.4142 77.9963 40.2804C78.3101 40.1472 78.6119 39.9378 78.9023 39.6516C79.0301 39.525 79.1633 39.4548 79.3013 39.4416C79.4393 39.4284 79.5833 39.468 79.7315 39.5616L81.5519 40.74C81.6797 40.8198 81.7523 40.926 81.7691 41.0598C81.7859 41.193 81.7511 41.3196 81.6629 41.439C81.2315 42.0588 80.5877 42.555 79.7309 42.9276C78.8747 43.3002 77.9375 43.4868 76.9193 43.4868C75.1997 43.4868 73.7891 42.9588 72.6863 41.904C71.5835 40.848 71.0327 39.5184 71.0327 37.9134C71.0327 36.2484 71.5499 34.887 72.5849 33.8274C73.6205 32.769 74.9771 32.2398 76.6565 32.2398H76.6553ZM29.5673 32.2398C30.7613 32.2398 31.6985 32.619 32.3795 33.3786C33.0605 34.1376 33.4007 35.1366 33.4007 36.375V42.6774C33.4007 42.8238 33.3539 42.9438 33.2591 43.0374C33.1649 43.1298 33.0431 43.1766 32.8955 43.1766H30.1439C29.9957 43.1766 29.8739 43.1298 29.7797 43.0368C29.6855 42.9438 29.6381 42.8238 29.6381 42.6768V37.0338C29.6381 36.5478 29.5103 36.1644 29.2541 35.8848C28.9979 35.6052 28.6541 35.4654 28.2221 35.4654C27.7841 35.4654 27.4361 35.607 27.1805 35.8902C26.9243 36.1728 26.7965 36.5544 26.7965 37.0338V42.6774C26.7965 42.8238 26.7485 42.9438 26.6543 43.0374C26.5601 43.1298 26.4383 43.1766 26.2901 43.1766H23.5397C23.3915 43.1766 23.2697 43.1298 23.1755 43.0368C23.0813 42.9438 23.0339 42.8238 23.0339 42.6768V37.0338C23.0339 36.5478 22.9061 36.1644 22.6499 35.8848C22.3931 35.6052 22.0499 35.4654 21.6179 35.4654C21.1799 35.4654 20.8319 35.607 20.5763 35.8902C20.3201 36.1728 20.1917 36.5544 20.1917 37.0338V42.6774C20.1917 42.8238 20.1443 42.9438 20.0501 43.0374C19.9559 43.1298 19.8341 43.1766 19.6859 43.1766H16.9349C16.7867 43.1766 16.6649 43.1298 16.5707 43.0368C16.4765 42.9438 16.4291 42.8238 16.4291 42.6768V33.039C16.4291 32.8992 16.4777 32.781 16.5755 32.6844C16.6733 32.5878 16.7963 32.5392 16.9451 32.5392H19.6757C19.8245 32.5392 19.9475 32.5872 20.0453 32.6844C20.1431 32.7804 20.1917 32.8992 20.1917 33.0384V33.8082C20.5289 33.315 20.9537 32.9304 21.4661 32.6544C21.9785 32.3784 22.5347 32.2398 23.1353 32.2398C23.8367 32.2398 24.4385 32.373 24.9407 32.6394C25.4429 32.9058 25.8323 33.2952 26.1089 33.8082C26.5607 33.2622 27.0683 32.8638 27.6311 32.6142C28.1939 32.3646 28.8401 32.2398 29.5679 32.2398H29.5673ZM64.0127 32.949C64.1609 32.949 64.2839 32.9952 64.3817 33.0882C64.4795 33.1812 64.5287 33.2946 64.5287 33.429V42.6972C64.5287 42.8316 64.4795 42.945 64.3817 43.038C64.2839 43.131 64.1609 43.1772 64.0127 43.1772H61.2815C61.1333 43.1772 61.0103 43.131 60.9125 43.038C60.8147 42.945 60.7661 42.8316 60.7661 42.6972V33.4284C60.7661 33.294 60.8147 33.1806 60.9125 33.0876C61.0103 32.9946 61.1333 32.9484 61.2815 32.9484H64.0127V32.949ZM69.3785 28.1334C69.5267 28.1334 69.6485 28.1796 69.7427 28.2732C69.8369 28.3662 69.8843 28.4862 69.8843 28.6332V42.6672C69.8843 42.8064 69.8351 42.9264 69.7373 43.026C69.6395 43.1262 69.5231 43.176 69.3887 43.176H66.6473C66.5057 43.176 66.3827 43.1262 66.2783 43.026C66.1739 42.9264 66.1217 42.8064 66.1217 42.6666V28.6332C66.1217 28.4868 66.1685 28.3668 66.2633 28.2732C66.3575 28.1802 66.4793 28.134 66.6269 28.134H69.3785V28.1334ZM40.4861 35.6754C39.8795 35.6754 39.3653 35.8884 38.9441 36.3144C38.5223 36.7404 38.3117 37.2564 38.3117 37.8624C38.3117 38.4684 38.5217 38.9844 38.9435 39.411C39.3653 39.837 39.8795 40.05 40.4861 40.05C41.0933 40.05 41.6075 39.837 42.0287 39.411C42.4499 38.985 42.6611 38.469 42.6611 37.863C42.6611 37.257 42.4499 36.741 42.0287 36.315C41.6075 35.8884 41.0927 35.6754 40.4867 35.6754H40.4861ZM53.5697 35.6754C52.9625 35.6754 52.4483 35.8884 52.0271 36.3144C51.6053 36.7404 51.3947 37.2564 51.3947 37.8624C51.3947 38.4684 51.6053 38.9844 52.0271 39.411C52.4483 39.837 52.9625 40.05 53.5691 40.05C54.1763 40.05 54.6905 39.837 55.1117 39.411C55.5335 38.985 55.7441 38.469 55.7441 37.863C55.7441 37.257 55.5335 36.741 55.1117 36.315C54.6905 35.8884 54.1763 35.6754 53.5697 35.6754ZM76.7165 35.0856C76.2845 35.0856 75.8987 35.2158 75.5585 35.4756C75.2177 35.7354 74.9969 36.0714 74.8955 36.4842H78.4661C78.3923 36.0714 78.1913 35.7354 77.8643 35.4756C77.5373 35.2158 77.1545 35.0856 76.7165 35.0856ZM62.6573 28.1334C63.2303 28.1334 63.7247 28.335 64.1393 28.7376C64.5533 29.1408 64.7609 29.6148 64.7609 30.1608C64.7609 30.7068 64.5539 31.1784 64.1393 31.5744C63.7247 31.9704 63.2303 32.1684 62.6573 32.1684C62.0843 32.1684 61.5887 31.9704 61.1705 31.5744C60.7523 31.1784 60.5435 30.7074 60.5435 30.1608C60.5435 29.6148 60.7523 29.1408 61.1705 28.7376C61.5887 28.335 62.0837 28.1334 62.6573 28.1334Z" fill="white"/>
<path fill-rule="evenodd" clip-rule="evenodd" d="M14.3177 60.8435C14.3177 61.4123 14.1113 61.9025 13.6985 62.3147C13.2851 62.7269 12.7937 62.9333 12.2225 62.9333C11.6525 62.9333 11.1587 62.7269 10.7423 62.3153C10.3259 61.9019 10.1177 61.4117 10.1177 60.8429C10.1177 60.2747 10.3259 59.7809 10.7417 59.3615C11.1593 58.9433 11.6525 58.7333 12.2231 58.7333C12.7943 58.7333 13.2857 58.9433 13.6991 59.3621C14.1119 59.7821 14.3183 60.2753 14.3183 60.8441L14.3177 60.8435Z" fill="white"/>
</g>
<defs>
<clipPath id="clip0_211_13419">
<rect width="72" height="34.8" fill="white" transform="translate(10.1177 28.1334)"/>
</clipPath>
</defs>
</svg>
