<svg width="114" height="19" viewBox="0 0 114 19" fill="none" xmlns="http://www.w3.org/2000/svg">
<g clip-path="url(#clip0_345_41968)">
<path d="M76.2346 15.853V10.6525H86.0749C86.06 10.2821 86.0508 9.90938 86.0508 9.53555C86.0508 9.06193 86.0634 8.59062 86.0863 8.12275H76.2359V3.12867H86.7939C86.9958 2.26976 87.2377 1.42575 87.5175 0.600098H73.7061V18.3827H87.4877C87.2114 17.5559 86.9716 16.713 86.7721 15.8541H76.2346V15.853Z" fill="white"/>
<path d="M32.3515 8.92318C27.7622 8.92318 24.0285 5.18937 24.0285 0.600098H21.3428C21.3428 6.21571 25.5696 10.8589 31.0086 11.524V18.3827H33.6943V11.524C39.1334 10.8589 43.3603 6.21571 43.3603 0.600098H40.6746C40.6746 5.18937 36.9408 8.92318 32.3515 8.92318Z" fill="white"/>
<path d="M59.2497 0.599121H48.1182V18.3817H59.2497C64.16 18.3817 68.1415 14.4013 68.1415 9.48984C68.1415 4.57833 64.1612 0.599121 59.2497 0.599121ZM59.2497 15.6949H50.8062V3.28824H59.2497C62.6704 3.28824 65.4524 6.07139 65.4524 9.49099C65.4524 12.9106 62.6704 15.6949 59.2497 15.6949Z" fill="white"/>
<path d="M16.6278 3.18797V0.5H0V18.3812H2.68797C2.68797 14.5626 5.79451 11.4572 9.61317 11.4572H11.354V8.76918H9.61317C6.89538 8.76918 4.43906 9.90561 2.68797 11.7243V3.18797H16.6278Z" fill="white"/>
<path d="M111.095 0.596449C109.549 3.27754 106.779 4.89102 103.684 4.91165C103.664 4.91165 103.644 4.91165 103.624 4.91165C100.553 4.91165 97.7871 3.33832 96.216 0.695069L96.1484 0.581543H93.6484V18.3825H96.3365V4.95409C98.3559 6.66618 100.933 7.62142 103.701 7.60078C106.413 7.58242 108.935 6.63292 110.914 4.95523V18.3825H113.602V0.581543L111.095 0.596449Z" fill="white"/>
</g>
<defs>
<clipPath id="clip0_345_41968">
<rect width="114" height="17.8824" fill="white" transform="translate(0 0.5)"/>
</clipPath>
</defs>
</svg>
