<svg width="135" height="155" viewBox="0 0 135 155" fill="none" xmlns="http://www.w3.org/2000/svg">
<path d="M225.927 85.0815L114.961 114.838L228.862 129.856L114.955 114.883L214.439 172.345L114.932 114.921L184.854 206.081L114.897 114.949L144.61 225.927L114.854 114.961L99.8351 228.862L114.809 114.954L57.346 214.438L114.77 114.932L23.6103 184.853L114.742 114.896L3.76436 144.61L114.731 114.853L0.829655 99.8349L114.737 114.809L15.2531 57.3456L114.759 114.77L44.838 23.6101L114.795 114.742L85.0816 3.76419L114.838 114.731L129.857 0.829407L114.883 114.737L172.346 15.2528L114.922 114.759L206.081 44.8379L114.949 114.795L225.927 85.0815Z" stroke="#F8F9FB"/>
</svg>
