<svg width="53" height="66" viewBox="0 0 53 66" fill="none" xmlns="http://www.w3.org/2000/svg">
<path fill-rule="evenodd" clip-rule="evenodd" d="M46.1314 43.2623C46.1314 55.3552 36.0248 65.3366 23.5861 65.3366C11.3414 65.3366 1.23486 55.3552 1.23486 43.2623C1.23486 30.0179 15.0342 13.1261 23.5861 3.33667C32.1377 13.702 46.1314 29.4418 46.1314 43.2623Z" fill="#101010"/>
<path fill-rule="evenodd" clip-rule="evenodd" d="M48.938 39.9256C48.938 52.0185 38.8315 62 26.3927 62C14.1481 62 4.0415 52.0185 4.0415 39.9256C4.0415 26.6812 17.8409 9.78948 26.3927 0C34.9443 10.3653 48.938 26.1052 48.938 39.9256Z" fill="white"/>
<rect x="0.49707" y="57.0189" width="68.145" height="6" transform="rotate(-45 0.49707 57.0189)" fill="#FF8C22"/>
</svg>
