<svg width="270" height="330" viewBox="0 0 270 330" fill="none" xmlns="http://www.w3.org/2000/svg">
<path d="M391 223.5L135.751 223.549L371.551 321.276L135.712 223.642L316.166 404.165L135.642 223.712L233.276 459.551L135.549 223.751L135.5 479L135.451 223.751L37.7238 459.551L135.358 223.712L-45.1653 404.165L135.288 223.642L-100.551 321.276L135.249 223.549L-120 223.5L135.249 223.451L-100.551 125.724L135.288 223.358L-45.1653 42.8343L135.358 223.288L37.7238 -12.5513L135.451 223.249L135.5 -32L135.549 223.249L233.276 -12.5513L135.642 223.288L316.166 42.8343L135.712 223.358L371.551 125.724L135.751 223.451L391 223.5Z" stroke="white" stroke-width="3"/>
</svg>
