<svg width="217" height="216" viewBox="0 0 217 216" fill="none" xmlns="http://www.w3.org/2000/svg">
<path d="M37.5859 140.956L108.623 171.549L157.234 161.347L81.6689 131.521L37.5859 140.956Z" fill="#101010"/>
<path d="M89.6623 161.713C93.1845 161.271 96.7047 161.304 100.178 161.811C101.907 162.107 103.619 162.61 105.355 162.827C107.955 163.196 110.606 163.004 113.234 162.979C116.735 163.045 120.237 163.162 123.698 163.703C126.283 164.095 128.913 164.571 131.451 165.327L131.432 165.547C125.267 166.238 119.137 165.731 113.081 164.734C110.497 164.259 107.919 163.614 105.294 163.526C103.547 163.441 101.774 163.645 100.02 163.635C97.3936 163.553 94.7856 163.216 92.2132 162.625C91.3524 162.433 90.4963 162.213 89.6442 161.921L89.6633 161.7L89.6623 161.713Z" fill="white"/>
<path d="M63.6974 150.397C69.8232 150.18 75.9763 150.442 82.0788 151.177C85.1194 151.587 88.1419 152.204 91.1893 152.535C95.7567 153.074 100.376 153.053 104.967 153.198C111.09 153.492 117.216 153.837 123.298 154.605C127.84 155.167 132.466 155.816 136.951 156.74L136.932 156.961C126.204 157.256 115.46 156.349 104.814 154.953C100.268 154.308 95.7204 153.492 91.1288 153.233C88.0699 153.034 84.9859 153.125 81.9205 153.001C77.3259 152.748 72.747 152.24 68.2139 151.479C66.6974 151.23 65.1871 150.954 63.6794 150.604L63.6985 150.384L63.6974 150.397Z" fill="white"/>
<path d="M46.5802 139.824C52.5165 139.592 58.478 139.836 64.3892 140.555C67.3343 140.957 70.2614 141.566 73.2134 141.888C77.6376 142.415 82.114 142.382 86.5615 142.514C92.4937 142.791 98.4288 143.119 104.32 143.871C108.72 144.421 113.2 145.057 117.544 145.969L117.525 146.19C107.129 146.514 96.7204 145.636 86.4092 144.269C82.0051 143.637 77.6013 142.833 73.1528 142.586C70.1894 142.396 67.2009 142.495 64.2309 142.379C59.7795 142.139 55.3441 141.643 50.9536 140.895C49.4849 140.65 48.0222 140.377 46.5622 140.032L46.5813 139.812L46.5802 139.824Z" fill="white"/>
<path d="M72.1154 134.19C73.7285 133.583 75.3182 133.448 76.8642 133.788C77.6317 134.001 78.3813 134.421 79.1556 134.554C80.3135 134.797 81.5209 134.481 82.71 134.33C84.2897 134.23 85.867 134.18 87.4055 134.554C88.5554 134.822 89.7215 135.17 90.8331 135.802L90.814 136.022C87.9942 137.004 85.2474 136.791 82.5577 136.085C81.412 135.735 80.2772 135.216 79.0951 135.252C78.3092 135.251 77.4983 135.538 76.7059 135.612C75.5226 135.655 74.3598 135.443 73.2251 134.978C72.8451 134.827 72.4686 134.649 72.0974 134.398L72.1165 134.178L72.1154 134.19Z" fill="white"/>
<path d="M154.636 76.2366C153.691 75.7222 152.698 75.3004 151.671 74.9769L87.0148 47.6095C86.536 47.3782 86.0447 47.1736 85.5434 46.9963C83.0181 46.0977 80.3374 45.7185 77.662 45.8816H77.4056C76.6475 45.8816 75.8672 45.993 75.0534 46.1045C47.8643 49.8278 47.6748 74.3638 47.6748 74.3638V106.625L114.639 134.896L163.153 125.019V90.1377C163.153 87.7967 161.515 80.0268 154.636 76.2366Z" fill="white" stroke="#101010" stroke-width="1.11476" stroke-miterlimit="10"/>
<path d="M163.231 125.085C147.223 128.998 131.048 132.788 114.817 135.765L113.702 135.954V134.839C113.925 128.641 114.237 114.573 114.248 108.575C114.315 105.978 114.003 102.333 114.449 99.78C115.107 93.7839 117.588 88.1337 121.556 83.5911C125.525 79.0484 130.791 75.8317 136.644 74.3745C145.484 71.7882 156.208 72.3902 161.392 81.1634C163.031 83.8285 163.984 86.8579 164.168 89.9812C164 101.909 163.644 113.748 163.187 125.085H163.231ZM163.053 124.951C162.596 112.945 162.25 101.441 162.061 90.0258C161.783 87.3121 160.874 84.7009 159.408 82.4008C154.636 74.6532 145.217 74.3187 137.179 76.4591C130.867 77.895 125.232 81.4373 121.202 86.5028C117.172 91.5683 114.987 97.8551 115.006 104.328C114.795 112.488 115.352 126.623 115.519 134.962L114.404 134.104C118.384 133.178 122.364 132.353 126.355 131.562C138.528 129.109 150.846 126.947 163.053 124.951Z" fill="#101010"/>
<path d="M163.154 125.018L114.64 134.895V102.644C114.64 102.644 114.829 78.1197 141.94 74.3963C159.776 71.9662 163.121 86.7479 163.121 90.1368L163.154 125.018Z" fill="white"/>
<path d="M163.12 125.128C156.732 124.582 150.735 122.453 144.86 120.056C138.807 118.239 132.453 117.515 126.433 115.597C122.384 114.362 118.43 112.831 114.605 111.016L114.672 110.804C120.961 111.611 127.146 113.088 133.122 115.207C137.146 116.444 140.925 118.406 145.061 119.41C149.197 120.413 153.388 120.881 157.323 122.464C159.327 123.162 161.282 123.993 163.176 124.95V125.173L163.12 125.128Z" fill="#101010"/>
<path d="M91.7957 92.6001C91.7957 92.6001 91.0934 89.7018 88.3065 89.7018C85.5196 89.7018 83.4349 92.5555 83.5018 97.2376C83.5687 101.92 88.9419 103.19 90.9708 100.27C91.1634 101.108 91.6717 101.84 92.39 102.313C93.1083 102.787 93.9814 102.965 94.8278 102.811C100.145 102.321 100.402 91.5634 96.3328 83.8604C92.2639 76.1574 81.4953 78.2866 78.3628 87.8512C75.2303 97.4159 76.4119 109.322 84.9845 110.448L86.6343 108.051C86.6343 108.051 81.7851 108.419 80.1129 101.931C78.4408 95.4428 80.3247 87.9181 83.8808 83.9496C87.4369 79.981 93.178 83.6374 94.538 86.3463C95.898 89.0552 96.6672 91.9313 96.4442 97.1261C96.2213 102.321 91.9852 100.994 92.2973 98.3746C92.6095 95.7549 93.2003 90.85 93.2003 90.85L91.6619 90.6827L91.7957 92.6001Z" fill="white"/>
<path d="M91.8068 92.7117C91.7288 92.7117 91.6619 92.5891 91.6507 92.5445C91.3166 91.6133 90.6494 90.8389 89.7779 90.3707C85.3189 88.6539 83.4907 94.9412 84.2041 98.2632C84.6835 100.961 88.6632 102.198 90.2127 99.835L91.2383 98.3301C91.5393 99.2999 91.7511 100.983 92.7432 101.552C96.6672 103.514 98.2501 98.6199 98.1721 95.4317C98.0495 90.2035 96.4331 81.9876 90.7032 80.2932C86.2441 79.067 81.707 82.0768 79.6782 86.09C76.1778 93.3025 74.7063 108.653 85.3969 110.057V110.436L85.029 110.871C75.7765 109.344 75.665 97.494 77.326 90.2926C78.229 85.4211 80.9936 80.5162 86.0435 78.8775C91.5281 76.9489 96.6114 80.4381 98.3728 85.6887C100.279 90.6382 101.829 98.698 97.4809 102.789C95.4634 104.458 92.1463 103.966 90.7729 101.826C88.0842 103.785 83.6005 102.017 83.1005 98.5753C82.1752 94.5064 84.9621 87.5392 89.9786 89.9136C90.8472 90.4709 91.4851 91.3195 91.7807 92.3032C91.6782 91.6239 91.5254 91.085 91.4947 90.471H91.7176L93.5124 90.6048V90.8723C93.3786 92.2881 93.0888 95.8553 92.9662 97.2265C92.8605 97.85 92.8605 98.4869 92.9662 99.1104C93.0267 99.353 93.1581 99.5722 93.3435 99.7399C93.529 99.9076 93.7602 100.016 94.0077 100.052C94.2552 100.088 94.5077 100.049 94.7332 99.9412C94.9586 99.8331 95.1468 99.6603 95.2737 99.4449C95.794 98.2656 95.9791 96.9657 95.8088 95.6881C95.845 92.9599 95.3293 90.2525 94.2927 87.7287C93.797 86.5669 93.0161 85.5491 92.0222 84.7697C91.0284 83.9902 89.8538 83.4742 88.6074 83.2696C83.6244 82.4224 81.25 90.9169 80.9044 94.7294C80.3693 99.5675 81.4729 107.549 87.8159 106.891L86.7235 109.221C83.2231 109.355 80.3582 106.568 79.3437 103.491C75.9994 95.0304 81.3726 74.5633 93.1111 83.3031C96.7341 86.2015 97.3026 91.4186 97.2023 95.755C97.2691 97.6835 96.8009 101.764 93.7688 101.262C93.1131 101.107 92.5422 100.706 92.1748 100.141C91.8074 99.5764 91.6716 98.8919 91.7957 98.2298C91.9071 97.5609 92.1747 95.7661 92.2861 95.075L92.9172 91.0572L91.8625 90.9032V92.7117H91.8068Z" fill="#101010"/>
<path d="M90.0675 92.8783C87.5704 88.2074 84.6943 95.7767 86.032 98.0842C86.2009 98.4122 86.4598 98.6852 86.7783 98.8712C87.0968 99.0572 87.4618 99.1485 87.8303 99.1345C88.1989 99.1205 88.5559 99.0016 88.8593 98.7919C89.1628 98.5822 89.4001 98.2903 89.5435 97.9505C90.0517 97.2179 90.3662 96.3686 90.4578 95.4818C90.5494 94.5949 90.4152 93.6993 90.0675 92.8783ZM90.0675 92.8783C90.5524 93.9422 90.7311 95.1203 90.5834 96.2802C90.4357 97.4401 89.9675 98.5358 89.2314 99.4443C88.9209 99.7183 88.5515 99.9172 88.1518 100.026C87.7521 100.134 87.3329 100.149 86.9265 100.069C86.5201 99.9892 86.1376 99.817 85.8085 99.5656C85.4794 99.3142 85.2126 98.9904 85.0287 98.6193C83.3677 95.8436 87.6596 87.9399 90.0675 92.9229V92.8783Z" fill="#101010"/>
<path d="M90.0677 92.8784C90.0677 92.8784 89.1648 90.6488 87.6264 91.5072C86.088 92.3656 84.8284 95.3754 85.2854 97.605C85.3393 98.0009 85.4941 98.3762 85.7349 98.6951C85.9757 99.0139 86.2944 99.2654 86.6605 99.4255C87.0265 99.5856 87.4276 99.6488 87.8252 99.6092C88.2228 99.5695 88.6034 99.4283 88.9307 99.1991C89.7325 98.3812 90.2698 97.3411 90.4725 96.2138C90.6753 95.0866 90.5343 93.9244 90.0677 92.8784Z" fill="white"/>
<path d="M114.64 134.895L118.53 151.427C118.53 151.427 124.985 179.609 156.064 170.267C176.598 164.102 169.375 142.152 169.375 142.152L163.154 125.019L114.64 134.895Z" fill="white" stroke="#101010" stroke-width="1.11476" stroke-miterlimit="10"/>
<path d="M120.346 87.6074L145.986 95.6114L139.387 123.458L115.118 116.591V103.27C115.118 103.27 115.319 93.237 120.346 87.6074Z" fill="#FF8C22"/>
<path d="M120.324 87.6074C128.741 89.837 137.793 92.5347 146.153 95.2213L146.566 95.355L146.466 95.7786C144.704 102.701 142.787 109.591 141.237 116.569C140.658 118.988 140.123 121.418 139.621 123.848L139.309 123.759C131.026 121.608 122.766 119.378 114.55 117.071V116.591V109.067C114.55 107.818 114.606 104.608 114.628 103.493C114.985 97.919 116.389 91.9104 120.302 87.6743L120.324 87.6074ZM120.324 87.7189C115.676 93.6829 115.375 101.798 115.653 109.067V116.58L115.23 116.023C123.33 118.304 131.412 120.682 139.476 123.157L139.086 123.391C140.29 118.776 141.471 114.161 142.508 109.513C143.545 104.864 144.504 100.193 145.551 95.5445L145.875 96.1019C137.414 93.538 128.774 90.6619 120.358 87.7078L120.324 87.7189Z" fill="#101010"/>
<path d="M119.756 104.518L146.008 95.6003L120.347 87.6074C118.646 89.4323 117.425 91.6498 116.79 94.0619C115.743 98.0416 115.464 99.7026 115.464 99.7026L119.756 104.518Z" fill="#FF8C22"/>
<path d="M119.767 104.463C126.277 101.91 132.72 99.5134 139.375 97.4845C141.549 96.8156 143.768 96.2025 145.953 95.4779V95.8458C141.694 94.43 137.413 93.2707 133.044 92.0667C128.674 90.8628 124.449 89.5362 120.168 88.2208L120.759 88.0759C118.621 90.4876 117.2 93.4492 116.657 96.6261L115.798 99.8701L115.72 99.5802C117.058 101.152 118.373 102.813 119.767 104.519V104.463ZM119.767 104.563C118.24 103.058 116.645 101.498 115.118 99.8701V99.7029L115.787 96.4478C116.201 92.9066 117.736 89.5905 120.168 86.9834C124.56 88.3657 128.938 89.7889 133.3 91.2529C137.759 92.7913 142.151 94.3631 146.677 95.712C137.848 98.9783 128.841 102.2 119.767 104.63V104.563Z" fill="#101010"/>
</svg>
