<svg width="28" height="28" viewBox="0 0 28 28" fill="none" xmlns="http://www.w3.org/2000/svg">
<path fill-rule="evenodd" clip-rule="evenodd" d="M27.1494 13.999C27.1494 13.999 27.3054 7.95619 23.6743 4.32516C20.0433 0.694198 14.0005 0.850096 14.0005 0.850096C14.0005 0.850096 13.9996 0.88122 13.9995 0.940326C13.9995 0.915363 13.9993 0.895394 13.9991 0.880647C13.9989 0.860483 13.9985 0.850096 13.9985 0.850096C13.9985 0.850096 7.9557 0.694198 4.32468 4.32516C0.693709 7.95619 0.849608 13.999 0.849608 13.999C0.849608 13.999 6.89249 14.1549 10.5234 10.5239C13.8423 7.20514 13.9974 1.87137 13.9995 0.978731C14.0017 1.87137 14.1568 7.20514 17.4756 10.5239C21.1066 14.1549 27.1494 13.999 27.1494 13.999ZM4.32468 23.6748C0.693709 20.0438 0.849608 14.001 0.849608 14.001C0.849608 14.001 6.89249 13.8451 10.5234 17.4761C13.8423 20.7948 13.9974 26.1286 13.9995 27.0213C14.0017 26.1286 14.1568 20.7948 17.4756 17.4761C21.1066 13.8451 27.1494 14.001 27.1494 14.001C27.1494 14.001 27.3054 20.0438 23.6743 23.6748C20.0433 27.3057 14.0005 27.1499 14.0005 27.1499C14.0005 27.1499 13.9996 27.1187 13.9995 27.0596C13.9994 27.1187 13.9985 27.1499 13.9985 27.1499C13.9985 27.1499 7.9557 27.3057 4.32468 23.6748Z" fill="#F0EAFD"/>
</svg>
