<svg width="194" height="194" viewBox="0 0 194 194" fill="none" xmlns="http://www.w3.org/2000/svg">
<path d="M109.676 106.056L39.5948 138.428L100.551 147.703L165.286 113.32L109.676 106.056Z" fill="#101010" stroke="#101010" stroke-miterlimit="10"/>
<path d="M82.6388 110.951C88.6284 110.857 94.6511 111.155 100.631 111.843C103.611 112.222 106.576 112.771 109.562 113.084C114.037 113.59 118.556 113.636 123.048 113.817C129.042 114.142 135.04 114.509 141 115.224C145.451 115.748 149.985 116.345 154.385 117.166L154.369 117.347C143.879 117.444 133.356 116.552 122.923 115.259C118.467 114.666 114.007 113.933 109.512 113.658C106.517 113.452 103.501 113.485 100.501 113.342C96.0028 113.071 91.5166 112.591 87.0717 111.903C85.5848 111.678 84.1037 111.43 82.624 111.122L82.6397 110.941L82.6388 110.951Z" fill="white"/>
<path d="M67.003 117.624C72.9926 117.53 79.0154 117.829 84.9952 118.517C87.9752 118.895 90.9404 119.444 93.926 119.758C98.4014 120.263 102.92 120.309 107.413 120.491C113.407 120.816 119.404 121.182 125.364 121.897C129.816 122.422 134.349 123.018 138.749 123.84L138.734 124.021C128.243 124.117 117.72 123.225 107.288 121.932C102.831 121.34 98.3716 120.607 93.8762 120.331C90.8812 120.126 87.8656 120.158 84.8652 120.015C80.367 119.744 75.8809 119.264 71.436 118.576C69.9491 118.351 68.4679 118.103 66.9882 117.795L67.0039 117.614L67.003 117.624Z" fill="white"/>
<path d="M54.3565 124.557C60.3461 124.463 66.3689 124.761 72.3487 125.449C75.3287 125.828 78.2939 126.376 81.2795 126.69C85.7549 127.196 90.2738 127.242 94.7663 127.423C100.76 127.748 106.758 128.115 112.717 128.83C117.169 129.354 121.703 129.951 126.103 130.772L126.087 130.953C115.597 131.05 105.074 130.158 94.6412 128.865C90.1844 128.272 85.7251 127.539 81.2297 127.264C78.2347 127.058 75.2191 127.091 72.2187 126.948C67.7206 126.677 63.2344 126.197 58.7895 125.509C57.3026 125.284 55.8214 125.035 54.3417 124.727L54.3574 124.547L54.3565 124.557Z" fill="white"/>
<path d="M54.9337 132.637C59.9115 132.455 64.9111 132.665 69.8693 133.264C72.3396 133.598 74.7952 134.103 77.2712 134.372C80.9821 134.812 84.7359 134.791 88.4658 134.907C93.4409 135.143 98.4185 135.421 103.36 136.048C107.051 136.506 110.809 137.035 114.453 137.791L114.437 137.972C105.719 138.223 96.9896 137.486 88.3407 136.348C84.6465 135.822 80.9523 135.155 77.2214 134.946C74.736 134.785 72.23 134.862 69.7392 134.762C66.006 134.558 62.2857 134.144 58.6028 133.523C57.3707 133.32 56.1438 133.093 54.9189 132.808L54.9346 132.627L54.9337 132.637Z" fill="white"/>
<path d="M42.1202 138.327C47.203 138.153 52.3088 138.373 57.3729 138.981C59.8962 139.32 62.4046 139.829 64.9335 140.103C68.7237 140.549 72.557 140.536 76.3659 140.658C81.4468 140.904 86.5302 141.191 91.5772 141.827C95.347 142.292 99.1856 142.828 102.908 143.591L102.892 143.772C93.9906 144.007 85.0749 143.254 76.2409 142.099C72.4675 141.566 68.6939 140.893 64.8837 140.677C62.3455 140.511 59.7866 140.583 57.2429 140.479C53.4303 140.268 49.6306 139.847 45.8686 139.219C44.6101 139.014 43.3567 138.785 42.1054 138.497L42.1211 138.316L42.1202 138.327Z" fill="white"/>
<path d="M146.95 73.2652L111.423 67.6528L48.8367 97.2832L34.4821 127.947L94.1689 136.7L160.173 102.839L146.95 73.2652Z" fill="white"/>
<path d="M146.884 73.3396C136.961 72.0169 121.337 69.8782 111.308 68.3956L111.745 68.3331L88.3358 79.5715C76.2156 85.2951 61.3022 92.0913 49.0048 97.6591L49.2032 97.4555L41.9343 112.744L34.8295 128.108L34.5349 127.57L64.4319 131.56C74.4049 132.92 84.3621 134.31 94.3034 135.728L93.7135 135.817C99.2092 132.981 104.679 130.094 110.182 127.289C125.552 119.398 144.384 109.9 159.847 102.208L159.525 103.134C156.313 95.7287 150.012 80.778 146.884 73.3396ZM147.008 73.1798C150.468 80.5063 157.446 95.1645 160.82 102.554L161.11 103.151L160.5 103.47C145.214 111.548 126.531 121.3 111.143 129.169C105.563 132.057 99.9294 134.861 94.3389 137.748C84.2945 136.208 74.2534 134.667 64.2156 133.127L34.4302 128.314L33.9221 128.27L34.142 127.817L41.388 112.446L48.4637 97.0701L48.5248 96.9449L48.6378 96.9146C63.5788 89.5687 80.3419 81.2367 95.3886 74.2915L111.08 66.9706L111.3 66.8692C121.394 68.6485 137.015 71.2788 146.988 73.178L147.008 73.1798Z" fill="#101010"/>
<path d="M48.845 97.1836C55.1086 97.345 61.3518 97.9673 67.524 99.0453C73.6253 100.452 79.8285 101.373 86.0754 101.799L86.444 101.831C88.2214 107.607 89.732 113.449 91.1113 119.3C92.4906 125.151 93.5043 130.82 94.2742 136.639L94.0798 136.682C92.1231 131.122 90.5164 125.462 89.0544 119.754C87.5923 114.046 86.4027 108.322 85.3786 102.542L85.8902 103.008C76.7253 100.817 67.2437 101.119 58.0126 99.3442C54.9285 98.7955 51.8586 98.1979 48.8178 97.382L48.8351 97.1827L48.845 97.1836Z" fill="#101010"/>
<path d="M147.043 73.3535C139.874 78.0112 132.094 81.3712 124.224 84.5025C116.584 88.1055 109.387 92.6202 101.677 96.0968C96.5644 98.4536 91.3748 100.653 86.0635 102.521L85.9695 102.332C93.1618 97.9049 100.659 93.9937 108.405 90.6279C113.51 88.2503 118.9 86.5198 123.911 83.9434C128.923 81.367 133.711 78.3497 138.966 76.2159C141.55 75.1153 144.173 74.0479 146.878 73.1786L146.963 73.3566L147.043 73.3535Z" fill="#101010"/>
<path d="M107.449 111.594C107.846 108.303 108.917 105.129 110.596 102.271C111.352 100.999 111.877 99.6043 112.148 98.15L112.483 99.2731C114.767 104.992 117.154 110.79 117.302 117.066L117.107 117.12C114.91 113.026 113.412 108.594 112.674 104.007C112.404 102.488 112.286 100.962 111.886 99.4421L112.489 99.4342C111.509 102.622 111.171 105.945 109.414 108.844C108.909 109.849 108.312 110.805 107.63 111.7L107.446 111.624L107.449 111.594Z" fill="#101010"/>
<path d="M125.913 103.329C126.516 105.861 127.639 108.648 126.673 111.335C126.531 111.874 126.244 112.365 125.843 112.753C125.442 113.142 124.944 113.414 124.4 113.54C123.856 113.666 123.289 113.642 122.758 113.47C122.227 113.297 121.753 112.984 121.387 112.562C118.059 108.7 115.156 102.596 116.865 97.475C116.99 97.0376 117.201 96.6297 117.486 96.2752C117.771 95.9208 118.124 95.6269 118.525 95.411C118.925 95.1951 119.365 95.0614 119.817 95.0179C120.27 94.9744 120.727 95.022 121.161 95.1577C124.442 96.4462 125.051 100.414 125.913 103.329ZM125.727 103.383C125.007 100.986 123.477 98.9121 121.398 97.517C121.186 97.352 120.943 97.2313 120.684 97.1622C120.424 97.0931 120.153 97.077 119.887 97.1149C118.704 97.6747 118.471 99.2103 118.281 100.469C118.006 103.637 118.306 107.357 120.281 110.047C121.178 111.279 123.217 112.992 124.57 111.514C125.298 110.306 125.778 108.965 125.984 107.57C126.189 106.175 126.116 104.753 125.767 103.387L125.727 103.383Z" fill="#101010"/>
<path d="M126.365 89.4362C127.582 92.1917 129.198 96.2366 130.317 99.0739C131.874 102.22 132.769 105.653 132.945 109.159L132.759 109.223C130.795 106.315 129.45 103.035 128.807 99.5853L127.447 94.5589C127.021 92.8658 126.574 91.1909 126.179 89.5004L126.365 89.4362Z" fill="#101010"/>
<path d="M134.691 92.1662C134.178 94.9866 133.494 97.7732 132.641 100.51C132.206 101.417 131.593 102.228 130.839 102.893L130.649 102.877C130.341 100.897 130.796 98.8729 131.924 97.2159C132.727 95.4788 133.597 93.7777 134.526 92.0917L134.716 92.1081L134.691 92.1662Z" fill="#101010"/>
<path d="M139.312 104.612C137.195 103.95 135.136 103.116 133.154 102.121C132.506 101.636 131.991 100.993 131.66 100.255L131.755 100.082C132.523 99.9975 133.3 100.095 134.023 100.367C134.745 100.639 135.394 101.078 135.915 101.648C137.114 102.525 138.268 103.458 139.388 104.428L139.282 104.61L139.312 104.612Z" fill="#101010"/>
<path d="M39.1411 62.8587L47.295 58.2779L45.1021 68.3118L50.2118 77.4809L39.6147 73.6528L30.3353 79.0173L34.0001 69.2874L29.0766 58.9886L39.1411 62.8587Z" fill="#101010" stroke="#101010"/>
<path d="M29.004 58.9753C30.8992 62.3517 32.9654 65.2613 34.7315 68.5061C34.2489 70.2509 33.7272 71.9823 33.1865 73.702C32.6458 75.4217 32.174 76.9265 31.6038 78.5232L30.4064 77.5159C33.4724 76.0756 36.6086 74.7517 39.649 73.259C43.2132 74.7527 46.8779 76.0142 50.5577 77.2169L49.8999 77.9728C47.987 74.916 46.0949 71.851 44.2976 68.7339L44.3296 68.3653C45.0333 65.114 46.1019 60.3184 46.9 57.1355L48.5072 58.2787C45.5778 60.1123 42.6301 61.9243 39.6386 63.6622C36.09 62.22 32.7259 60.5027 29.004 58.9753ZM28.855 58.8419C32.3849 59.9211 36.2834 60.8014 39.9242 61.9906L39.2048 62.0687C42.6154 59.6645 46.1828 57.3041 49.6644 55.0065C48.685 59.2377 47.3298 64.5604 46.2026 68.7587L46.1176 68.119C47.7581 71.1923 49.3136 74.3185 50.8493 77.4429L51.5174 78.7656C47.5703 77.058 43.6222 75.3604 39.5569 73.9737L39.8358 73.9979C36.9228 75.6422 34.0873 77.4338 31.1833 79.089L29.4236 80.0504C30.4967 76.1285 31.779 72.2248 33.144 68.4085L33.1935 68.995C31.5911 65.7141 30.2823 62.0573 28.855 58.8419Z" fill="#101010"/>
<path d="M130.109 48.9582L125.918 51.0939L121.768 49.7602L123.775 53.588L122.03 58.1944L125.954 56.0054L130.771 57.1662L128.453 53.5724L130.109 48.9582Z" fill="#101010"/>
<path d="M130.082 49.0363C128.545 49.9769 127.524 51.0929 126.096 51.9326C125.26 51.7395 124.426 51.5166 123.614 51.2755C122.913 51.0764 122.223 50.839 121.548 50.5642L122.554 49.3768C123.093 50.6883 123.502 52.0989 124.084 53.374L124.16 53.5412C123.456 55.0811 122.91 56.6883 122.529 58.3382L121.773 57.6903C123.08 56.7298 124.396 55.8 125.778 55.0266C127.357 55.3343 129.471 55.7285 131.012 56.1332L129.868 57.7504C129.052 56.3948 128.268 55.0119 127.548 53.5943C128.267 52.0206 129.302 50.7352 130.041 49.0428L130.082 49.0363ZM130.215 48.8872C129.894 50.3851 129.743 52.249 129.265 53.8236L129.186 53.1141C130.562 54.8395 131.981 56.9903 133.248 58.8166C131.774 58.4478 129.596 57.9878 128.156 57.5818L125.776 56.8935L126.395 56.8167C124.645 57.6686 122.716 58.5049 120.887 59.2195L121.525 58.0001C122.301 56.5497 122.937 55.0285 123.425 53.4573L123.4 53.7462C122.293 52.0342 120.943 50.2507 119.936 48.4269C122.046 48.8657 124.111 49.4951 126.107 50.3074L125.511 50.356C127.032 49.7639 128.59 49.2721 130.175 48.8838L130.215 48.8872Z" fill="#101010"/>
</svg>
