<svg width="195" height="194" viewBox="0 0 195 194" fill="none" xmlns="http://www.w3.org/2000/svg">
<path d="M35.9399 71.39L58.2599 67.21L62.5199 71.39L89.6499 67.21L94.4699 71.39L120.5 67L126.25 71.18L153.33 67.21V129.2L127.32 135.97L121.42 132.75L94.6399 137.79L88.9999 133.23L60.5599 137.79L55.7299 132.42L35.9399 136.45V71.39Z" fill="#101010"/>
<path d="M35.8699 71.32C42.5899 70.02 51.5499 67.95 58.1699 66.7C58.2521 66.6837 58.3372 66.688 58.4174 66.7124C58.4976 66.7368 58.5706 66.7806 58.6299 66.84L62.9399 70.97L62.4399 70.81L75.9699 68.56L89.5199 66.4C89.6355 66.3842 89.7531 66.393 89.8651 66.4257C89.9771 66.4584 90.081 66.5144 90.1699 66.59C90.1699 66.59 95.0099 70.75 95.0199 70.75L94.3299 70.56C100.8 69.43 113.87 67.2 120.33 66.17C120.441 66.1513 120.555 66.1549 120.665 66.1806C120.775 66.2064 120.878 66.2538 120.97 66.32L126.73 70.56L126.13 70.41L153.28 66.76C153.347 66.7513 153.416 66.7573 153.481 66.7776C153.546 66.798 153.605 66.8321 153.656 66.8778C153.706 66.9234 153.746 66.9794 153.772 67.0419C153.799 67.1045 153.812 67.1721 153.81 67.24C153.73 72.4 153.71 77.57 153.69 82.74C153.69 91.74 153.6 104.64 153.69 113.74L153.84 129.24C153.838 129.356 153.799 129.467 153.729 129.559C153.659 129.651 153.561 129.718 153.45 129.75L127.51 136.75C127.412 136.779 127.309 136.788 127.208 136.776C127.106 136.764 127.008 136.731 126.92 136.68L121.01 133.56L121.58 133.65L94.8699 138.76C94.7284 138.787 94.5828 138.783 94.443 138.749C94.3032 138.714 94.1725 138.65 94.0599 138.56L88.4099 134.02L89.2199 134.24C84.4799 135.02 79.7399 135.81 74.9999 136.55L60.7199 138.8C60.5495 138.83 60.3743 138.816 60.2113 138.758C60.0483 138.7 59.9031 138.601 59.7899 138.47L54.9699 133.1L55.9699 133.42C49.3699 134.753 42.7665 136.063 36.1599 137.35C36.0251 137.378 35.8856 137.376 35.7517 137.344C35.6179 137.311 35.4931 137.249 35.3865 137.161C35.28 137.074 35.1944 136.964 35.1361 136.839C35.0779 136.714 35.0484 136.578 35.0499 136.44C35.0499 117.5 35.6599 90.5 35.8999 71.32H35.8699ZM36.0199 71.45C36.4499 90.54 36.6899 117.66 36.8699 136.45L35.7499 135.56C42.3432 134.147 48.9365 132.777 55.5299 131.45C55.7089 131.404 55.8971 131.409 56.0737 131.464C56.2502 131.518 56.4081 131.621 56.5299 131.76L61.3699 137.12L60.4399 136.79L74.6599 134.49C79.3999 133.71 84.1499 132.97 88.8899 132.24C89.032 132.214 89.1781 132.22 89.3179 132.256C89.4577 132.292 89.588 132.359 89.6999 132.45L95.3099 137.03L94.4999 136.83L121.32 131.93C121.511 131.892 121.71 131.924 121.88 132.02L127.76 135.29L127.17 135.21L153.25 128.71L152.86 129.23L153.01 113.73C153.01 98.73 153.14 82.17 152.91 67.23L153.45 67.7L126.45 72.01C126.246 72.0368 126.039 71.9869 125.87 71.87L120.08 67.71L120.72 67.86L107.72 70.1L94.7199 72.24C94.5972 72.2598 94.4717 72.2521 94.3524 72.2175C94.2331 72.1829 94.1229 72.1223 94.0299 72.04L89.2299 67.84L89.8799 68.03L76.3099 70.03L62.6099 71.97C62.519 71.9825 62.4266 71.9736 62.3398 71.9441C62.253 71.9146 62.1743 71.8652 62.1099 71.8L57.8699 67.56L58.3199 67.7C51.8699 68.79 42.5899 70.39 36.0099 71.45H36.0199Z" fill="#101010"/>
<path d="M37.4512 75.6584C41.6622 75.0466 45.9206 74.8235 50.1725 74.992C52.2936 75.1113 54.4146 75.4017 56.5357 75.4562C59.7174 75.5728 62.9016 75.228 66.0754 75.0205C70.315 74.8261 74.5597 74.6731 78.7993 74.8701C81.9654 75.0076 85.1937 75.2098 88.3416 75.648V75.8296C80.9619 76.833 73.4992 76.8538 66.0754 76.4674C62.9016 76.2626 59.7174 75.9177 56.5357 76.0318C54.4146 76.0863 52.2936 76.3793 50.1725 76.496C46.9892 76.6153 43.8015 76.5243 40.6302 76.2237C39.5697 76.1277 38.5117 76.0085 37.4512 75.8296V75.648V75.6584Z" fill="white"/>
<path d="M37.4512 84.58C41.6622 83.9682 45.9206 83.7451 50.1725 83.9136C52.2936 84.0329 54.4146 84.3233 56.5357 84.3778C59.7174 84.4945 62.9016 84.1496 66.0754 83.9422C70.315 83.7477 74.5597 83.5947 78.7993 83.7918C81.9654 83.9292 85.1937 84.1315 88.3416 84.5697V84.7512C80.9619 85.7547 73.4992 85.7754 66.0754 85.3891C62.9016 85.1842 59.7174 84.8393 56.5357 84.9534C54.4146 85.0079 52.2936 85.3009 50.1725 85.4176C46.9892 85.5369 43.8015 85.4459 40.6302 85.1453C39.5697 85.0494 38.5117 84.9301 37.4512 84.7512V84.5697V84.58Z" fill="white"/>
<path d="M37.4512 93.5018C41.6622 92.8899 45.9206 92.6669 50.1725 92.8354C52.2936 92.9547 54.4146 93.2451 56.5357 93.2995C59.7174 93.4162 62.9016 93.0714 66.0754 92.8639C70.315 92.6694 74.5597 92.5165 78.7993 92.7135C81.9654 92.851 85.1937 93.0532 88.3416 93.4914V93.6729C80.9619 94.6764 73.4992 94.6972 66.0754 94.3108C62.9016 94.106 59.7174 93.7611 56.5357 93.8752C54.4146 93.9296 52.2936 94.2227 50.1725 94.3393C46.9892 94.4587 43.8015 94.3677 40.6302 94.0671C39.5697 93.9711 38.5117 93.8519 37.4512 93.6729V93.4914V93.5018Z" fill="white"/>
<path d="M37.4512 102.424C41.6622 101.812 45.9206 101.589 50.1725 101.757C52.2936 101.876 54.4146 102.167 56.5357 102.221C59.7174 102.338 62.9016 101.993 66.0754 101.786C70.315 101.591 74.5597 101.438 78.7993 101.635C81.9654 101.773 85.1937 101.975 88.3416 102.413V102.595C80.9619 103.598 73.4992 103.619 66.0754 103.233C62.9016 103.028 59.7174 102.683 56.5357 102.797C54.4146 102.851 52.2936 103.144 50.1725 103.261C46.9892 103.38 43.8015 103.289 40.6302 102.989C39.5697 102.893 38.5117 102.774 37.4512 102.595V102.413V102.424Z" fill="white"/>
<path d="M37.4512 111.345C41.6622 110.733 45.9206 110.51 50.1725 110.679C52.2936 110.798 54.4146 111.088 56.5357 111.143C59.7174 111.26 62.9016 110.915 66.0754 110.707C70.315 110.513 74.5597 110.36 78.7993 110.557C81.9654 110.694 85.1937 110.897 88.3416 111.335V111.516C80.9619 112.52 73.4992 112.541 66.0754 112.154C62.9016 111.949 59.7174 111.604 56.5357 111.719C54.4146 111.773 52.2936 112.066 50.1725 112.183C46.9892 112.302 43.8015 112.211 40.6302 111.91C39.5697 111.815 38.5117 111.695 37.4512 111.516V111.335V111.345Z" fill="white"/>
<path d="M37.4512 120.267C41.6622 119.655 45.9206 119.432 50.1725 119.6C52.2936 119.72 54.4146 120.01 56.5357 120.065C59.7174 120.181 62.9016 119.836 66.0754 119.629C70.315 119.434 74.5597 119.281 78.7993 119.479C81.9654 119.616 85.1937 119.818 88.3416 120.256V120.438C80.9619 121.441 73.4992 121.462 66.0754 121.076C62.9016 120.871 59.7174 120.526 56.5357 120.64C54.4146 120.695 52.2936 120.988 50.1725 121.104C46.9892 121.224 43.8015 121.133 40.6302 120.832C39.5697 120.736 38.5117 120.617 37.4512 120.438V120.256V120.267Z" fill="white"/>
<path d="M37.4512 129.189C38.2481 128.577 39.0539 128.354 39.8586 128.522C40.26 128.641 40.6614 128.932 41.0628 128.986C41.6649 129.103 42.2675 128.758 42.8681 128.551C43.6704 128.356 44.4737 128.203 45.276 128.4C45.8752 128.538 46.4861 128.74 47.0818 129.178V129.36C45.6852 130.363 44.273 130.384 42.8681 129.998C42.2675 129.793 41.6649 129.448 41.0628 129.562C40.6614 129.616 40.26 129.909 39.8586 130.026C39.2562 130.145 38.6529 130.054 38.0528 129.754C37.8521 129.658 37.6519 129.539 37.4512 129.36V129.178V129.189Z" fill="white"/>
<path d="M41.6699 66.61L63.9899 62.43L68.2499 66.61L95.3799 62.43L100.2 66.61L126.23 62.23L131.98 66.41L159.06 62.43V124.43L133.05 131.2L127.15 127.98L100.36 133.01L94.7299 128.45L66.2799 133.01L61.4599 127.65L41.6699 131.67V66.61Z" fill="white"/>
<path d="M41.5898 66.56C48.2998 65.25 57.2698 63.19 63.8898 61.93C63.972 61.917 64.0562 61.9228 64.1359 61.9471C64.2156 61.9713 64.2887 62.0133 64.3498 62.07L68.6598 66.2L68.1598 66.04L81.6998 63.8L95.2498 61.64C95.3647 61.6222 95.4821 61.629 95.5941 61.6601C95.7062 61.6911 95.8104 61.7456 95.8998 61.82L100.75 65.99L100.06 65.79C106.53 64.66 119.6 62.44 126.06 61.4C126.171 61.3812 126.285 61.3849 126.395 61.4106C126.505 61.4364 126.608 61.4837 126.7 61.55L132.43 65.76L131.87 65.56L159.02 61.92C159.086 61.9114 159.154 61.9172 159.218 61.9369C159.282 61.9567 159.341 61.99 159.392 62.0345C159.442 62.079 159.482 62.1338 159.509 62.1951C159.536 62.2564 159.55 62.3229 159.55 62.39C159.47 67.56 159.45 72.73 159.43 77.89C159.43 86.89 159.34 99.8 159.43 108.89L159.58 124.39C159.581 124.506 159.544 124.62 159.473 124.712C159.402 124.805 159.302 124.871 159.19 124.9L133.19 131.9C132.993 131.95 132.785 131.921 132.61 131.82L126.68 128.65L127.25 128.74L100.55 133.99C100.408 134.016 100.262 134.01 100.122 133.974C99.9819 133.938 99.8516 133.871 99.7398 133.78L94.0898 129.25L94.8898 129.46C90.1598 130.25 85.4198 131.03 80.6698 131.77L66.4498 134.03C66.2794 134.06 66.1042 134.046 65.9412 133.988C65.7782 133.93 65.633 133.831 65.5198 133.7L60.6998 128.33L61.6998 128.65C55.0731 129.99 48.4631 131.293 41.8698 132.56C41.7352 132.587 41.5964 132.583 41.4633 132.55C41.3303 132.516 41.2062 132.454 41.1001 132.367C40.9941 132.28 40.9085 132.17 40.8497 132.047C40.7908 131.923 40.7601 131.787 40.7598 131.65C40.7598 112.71 41.3698 85.71 41.6098 66.53L41.5898 66.56ZM41.7398 66.69C42.1698 85.78 42.4098 112.9 42.5898 131.69L41.4798 130.79C48.0731 129.383 54.6631 128.01 61.2498 126.67C61.4297 126.625 61.6186 126.632 61.7951 126.688C61.9717 126.745 62.1291 126.849 62.2498 126.99L67.0898 132.34L66.1598 132.02L80.3798 129.71C85.1198 128.93 89.8698 128.2 94.6098 127.46C94.7527 127.436 94.8991 127.443 95.039 127.481C95.1788 127.519 95.3088 127.587 95.4198 127.68L101.03 132.26L100.22 132.06L127.03 127.16C127.224 127.123 127.426 127.154 127.6 127.25L133.48 130.51L132.89 130.44L158.97 123.94L158.57 124.45L158.73 108.95C158.73 93.95 158.85 77.4 158.62 62.45L159.17 62.93L132.17 67.23C132.067 67.2484 131.962 67.2455 131.86 67.2214C131.759 67.1973 131.663 67.1526 131.58 67.09C131.58 67.09 125.81 62.94 125.8 62.93L126.44 63.08L113.44 65.32L100.44 67.46C100.318 67.4841 100.192 67.4794 100.072 67.4464C99.9526 67.4135 99.8421 67.353 99.7498 67.27L94.8698 63.04L95.5298 63.23L81.9598 65.23L68.3398 67.19C68.2498 67.2029 68.158 67.1953 68.0713 67.1676C67.9847 67.1398 67.9055 67.0928 67.8398 67.03L63.6298 62.8L64.0798 62.94C57.6098 64.01 48.3198 65.62 41.7398 66.68V66.69Z" fill="#101010"/>
<path d="M64.0901 62.4299C65.2201 68.1399 64.9001 73.9099 64.3101 79.6499C64.3101 85.3899 65.2301 91.1099 65.0501 96.8599C64.9908 100.706 64.6566 104.542 64.0501 108.34H63.8701C62.9817 102.649 62.7001 96.8802 63.0301 91.1299C63.0301 87.2999 63.8101 83.4799 63.6401 79.6499C63.4701 75.8199 62.8201 72.0099 63.1901 68.1699C63.2889 66.2436 63.5161 64.326 63.8701 62.4299H64.0901Z" fill="#101010"/>
<path d="M66.1801 133.01C65.0501 126.01 65.3701 118.93 65.9601 111.9C65.9601 104.9 65.0401 97.83 65.2201 90.78C65.2794 86.0712 65.6133 81.3698 66.2201 76.7H66.4201C67.3092 83.7025 67.5903 90.7689 67.2601 97.82C67.2101 102.51 66.4801 107.2 66.6501 111.9C66.8201 116.6 67.4701 121.27 67.1001 125.97C67.0014 128.314 66.7744 130.651 66.4201 132.97L66.1801 133.01Z" fill="#101010"/>
<path d="M95.2804 108.34C95.0504 102.62 94.7004 91.1101 94.5804 85.3401C94.0909 77.6684 94.3253 69.9678 95.2804 62.3401H95.4804C96.4255 69.9685 96.6598 77.6683 96.1804 85.3401C96.0504 91.0601 95.7004 102.58 95.4804 108.34H95.2804Z" fill="#101010"/>
<path d="M126.23 62.23C127.603 77.1986 127.603 92.2614 126.23 107.23C124.858 92.2614 124.858 77.1986 126.23 62.23Z" fill="#101010"/>
<path d="M133.05 131.2C131.675 115.296 131.675 99.3037 133.05 83.4C134.425 99.3037 134.425 115.296 133.05 131.2Z" fill="#101010"/>
<path d="M100.26 133.01C99.6137 131.59 99.3714 130.019 99.5602 128.47C99.6902 127.72 100.02 126.97 100.08 126.21C100.15 123.94 99.1802 121.7 99.3802 119.41C99.4473 117.853 99.7857 116.32 100.38 114.88H100.58C101.446 117.035 101.726 119.382 101.39 121.68C101.31 123.19 100.59 124.68 100.74 126.21C100.89 127.74 101.55 129.21 101.17 130.75C101.052 131.534 100.816 132.296 100.47 133.01H100.26Z" fill="#101010"/>
<path d="M95.38 82.0701C95.38 82.0701 75.97 85.1701 76.17 97.6201C76.37 110.07 95.38 112.68 95.38 112.68L100.38 117.11C100.38 117.11 122.81 119.24 123.68 103.62C123.68 103.62 124.68 87.9101 100.68 88.3101L95.38 82.0701Z" fill="#101010" stroke="#101010" stroke-width="2" stroke-linecap="round" stroke-linejoin="round"/>
<path d="M103.98 95.37C104.018 94.8939 103.981 94.4147 103.87 93.95C103.72 93.6365 103.475 93.3781 103.17 93.2112C102.865 93.0444 102.515 92.9775 102.17 93.02C100.98 93.2 100.7 93.27 100.7 93.27C99.19 91.78 97.87 90.56 97.15 91.5C96.7864 92.0192 96.6134 92.648 96.66 93.28C96.61 94.39 96.43 97.78 96.43 97.78C96.43 97.78 96.21 99.32 96.93 99.93C97.65 100.54 99.73 101.99 100.51 102.54L102.27 102.17C102.27 102.17 103.51 101.94 103.51 103.46C103.51 104.07 103.37 108.54 103.34 109.67C103.34 110.53 102.41 110.81 100.65 111.17C100.561 111.164 100.473 111.144 100.39 111.11C100.164 111.018 99.9492 110.901 99.75 110.76C98.75 110.06 97.46 109.05 96.62 108.4C96.3548 108.192 96.1404 107.926 95.9931 107.623C95.8458 107.32 95.7695 106.987 95.77 106.65V104.11" stroke="white" stroke-width="2" stroke-miterlimit="10"/>
<path d="M100.022 91.225C100.483 92.6376 100.635 94.1375 100.463 95.6226L100.46 95.6474L100.46 95.6723L100.37 101.432L100.37 101.433L100.29 107.183H100.29V107.19V109.992C100.127 110.501 99.9661 110.988 99.7988 111.468C99.7452 111.309 99.6923 111.15 99.6391 110.989C99.527 110.652 99.4136 110.31 99.29 109.955V107.174L99.37 101.418L99.37 101.417L99.46 95.658L99.4604 95.6326L99.4582 95.6073C99.3302 94.1184 99.5245 92.6242 100.022 91.225Z" fill="white" stroke="white"/>
<path d="M24.1602 47.6101C23.184 48.5253 22.0748 49.2873 20.8702 49.8701C19.8884 50.0741 19.0021 50.5982 18.3502 51.3601C17.6238 52.8035 17.0022 54.2974 16.4902 55.8301C15.982 57.0735 15.3872 58.2798 14.7102 59.4401C14.6882 59.4597 14.6597 59.4706 14.6302 59.4706C14.6007 59.4706 14.5722 59.4597 14.5502 59.4401C14.1754 58.3888 14.0651 57.2615 14.229 56.1576C14.393 55.0536 14.8261 54.007 15.4902 53.1101C16.2402 51.8601 17.6902 51.2001 18.6102 50.1101C19.5302 49.0201 20.3202 47.8001 21.8702 47.4801C22.5928 47.2697 23.3573 47.249 24.0902 47.4201C24.1068 47.4297 24.1206 47.4436 24.1301 47.4603C24.1397 47.477 24.1447 47.4958 24.1447 47.5151C24.1447 47.5343 24.1397 47.5532 24.1301 47.5698C24.1206 47.5865 24.1068 47.6004 24.0902 47.6101H24.1602Z" fill="#101010"/>
<path d="M19.3801 41.5601C14.8431 44.0358 11.1278 47.7825 8.69012 52.3401C8.05012 53.3701 7.52012 54.5601 6.87012 55.5601C7.05012 48.8601 12.3701 41.8401 19.3801 41.5601Z" fill="#101010"/>
<path d="M172.61 141.8C173.579 140.895 174.677 140.14 175.87 139.56C176.861 139.366 177.757 138.841 178.41 138.07C179.15 136.618 179.776 135.11 180.28 133.56C180.792 132.315 181.387 131.106 182.06 129.94C182.07 129.929 182.082 129.92 182.096 129.915C182.11 129.909 182.125 129.906 182.14 129.906C182.155 129.906 182.17 129.909 182.183 129.915C182.197 129.92 182.209 129.929 182.22 129.94C182.596 130.991 182.708 132.119 182.544 133.223C182.38 134.327 181.945 135.374 181.28 136.27C180.53 137.52 179.09 138.17 178.17 139.27C177.25 140.37 176.45 141.65 174.87 141.96C174.147 142.17 173.383 142.191 172.65 142.02C172.633 142.01 172.619 141.996 172.61 141.98C172.6 141.963 172.595 141.944 172.595 141.925C172.595 141.906 172.6 141.887 172.61 141.87C172.619 141.854 172.633 141.84 172.65 141.83L172.61 141.8Z" fill="#101010"/>
<path d="M177.4 147.85C181.932 145.371 185.643 141.625 188.08 137.07C188.72 136.07 189.25 134.9 189.9 133.86C189.73 140.55 184.4 147.57 177.4 147.86V147.85Z" fill="#101010"/>
</svg>
