<svg width="194" height="194" viewBox="0 0 194 194" fill="none" xmlns="http://www.w3.org/2000/svg">
<path d="M107.971 157.463L63.271 135.733C63.271 135.733 28.301 149.513 5.521 123.523C5.521 123.523 33.701 109.013 62.721 130.943C62.721 130.943 67.451 119.473 86.351 122.173C86.351 122.173 82.091 133.053 65.211 134.073L113.501 157.463H107.971Z" fill="#101010"/>
<mask id="mask0_269_26118" style="mask-type:alpha" maskUnits="userSpaceOnUse" x="5" y="118" width="109" height="40">
<path d="M107.971 157.463L63.271 135.733C63.271 135.733 28.301 149.513 5.521 123.523C5.521 123.523 33.701 109.013 62.721 130.943C62.721 130.943 67.451 119.473 86.351 122.173C86.351 122.173 82.091 133.053 65.211 134.073L113.501 157.463H107.971Z" fill="#030505"/>
</mask>
<g mask="url(#mask0_269_26118)">
<path d="M10.4258 123.142C16.3848 122.53 22.4109 122.307 28.4277 122.476C31.4293 122.595 34.4308 122.886 37.4324 122.94C41.9347 123.057 46.4407 122.712 50.932 122.504C56.9314 122.31 62.9382 122.157 68.9376 122.354C73.4179 122.491 77.9863 122.694 82.4409 123.132V123.313C71.9979 124.317 61.4374 124.338 50.932 123.951C46.4407 123.746 41.9347 123.402 37.4324 123.516C34.4308 123.57 31.4293 123.863 28.4277 123.98C23.9231 124.099 19.4121 124.008 14.9244 123.708C13.4237 123.612 11.9266 123.492 10.4258 123.313V123.132V123.142Z" fill="white"/>
<path d="M10.4258 131.142C16.3848 130.53 22.4109 130.307 28.4277 130.476C31.4293 130.595 34.4308 130.886 37.4324 130.94C41.9347 131.057 46.4407 130.712 50.932 130.504C56.9314 130.31 62.9382 130.157 68.9376 130.354C73.4179 130.491 77.9863 130.694 82.4409 131.132V131.313C71.9979 132.317 61.4374 132.338 50.932 131.951C46.4407 131.746 41.9347 131.402 37.4324 131.516C34.4308 131.57 31.4293 131.863 28.4277 131.98C23.9231 132.099 19.4121 132.008 14.9244 131.708C13.4237 131.612 11.9266 131.492 10.4258 131.313V131.132V131.142Z" fill="white"/>
<path d="M33.9058 137.96C39.8648 137.349 45.8908 137.125 51.9077 137.294C54.9093 137.413 57.9108 137.704 60.9124 137.758C65.4147 137.875 69.9207 137.53 74.412 137.323C80.4114 137.128 86.4182 136.975 92.4176 137.172C96.8979 137.31 101.466 137.512 105.921 137.95V138.132C95.4779 139.135 84.9174 139.156 74.412 138.769C69.9207 138.565 65.4147 138.22 60.9124 138.334C57.9108 138.388 54.9093 138.681 51.9077 138.798C47.403 138.917 42.8921 138.826 38.4044 138.526C36.9036 138.43 35.4065 138.31 33.9058 138.132V137.95V137.96Z" fill="white"/>
<path d="M65.8633 143.602C71.8223 142.99 77.8484 142.767 83.8652 142.936C86.8668 143.055 89.8683 143.345 92.8699 143.4C97.3722 143.516 101.878 143.172 106.37 142.964C112.369 142.77 118.376 142.617 124.375 142.814C128.855 142.951 133.424 143.153 137.878 143.592V143.773C127.435 144.777 116.875 144.797 106.37 144.411C101.878 144.206 97.3722 143.861 92.8699 143.975C89.8683 144.03 86.8668 144.323 83.8652 144.44C79.3606 144.559 74.8496 144.468 70.3619 144.167C68.8612 144.071 67.3641 143.952 65.8633 143.773V143.592V143.602Z" fill="white"/>
<path d="M73.6191 149.675C79.5782 149.063 85.6042 148.84 91.6211 149.008C94.6226 149.128 97.6242 149.418 100.626 149.473C105.128 149.589 109.634 149.244 114.125 149.037C120.125 148.842 126.132 148.689 132.131 148.887C136.611 149.024 141.18 149.226 145.634 149.664V149.846C135.191 150.849 124.631 150.87 114.125 150.484C109.634 150.279 105.128 149.934 100.626 150.048C97.6242 150.103 94.6226 150.396 91.6211 150.512C87.1164 150.632 82.6055 150.541 78.1178 150.24C76.617 150.144 75.1199 150.025 73.6191 149.846V149.664V149.675Z" fill="white"/>
</g>
<path d="M107.941 157.563C93.3011 150.993 77.4011 143.473 62.9411 136.503H63.6211C58.6225 138.311 53.4078 139.454 48.1111 139.903C37.6011 140.903 26.6211 139.093 17.4611 133.723C12.8773 131.088 8.76439 127.709 5.2911 123.723C5.25791 123.689 5.23339 123.648 5.21964 123.603C5.20589 123.558 5.20334 123.51 5.21221 123.464C5.22107 123.418 5.24108 123.374 5.27051 123.338C5.29994 123.301 5.3379 123.272 5.3811 123.253C12.3879 120.138 19.9533 118.475 27.6206 118.365C35.2878 118.255 42.8978 119.7 49.9911 122.613C54.7097 124.608 59.1717 127.163 63.2811 130.223L61.8811 130.603C64.7211 124.793 70.8811 121.813 77.0011 120.983C77.5811 120.923 79.0011 120.823 79.6011 120.763C81.9068 120.713 84.213 120.834 86.5011 121.123C86.6354 121.133 86.7662 121.17 86.8859 121.231C87.0055 121.293 87.1115 121.378 87.1974 121.482C87.2833 121.586 87.3474 121.706 87.3858 121.835C87.4243 121.964 87.4363 122.099 87.4211 122.233C83.7111 130.783 74.0211 134.563 65.2711 135.073L65.6511 133.163C73.5711 137.083 94.0411 147.243 101.651 151.163C105.651 153.163 109.651 155.233 113.591 157.273C113.648 157.301 113.691 157.35 113.712 157.41C113.733 157.47 113.729 157.536 113.701 157.593C113.682 157.632 113.652 157.665 113.615 157.688C113.578 157.711 113.535 157.723 113.491 157.723L107.931 157.583L107.941 157.563ZM107.941 157.373L113.451 157.233L113.351 157.683C106.351 154.523 96.0811 149.683 88.9811 146.443L64.7811 135.023C64.5835 134.931 64.4215 134.777 64.3196 134.584C64.2177 134.391 64.1816 134.171 64.2167 133.955C64.2518 133.74 64.3562 133.543 64.514 133.392C64.6719 133.242 64.8745 133.147 65.0911 133.123C67.1537 132.952 69.1999 132.621 71.2111 132.133C76.9711 130.723 82.6911 127.253 85.3211 121.783L86.2111 123.223C84.0499 122.936 81.8711 122.803 79.6911 122.823C78.6096 122.862 77.5312 122.962 76.4611 123.123C71.3311 123.833 66.0011 126.573 63.5811 131.293C63.5334 131.408 63.463 131.512 63.374 131.598C63.2851 131.685 63.1795 131.753 63.0636 131.798C62.9478 131.843 62.824 131.864 62.6998 131.859C62.5756 131.855 62.4536 131.826 62.3411 131.773C54.4109 125.542 45.021 121.439 35.0611 119.853C25.0858 118.349 14.8884 119.716 5.6611 123.793L5.7611 123.323C9.20048 127.226 13.287 130.508 17.8411 133.023C29.2911 139.233 43.0111 139.723 55.5411 137.023C58.0554 136.519 60.534 135.851 62.9611 135.023C63.0694 134.973 63.187 134.948 63.3061 134.948C63.4252 134.948 63.5428 134.973 63.6511 135.023C77.8511 142.023 93.9511 150.093 107.991 157.433L107.941 157.373Z" fill="#101010"/>
<path d="M109.011 157.463C109.011 157.463 112.211 120.023 111.951 113.153C111.691 106.283 91.4806 108.693 80.0906 88.1528C67.9106 66.1228 76.6606 37.4028 76.6606 37.4028C76.6606 37.4028 99.9706 45.6428 111.661 63.6228C120.661 77.5528 115.321 106.313 115.321 106.313C115.321 106.313 121.321 91.0128 135.371 87.6128C149.421 84.2128 158.891 87.9428 158.891 87.9428C158.891 87.9428 151.601 103.833 142.601 109.193C130.601 116.333 116.281 112.083 116.281 112.083L113.551 157.463C112.945 158.058 112.13 158.391 111.281 158.391C110.432 158.391 109.616 158.058 109.011 157.463Z" fill="white"/>
<path d="M108.921 157.503C109.651 143.503 111.141 127.213 111.211 113.333C111.081 110.923 108.361 110.103 106.431 109.173C103.801 108.093 101.061 107.113 98.4308 105.883C84.3008 99.8829 75.9408 86.6429 73.8008 71.7629C72.9585 66.009 72.784 60.177 73.2808 54.3829C73.7301 48.6032 74.7347 42.8801 76.2808 37.2929C76.2922 37.2434 76.3138 37.1967 76.3441 37.1559C76.3744 37.115 76.4128 37.0809 76.4569 37.0555C76.5011 37.0302 76.5499 37.0142 76.6005 37.0086C76.651 37.003 76.7022 37.0079 76.7508 37.0229C90.3408 42.5329 103.331 50.8429 111.751 63.0729C119.271 74.9029 118.031 93.0729 116.081 106.463L114.461 106.023C118.581 96.2729 126.871 87.7329 137.681 86.1029C144.821 84.7929 152.231 84.7029 159.221 86.9929C159.359 87.0385 159.486 87.1138 159.592 87.2135C159.699 87.3133 159.782 87.435 159.836 87.5703C159.891 87.7056 159.915 87.8511 159.907 87.9966C159.899 88.1422 159.859 88.2843 159.791 88.4129C157.797 92.5509 155.456 96.5119 152.791 100.253C150.061 104.013 147.031 107.633 142.991 110.103C134.821 114.813 124.921 115.203 115.991 112.893L116.991 112.163C116.491 119.723 115.921 127.283 115.371 134.843C114.971 140.473 114.091 151.843 113.641 157.513C113.331 157.833 112.961 158.087 112.551 158.26C112.141 158.434 111.701 158.523 111.256 158.523C110.811 158.523 110.37 158.434 109.961 158.26C109.551 158.087 109.18 157.833 108.871 157.513L108.921 157.503ZM109.101 157.433C109.723 157.911 110.477 158.187 111.261 158.223C112.049 158.205 112.8 157.887 113.361 157.333L113.311 157.453C113.531 151.773 114.031 140.453 114.311 134.743C114.671 127.173 115.021 119.603 115.431 112.033C115.439 111.915 115.473 111.801 115.53 111.698C115.587 111.595 115.666 111.505 115.761 111.436C115.856 111.366 115.966 111.318 116.081 111.295C116.197 111.272 116.316 111.275 116.431 111.303C120.724 112.37 125.166 112.708 129.571 112.303C139.121 111.453 145.801 106.963 151.141 99.0629C153.704 95.4136 155.952 91.553 157.861 87.5229L158.441 88.9429C152.323 87.1656 145.885 86.7863 139.601 87.8329C138.801 87.9529 137.251 88.2329 136.461 88.4229C127.001 90.2029 119.831 98.1829 116.041 106.673C115.948 106.858 115.792 107.004 115.602 107.086C115.412 107.168 115.199 107.18 115.001 107.12C114.802 107.061 114.632 106.933 114.518 106.76C114.405 106.586 114.356 106.379 114.381 106.173C116.381 93.1729 118.111 75.1729 111.011 63.5929C105.011 54.4129 96.0108 47.4729 86.4608 42.3129C83.2326 40.5808 79.8918 39.0673 76.4608 37.7829L76.9508 37.5329C75.4891 43.0738 74.6011 48.7504 74.3008 54.4729C73.3008 71.1329 77.5108 89.9429 91.7108 100.163C94.0085 101.812 96.4599 103.235 99.0308 104.413C101.601 105.633 104.281 106.623 106.971 107.753C108.971 108.683 111.531 109.663 112.421 112.013C112.622 112.793 112.689 113.601 112.621 114.403C112.051 128.783 110.521 143.203 109.031 157.453L109.101 157.433Z" fill="#101010"/>
<path d="M107.878 72.0491C109.522 69.5279 108.057 65.6596 104.606 63.409C101.155 61.1585 97.0246 61.3779 95.3804 63.8991C93.7362 66.4203 95.2009 70.2886 98.652 72.5391C102.103 74.7897 106.234 74.5703 107.878 72.0491Z" fill="#FF8C22"/>
<path d="M107.961 72.103C103.961 77.223 96.961 74.373 94.961 68.913C93.161 65.043 95.241 60.913 99.791 60.913C105.371 60.603 111.131 66.803 107.921 72.103H107.961ZM107.791 71.993C110.701 66.813 99.631 59.763 95.791 64.193C93.561 67.003 96.321 70.603 99.051 71.843C101.611 73.123 105.641 74.843 107.741 71.993H107.791Z" fill="#101010"/>
<path d="M95.1207 68.953L102.211 61.893C102.211 61.893 92.5107 60.663 95.1207 68.953Z" fill="#101010"/>
<path d="M102.571 65.5431C102.958 65.5431 103.271 65.2297 103.271 64.8431C103.271 64.4565 102.958 64.1431 102.571 64.1431C102.184 64.1431 101.871 64.4565 101.871 64.8431C101.871 65.2297 102.184 65.5431 102.571 65.5431Z" fill="#101010"/>
<path d="M103.321 64.8429C103.334 64.9724 103.32 65.1034 103.28 65.2272C103.24 65.3511 103.174 65.4651 103.087 65.5618C102.999 65.6586 102.893 65.7359 102.774 65.7889C102.655 65.8418 102.526 65.8692 102.396 65.8692C102.266 65.8692 102.137 65.8418 102.018 65.7889C101.899 65.7359 101.792 65.6586 101.705 65.5618C101.618 65.4651 101.552 65.3511 101.512 65.2272C101.471 65.1034 101.457 64.9724 101.471 64.8429C101.371 63.2829 103.581 63.2129 103.321 64.8429ZM103.221 64.8429C103.221 64.4929 102.741 64.4829 102.571 64.6429C102.401 64.8029 102.331 64.6429 102.271 64.8429C102.111 65.4329 103.271 65.5029 103.271 64.8429H103.221Z" fill="#101010"/>
<path d="M106.621 68.953C107.008 68.953 107.321 68.6396 107.321 68.253C107.321 67.8664 107.008 67.553 106.621 67.553C106.234 67.553 105.921 67.8664 105.921 68.253C105.921 68.6396 106.234 68.953 106.621 68.953Z" fill="#101010"/>
<path d="M107.371 68.2529C107.414 68.4909 107.414 68.7349 107.371 68.9729C107.319 69.1149 107.218 69.2334 107.085 69.3068C106.953 69.3803 106.799 69.4037 106.651 69.3729C106.418 69.262 106.21 69.1059 106.038 68.9135C105.866 68.7212 105.735 68.4966 105.651 68.2529C105.614 68.1031 105.612 67.9469 105.645 67.7962C105.679 67.6456 105.746 67.5048 105.843 67.3847C105.94 67.2646 106.063 67.1686 106.203 67.1041C106.344 67.0396 106.497 67.0084 106.651 67.0129C106.81 67.0132 106.965 67.0623 107.096 67.1535C107.226 67.2446 107.326 67.3735 107.381 67.5229C107.426 67.7642 107.426 68.0116 107.381 68.2529H107.371ZM107.271 68.2529C107.271 67.8929 106.791 67.9729 106.621 68.0829C106.541 68.0718 106.459 68.0816 106.384 68.1113C106.308 68.1411 106.242 68.1899 106.191 68.2529C106.165 68.2772 106.144 68.3066 106.13 68.3393C106.116 68.372 106.108 68.4072 106.108 68.4429C106.108 68.4785 106.116 68.5138 106.13 68.5465C106.144 68.5791 106.165 68.6086 106.191 68.6329C106.331 68.7229 106.521 68.6329 106.581 68.5429C106.641 68.4529 106.681 68.4929 106.851 68.5429C107.021 68.5929 107.251 68.4529 107.231 68.2729L107.271 68.2529Z" fill="#101010"/>
<path d="M103.271 68.5331C103.657 68.5331 103.971 68.2197 103.971 67.8331C103.971 67.4465 103.657 67.1331 103.271 67.1331C102.884 67.1331 102.571 67.4465 102.571 67.8331C102.571 68.2197 102.884 68.5331 103.271 68.5331Z" fill="#101010"/>
<path d="M104.031 67.8331C104.031 68.0797 103.933 68.3163 103.758 68.4907C103.584 68.6651 103.347 68.7631 103.101 68.7631C102.854 68.7631 102.617 68.6651 102.443 68.4907C102.269 68.3163 102.171 68.0797 102.171 67.8331C102.081 66.2831 104.281 66.2031 104.031 67.8331ZM103.931 67.8331C103.931 67.4831 103.441 67.4731 103.271 67.6331C103.101 67.7931 103.041 67.6331 102.971 67.8331C102.811 68.4231 103.971 68.4931 103.971 67.8331H103.931Z" fill="#101010"/>
<path d="M98.4607 70.8329C98.8473 70.8329 99.1607 70.5195 99.1607 70.1329C99.1607 69.7463 98.8473 69.4329 98.4607 69.4329C98.0741 69.4329 97.7607 69.7463 97.7607 70.1329C97.7607 70.5195 98.0741 70.8329 98.4607 70.8329Z" fill="#101010"/>
<path d="M99.2108 70.1329C99.2108 70.3795 99.1129 70.6161 98.9384 70.7905C98.764 70.9649 98.5275 71.0629 98.2808 71.0629C98.0342 71.0629 97.7976 70.9649 97.6232 70.7905C97.4488 70.6161 97.3508 70.3795 97.3508 70.1329C97.2608 68.5829 99.4608 68.5029 99.2108 70.1329ZM99.1108 70.1329C99.1108 69.7829 98.6208 69.7729 98.4608 69.9329C98.3008 70.0929 98.2208 69.9329 98.1508 70.1329C97.9908 70.7229 99.1508 70.7929 99.1508 70.1329H99.1108Z" fill="#101010"/>
<path d="M103.561 72.973C103.947 72.973 104.261 72.6596 104.261 72.273C104.261 71.8864 103.947 71.573 103.561 71.573C103.174 71.573 102.861 71.8864 102.861 72.273C102.861 72.6596 103.174 72.973 103.561 72.973Z" fill="#101010"/>
<path d="M103.681 73.0231C103.45 73.0855 103.211 73.1158 102.971 73.1131C102.231 72.9431 102.401 72.1131 102.861 71.7731C103.016 71.5921 103.198 71.4369 103.401 71.3131C103.541 71.2534 103.692 71.2263 103.844 71.2339C103.995 71.2415 104.143 71.2835 104.276 71.3567C104.409 71.43 104.524 71.5325 104.611 71.6566C104.699 71.7808 104.757 71.9232 104.781 72.0731C104.809 72.2307 104.787 72.393 104.719 72.538C104.651 72.6829 104.54 72.8033 104.401 72.8831C104.171 72.9697 103.927 73.017 103.681 73.0231ZM103.681 72.9231C104.031 72.8331 103.871 72.4031 103.741 72.2531C103.736 72.1721 103.711 72.0936 103.67 72.024C103.628 71.9544 103.57 71.8958 103.501 71.8531C103.47 71.8341 103.435 71.8219 103.399 71.8172C103.363 71.8125 103.327 71.8155 103.292 71.8258C103.257 71.8362 103.224 71.8538 103.197 71.8774C103.169 71.901 103.147 71.9302 103.131 71.963C103.071 72.113 103.211 72.2731 103.291 72.3231C103.371 72.3731 103.351 72.4231 103.351 72.5931C103.351 72.7631 103.501 72.9631 103.681 72.9231Z" fill="#101010"/>
<path d="M101.531 70.243C101.918 70.243 102.231 69.9296 102.231 69.543C102.231 69.1564 101.918 68.843 101.531 68.843C101.144 68.843 100.831 69.1564 100.831 69.543C100.831 69.9296 101.144 70.243 101.531 70.243Z" fill="#101010"/>
<path d="M102.281 69.5429C102.324 69.7809 102.324 70.0249 102.281 70.2629C102.23 70.4062 102.129 70.526 101.997 70.5998C101.864 70.6735 101.709 70.696 101.561 70.6629C101.061 70.4929 100.811 69.9829 100.561 69.5429C100.523 69.3932 100.522 69.2369 100.555 69.0863C100.588 68.9357 100.656 68.7948 100.753 68.6747C100.85 68.5547 100.973 68.4586 101.113 68.3941C101.253 68.3296 101.406 68.2984 101.561 68.3029C101.72 68.3018 101.876 68.3503 102.007 68.4417C102.138 68.533 102.237 68.6628 102.291 68.8129C102.34 69.0538 102.34 69.3021 102.291 69.5429H102.281ZM102.181 69.5429C102.181 69.1829 101.701 69.2629 101.531 69.3729C101.45 69.3618 101.369 69.3716 101.293 69.4014C101.218 69.4312 101.152 69.4799 101.101 69.5429C101.073 69.5664 101.051 69.5955 101.036 69.6283C101.021 69.6611 101.013 69.6968 101.013 69.7329C101.013 69.769 101.021 69.8047 101.036 69.8375C101.051 69.8703 101.073 69.8995 101.101 69.9229C101.231 70.0129 101.421 69.9229 101.481 69.8329C101.541 69.7429 101.591 69.7829 101.751 69.8329C101.911 69.8829 102.151 69.7429 102.131 69.5629L102.181 69.5429Z" fill="#101010"/>
<path d="M80.0008 44.1428C89.0008 65.5828 99.6908 86.1928 110.831 106.563C110.891 106.663 110.731 106.773 110.661 106.673C103.241 97.6728 97.8408 87.1328 93.1208 76.4928C90.6808 71.2028 88.3908 65.8528 86.1208 60.4928C83.8508 55.1328 81.8208 49.6728 79.8208 44.2128C79.8208 44.1028 79.9608 44.0228 80.0008 44.1428Z" fill="#101010"/>
<path d="M119.961 106.533C122.901 103.293 126.761 101.343 130.751 99.7527C134.481 97.6927 137.751 94.8127 141.751 93.2127C144.411 92.0024 147.289 91.3458 150.211 91.2827C150.237 91.2827 150.263 91.2933 150.281 91.312C150.3 91.3308 150.311 91.3562 150.311 91.3827C150.311 91.4092 150.3 91.4347 150.281 91.4534C150.263 91.4722 150.237 91.4827 150.211 91.4827C146.321 93.2627 142.731 95.2527 138.791 96.8627C136.251 98.0527 133.431 98.7827 131.051 100.313C128.671 101.843 126.621 103.853 124.051 105.023C122.762 105.684 121.425 106.246 120.051 106.703C120.029 106.711 120.004 106.712 119.982 106.704C119.96 106.696 119.941 106.68 119.929 106.66C119.917 106.64 119.912 106.616 119.916 106.592C119.92 106.569 119.933 106.548 119.951 106.533H119.961Z" fill="#101010"/>
<path d="M77.751 58.4928C79.7449 59.4495 81.6578 60.5665 83.471 61.8328C85.1356 63.2651 87.0066 64.4383 89.021 65.3128L88.681 65.4828C89.2948 60.909 90.4496 56.4243 92.121 52.1228C91.6798 56.7142 90.7032 61.2383 89.211 65.6028C89.2058 65.6411 89.1914 65.6776 89.1692 65.7091C89.1469 65.7407 89.1173 65.7664 89.0829 65.7841C89.0485 65.8017 89.0104 65.8108 88.9718 65.8106C88.9331 65.8104 88.8951 65.8009 88.861 65.7828C85.181 63.4728 80.531 61.6628 77.781 58.4928H77.751Z" fill="#101010"/>
<path d="M82.4909 77.4729C86.2709 78.9929 93.8709 82.1029 97.6409 83.6629L97.0909 83.8529C99.0639 79.9113 101.309 76.1121 103.811 72.4829C102.511 76.3429 99.9909 80.5429 97.8609 84.2829C97.8096 84.3802 97.7229 84.4541 97.6188 84.4895C97.5146 84.5248 97.4008 84.5189 97.3009 84.4729L89.8609 81.0229L82.4409 77.5529C82.4409 77.5529 82.4409 77.4329 82.4409 77.4629L82.4909 77.4729Z" fill="#101010"/>
<path d="M94.6811 96.8928C98.4611 97.4528 102.231 98.0428 105.991 98.6628L105.571 98.8528C106.381 97.1528 107.221 95.4428 108.051 93.7428C108.881 92.0428 109.751 90.3428 110.701 88.6628C110.701 88.6628 110.811 88.6628 110.791 88.6628C109.875 92.4361 108.327 96.027 106.211 99.2828C106.167 99.3485 106.105 99.3997 106.032 99.4299C105.959 99.4602 105.879 99.4682 105.801 99.4528C102.191 98.5828 97.9211 97.9428 94.6411 96.8928H94.6811Z" fill="#101010"/>
<path d="M125.211 97.8928C125.541 100.093 124.691 102.043 124.211 104.113L124.141 103.953C125.401 104.653 126.771 105.193 128.031 105.903C129.291 106.613 130.451 107.413 131.731 108.123V108.223C130.978 108.197 130.234 108.045 129.531 107.773C127.464 106.892 125.56 105.668 123.901 104.153C124.211 102.023 124.041 99.8528 125.131 97.8828L125.211 97.8928Z" fill="#101010"/>
<path d="M133.561 92.4028C133.732 94.6549 133.471 96.919 132.791 99.0728L132.701 98.9128C134.321 99.6728 136.111 100.033 137.761 100.713C139.431 101.38 141.058 102.151 142.631 103.023V103.123C141.72 103.051 140.819 102.886 139.941 102.633C137.251 101.973 134.941 100.373 132.501 99.2028C132.406 96.9034 132.746 94.6068 133.501 92.4328L133.561 92.4028Z" fill="#101010"/>
</svg>
