<svg width="194" height="194" viewBox="0 0 194 194" fill="none" xmlns="http://www.w3.org/2000/svg">
<path d="M104.948 45.576V28.1816C108.11 26.6215 110.068 24.4449 110.068 22.1095C110.054 21.3037 109.833 20.5153 109.425 19.8207V19.8861C107.653 17.1397 100.742 15.0845 92.4602 15.0845C84.1785 15.0845 77.2305 17.1303 75.4492 19.8768V19.8207C75.0472 20.5173 74.8289 21.305 74.815 22.1095C74.815 24.4543 76.7362 26.5748 79.8512 28.1349V45.8375C71.231 48.6997 63.7996 54.3405 58.7172 61.8791C53.6348 69.4177 51.1875 78.4298 51.7573 87.5085C52.3272 96.5871 55.8822 105.221 61.8672 112.063C67.8523 118.904 75.9305 123.568 84.8407 125.327L86.6034 157.602C86.4877 157.903 86.4877 158.236 86.6034 158.536C87.2096 159.826 90.1939 159.704 93.2716 158.266C96.3492 156.827 98.3637 154.622 97.7668 153.333L99.4269 125.588C108.556 124.079 116.909 119.528 123.136 112.672C129.362 105.816 133.096 97.0564 133.735 87.8105C134.374 78.5646 131.879 69.3733 126.655 61.7239C121.431 54.0745 113.782 48.4146 104.948 45.66V45.576Z" fill="#101010"/>
<path d="M76.4819 20.1181C79.366 19.5063 82.2826 19.2832 85.1947 19.4517C86.6474 19.571 88.1002 19.8614 89.5529 19.9159C91.732 20.0326 93.9128 19.6877 96.0866 19.4803C98.9902 19.2858 101.897 19.1328 104.801 19.3299C106.97 19.4673 109.181 19.6695 111.337 20.1078V20.2893C106.282 21.2928 101.171 21.3135 96.0866 20.9271C93.9128 20.7223 91.732 20.3774 89.5529 20.4915C88.1002 20.546 86.6474 20.839 85.1947 20.9557C83.0145 21.075 80.8312 20.984 78.6592 20.6834C77.9329 20.5875 77.2083 20.4682 76.4819 20.2893V20.1078V20.1181Z" fill="white"/>
<path d="M81.4819 28.1181C83.8516 27.5063 86.2479 27.2832 88.6405 27.4517C89.8341 27.571 91.0277 27.8614 92.2213 27.9159C94.0117 28.0326 95.8035 27.6877 97.5895 27.4803C99.9752 27.2858 102.364 27.1328 104.75 27.3299C106.531 27.4673 108.348 27.6695 110.119 28.1078V28.2893C105.967 29.2928 101.767 29.3135 97.5895 28.9271C95.8035 28.7223 94.0117 28.3774 92.2213 28.4915C91.0277 28.546 89.8341 28.839 88.6405 28.9557C86.8492 29.075 85.0554 28.984 83.2709 28.6834C82.6741 28.5875 82.0787 28.4682 81.4819 28.2893V28.1078V28.1181Z" fill="white"/>
<path d="M81.4819 36.1181C83.8516 35.5063 86.2479 35.2832 88.6405 35.4517C89.8341 35.571 91.0277 35.8614 92.2213 35.9159C94.0117 36.0326 95.8035 35.6877 97.5895 35.4803C99.9752 35.2858 102.364 35.1328 104.75 35.3299C106.531 35.4673 108.348 35.6695 110.119 36.1078V36.2893C105.967 37.2928 101.767 37.3135 97.5895 36.9271C95.8035 36.7223 94.0117 36.3774 92.2213 36.4915C91.0277 36.546 89.8341 36.839 88.6405 36.9557C86.8492 37.075 85.0554 36.984 83.2709 36.6834C82.6741 36.5875 82.0787 36.4682 81.4819 36.2893V36.1078V36.1181Z" fill="white"/>
<path d="M81.4819 44.1181C83.8516 43.5063 86.2479 43.2832 88.6405 43.4517C89.8341 43.571 91.0277 43.8614 92.2213 43.9159C94.0117 44.0326 95.8035 43.6877 97.5895 43.4803C99.9752 43.2858 102.364 43.1328 104.75 43.3299C106.531 43.4673 108.348 43.6695 110.119 44.1078V44.2893C105.967 45.2928 101.767 45.3135 97.5895 44.9271C95.8035 44.7223 94.0117 44.3774 92.2213 44.4915C91.0277 44.546 89.8341 44.839 88.6405 44.9557C86.8492 45.075 85.0554 44.984 83.2709 44.6834C82.6741 44.5875 82.0787 44.4682 81.4819 44.2893V44.1078V44.1181Z" fill="white"/>
<path d="M72.605 50.5368C74.9746 49.925 77.3709 49.7019 79.7636 49.8704C80.9572 49.9897 82.1508 50.2801 83.3443 50.3346C85.1347 50.4513 86.9266 50.1064 88.7126 49.899C91.0983 49.7045 93.4869 49.5515 95.8726 49.7486C97.6542 49.886 99.4709 50.0882 101.242 50.5265V50.708C97.0895 51.7115 92.8901 51.7322 88.7126 51.3459C86.9266 51.141 85.1347 50.7961 83.3443 50.9102C82.1508 50.9647 80.9572 51.2577 79.7636 51.3744C77.9723 51.4937 76.1785 51.4027 74.3939 51.1021C73.7971 51.0062 73.2018 50.8869 72.605 50.708V50.5265V50.5368Z" fill="white"/>
<path d="M64.1719 56.9555C66.5415 56.3437 68.9378 56.1206 71.3305 56.2891C72.5241 56.4084 73.7176 56.6988 74.9112 56.7533C76.7016 56.87 78.4934 56.5251 80.2795 56.3177C82.6652 56.1232 85.0538 55.9702 87.4395 56.1673C89.2211 56.3047 91.0378 56.5069 92.8092 56.9452V57.1267C88.6564 58.1302 84.457 58.1509 80.2795 57.7646C78.4934 57.5597 76.7016 57.2148 74.9112 57.3289C73.7176 57.3834 72.5241 57.6764 71.3305 57.7931C69.5392 57.9124 67.7454 57.8214 65.9608 57.5208C65.364 57.4249 64.7687 57.3056 64.1719 57.1267V56.9452V56.9555Z" fill="white"/>
<path d="M59.1118 64.9553C61.4815 64.3434 63.8778 64.1204 66.2704 64.2889C67.464 64.4082 68.6576 64.6986 69.8512 64.753C71.6416 64.8697 73.4334 64.5249 75.2194 64.3174C77.6051 64.1229 79.9937 63.97 82.3795 64.167C84.1611 64.3044 85.9777 64.5067 87.7491 64.9449V65.1264C83.5964 66.1299 79.3969 66.1507 75.2194 65.7643C73.4334 65.5595 71.6416 65.2146 69.8512 65.3287C68.6576 65.3831 67.464 65.6761 66.2704 65.7928C64.4791 65.9122 62.6853 65.8212 60.9007 65.5206C60.3039 65.4246 59.7086 65.3053 59.1118 65.1264V64.9449V64.9553Z" fill="white"/>
<path d="M55.4385 73.526C57.8081 72.9141 60.2044 72.691 62.5971 72.8596C63.7907 72.9788 64.9842 73.2693 66.1778 73.3237C67.9682 73.4404 69.7601 73.0955 71.5461 72.8881C73.9318 72.6936 76.3204 72.5406 78.7061 72.7377C80.4877 72.8751 82.3044 73.0774 84.0758 73.5156V73.6971C79.923 74.7006 75.7236 74.7213 71.5461 74.335C69.7601 74.1301 67.9682 73.7853 66.1778 73.8994C64.9842 73.9538 63.7907 74.2468 62.5971 74.3635C60.8058 74.4828 59.012 74.3919 57.2274 74.0912C56.6306 73.9953 56.0353 73.876 55.4385 73.6971V73.5156V73.526Z" fill="white"/>
<path d="M53.7549 82.4077C56.1245 81.7958 58.5208 81.5727 60.9135 81.7413C62.1071 81.8606 63.3007 82.151 64.4942 82.2054C66.2846 82.3221 68.0765 81.9772 69.8625 81.7698C72.2482 81.5753 74.6368 81.4223 77.0225 81.6194C78.8041 81.7568 80.6208 81.9591 82.3922 82.3973V82.5788C78.2395 83.5823 74.04 83.6031 69.8625 83.2167C68.0765 83.0119 66.2846 82.667 64.4942 82.7811C63.3007 82.8355 62.1071 83.1285 60.9135 83.2452C59.1222 83.3645 57.3284 83.2736 55.5438 82.973C54.947 82.877 54.3517 82.7577 53.7549 82.5788V82.3973V82.4077Z" fill="white"/>
<path d="M54.0771 92.0578C56.4468 91.446 58.8431 91.2229 61.2357 91.3914C62.4293 91.5107 63.6229 91.8011 64.8165 91.8556C66.6069 91.9723 68.3987 91.6274 70.1847 91.42C72.5704 91.2255 74.9591 91.0725 77.3448 91.2696C79.1264 91.407 80.9431 91.6092 82.7145 92.0475V92.229C78.5617 93.2325 74.3623 93.2532 70.1847 92.8668C68.3987 92.662 66.6069 92.3171 64.8165 92.4312C63.6229 92.4857 62.4293 92.7787 61.2357 92.8954C59.4444 93.0147 57.6506 92.9237 55.8661 92.6231C55.2693 92.5272 54.6739 92.4079 54.0771 92.229V92.0475V92.0578Z" fill="white"/>
<path d="M56.9722 101.456C59.3418 100.844 61.7381 100.621 64.1308 100.789C65.3244 100.909 66.5179 101.199 67.7115 101.253C69.5019 101.37 71.2937 101.025 73.0797 100.818C75.4655 100.623 77.8541 100.47 80.2398 100.667C82.0214 100.805 83.8381 101.007 85.6095 101.445V101.627C81.4567 102.63 77.2573 102.651 73.0797 102.265C71.2937 102.06 69.5019 101.715 67.7115 101.829C66.5179 101.884 65.3244 102.177 64.1308 102.293C62.3395 102.413 60.5457 102.322 58.7611 102.021C58.1643 101.925 57.569 101.806 56.9722 101.627V101.445V101.456Z" fill="white"/>
<path d="M62.1631 109.137C64.5327 108.525 66.929 108.302 69.3217 108.471C70.5153 108.59 71.7089 108.88 72.9024 108.935C74.6928 109.051 76.4847 108.706 78.2707 108.499C80.6564 108.305 83.045 108.152 85.4307 108.349C87.2123 108.486 89.029 108.688 90.8004 109.127V109.308C86.6477 110.312 82.4482 110.332 78.2707 109.946C76.4847 109.741 74.6928 109.396 72.9024 109.51C71.7089 109.565 70.5153 109.858 69.3217 109.974C67.5304 110.094 65.7366 110.003 63.952 109.702C63.3552 109.606 62.7599 109.487 62.1631 109.308V109.127V109.137Z" fill="white"/>
<path d="M70.0483 116.819C72.418 116.207 74.8143 115.984 77.2069 116.152C78.4005 116.271 79.5941 116.562 80.7877 116.616C82.5781 116.733 84.3699 116.388 86.1559 116.181C88.5416 115.986 90.9303 115.833 93.316 116.03C95.0976 116.168 96.9142 116.37 98.6857 116.808V116.99C94.5329 117.993 90.3335 118.014 86.1559 117.628C84.3699 117.423 82.5781 117.078 80.7877 117.192C79.5941 117.246 78.4005 117.539 77.2069 117.656C75.4156 117.775 73.6218 117.684 71.8373 117.384C71.2405 117.288 70.6451 117.169 70.0483 116.99V116.808V116.819Z" fill="white"/>
<path d="M86.2959 126.77C87.5382 126.158 88.7944 125.935 90.0487 126.103C90.6744 126.223 91.3001 126.513 91.9259 126.568C92.8644 126.684 93.8038 126.339 94.7401 126.132C95.9908 125.938 97.243 125.785 98.4936 125.982C99.4276 126.119 100.38 126.321 101.309 126.759V126.941C99.1316 127.944 96.9301 127.965 94.7401 127.579C93.8038 127.374 92.8644 127.029 91.9259 127.143C91.3001 127.198 90.6744 127.491 90.0487 127.607C89.1096 127.727 88.1693 127.636 87.2337 127.335C86.9209 127.239 86.6088 127.12 86.2959 126.941V126.759V126.77Z" fill="white"/>
<path d="M86.7856 151.977C88.0279 151.365 89.2841 151.142 90.5384 151.311C91.1642 151.43 91.7899 151.72 92.4156 151.775C93.3542 151.892 94.2935 151.547 95.2298 151.339C96.4805 151.145 97.7327 150.992 98.9834 151.189C99.9174 151.326 100.87 151.529 101.798 151.967V152.148C99.6214 153.152 97.4199 153.173 95.2298 152.786C94.2935 152.581 93.3542 152.236 92.4156 152.351C91.7899 152.405 91.1642 152.698 90.5384 152.815C89.5994 152.934 88.659 152.843 87.7235 152.542C87.4106 152.446 87.0985 152.327 86.7856 152.148V151.967V151.977Z" fill="white"/>
<path d="M104.911 45.604L104.743 28.1816C104.744 28.1447 104.755 28.1087 104.774 28.0775C104.794 28.0463 104.822 28.0209 104.855 28.0041C107.084 26.8458 109.592 25.0895 109.816 22.3991C109.859 21.5442 109.648 20.6958 109.21 19.9609H109.639C109.625 19.9993 109.603 20.0343 109.575 20.0633C109.546 20.0924 109.511 20.1148 109.473 20.129C109.435 20.1433 109.394 20.149 109.354 20.1457C109.313 20.1425 109.273 20.1304 109.238 20.1104C104.267 13.7486 80.7557 13.8514 75.7476 20.0823C75.7056 20.1369 75.6503 20.1797 75.587 20.2067C75.5237 20.2337 75.4546 20.244 75.3862 20.2365C75.3178 20.229 75.2525 20.204 75.1966 20.1639C75.1407 20.1238 75.0959 20.07 75.0668 20.0076H75.7476C75.3316 20.7172 75.1352 21.5346 75.1834 22.3561C75.2315 23.1777 75.522 23.9664 76.018 24.6224C77.0679 25.979 78.4314 27.0594 79.991 27.7706C80.0612 27.8017 80.1208 27.8529 80.1623 27.9176C80.2037 27.9824 80.2252 28.058 80.2241 28.1349L80.1682 45.8376C80.168 45.9144 80.1435 45.9892 80.0983 46.0513C80.0531 46.1134 79.9894 46.1595 79.9164 46.1832C71.39 49.0182 64.028 54.5776 58.9604 62.0081C48.5244 76.8428 49.8021 98.441 62.038 111.874C68.0011 118.66 76.0385 123.278 84.8966 125.009C84.9442 125.029 84.9857 125.061 85.0169 125.102C85.048 125.143 85.0677 125.191 85.0738 125.242L86.939 157.518C86.8271 158.032 86.939 158.452 87.4706 158.677C89.9327 159.807 98.1305 156.266 97.3098 153.268L98.9325 125.523C98.9414 125.41 98.9876 125.304 99.0636 125.221C99.1397 125.138 99.2413 125.083 99.3522 125.065C106.083 123.922 112.422 121.115 117.796 116.898C123.17 112.681 127.409 107.188 130.129 100.917C139.837 79.0849 127.667 52.7691 104.948 45.6507L104.911 45.604ZM104.985 45.548C133.729 54.133 143.726 90.678 123.451 112.874C117.162 119.8 108.73 124.407 99.5107 125.952L99.9211 125.504L98.2144 153.268V153.044C98.3386 153.42 98.3661 153.822 98.2944 154.212C98.2227 154.603 98.054 154.968 97.8041 155.276C96.144 157.948 88.4778 161.675 86.2862 158.677C86.1018 158.296 86.0653 157.859 86.1836 157.453C86.1836 158.144 84.5608 125.121 84.5422 125.299L84.7753 125.56C75.8191 123.761 67.7056 119.052 61.693 112.164C42.3504 89.968 51.7512 54.7963 79.6832 45.4452L79.4781 45.8376L79.3848 28.1349L79.6179 28.5086C77.2211 27.2661 74.6098 25.3231 74.3953 22.3897C74.3607 21.439 74.6003 20.4985 75.0854 19.6806C75.1207 19.6247 75.1696 19.5786 75.2275 19.5466C75.2854 19.5147 75.3504 19.4979 75.4165 19.4979C75.4826 19.4979 75.5476 19.5147 75.6055 19.5466C75.6634 19.5786 75.7123 19.6247 75.7476 19.6806H75.1041C80.2428 13.048 104.482 13.1414 109.611 19.7647H109.182L109.21 19.6806C109.881 18.8866 110.441 22.0254 110.292 22.3897C110.04 25.2857 107.457 27.154 105.032 28.3685L105.144 28.1816L104.985 45.548Z" fill="#101010"/>
<path d="M113.243 45.576V28.1816C116.414 26.6215 118.373 24.4449 118.373 22.1095C118.359 21.3037 118.137 20.5153 117.729 19.8207L117.683 19.8861C115.911 17.1397 108.991 15.0845 100.709 15.0845C92.4273 15.0845 85.5352 17.1303 83.7539 19.8768V19.8207C83.3459 20.5153 83.1242 21.3037 83.1104 22.1095C83.1104 24.4543 85.0316 26.5748 88.1373 28.1349V45.8375C79.5171 48.7006 72.0861 54.3421 67.0044 61.8814C61.9226 69.4207 59.4762 78.4334 60.0472 87.5122C60.6181 96.5909 64.1742 105.225 70.1603 112.066C76.1464 118.907 84.2255 123.57 93.1361 125.327L94.8988 157.602C94.7831 157.903 94.7831 158.236 94.8988 158.536C95.4956 159.826 98.48 159.704 101.567 158.266C104.654 156.827 106.659 154.622 106.062 153.333L107.722 125.588C116.851 124.077 125.203 119.525 131.429 112.669C137.654 105.812 141.387 97.0525 142.025 87.8068C142.662 78.561 140.167 69.3702 134.942 61.7216C129.717 54.0729 122.069 48.4138 113.234 45.66L113.243 45.576Z" fill="white"/>
<path d="M113.188 45.604L113.048 28.1816C113.049 28.1447 113.06 28.1087 113.08 28.0775C113.099 28.0463 113.127 28.0209 113.16 28.0041C115.389 26.8458 117.888 25.0895 118.121 22.3991C118.165 21.5429 117.951 20.6933 117.506 19.9609H117.944C117.93 19.9993 117.908 20.0343 117.88 20.0633C117.851 20.0924 117.817 20.1148 117.778 20.129C117.74 20.1433 117.699 20.149 117.659 20.1457C117.618 20.1425 117.579 20.1304 117.543 20.1104C112.563 13.7673 89.0609 13.8701 84.0714 20.1104C84.0294 20.1649 83.9741 20.2078 83.9108 20.2348C83.8475 20.2618 83.7784 20.272 83.71 20.2645C83.6416 20.257 83.5763 20.232 83.5204 20.1919C83.4644 20.1518 83.4197 20.098 83.3905 20.0356H84.0434C83.6257 20.7378 83.4249 21.5481 83.4664 22.3644C83.5079 23.1807 83.7898 23.9664 84.2765 24.6224C85.3245 25.9808 86.6885 27.0617 88.2495 27.7706C88.3197 27.8017 88.3793 27.8529 88.4208 27.9176C88.4622 27.9824 88.4837 28.058 88.4827 28.1349L88.4733 45.8376C88.4717 45.9141 88.4467 45.9882 88.4017 46.0501C88.3567 46.1119 88.2938 46.1583 88.2215 46.1832C79.67 49.0239 72.2895 54.6046 67.2189 62.0642C56.7829 76.8428 58.0606 98.4503 70.2872 111.874C76.2536 118.661 84.2941 123.279 93.1551 125.009C93.2172 125.021 93.2736 125.053 93.3157 125.1C93.3578 125.148 93.3833 125.207 93.3882 125.271L95.2535 157.546C95.1416 158.06 95.2535 158.48 95.7758 158.705C98.2659 159.807 106.38 156.266 105.615 153.268L107.238 125.523C107.246 125.412 107.291 125.307 107.365 125.224C107.439 125.141 107.539 125.085 107.648 125.065C114.373 123.908 120.704 121.09 126.068 116.866C131.432 112.641 135.66 107.143 138.369 100.87C148.077 79.0382 135.906 52.7224 113.188 45.604ZM113.262 45.548C142.034 54.133 152.031 90.678 131.756 112.874C125.465 119.803 117.029 124.409 107.807 125.952L108.217 125.504L106.52 153.268V153.044C106.644 153.42 106.671 153.822 106.6 154.212C106.528 154.603 106.359 154.968 106.109 155.276C104.402 157.939 96.7177 161.675 94.5354 158.686C94.351 158.305 94.3145 157.869 94.4328 157.462C94.4328 158.154 92.8007 125.13 92.7914 125.308L93.0245 125.569C84.0853 123.754 75.9906 119.044 69.9888 112.164C50.6462 89.968 60.0284 54.7963 88.007 45.4452L87.7552 45.8002L87.7086 28.1349L87.9417 28.5086C85.5449 27.2661 82.9336 25.3231 82.7191 22.3897C82.6746 21.4405 82.908 20.4988 83.3905 19.6806C83.4247 19.6246 83.4726 19.5783 83.5298 19.5461C83.587 19.514 83.6514 19.4971 83.717 19.4971C83.7825 19.4971 83.847 19.514 83.9041 19.5461C83.9613 19.5783 84.0092 19.6246 84.0434 19.6806V19.7367L83.4372 19.6806C88.5759 13.048 112.815 13.1414 117.888 19.7647H117.469V19.6993C118.149 18.9053 118.709 22.0441 118.56 22.4084C118.345 25.2857 115.734 27.154 113.337 28.3685L113.449 28.1816L113.281 45.548H113.262Z" fill="#101010"/>
<path d="M88.1934 24.4917C88.5478 31.5354 88.7157 38.5884 88.8369 45.6414C88.838 45.7955 88.7896 45.9458 88.6989 46.0702C88.6083 46.1947 88.4801 46.2867 88.3333 46.3327C75.687 50.8167 65.0178 61.4664 61.5018 74.5915C55.4957 97.32 71.9938 120.945 94.8617 124.505C95.084 124.538 95.2868 124.651 95.4324 124.823C95.5781 124.995 95.6569 125.213 95.6544 125.439C95.5331 130.11 95.5052 137.013 95.356 141.675C95.2254 147.084 95.0668 152.492 94.815 157.901C94.815 158.013 94.6285 158.023 94.6285 157.901C94.1342 147.261 93.957 136.126 93.7892 125.439L94.5819 126.373C69.998 122.73 54.7403 98.2822 60.9609 74.4514C64.1038 60.8405 74.3813 49.0138 87.8763 44.9034L87.3727 45.604C87.494 38.551 87.6618 31.498 88.0069 24.4543C88.0069 24.3422 88.1934 24.3329 88.1934 24.4543V24.4917Z" fill="#101010"/>
<path d="M113.337 24.4917C113.701 31.4606 113.859 38.4389 113.98 45.4172L113.467 44.7072C122.628 47.4346 130.485 53.4083 135.571 61.513C152.041 87.7634 137.641 122.552 106.24 126.438L107.004 125.579C106.911 130.25 106.874 134.995 106.715 139.694C106.557 144.393 106.445 149.101 106.23 153.81C106.23 153.834 106.22 153.858 106.203 153.876C106.185 153.893 106.162 153.903 106.137 153.903C106.112 153.903 106.089 153.893 106.071 153.876C106.054 153.858 106.044 153.834 106.044 153.81C105.605 144.402 105.41 134.995 105.27 125.579C105.266 125.372 105.337 125.172 105.472 125.015C105.606 124.858 105.793 124.756 105.997 124.729C124.304 122.291 139.571 106.821 141.493 88.2959C143.74 69.192 130.796 52.0966 113.029 46.1178C112.879 46.073 112.748 45.9803 112.655 45.8539C112.563 45.7274 112.514 45.574 112.516 45.4172C112.516 41.9234 112.675 38.4389 112.749 34.9544C112.824 31.47 112.973 27.9761 113.15 24.4917C113.15 24.3796 113.337 24.3702 113.337 24.4917Z" fill="#101010"/>
<path d="M142.099 86.1473C142.099 85.7269 142.099 85.3159 142.099 84.8862C142.099 83.7558 142.099 82.6255 141.959 81.5138V85.5961C140.439 82.3452 124.127 83.8025 110.455 92.0793C96.7827 100.356 88.4357 100.627 76.9551 96.554C67.1533 93.0789 60.8208 92.8173 61.6322 95.5545L61.2871 95.461C63.2697 102.916 67.3015 109.664 72.9237 114.937C78.5459 120.21 85.5328 123.797 93.0895 125.289L94.8521 157.565C94.7364 157.866 94.7364 158.199 94.8521 158.499C95.449 159.788 98.4334 159.667 101.52 158.228C104.607 156.79 106.612 154.585 106.016 153.296L107.676 125.551C117.003 124.019 125.519 119.315 131.789 112.229C138.059 105.144 141.7 96.1113 142.099 86.6518C142.113 86.4839 142.113 86.3152 142.099 86.1473Z" fill="white"/>
<path d="M142.099 86.1473C142.229 84.7648 141.978 82.9057 141.968 81.4765H142.099V85.5588C142.1 85.5694 142.099 85.5801 142.096 85.5903C142.093 85.6005 142.088 85.6098 142.081 85.6178C142.073 85.6258 142.065 85.6321 142.055 85.6364C142.045 85.6408 142.035 85.643 142.024 85.6429C141.468 84.9294 140.654 84.4632 139.758 84.3444C137.121 83.9347 134.434 83.979 131.812 84.4752C124.789 85.639 118.035 88.0733 111.882 91.659C108.828 93.5839 105.64 95.2854 102.341 96.7502C95.6977 99.7732 88.1907 100.304 81.1893 98.2449C77.7479 97.3107 74.4651 95.8814 70.9958 94.994C69.2898 94.5232 67.5499 94.1859 65.7917 93.9851C64.5514 93.9197 63.1058 93.7328 62.0613 94.4708C61.9221 94.5976 61.8245 94.7636 61.7812 94.947C61.7379 95.1304 61.751 95.3226 61.8188 95.4984C61.8315 95.5302 61.8349 95.5649 61.8284 95.5985C61.8219 95.632 61.8059 95.663 61.7823 95.6877C61.7586 95.7124 61.7284 95.7297 61.6951 95.7375C61.6619 95.7454 61.6271 95.7435 61.595 95.732L61.2499 95.6386L61.4737 95.4144C63.4422 102.837 67.4624 109.552 73.0719 114.787C78.6814 120.023 85.6523 123.566 93.1828 125.009C93.2425 125.024 93.2961 125.057 93.3361 125.104C93.3762 125.151 93.4008 125.209 93.4067 125.271C93.4067 125.345 95.3372 157.602 95.3185 157.677C95.0387 158.873 96.6149 158.929 97.5009 158.873C99.931 158.595 102.23 157.622 104.122 156.07C104.813 155.51 105.988 154.342 105.652 153.473C105.503 153.352 107.331 125.672 107.293 125.495C107.3 125.389 107.343 125.289 107.414 125.211C107.485 125.133 107.581 125.082 107.685 125.065C126.552 122.197 141.66 105.373 142.099 86.1473ZM142.192 86.1473C141.981 93.3165 139.934 100.311 136.248 106.46C132.562 112.609 127.361 117.706 121.143 121.263C117.015 123.576 112.519 125.156 107.853 125.934L108.245 125.495L106.557 153.268V153.034C106.724 153.434 106.747 153.88 106.622 154.295C105.783 156.565 103.442 157.827 101.39 158.789C99.5246 159.723 93.9289 161.022 94.4792 157.444C94.4792 158.219 92.8844 125.084 92.8657 125.299L93.0896 125.56C87.4121 124.405 82.0373 122.078 77.3083 118.726C72.5792 115.374 68.5998 111.071 65.6239 106.092C63.6344 102.793 62.118 99.2299 61.1193 95.5078C61.1123 95.4845 61.1102 95.46 61.113 95.4358C61.1159 95.4116 61.1237 95.3883 61.136 95.3672C61.1482 95.3462 61.1646 95.3279 61.1842 95.3135C61.2038 95.2991 61.2262 95.2889 61.2499 95.2836C61.2803 95.2742 61.3128 95.2742 61.3431 95.2836L61.6975 95.377L61.4644 95.6105C61.3897 95.3656 61.3706 95.1071 61.4084 94.8538C63.0965 90.7528 77.9438 96.7876 81.3758 97.563C84.7806 98.4976 88.317 98.8575 91.8398 98.6279C102.826 97.9553 111.117 89.9214 121.292 86.7265C125.414 85.2505 139.152 81.7567 142.043 85.5681H141.894V81.4858C141.894 81.4017 142.024 81.3924 142.024 81.4858C142.08 82.8964 142.183 84.7461 142.117 86.1567L142.192 86.1473Z" fill="#101010"/>
<path d="M66.5566 100.375C79.2029 107.437 95.589 105.709 109.457 103.831C120.061 102.056 131.364 98.9735 139.086 91.0611C140.234 89.7999 141.465 88.2585 141.688 86.5677C141.723 86.3949 141.72 86.2166 141.678 86.0454C141.636 85.8742 141.557 85.7144 141.446 85.5774C140.513 84.7367 139.133 84.6433 137.902 84.5592C130.702 84.4564 123.53 86.7732 116.983 89.6598C113.682 91.1078 110.539 93.2097 107.387 94.9472C100.858 98.5999 93.2015 101.019 85.6939 99.7209C80.0982 98.9642 75.1926 96.2457 69.8394 94.8632C61.567 92.6492 58.3588 94.4615 66.6218 100.375H66.5566ZM66.4446 100.534C64.7379 99.3005 58.3868 94.8632 63.0126 93.602C67.1907 93.0041 71.4062 94.3213 75.3605 95.3676C82.2432 97.6283 89.3498 99.2351 96.4657 97.236C101.66 95.9094 106.575 93.219 111.21 90.5099C119.362 86.1286 128.594 83.0365 137.939 83.4942C144.468 83.9893 142.957 87.8101 139.525 91.4721C122.738 107.353 86.6079 111.912 66.4446 100.496V100.534Z" fill="#101010"/>
<path d="M106.109 153.501C106.528 154.772 105.624 156.024 104.924 157.014C103.348 159.144 100.634 159.667 98.1813 159.816C96.8663 159.816 95.3834 160.246 94.4508 158.882C93.3596 156.248 96.9782 153.782 98.9926 152.829C100.74 151.999 102.728 151.833 104.588 152.362C104.903 152.425 105.201 152.551 105.465 152.732C105.73 152.913 105.955 153.146 106.127 153.417L106.109 153.501ZM105.941 153.585C105.297 152.539 103.786 152.988 102.854 153.361C100.382 154.454 97.6403 155.416 95.8124 157.462C95.5199 157.745 95.3464 158.13 95.3274 158.537C95.3274 158.863 95.859 159.2 96.4 159.284C98.1346 159.648 99.804 158.649 101.203 157.78C102.509 156.734 106.519 155.659 105.941 153.585Z" fill="#101010"/>
<path d="M113.336 24.4917C113.103 25.7155 111.648 26.0518 110.697 26.5282C105.381 28.8543 99.5057 28.4807 93.9566 27.3036C91.9981 26.8832 89.8531 26.7244 88.1743 25.538C85.6842 22.8756 92.1287 21.3623 93.8727 21.1007C99.4684 20.1665 105.381 20.2506 110.66 22.4272C111.592 22.9036 113.066 23.2586 113.299 24.4917H113.336ZM113.15 24.4917C112.255 21.82 103.236 22.6888 100.671 22.4833C96.941 22.5767 93.0333 22.558 89.48 23.8285C89.132 23.9399 88.8304 24.1632 88.622 24.4637C88.622 24.6225 88.9391 25.0522 89.3681 25.3045C92.7908 27.1728 96.9317 26.8459 100.681 26.659C103.301 26.2667 112.301 27.1541 113.187 24.4917H113.15Z" fill="#101010"/>
<path d="M118.186 21.2689C117.906 24.4357 113.112 26.0612 110.529 26.9767C104.141 29.0225 97.2766 28.3499 90.8881 26.7058C80.0324 24.1648 80.107 18.1114 90.7482 15.2808C97.2485 13.5882 104.083 13.6753 110.538 15.533C113.131 16.4672 117.906 18.0833 118.186 21.2689ZM117.999 21.2689C117.067 14.7296 96.0922 15.7666 91.1586 16.9903C81.3568 19.0922 81.3847 23.7164 91.028 26.1172C94.208 26.6939 97.4457 26.8852 100.671 26.6871C104.831 26.3321 117.244 26.4722 117.999 21.2689Z" fill="#101010"/>
<path d="M100.681 26.164C92.5577 26.164 85.7589 23.4736 83.6792 19.8209C83.2711 20.5155 83.0494 21.3039 83.0356 22.1097C83.0356 26.874 90.9349 30.7414 100.681 30.7414C110.427 30.7414 118.335 26.874 118.335 22.1097C118.322 21.3039 118.1 20.5155 117.692 19.8209C115.64 23.4736 108.813 26.164 100.681 26.164Z" fill="white"/>
<path d="M100.681 26.22C94.5162 26.0051 86.7661 25.9491 82.961 20.1852H84.4066C82.3269 23.7538 86.2159 26.9113 89.2656 28.2752C92.8744 29.7768 96.7826 30.4164 100.681 30.1435C106.183 29.6951 112.469 28.7609 116.293 24.5945C116.841 24.0179 117.191 23.2809 117.292 22.4911C117.392 21.7013 117.238 20.9 116.852 20.2039H118.522C114.642 25.893 106.864 25.9864 100.681 26.1733V26.22ZM100.681 26.0331C106.277 25.921 113.551 24.1181 116.852 19.3164C116.93 19.161 117.049 19.0302 117.196 18.9388C117.344 18.8474 117.514 18.799 117.687 18.799C117.861 18.799 118.031 18.8474 118.178 18.9388C118.325 19.0302 118.445 19.161 118.522 19.3164C119.131 20.3473 119.395 21.5468 119.274 22.7388C119.153 23.9307 118.654 25.0526 117.85 25.9397C113.476 30.6106 106.659 31.4047 100.699 31.2458C94.74 31.087 78.9881 28.2752 82.9797 19.4098C83.0539 19.2839 83.1596 19.1796 83.2863 19.1071C83.4131 19.0347 83.5565 18.9965 83.7025 18.9965C83.8484 18.9965 83.9919 19.0347 84.1186 19.1071C84.2454 19.1796 84.3511 19.2839 84.4253 19.4098C87.8387 24.1555 95.0758 25.9491 100.699 26.0705L100.681 26.0331Z" fill="#101010"/>
<path d="M93.4542 129.889C95.4326 131.452 97.8928 132.383 100.477 132.549C103.061 132.714 105.634 132.104 107.822 130.808V128.621C107.822 128.621 110.29 128.173 110.875 130.053C111.308 131.42 111.121 139.37 110.98 143.668C110.962 144.597 110.675 145.505 110.15 146.294C109.625 147.083 108.881 147.725 107.997 148.151C105.739 149.289 103.208 149.87 100.643 149.839C98.0778 149.809 95.5635 149.167 93.3372 147.976C92.6057 147.59 92.001 147.024 91.5886 146.34C91.1762 145.656 90.9717 144.879 90.9972 144.094V130.371C90.9972 130.371 90.9972 127.823 93.4542 127.713V129.889Z" fill="white"/>
<path d="M93.4544 129.889C95.4561 131.298 97.8795 132.087 100.385 132.144C102.89 132.2 105.351 131.523 107.424 130.206L107.061 130.808L106.991 128.621C107.073 127.374 109.237 127.757 110.138 128.074C112.478 129.058 111.963 132.065 112.151 133.913C112.151 136.407 112.221 138.878 112.151 141.349V143.208C112.212 144.409 111.906 145.602 111.267 146.646C110.629 147.69 109.685 148.542 108.547 149.103C106.112 150.294 103.395 150.89 100.647 150.834C97.8995 150.779 95.2117 150.074 92.8343 148.785C91.9655 148.307 91.2527 147.617 90.7723 146.788C90.292 145.96 90.0624 145.025 90.1083 144.083C90.1083 143.515 90.1083 141.896 90.1785 141.306C90.2487 138.845 90.354 136.374 90.4593 133.903C90.6582 131.715 90.0498 127.648 93.4895 127.593C93.5299 127.593 93.5685 127.608 93.5971 127.635C93.6256 127.661 93.6416 127.697 93.6416 127.735L93.4778 129.922L93.4544 129.889ZM93.4544 129.889L93.3023 127.702L93.4661 127.855C92.8635 127.931 92.3136 128.217 91.9256 128.654C91.5376 129.092 91.3399 129.65 91.3719 130.217L91.5591 133.881C91.6643 136.352 91.7696 138.812 91.8398 141.284C91.8398 141.874 91.8398 143.471 91.9217 144.05C91.926 144.658 92.0985 145.255 92.4224 145.782C92.7464 146.308 93.2107 146.748 93.7703 147.058C95.6638 148.019 97.763 148.572 99.9147 148.678C102.066 148.784 104.216 148.44 106.207 147.67C106.988 147.463 107.703 147.084 108.294 146.565C108.884 146.045 109.332 145.4 109.6 144.685C109.752 144.176 109.823 143.649 109.811 143.121C109.904 140.07 110.056 136.943 110.068 133.913C110.068 132.962 110.068 131.267 109.963 130.403C109.858 129.539 108.793 129.31 107.927 129.31L108.606 128.544L108.524 130.731C108.533 130.852 108.505 130.974 108.443 131.08C108.38 131.187 108.287 131.274 108.173 131.333C105.885 132.62 103.211 133.175 100.555 132.915C97.8992 132.655 95.4065 131.592 93.4544 129.889Z" fill="#101010"/>
<path d="M86.7854 150.83C90.0356 150.83 92.6704 145.029 92.6704 137.872C92.6704 130.715 90.0356 124.914 86.7854 124.914C83.5352 124.914 80.9004 130.715 80.9004 137.872C80.9004 145.029 83.5352 150.83 86.7854 150.83Z" fill="#FFF4E9"/>
<path d="M92.7287 137.872C92.5298 142.148 92.249 147.178 88.7976 150.349C86.8788 151.924 84.4686 150.71 83.3221 148.938C79.8706 143.383 79.8121 136.385 81.4267 130.272C82.2223 127.844 83.6145 124.586 86.7852 124.378C92.2958 125.154 92.6351 133.804 92.7287 137.872ZM92.6117 137.872C92.4947 134.209 91.8044 130.305 89.5697 127.232C87.9435 124.914 85.662 124.914 84.1176 127.298C80.8651 132.59 80.7715 139.403 82.3393 145.221C83.0413 147.309 84.1761 150.284 86.7852 150.557C91.5353 149.934 92.6351 141.524 92.6351 137.872H92.6117Z" fill="#101010"/>
<path d="M85.3931 150.83C87.8744 150.83 89.8858 145.029 89.8858 137.872C89.8858 130.715 87.8744 124.914 85.3931 124.914C82.9118 124.914 80.9004 130.715 80.9004 137.872C80.9004 145.029 82.9118 150.83 85.3931 150.83Z" fill="#FFF4E9"/>
<path d="M89.9443 137.872C89.7571 141.995 89.7337 146.555 87.1948 150.109C85.4165 152.296 83.3105 150.437 82.5149 148.556C80.058 142.913 80.0463 136.527 81.111 130.622C81.6959 128.435 82.4681 124.695 85.4165 124.378C89.9794 125.045 89.9209 134.515 89.9677 137.872H89.9443ZM89.8273 137.872C90.1081 132.459 85.7792 117.598 82.2107 130.852C81.1545 135.489 81.0909 140.276 82.0235 144.936C82.4213 146.806 84.0242 152.591 86.8205 149.802C89.4295 146.434 89.722 141.918 89.8273 137.872Z" fill="#101010"/>
<path d="M85.3928 141.896C86.1617 141.896 86.785 140.094 86.785 137.872C86.785 135.649 86.1617 133.848 85.3928 133.848C84.6238 133.848 84.0005 135.649 84.0005 137.872C84.0005 140.094 84.6238 141.896 85.3928 141.896Z" fill="white"/>
<path d="M86.8436 137.872C86.7383 139.173 86.8436 140.617 86.0948 141.776C84.995 143.012 84.0357 141.054 83.8602 140.157C83.4507 138.08 83.1114 135.619 84.4451 133.76C84.5541 133.621 84.6967 133.508 84.8614 133.43C85.0261 133.352 85.2082 133.312 85.3928 133.312C85.5755 133.323 85.7533 133.372 85.9132 133.455C86.0731 133.538 86.2111 133.654 86.3171 133.793C87.1478 135.018 86.8319 136.538 86.8436 137.872ZM86.7266 137.872C86.7187 136.608 86.248 135.385 85.3928 134.406C84.505 136.151 84.2307 138.115 84.6089 140.015C85.0301 142.202 85.7789 142.06 86.4341 140.015C86.6548 139.305 86.7535 138.567 86.7266 137.828V137.872Z" fill="#101010"/>
<path d="M100.373 163.217C100.373 163.217 90.7391 177.715 96.055 184.245C100.718 189.934 108.543 185.525 107.498 178.724C106.249 170.55 100.373 163.217 100.373 163.217Z" fill="#FF8C22"/>
<path d="M100.373 163.264C97.7527 168.57 91.6533 179.565 96.6428 184.666C97.2332 185.304 97.9578 185.803 98.7643 186.126C99.5708 186.449 100.439 186.588 101.306 186.534C102.437 186.427 103.518 186.017 104.436 185.346C105.353 184.675 106.073 183.769 106.519 182.722C108.739 177.547 103.218 167.71 100.355 163.217L100.373 163.264ZM100.373 163.17C104.29 167.785 107.405 173.343 108.049 179.425C107.834 193.82 82.868 187.618 100.373 163.17Z" fill="#101010"/>
</svg>
