<svg width="206" height="37" viewBox="0 0 206 37" fill="none" xmlns="http://www.w3.org/2000/svg">
<g clip-path="url(#clip0_769_38429)">
<path d="M49.7659 31.5675C41.6238 26.8667 37.4154 19.009 31.9642 6.51349C45.2659 4.78464 56.0036 5.61636 62.5625 9.40312C68.683 12.9368 70.7801 20.7631 67.2464 26.8836C63.7127 33.0042 55.8864 35.1012 49.7659 31.5675Z" fill="white"/>
<path d="M19.8787 7.07503C28.0207 11.7758 32.2292 19.6336 37.6803 32.1291C24.3786 33.8579 13.6409 33.0262 7.08204 29.2395C0.961503 25.7058 -1.13555 17.8795 2.39815 11.7589C5.93184 5.63839 13.7581 3.54134 19.8787 7.07503Z" fill="#FF8C22"/>
<path d="M91.2974 29.3179C93.5347 29.3179 95.0671 28.3678 95.8946 26.8047V28.9194H100.553V14.1471H95.8946V22.0849C95.8946 24.077 95.0365 25.3643 93.0443 25.3643C91.2667 25.3643 90.5925 24.2609 90.5925 22.2382V14.1471H85.842V23.2802C85.842 27.1112 87.7422 29.3179 91.2974 29.3179ZM104.432 14.1471V28.9194H109.121V21.1961C109.121 18.9282 110.102 17.7023 111.971 17.7023C113.872 17.7023 114.576 18.8362 114.576 21.3187V28.9194H119.296V19.7863C119.296 15.7714 117.488 13.7487 113.902 13.7487C111.665 13.7487 109.979 14.6374 109.121 16.2924V14.1471H104.432ZM123.048 7.46581V28.9194H127.737V7.46581H123.048ZM133.968 12.8292C135.654 12.8292 136.88 11.542 136.88 9.97895C136.88 8.38525 135.654 7.09803 133.968 7.09803C132.282 7.09803 131.087 8.38525 131.087 9.97895C131.087 11.542 132.282 12.8292 133.968 12.8292ZM131.608 14.1471V28.9194H136.297V14.1471H131.608ZM140.168 14.1471V28.9194H144.857V21.3187C144.857 18.5297 145.869 17.7023 147.37 17.7023C148.811 17.7023 149.546 18.5297 149.546 20.5832V28.9194H154.266V21.3187C154.266 18.5297 155.278 17.7023 156.749 17.7023C158.189 17.7023 158.955 18.5604 158.955 20.6138V28.9194H163.675V19.7557C163.675 16.6602 162.664 13.7487 158.434 13.7487C156.258 13.7487 154.511 14.8826 153.715 16.4763C153.071 14.9133 151.722 13.7487 149.087 13.7487C147.033 13.7487 145.501 14.8213 144.857 16.2924V14.1471H140.168ZM169.734 12.8292C171.42 12.8292 172.646 11.542 172.646 9.97895C172.646 8.38525 171.42 7.09803 169.734 7.09803C168.048 7.09803 166.853 8.38525 166.853 9.97895C166.853 11.542 168.048 12.8292 169.734 12.8292ZM167.374 14.1471V28.9194H172.063V14.1471H167.374ZM183.688 25.2723C182.523 25.2723 181.635 24.9352 181.635 22.7592V17.8555H184.975V14.1471H181.635V9.76441H176.945V14.1471H174.616V17.8555H176.945V23.7399C176.945 28.6742 179.98 29.1646 182.186 29.1646C183.535 29.1646 184.638 29.042 185.312 28.9194V25.1804C184.883 25.2417 184.27 25.2723 183.688 25.2723ZM193.88 29.3179C195.934 29.3179 197.773 28.3065 198.569 26.8354V28.9194H203.228V7.46581H198.569V16.2618C197.773 14.76 196.087 13.7487 193.942 13.7487C189.651 13.7487 186.923 17.1199 186.923 21.5333C186.923 25.9772 189.467 29.3179 193.88 29.3179ZM195.229 25.4256C193.053 25.4256 191.704 23.7706 191.704 21.5333C191.704 19.2959 193.053 17.6716 195.229 17.6716C197.558 17.6716 198.753 19.4185 198.753 21.5333C198.753 23.6786 197.558 25.4256 195.229 25.4256Z" fill="white"/>
</g>
<defs>
<clipPath id="clip0_769_38429">
<rect width="206" height="37" fill="white"/>
</clipPath>
</defs>
</svg>
