<svg width="125" height="42" viewBox="0 0 125 42" fill="none" xmlns="http://www.w3.org/2000/svg">
<path d="M28.4701 41.3785H13.7285C6.41574 41.3785 0.432617 35.2747 0.432617 27.8144V13.6093C0.432617 6.14899 6.41574 0.045166 13.7285 0.045166H28.4701C35.7828 0.045166 41.766 6.14899 41.766 13.6093V27.8144C41.766 35.2747 35.7828 41.3785 28.4701 41.3785Z" fill="white"/>
<path d="M28.4701 41.3785H13.7285C6.41574 41.3785 0.432617 35.2747 0.432617 27.8144V13.6093C0.432617 6.14899 6.41574 0.045166 13.7285 0.045166H28.4701C35.7828 0.045166 41.766 6.14899 41.766 13.6093V27.8144C41.766 35.2747 35.7828 41.3785 28.4701 41.3785Z" fill="white"/>
<path fill-rule="evenodd" clip-rule="evenodd" d="M10.72 33.6128C9.60799 33.6128 8.69824 32.709 8.69824 31.6044V9.64021C8.69824 8.53564 9.60799 7.63184 10.72 7.63184H30.8862C31.9982 7.63184 32.9078 8.53564 32.9078 9.64021V31.6044C32.9078 32.709 31.9982 33.6128 30.8862 33.6128H10.72Z" fill="white"/>
<path fill-rule="evenodd" clip-rule="evenodd" d="M30.2388 32.3051C31.3497 32.2911 32.2414 31.3688 32.2044 30.2718C32.1683 29.1976 31.2889 28.3456 30.2117 28.3414C29.1051 28.3372 28.1982 29.2389 28.2065 30.3355C28.2149 31.4338 29.1282 32.3188 30.2388 32.3051ZM14.8583 30.3097C14.8503 29.2535 13.9639 28.3636 12.8976 28.3417C11.7939 28.319 10.8609 29.206 10.8444 30.2933C10.8276 31.3813 11.7387 32.2994 12.8403 32.3046C13.9363 32.3098 14.8662 31.3905 14.8583 30.3097ZM28.044 25.9565C31.2957 25.2591 32.8843 23.1154 32.9122 19.8048C32.9214 18.7013 32.857 17.5916 32.7417 16.4936C32.2675 11.9717 29.7952 9.15628 25.3829 8.174C22.6858 7.57345 19.9544 7.56307 17.2537 8.14888C13.2039 9.02726 10.6554 11.4907 9.88081 15.5844C9.59735 17.0818 9.49133 18.6408 9.53257 20.1655C9.61326 23.1457 11.0846 25.1072 13.9837 25.7705C16.387 26.3201 17.7265 26.735 21.1597 26.7805C24.593 26.8259 25.8683 26.4232 28.044 25.9565ZM36.4513 12.8909C36.4517 13.7824 36.4529 14.6739 36.4516 15.5653C36.4496 16.8573 36.2339 17.0894 34.8175 17.2189C34.8175 17.4677 34.8143 17.7277 34.818 17.9874C34.8841 22.4673 34.9528 26.9471 35.0161 31.427C35.027 32.1994 35.1257 32.9915 34.9919 33.7404C34.6967 35.3933 33.3387 36.2212 31.7017 35.8941C29.3105 35.4161 26.9069 34.9971 24.5239 34.482C21.9343 33.9219 19.3908 34.2024 16.8432 34.7181C14.819 35.1281 12.7955 35.5432 10.7646 35.9183C8.91288 36.2603 7.41017 35.0245 7.44914 33.142C7.54752 28.3967 7.69185 23.6524 7.82546 18.9079C7.84121 18.3518 7.90615 17.7971 7.94771 17.2491C6.54842 17.0531 6.33997 16.8108 6.33834 15.4704C6.33737 14.6329 6.33818 13.7955 6.33883 12.958C6.33996 11.3922 6.52066 11.1818 8.04447 10.9983C8.125 10.4804 8.16575 9.94405 8.29546 9.42989C8.81579 7.36937 10.6919 5.88622 12.8676 5.87812C18.5496 5.85721 24.2319 5.85235 29.9138 5.88006C32.4636 5.89255 34.3608 7.78076 34.6472 10.4775C34.6639 10.6354 34.6717 10.7944 34.6875 11.0019C36.2111 11.1635 36.4501 11.4304 36.4513 12.8909Z" fill="#101010"/>
<path fill-rule="evenodd" clip-rule="evenodd" d="M105.869 26.3009C105.701 27.742 104.831 28.7439 103.461 29.0867C102.572 29.3089 101.581 29.3317 100.672 29.1981C99.5199 29.0289 98.8012 28.2046 98.5945 27.0322C98.3901 25.8739 98.7532 24.9059 99.7388 24.2307C100.009 24.0454 100.31 23.8831 100.619 23.7824C102.347 23.2207 104.119 23.4903 105.889 23.4273C105.889 24.4546 105.975 25.3893 105.869 26.3009ZM104.415 15.264C102.368 14.6719 100.337 14.8314 98.376 15.6767C98.1289 15.7833 97.7445 16.0999 97.7772 16.2274C97.8566 16.5387 98.0886 16.9286 98.36 17.0426C98.7175 17.1926 99.1768 17.1597 99.5828 17.1153C100.402 17.0257 101.212 16.7853 102.03 16.7657C104.926 16.6961 106.544 18.8029 105.846 21.7404C104.918 21.7404 103.974 21.7376 103.03 21.7413C101.572 21.747 100.151 21.9278 98.8485 22.6626C97.2065 23.5891 96.3999 25.1649 96.6217 27.0236C96.8458 28.9021 98.0209 30.3949 99.8034 30.8206C102.049 31.3568 104.169 31.14 105.973 29.1991V30.8738H107.881C107.804 26.9155 107.83 23.0251 107.609 19.1489C107.5 17.2273 106.325 15.8168 104.415 15.264ZM122.55 22.1898H113.337C113.518 20.2257 114.065 18.4913 115.806 17.4323C117.37 16.4812 119.037 16.47 120.591 17.4184C122.321 18.4745 122.619 20.2283 122.55 22.1898ZM124.43 23.1576C124.406 22.4898 124.452 21.8184 124.413 21.1519C124.241 18.2017 122.604 15.931 120.17 15.2319C117.32 14.4132 114.306 15.3442 112.816 17.7399C110.932 20.7685 110.707 24.048 112.352 27.2215C114.661 31.6733 119.982 31.6275 123.112 30.2905C123.26 30.2275 123.41 29.9899 123.424 29.822C123.465 29.3294 123.439 28.8313 123.439 28.2535C121.63 29.1912 119.786 29.4096 117.868 29.1235C115.243 28.7316 113.367 26.5678 113.385 23.834H114.2C117.373 23.834 120.545 23.8226 123.718 23.8452C124.244 23.8488 124.449 23.6835 124.43 23.1576ZM92.2757 23.7349C91.6081 23.2538 90.8535 22.889 90.1182 22.5119C89.2347 22.0591 88.302 21.6993 87.4402 21.2098C86.3746 20.6044 85.9791 19.726 86.219 18.6402C86.4557 17.5686 87.2381 16.9998 88.2413 16.9162C89.2643 16.8309 90.3089 16.9253 91.3374 17.0165C92.0922 17.0833 92.6703 16.8523 92.9275 16.252C93.0686 15.9226 93.0316 15.6886 92.6595 15.6001C91.9488 15.4312 91.2421 15.2064 90.5209 15.1297C88.975 14.9653 87.4453 15.0055 86.076 15.9209C83.729 17.4901 83.6296 20.757 85.9365 22.3676C86.7637 22.9452 87.7242 23.3278 88.6224 23.8022C89.4368 24.2324 90.2784 24.6194 91.0544 25.1116C91.8533 25.6182 92.0975 26.453 91.9937 27.3625C91.8894 28.2776 91.3491 28.9144 90.4888 29.1733C89.9103 29.3474 89.2858 29.4129 88.6787 29.4335C87.1854 29.484 85.7955 29.0425 84.3767 28.3052C84.3767 28.9068 84.3449 29.3627 84.3915 29.8101C84.4116 30.0025 84.5536 30.2842 84.7094 30.345C86.9562 31.2216 89.2717 31.5544 91.5517 30.6123C94.4181 29.428 94.8004 25.5544 92.2757 23.7349ZM64.3288 17.088C64.2191 19.2072 62.4906 20.9833 60.1224 21.1949C58.6008 21.3309 57.0577 21.2203 55.4328 21.2203V11.6855C55.8233 11.6855 56.2116 11.6703 56.5981 11.6884C57.9173 11.7499 59.2613 11.6828 60.5491 11.9219C63.0692 12.3896 64.4678 14.4048 64.3288 17.088ZM61.2824 10.4066C58.7817 9.93451 56.1738 10.0409 53.5742 9.88647V30.8926H55.3929C55.3929 28.4718 55.4168 26.1096 55.3771 23.7487C55.3663 23.0998 55.5694 22.9596 56.1795 22.9566C57.7372 22.9484 59.3246 23.0263 60.8454 22.7562C63.4981 22.2853 65.491 20.8191 66.1539 18.0396C66.9948 14.5145 64.9339 11.0959 61.2824 10.4066ZM79.233 16.8357C77.997 20.2656 76.7763 23.7011 75.5477 27.1337C75.4598 27.3794 75.3573 27.6197 75.2119 27.9888C73.6743 24.131 72.2074 20.4339 70.7261 16.7426C70.2305 15.5075 69.4359 15.0684 68.01 15.2408C68.1512 15.5881 68.2651 15.8732 68.3827 16.1565C70.2824 20.7335 72.1851 25.3092 74.0761 29.8897C74.1798 30.1408 74.283 30.455 74.225 30.701C73.7418 32.7523 71.8709 34.2422 69.7806 34.281C69.4353 34.2874 69.0898 34.2818 68.7383 34.2818V35.9832C69.0412 36.0361 69.3152 36.119 69.5913 36.1266C71.5847 36.1821 73.3262 35.5285 74.4815 33.8721C75.2601 32.7556 75.8746 31.4844 76.3605 30.2046C78.1527 25.4825 79.8615 20.728 81.5996 15.9852C81.6848 15.7523 81.7501 15.5122 81.8297 15.2596C80.4635 15.1255 79.6765 15.6047 79.233 16.8357Z" fill="white"/>
</svg>
