<svg width="141" height="141" viewBox="0 0 141 141" fill="none" xmlns="http://www.w3.org/2000/svg">
<path d="M46.16 66.8177H41.3547V61.8556H46.5256C48.4582 61.8556 49.3984 62.6914 49.3984 64.2583C49.3461 66.3476 47.8836 66.8177 46.16 66.8177ZM41.3024 52.8718H45.6377C47.3091 52.8718 48.4582 53.3419 48.4582 54.6999C48.4582 56.4235 47.3613 56.8936 45.6377 56.8936H41.3024V52.8718ZM96.198 46.4995L92.3851 62.169H92.3328L88.5199 46.4995H57.0764V62.169C56.2929 60.132 54.6738 58.9829 52.9501 58.4084C54.9349 57.3115 56.2407 55.849 56.2407 53.1852C56.2407 50.4691 54.726 46.4995 47.7269 46.4995H33.1021V73.1377H48.2493C52.0622 73.1377 55.7706 71.3096 57.0764 67.8101V73.1377H65.2768V63.0047H72.7982V56.8936H65.2768V52.8718H76.82V73.1899H84.6026V56.0579H84.6548L89.3034 73.1377H95.4145L100.063 56.0579H100.168V73.1377H107.95V46.4995H96.198Z" fill="white"/>
<path d="M33.0498 76.2715H37.1761C38.2207 76.2715 39.1609 76.4282 39.9966 76.6893C40.8323 77.0027 41.5113 77.4728 42.0337 78.1518C42.556 78.8308 42.8171 79.771 42.8171 80.9201C42.8171 81.808 42.6604 82.5393 42.2948 83.1661C41.9292 83.8451 41.5113 84.3152 40.8846 84.6286V84.6808C41.198 84.8375 41.5113 85.0986 41.8247 85.3598C42.0859 85.621 42.3471 85.9866 42.556 86.3522C42.7649 86.7178 42.9216 87.1357 43.0261 87.6058C43.1305 88.0759 43.1828 88.5459 43.1828 89.0683C43.1828 90.5307 42.7649 91.7321 41.877 92.6723C40.989 93.5602 39.6832 94.0303 37.9074 94.0303H33.0498V76.2715ZM36.6538 79.771V83.375H37.5417C38.1163 83.375 38.5341 83.2183 38.7953 82.9049C39.0565 82.5915 39.2132 82.1214 39.2132 81.5469C39.2132 80.9201 39.0565 80.45 38.6908 80.1889C38.3252 79.9277 37.9074 79.771 37.4373 79.771H36.6538ZM36.6538 86.8223V90.5308H37.594C38.952 90.5308 39.631 89.904 39.631 88.7026C39.631 87.9192 39.4221 87.4491 39.0565 87.1879C38.6908 86.9268 38.1685 86.8223 37.4895 86.8223H36.6538Z" fill="white"/>
<path d="M55.1956 76.2715V87.8669C55.1956 89.225 54.9344 90.3741 54.4121 91.3665C53.8898 92.3589 53.2108 93.1423 52.2706 93.6647C51.3826 94.187 50.338 94.4481 49.1367 94.4481C48.0398 94.4481 47.0996 94.2392 46.2639 93.7691C45.4282 93.299 44.8014 92.62 44.3314 91.6798C43.8613 90.7397 43.6523 89.5906 43.6523 88.1803V76.2715H47.0996V86.9268C47.0996 87.6058 47.1519 88.2326 47.3086 88.7026C47.4653 89.225 47.6742 89.6428 47.9876 89.9562C48.301 90.2696 48.7188 90.4263 49.2934 90.4263C50.2858 90.4263 50.9648 90.0607 51.2782 89.2772C51.5916 88.4937 51.7483 87.3968 51.7483 85.9866V76.2715H55.1956Z" fill="white"/>
<path d="M62.8218 80.9722C62.404 80.5022 62.0383 80.1365 61.7249 79.9276C61.4115 79.7187 60.9937 79.6142 60.5758 79.6142C60.2625 79.6142 59.9491 79.7187 59.6879 79.9798C59.3745 80.241 59.27 80.6066 59.27 81.0245C59.27 81.6513 59.5834 82.1213 60.2102 82.4347C60.8892 82.8004 61.516 83.166 62.2473 83.4794C62.9263 83.845 63.5531 84.3673 64.0754 85.1508C64.5977 85.9343 64.8588 87.0311 64.8588 88.5458C64.8588 90.4262 64.3888 91.8887 63.5008 92.9333C62.6129 93.9779 61.4638 94.5003 60.1058 94.5003C59.3223 94.5003 58.5388 94.3436 57.8076 93.9779C57.0763 93.6123 56.3973 93.09 55.8228 92.411L57.6509 89.0682C58.2254 90.0083 59.0089 90.4784 60.0013 90.4784C60.3669 90.4784 60.7325 90.3217 61.0982 90.0606C61.4638 89.7994 61.6205 89.3815 61.6205 88.8592C61.6205 88.2325 61.3071 87.7624 60.6281 87.3967C60.3147 87.24 60.0013 87.0311 59.6357 86.8744L59.1134 86.6133L58.591 86.3521C57.912 85.9865 57.2852 85.4119 56.8152 84.6807C56.2928 83.9494 56.0839 82.8526 56.0839 81.3901C56.0839 80.2932 56.2928 79.3008 56.7107 78.4651C57.1285 77.6294 57.7031 77.0026 58.3821 76.5325C59.0611 76.1147 59.7924 75.9058 60.5758 75.9058C61.3071 75.9058 61.9861 76.0625 62.7173 76.4281C63.4486 76.7937 64.0231 77.316 64.5977 77.9428L62.8218 80.9722Z" fill="white"/>
<path d="M65.2769 77.7861L68.7242 75.9058V94.0824L65.2769 94.0302V77.7861Z" fill="white"/>
<path d="M81.0506 94.0829L73.2158 85.5692V94.0307H69.7686V76.0107L77.6555 84.4723V76.2719H81.0506V94.0829Z" fill="white"/>
<path d="M88.9898 94.0825H82.043V76.2715H89.6688V80.0322H85.438V83.1138H88.9898V86.8745H85.438V90.3218H88.9898V94.0825Z" fill="white"/>
<path d="M96.9815 80.9722C96.5636 80.5022 96.198 80.1365 95.8846 79.9276C95.5712 79.7187 95.1534 79.6142 94.7355 79.6142C94.4221 79.6142 94.1087 79.7187 93.8476 79.9798C93.5342 80.241 93.4297 80.6066 93.4297 81.0245C93.4297 81.6513 93.7431 82.1213 94.3699 82.4347C95.0489 82.8004 95.6757 83.166 96.4069 83.4794C97.0859 83.845 97.7127 84.3673 98.235 85.1508C98.7574 85.9343 99.0185 87.0311 99.0185 88.5458C99.0185 90.4262 98.5484 91.8887 97.6605 92.9333C96.7726 93.9779 95.6235 94.5003 94.2654 94.5003C93.482 94.5003 92.6985 94.3436 91.9672 93.9779C91.236 93.6123 90.557 93.09 89.9824 92.411L91.8628 89.0682C92.4373 90.0083 93.2208 90.4784 94.2132 90.4784C94.5788 90.4784 94.9444 90.3217 95.3101 90.0606C95.6757 89.7994 95.8324 89.3815 95.8324 88.8592C95.8324 88.2325 95.519 87.7624 94.84 87.3967C94.5266 87.24 94.2132 87.0311 93.8476 86.8744L93.3253 86.6133L92.8029 86.3521C92.1239 85.9865 91.4971 85.4119 91.0271 84.6807C90.5047 83.9494 90.2958 82.8526 90.2958 81.3901C90.2958 80.2932 90.5047 79.3008 90.9226 78.4651C91.3404 77.6294 91.915 77.0026 92.594 76.5325C93.273 76.1147 94.0043 75.9058 94.7877 75.9058C95.519 75.9058 96.198 76.0625 96.9292 76.4281C97.6605 76.7937 98.2873 77.316 98.8096 77.9428L96.9815 80.9722Z" fill="white"/>
<path d="M105.965 80.9722C105.547 80.5022 105.181 80.1365 104.868 79.9276C104.555 79.7187 104.137 79.6142 103.719 79.6142C103.405 79.6142 103.092 79.7187 102.831 79.9798C102.518 80.241 102.361 80.6066 102.361 81.0245C102.361 81.6513 102.674 82.1213 103.301 82.4347C103.98 82.8004 104.607 83.166 105.338 83.4794C106.017 83.845 106.644 84.3673 107.166 85.1508C107.688 85.9343 107.95 87.0311 107.95 88.5458C107.95 90.4262 107.48 91.8887 106.592 92.9333C105.704 93.9779 104.555 94.5003 103.197 94.5003C102.413 94.5003 101.63 94.3436 100.846 93.9779C100.115 93.6123 99.4359 93.09 98.8613 92.411L100.689 89.0682C101.264 90.0083 102.047 90.4784 103.04 90.4784C103.405 90.4784 103.823 90.3217 104.137 90.0606C104.502 89.7994 104.659 89.3815 104.659 88.8592C104.659 88.2325 104.346 87.7624 103.667 87.3967C103.353 87.24 103.04 87.0311 102.674 86.8744L102.152 86.6133L101.63 86.3521C100.951 85.9865 100.324 85.4119 99.8537 84.6807C99.3314 83.9494 99.1225 82.8526 99.1225 81.3901C99.1225 80.2932 99.3314 79.3008 99.7493 78.4651C100.167 77.6294 100.742 77.0026 101.421 76.5325C102.1 76.1147 102.831 75.9058 103.614 75.9058C104.346 75.9058 105.025 76.0625 105.756 76.4281C106.487 76.7937 107.062 77.316 107.636 77.9428L105.965 80.9722Z" fill="white"/>
</svg>
