<svg width="91" height="91" viewBox="0 0 91 91" fill="none" xmlns="http://www.w3.org/2000/svg">
<g clip-path="url(#clip0_211_13402)">
<path d="M37.7606 54.2798C33.0842 54.2798 29.2939 50.4896 29.2939 45.8131C29.2939 41.1366 33.0842 37.3464 37.7606 37.3464C42.4371 37.3464 46.2273 41.1366 46.2273 45.8131C46.2273 50.4896 42.4371 54.2798 37.7606 54.2798ZM37.8738 49.9333C40.0894 49.9333 41.8808 48.1419 41.8808 45.9263C41.8808 43.7106 40.0894 41.9192 37.8738 41.9192C35.6581 41.9192 33.8667 43.7106 33.8667 45.9263C33.8761 48.1419 35.6675 49.9333 37.8738 49.9333Z" fill="white"/>
<path d="M13.9633 58.4H23.8065C26.0787 58.4 27.9267 56.5521 27.9267 54.2798V37.1202C27.9267 34.848 26.0881 33 23.8159 33H7.78768C5.51544 33 3.66748 34.848 3.66748 37.1202V54.2798C3.66748 56.5521 5.50601 58.4 7.78768 58.4H9.3905V38.4873C9.3905 37.2239 10.4182 36.2056 11.6816 36.2056C12.8696 36.2056 13.8595 37.1108 13.9633 38.2987C18.1117 36.1491 23.2219 37.7708 25.3716 41.9192C27.5212 46.0677 25.8996 51.1779 21.7511 53.3276C19.3091 54.591 16.4146 54.591 13.9727 53.3276V58.4H13.9633Z" fill="white"/>
<path d="M17.9704 49.9334C20.1835 49.9334 21.9775 48.1393 21.9775 45.9263C21.9775 43.7133 20.1835 41.9193 17.9704 41.9193C15.7574 41.9193 13.9634 43.7133 13.9634 45.9263C13.9634 48.1393 15.7574 49.9334 17.9704 49.9334Z" fill="white"/>
<path d="M56.0702 54.2798C51.3937 54.2798 47.6035 50.4896 47.6035 45.8131C47.6035 41.1366 51.3937 37.3464 56.0702 37.3464C60.7467 37.3464 64.5369 41.1366 64.5369 45.8131C64.5369 50.4896 60.7467 54.2798 56.0702 54.2798ZM56.1833 49.9333C58.399 49.9333 60.1904 48.1419 60.1904 45.9263C60.1904 43.7106 58.399 41.9192 56.1833 41.9192C53.9677 41.9192 52.1763 43.7106 52.1763 45.9263C52.1763 48.1419 53.9677 49.9333 56.1833 49.9333Z" fill="white"/>
<path d="M74.1444 54.2798C69.4679 54.2798 65.6777 50.4896 65.6777 45.8131C65.6777 41.1366 69.4679 37.3464 74.1444 37.3464C78.8209 37.3464 82.6111 41.1366 82.6111 45.8131C82.6111 50.4896 78.8209 54.2798 74.1444 54.2798ZM74.2575 49.9333C76.4732 49.9333 78.2646 48.1419 78.2646 45.9263C78.2646 43.7106 76.4732 41.9192 74.2575 41.9192C72.0419 41.9192 70.2505 43.7106 70.2505 45.9263C70.2599 48.1419 72.0513 49.9333 74.2575 49.9333Z" fill="white"/>
<path d="M86.0435 33C87.3069 33 88.3346 34.0277 88.3346 35.2911V51.9982C88.3346 53.2616 87.3069 54.2893 86.0435 54.2893C84.7801 54.2893 83.7524 53.2616 83.7524 51.9982V35.2911C83.7619 34.0277 84.7801 33 86.0435 33Z" fill="white"/>
</g>
<defs>
<clipPath id="clip0_211_13402">
<rect width="84.6667" height="25.4" fill="white" transform="translate(3.6665 33)"/>
</clipPath>
</defs>
</svg>
