<svg width="67" height="101" viewBox="0 0 67 101" fill="none" xmlns="http://www.w3.org/2000/svg">
<path fill-rule="evenodd" clip-rule="evenodd" d="M1.22411 60.6825C0.439087 59.8738 8.60201e-06 58.791 8.55274e-06 57.664C8.38262e-06 53.7719 4.73245 51.8527 7.44337 54.6454L45.303 93.6472C47.9709 96.3956 46.0234 101 42.1932 101C41.0214 101 39.8995 100.526 39.0833 99.6847L1.22411 60.6825ZM3.3278 101C6.26877 101 7.76406 97.4646 5.71559 95.3543C3.63392 93.2099 1.01709e-05 94.6836 1.03016e-05 97.6722C1.03819e-05 99.5101 1.48991 101 3.3278 101ZM83.4373 101C82.2655 101 81.1436 100.526 80.3274 99.6847L1.22411 18.1936C0.439087 17.3849 6.74476e-06 16.3022 6.6955e-06 15.1751C6.52537e-06 11.283 4.73244 9.36385 7.44335 12.1565L86.5472 93.6471C89.2151 96.3955 87.2676 101 83.4373 101ZM124.682 101C123.51 101 122.388 100.526 121.572 99.6847L1.22411 -24.2953C0.439087 -25.104 4.88751e-06 -26.1867 4.83825e-06 -27.3138C4.66812e-06 -31.2059 4.73244 -33.1251 7.44335 -30.3323L127.792 93.6471C130.459 96.3955 128.512 101 124.682 101ZM165.926 101C164.754 101 163.633 100.526 162.816 99.6847L1.22415 -66.7841C0.439094 -67.5929 3.03026e-06 -68.6756 2.981e-06 -69.8028C2.81086e-06 -73.695 4.7326 -75.6142 7.4436 -72.8214L169.036 93.6471C171.704 96.3955 169.756 101 165.926 101ZM207.171 101C205.999 101 204.877 100.526 204.061 99.6847L1.2242 -109.273C0.43912 -110.081 1.17303e-06 -111.164 1.12376e-06 -112.291C9.53624e-07 -116.184 4.73276 -118.103 7.44385 -115.31L210.281 93.6471C212.948 96.3955 211.001 101 207.171 101ZM232 75.2905C232 79.1826 227.268 81.1018 224.557 78.3091L21.7198 -130.647C19.0519 -133.396 20.9994 -138 24.8296 -138C26.0014 -138 27.1233 -137.526 27.9394 -136.685L230.776 72.272C231.561 73.0807 232 74.1635 232 75.2905ZM232 32.8016C232 36.6937 227.268 38.6129 224.557 35.8202L62.9641 -130.647C60.2963 -133.396 62.2437 -138 66.0739 -138C67.2457 -138 68.3675 -137.526 69.1837 -136.685L230.776 29.7831C231.561 30.5918 232 31.6746 232 32.8016ZM232 -9.68725C232 -5.79516 227.268 -3.87599 224.557 -6.66868L104.208 -130.647C101.541 -133.395 103.488 -138 107.318 -138C108.49 -138 109.612 -137.526 110.428 -136.685L230.776 -12.7058C231.561 -11.8971 232 -10.8143 232 -9.68725ZM232 -52.1761C232 -48.284 227.268 -46.3649 224.557 -49.1576L145.453 -130.647C142.785 -133.395 144.732 -138 148.563 -138C149.735 -138 150.856 -137.526 151.673 -136.685L230.776 -55.1947C231.561 -54.386 232 -53.3032 232 -52.1761ZM232 -94.6653C232 -90.773 227.267 -88.8536 224.556 -91.6465L186.697 -130.647C184.029 -133.395 185.977 -138 189.807 -138C190.979 -138 192.101 -137.526 192.917 -136.685L230.776 -97.6841C231.561 -96.8753 232 -95.7925 232 -94.6653ZM232 -134.672C232 -131.684 228.366 -130.21 226.285 -132.354C224.236 -134.465 225.731 -138 228.672 -138C230.51 -138 232 -136.51 232 -134.672Z" fill="#F0EAFD"/>
</svg>
