<svg width="107" height="132" viewBox="0 0 107 132" fill="none" xmlns="http://www.w3.org/2000/svg">
<path d="M106.799 -81L114.779 -26.8528L138.366 -76.2419L130.033 -22.1479L167.129 -62.3905L143.222 -13.1561L190.531 -40.6764L153.174 -0.676376L206.494 -13.0292L159.005 14.1825L213.597 18.0944L160.198 30.0997L211.211 49.9295L156.646 45.6622L199.548 79.6472L148.665 59.4858L179.644 104.607L136.964 70.3424L153.267 122.59L122.583 77.2681L122.761 132L106.799 79.6472L90.8363 132L91.0148 77.2681L60.3305 122.59L76.6335 70.3424L33.9535 104.607L64.9324 59.4858L14.049 79.6472L56.9512 45.6622L2.38567 49.9295L53.3993 30.0997L0 18.0944L54.5922 14.1825L7.10378 -13.0292L60.4238 -0.676376L23.066 -40.6764L70.3758 -13.1561L46.4681 -62.3905L83.5647 -22.1479L75.2309 -76.2419L98.8179 -26.8528L106.799 -81Z" fill="#FFF4E9"/>
</svg>
