<svg width="194" height="292" viewBox="0 0 194 292" fill="none" xmlns="http://www.w3.org/2000/svg">
<path d="M7.64629 227V209.208H1.50229V204.6H18.9743V209.208H12.7983V227H7.64629ZM19.8583 227V211.576H24.7543V214.808C25.0103 213.699 25.533 212.845 26.3223 212.248C27.133 211.629 28.029 211.32 29.0103 211.32C29.5223 211.32 29.949 211.363 30.2903 211.448V215.992C29.7143 215.928 29.2236 215.896 28.8183 215.896C26.109 215.896 24.7543 217.613 24.7543 221.048V227H19.8583ZM38.6585 227.416C36.4185 227.416 34.6479 226.659 33.3465 225.144C32.0452 223.629 31.3945 221.677 31.3945 219.288C31.3945 216.941 32.0665 215 33.4105 213.464C34.7545 211.928 36.5252 211.16 38.7225 211.16C39.8105 211.16 40.7812 211.395 41.6345 211.864C42.4879 212.333 43.1279 212.973 43.5545 213.784V211.576H48.4185V227H43.5545V224.824C43.1279 225.592 42.4665 226.221 41.5705 226.712C40.6959 227.181 39.7252 227.416 38.6585 227.416ZM40.0665 223.352C41.2399 223.352 42.1465 222.968 42.7865 222.2C43.4265 221.432 43.7465 220.461 43.7465 219.288C43.7465 218.136 43.4265 217.176 42.7865 216.408C42.1465 215.64 41.2399 215.256 40.0665 215.256C38.9572 215.256 38.0612 215.629 37.3785 216.376C36.7172 217.123 36.3865 218.093 36.3865 219.288C36.3865 220.483 36.7172 221.464 37.3785 222.232C38.0612 222.979 38.9572 223.352 40.0665 223.352ZM52.4833 227V211.576H57.3793V213.816C58.2966 212.045 59.9606 211.16 62.3713 211.16C66.126 211.16 68.0033 213.261 68.0033 217.464V227H63.0753V219.064C63.0753 217.741 62.862 216.781 62.4353 216.184C62.03 215.587 61.3366 215.288 60.3553 215.288C58.3713 215.288 57.3793 216.504 57.3793 218.936V227H52.4833ZM78.0968 227.48C75.8781 227.48 74.1075 227 72.7848 226.04C71.4621 225.08 70.8008 223.853 70.8008 222.36H75.6648C75.6648 222.893 75.8995 223.331 76.3688 223.672C76.8381 224.013 77.4461 224.184 78.1928 224.184C78.7261 224.184 79.1528 224.056 79.4728 223.8C79.8141 223.544 79.9848 223.192 79.9848 222.744C79.9848 222.04 79.6115 221.603 78.8648 221.432L75.0888 220.472C73.8301 220.152 72.8701 219.608 72.2088 218.84C71.5475 218.072 71.2168 217.133 71.2168 216.024C71.2168 214.573 71.8141 213.4 73.0088 212.504C74.2035 211.587 75.8035 211.128 77.8088 211.128C80.0275 211.128 81.7235 211.555 82.8968 212.408C84.0915 213.261 84.6888 214.435 84.6888 215.928H79.8568C79.8568 215.395 79.6648 214.979 79.2808 214.68C78.9181 214.381 78.4061 214.232 77.7448 214.232C77.2115 214.232 76.7848 214.349 76.4648 214.584C76.1448 214.819 75.9848 215.128 75.9848 215.512C75.9848 216.195 76.4221 216.653 77.2968 216.888L80.9448 217.88C82.1608 218.2 83.1101 218.733 83.7928 219.48C84.4968 220.205 84.8488 221.101 84.8488 222.168C84.8488 223.768 84.2408 225.059 83.0248 226.04C81.8301 227 80.1875 227.48 78.0968 227.48ZM97.8095 211.16C99.9215 211.16 101.628 211.907 102.93 213.4C104.252 214.893 104.914 216.856 104.914 219.288C104.914 221.699 104.242 223.661 102.898 225.176C101.554 226.669 99.8149 227.416 97.6815 227.416C96.5722 227.416 95.5802 227.171 94.7055 226.68C93.8309 226.189 93.1909 225.571 92.7855 224.824V233.4H87.8895V211.576H92.7855V213.784C93.1909 213.016 93.8522 212.387 94.7695 211.896C95.6869 211.405 96.7002 211.16 97.8095 211.16ZM96.2735 223.352C97.3402 223.352 98.2149 222.979 98.8975 222.232C99.5802 221.464 99.9215 220.483 99.9215 219.288C99.9215 218.093 99.5802 217.123 98.8975 216.376C98.2149 215.629 97.3402 215.256 96.2735 215.256C95.1642 215.256 94.2682 215.629 93.5855 216.376C92.9029 217.123 92.5615 218.093 92.5615 219.288C92.5615 220.504 92.9029 221.485 93.5855 222.232C94.2895 222.979 95.1855 223.352 96.2735 223.352ZM114.096 227.416C111.856 227.416 110.085 226.659 108.784 225.144C107.483 223.629 106.832 221.677 106.832 219.288C106.832 216.941 107.504 215 108.848 213.464C110.192 211.928 111.963 211.16 114.16 211.16C115.248 211.16 116.219 211.395 117.072 211.864C117.925 212.333 118.565 212.973 118.992 213.784V211.576H123.856V227H118.992V224.824C118.565 225.592 117.904 226.221 117.008 226.712C116.133 227.181 115.163 227.416 114.096 227.416ZM115.504 223.352C116.677 223.352 117.584 222.968 118.224 222.2C118.864 221.432 119.184 220.461 119.184 219.288C119.184 218.136 118.864 217.176 118.224 216.408C117.584 215.64 116.677 215.256 115.504 215.256C114.395 215.256 113.499 215.629 112.816 216.376C112.155 217.123 111.824 218.093 111.824 219.288C111.824 220.483 112.155 221.464 112.816 222.232C113.499 222.979 114.395 223.352 115.504 223.352ZM127.921 227V211.576H132.817V214.808C133.073 213.699 133.595 212.845 134.385 212.248C135.195 211.629 136.091 211.32 137.073 211.32C137.585 211.32 138.011 211.363 138.353 211.448V215.992C137.777 215.928 137.286 215.896 136.881 215.896C134.171 215.896 132.817 217.613 132.817 221.048V227H127.921ZM156.058 218.488C156.058 219.128 156.015 219.843 155.93 220.632H144.538C144.58 221.635 144.922 222.413 145.562 222.968C146.202 223.523 147.066 223.8 148.154 223.8C149.647 223.8 150.607 223.32 151.034 222.36H155.834C155.599 223.875 154.767 225.112 153.338 226.072C151.93 227.011 150.202 227.48 148.154 227.48C145.53 227.48 143.46 226.755 141.946 225.304C140.431 223.853 139.674 221.848 139.674 219.288C139.674 216.771 140.431 214.787 141.946 213.336C143.46 211.864 145.476 211.128 147.994 211.128C150.383 211.128 152.324 211.811 153.818 213.176C155.311 214.541 156.058 216.312 156.058 218.488ZM144.538 217.592H151.226C151.204 216.568 150.916 215.779 150.362 215.224C149.807 214.669 149.007 214.392 147.962 214.392C146.916 214.392 146.084 214.691 145.466 215.288C144.868 215.864 144.559 216.632 144.538 217.592ZM158.858 227V211.576H163.754V213.816C164.672 212.045 166.336 211.16 168.746 211.16C172.501 211.16 174.378 213.261 174.378 217.464V227H169.45V219.064C169.45 217.741 169.237 216.781 168.81 216.184C168.405 215.587 167.712 215.288 166.73 215.288C164.746 215.288 163.754 216.504 163.754 218.936V227H158.858ZM186.111 223.192C186.793 223.192 187.359 223.16 187.807 223.096V227C186.868 227.171 185.78 227.256 184.543 227.256C183.988 227.256 183.497 227.224 183.071 227.16C182.644 227.096 182.164 226.957 181.631 226.744C181.097 226.509 180.66 226.2 180.319 225.816C179.977 225.432 179.679 224.877 179.423 224.152C179.188 223.427 179.071 222.573 179.071 221.592V215.448H176.639V211.576H179.071V207H183.967V211.576H187.455V215.448H183.967V220.568C183.967 221.613 184.148 222.317 184.511 222.68C184.873 223.021 185.407 223.192 186.111 223.192Z" fill="#101010"/>
<path d="M20.3109 248.696C20.1189 248.696 19.9449 248.714 19.7889 248.75C19.6449 248.774 19.4889 248.834 19.3209 248.93C19.1649 249.026 19.0389 249.182 18.9429 249.398C18.8589 249.614 18.8169 249.89 18.8169 250.226V251.702H21.1569V253.016H18.8169V260H17.2509V253.016H15.4869V251.702H17.2509V250.262C17.2509 249.77 17.3109 249.338 17.4309 248.966C17.5629 248.594 17.7249 248.306 17.9169 248.102C18.1089 247.886 18.3309 247.718 18.5829 247.598C18.8349 247.466 19.0629 247.382 19.2669 247.346C19.4709 247.31 19.6809 247.292 19.8969 247.292C20.4369 247.292 20.8569 247.352 21.1569 247.472V248.822C20.8449 248.738 20.5629 248.696 20.3109 248.696ZM22.7694 260V247.4H24.3354V260H22.7694ZM30.4789 260.216C29.1949 260.216 28.1869 259.808 27.4549 258.992C26.7349 258.176 26.3749 257.132 26.3749 255.86C26.3749 254.6 26.7469 253.556 27.4909 252.728C28.2469 251.9 29.2549 251.486 30.5149 251.486C31.1629 251.486 31.7449 251.636 32.2609 251.936C32.7769 252.236 33.1669 252.644 33.4309 253.16V251.702H34.9789V260H33.4309V258.542C33.1669 259.046 32.7649 259.454 32.2249 259.766C31.6849 260.066 31.1029 260.216 30.4789 260.216ZM30.6949 258.812C31.5709 258.812 32.2549 258.53 32.7469 257.966C33.2509 257.39 33.5029 256.688 33.5029 255.86C33.5029 255.02 33.2509 254.318 32.7469 253.754C32.2549 253.178 31.5709 252.89 30.6949 252.89C29.8549 252.89 29.1829 253.172 28.6789 253.736C28.1749 254.288 27.9229 254.996 27.9229 255.86C27.9229 256.724 28.1749 257.432 28.6789 257.984C29.1829 258.536 29.8549 258.812 30.6949 258.812ZM41.1497 258.686C41.5817 258.686 41.9297 258.656 42.1937 258.596V259.982C41.8337 260.066 41.3717 260.108 40.8077 260.108C40.5557 260.108 40.3337 260.096 40.1417 260.072C39.9617 260.048 39.7457 259.982 39.4937 259.874C39.2417 259.766 39.0317 259.616 38.8637 259.424C38.6957 259.22 38.5517 258.938 38.4317 258.578C38.3117 258.206 38.2517 257.762 38.2517 257.246V253.016H36.7577V251.702H38.2517V249.074H39.8177V251.702H41.9057V253.016H39.8177V256.904C39.8177 257.636 39.9257 258.116 40.1417 258.344C40.3577 258.572 40.6937 258.686 41.1497 258.686ZM52.4964 248.696C52.3044 248.696 52.1304 248.714 51.9744 248.75C51.8304 248.774 51.6744 248.834 51.5064 248.93C51.3504 249.026 51.2244 249.182 51.1284 249.398C51.0444 249.614 51.0024 249.89 51.0024 250.226V251.702H53.3424V253.016H51.0024V260H49.4364V253.016H47.6724V251.702H49.4364V250.262C49.4364 249.77 49.4964 249.338 49.6164 248.966C49.7484 248.594 49.9104 248.306 50.1024 248.102C50.2944 247.886 50.5164 247.718 50.7684 247.598C51.0204 247.466 51.2484 247.382 51.4524 247.346C51.6564 247.31 51.8664 247.292 52.0824 247.292C52.6224 247.292 53.0424 247.352 53.3424 247.472V248.822C53.0304 248.738 52.7484 248.696 52.4964 248.696ZM62.1412 255.374C62.1412 255.602 62.1232 255.914 62.0872 256.31H55.6612C55.6732 257.102 55.9132 257.726 56.3812 258.182C56.8492 258.626 57.4792 258.848 58.2712 258.848C59.3752 258.848 60.1072 258.44 60.4672 257.624H62.0332C61.8892 258.392 61.4692 259.016 60.7732 259.496C60.0772 259.976 59.2432 260.216 58.2712 260.216C56.9992 260.216 55.9852 259.826 55.2292 259.046C54.4852 258.254 54.1132 257.186 54.1132 255.842C54.1132 254.522 54.4852 253.466 55.2292 252.674C55.9732 251.882 56.9632 251.486 58.1992 251.486C59.3752 251.486 60.3232 251.846 61.0432 252.566C61.7752 253.286 62.1412 254.222 62.1412 255.374ZM55.6612 255.104H60.5932C60.5932 254.372 60.3772 253.796 59.9452 253.376C59.5252 252.956 58.9372 252.746 58.1812 252.746C57.4372 252.746 56.8372 252.962 56.3812 253.394C55.9372 253.826 55.6972 254.396 55.6612 255.104ZM71.6334 255.374C71.6334 255.602 71.6154 255.914 71.5794 256.31H65.1534C65.1654 257.102 65.4054 257.726 65.8734 258.182C66.3414 258.626 66.9714 258.848 67.7634 258.848C68.8674 258.848 69.5994 258.44 69.9594 257.624H71.5254C71.3814 258.392 70.9614 259.016 70.2654 259.496C69.5694 259.976 68.7354 260.216 67.7634 260.216C66.4914 260.216 65.4774 259.826 64.7214 259.046C63.9774 258.254 63.6054 257.186 63.6054 255.842C63.6054 254.522 63.9774 253.466 64.7214 252.674C65.4654 251.882 66.4554 251.486 67.6914 251.486C68.8674 251.486 69.8154 251.846 70.5354 252.566C71.2674 253.286 71.6334 254.222 71.6334 255.374ZM65.1534 255.104H70.0854C70.0854 254.372 69.8694 253.796 69.4374 253.376C69.0174 252.956 68.4294 252.746 67.6734 252.746C66.9294 252.746 66.3294 252.962 65.8734 253.394C65.4294 253.826 65.1894 254.396 65.1534 255.104ZM73.8645 262.16C73.6245 262.16 73.4205 262.142 73.2525 262.106V261.35C73.3965 261.374 73.6185 261.386 73.9185 261.386C74.4105 261.386 74.7465 261.182 74.9265 260.774C75.0825 260.522 75.1605 260.198 75.1605 259.802C75.0045 259.994 74.7585 260.09 74.4225 260.09C74.0745 260.09 73.7865 259.976 73.5585 259.748C73.3305 259.52 73.2165 259.22 73.2165 258.848C73.2165 258.476 73.3365 258.17 73.5765 257.93C73.8285 257.69 74.1405 257.57 74.5125 257.57C74.9445 257.57 75.3225 257.75 75.6465 258.11C75.9825 258.458 76.1505 258.962 76.1505 259.622C76.1505 260.378 75.9465 260.99 75.5385 261.458C75.1425 261.926 74.5845 262.16 73.8645 262.16ZM87.811 251.486C88.999 251.486 89.965 251.894 90.709 252.71C91.453 253.514 91.825 254.564 91.825 255.86C91.825 257.132 91.441 258.176 90.673 258.992C89.905 259.808 88.921 260.216 87.721 260.216C87.085 260.216 86.497 260.066 85.957 259.766C85.429 259.466 85.033 259.058 84.769 258.542V263.834H83.203V251.702H84.769V253.16C85.033 252.644 85.435 252.236 85.975 251.936C86.527 251.636 87.139 251.486 87.811 251.486ZM87.505 258.812C88.309 258.812 88.969 258.536 89.485 257.984C90.001 257.432 90.259 256.724 90.259 255.86C90.259 254.996 90.001 254.288 89.485 253.736C88.969 253.172 88.309 252.89 87.505 252.89C86.677 252.89 85.999 253.166 85.471 253.718C84.955 254.27 84.697 254.984 84.697 255.86C84.697 256.724 84.955 257.432 85.471 257.984C85.999 258.536 86.677 258.812 87.505 258.812ZM97.2758 260.216C95.9918 260.216 94.9838 259.808 94.2518 258.992C93.5318 258.176 93.1718 257.132 93.1718 255.86C93.1718 254.6 93.5438 253.556 94.2878 252.728C95.0438 251.9 96.0518 251.486 97.3118 251.486C97.9598 251.486 98.5418 251.636 99.0578 251.936C99.5738 252.236 99.9638 252.644 100.228 253.16V251.702H101.776V260H100.228V258.542C99.9638 259.046 99.5618 259.454 99.0218 259.766C98.4818 260.066 97.8998 260.216 97.2758 260.216ZM97.4918 258.812C98.3678 258.812 99.0518 258.53 99.5438 257.966C100.048 257.39 100.3 256.688 100.3 255.86C100.3 255.02 100.048 254.318 99.5438 253.754C99.0518 253.178 98.3678 252.89 97.4918 252.89C96.6518 252.89 95.9798 253.172 95.4758 253.736C94.9718 254.288 94.7198 254.996 94.7198 255.86C94.7198 256.724 94.9718 257.432 95.4758 257.984C95.9798 258.536 96.6518 258.812 97.4918 258.812ZM107.263 260.216C106.219 260.216 105.379 259.958 104.743 259.442C104.119 258.914 103.807 258.272 103.807 257.516H105.355C105.355 257.936 105.535 258.284 105.895 258.56C106.255 258.824 106.735 258.956 107.335 258.956C107.803 258.956 108.175 258.848 108.451 258.632C108.727 258.416 108.865 258.122 108.865 257.75C108.865 257.162 108.595 256.802 108.055 256.67L105.841 256.094C104.653 255.77 104.059 255.026 104.059 253.862C104.059 253.178 104.347 252.614 104.923 252.17C105.499 251.714 106.249 251.486 107.173 251.486C108.181 251.486 108.961 251.72 109.513 252.188C110.077 252.644 110.359 253.244 110.359 253.988H108.811C108.811 253.592 108.661 253.28 108.361 253.052C108.061 252.812 107.641 252.692 107.101 252.692C106.669 252.692 106.309 252.794 106.021 252.998C105.745 253.19 105.607 253.454 105.607 253.79C105.607 254.354 105.913 254.708 106.525 254.852L108.595 255.428C109.183 255.584 109.639 255.86 109.963 256.256C110.287 256.652 110.449 257.102 110.449 257.606C110.449 258.398 110.167 259.034 109.603 259.514C109.039 259.982 108.259 260.216 107.263 260.216ZM123.501 247.4H125.067V260H123.519V258.542C123.255 259.046 122.853 259.454 122.313 259.766C121.773 260.066 121.191 260.216 120.567 260.216C119.283 260.216 118.275 259.808 117.543 258.992C116.823 258.176 116.463 257.132 116.463 255.86C116.463 254.6 116.835 253.556 117.579 252.728C118.335 251.9 119.343 251.486 120.603 251.486C121.251 251.486 121.833 251.636 122.349 251.936C122.865 252.236 123.255 252.644 123.519 253.16V252.296H123.501V247.4ZM120.783 258.812C121.659 258.812 122.343 258.53 122.835 257.966C123.339 257.39 123.591 256.688 123.591 255.86C123.591 255.02 123.339 254.318 122.835 253.754C122.343 253.178 121.659 252.89 120.783 252.89C119.943 252.89 119.271 253.172 118.767 253.736C118.263 254.288 118.011 254.996 118.011 255.86C118.011 256.724 118.263 257.432 118.767 257.984C119.271 258.536 119.943 258.812 120.783 258.812ZM135.126 255.374C135.126 255.602 135.108 255.914 135.072 256.31H128.646C128.658 257.102 128.898 257.726 129.366 258.182C129.834 258.626 130.464 258.848 131.256 258.848C132.36 258.848 133.092 258.44 133.452 257.624H135.018C134.874 258.392 134.454 259.016 133.758 259.496C133.062 259.976 132.228 260.216 131.256 260.216C129.984 260.216 128.97 259.826 128.214 259.046C127.47 258.254 127.098 257.186 127.098 255.842C127.098 254.522 127.47 253.466 128.214 252.674C128.958 251.882 129.948 251.486 131.184 251.486C132.36 251.486 133.308 251.846 134.028 252.566C134.76 253.286 135.126 254.222 135.126 255.374ZM128.646 255.104H133.578C133.578 254.372 133.362 253.796 132.93 253.376C132.51 252.956 131.922 252.746 131.166 252.746C130.422 252.746 129.822 252.962 129.366 253.394C128.922 253.826 128.682 254.396 128.646 255.104ZM145.555 248.696C145.363 248.696 145.189 248.714 145.033 248.75C144.889 248.774 144.733 248.834 144.565 248.93C144.409 249.026 144.283 249.182 144.187 249.398C144.103 249.614 144.061 249.89 144.061 250.226V251.702H146.401V253.016H144.061V260H142.495V253.016H140.731V251.702H142.495V250.262C142.495 249.77 142.555 249.338 142.675 248.966C142.807 248.594 142.969 248.306 143.161 248.102C143.353 247.886 143.575 247.718 143.827 247.598C144.079 247.466 144.307 247.382 144.511 247.346C144.715 247.31 144.925 247.292 145.141 247.292C145.681 247.292 146.101 247.352 146.401 247.472V248.822C146.089 248.738 145.807 248.696 145.555 248.696ZM148.014 260V251.702H149.58V253.592C149.736 252.932 150.042 252.434 150.498 252.098C150.954 251.75 151.458 251.576 152.01 251.576C152.334 251.576 152.586 251.6 152.766 251.648V253.088C152.586 253.052 152.328 253.034 151.992 253.034C151.212 253.034 150.612 253.346 150.192 253.97C149.784 254.594 149.58 255.392 149.58 256.364V260H148.014ZM157.604 260.216C156.32 260.216 155.312 259.808 154.58 258.992C153.86 258.176 153.5 257.132 153.5 255.86C153.5 254.6 153.872 253.556 154.616 252.728C155.372 251.9 156.38 251.486 157.64 251.486C158.288 251.486 158.87 251.636 159.386 251.936C159.902 252.236 160.292 252.644 160.556 253.16V251.702H162.104V260H160.556V258.542C160.292 259.046 159.89 259.454 159.35 259.766C158.81 260.066 158.228 260.216 157.604 260.216ZM157.82 258.812C158.696 258.812 159.38 258.53 159.872 257.966C160.376 257.39 160.628 256.688 160.628 255.86C160.628 255.02 160.376 254.318 159.872 253.754C159.38 253.178 158.696 252.89 157.82 252.89C156.98 252.89 156.308 253.172 155.804 253.736C155.3 254.288 155.048 254.996 155.048 255.86C155.048 256.724 155.3 257.432 155.804 257.984C156.308 258.536 156.98 258.812 157.82 258.812ZM165.593 250.28C165.221 250.28 164.915 250.16 164.675 249.92C164.435 249.68 164.315 249.38 164.315 249.02C164.315 248.66 164.435 248.36 164.675 248.12C164.915 247.868 165.221 247.742 165.593 247.742C165.953 247.742 166.253 247.868 166.493 248.12C166.733 248.36 166.853 248.66 166.853 249.02C166.853 249.38 166.733 249.68 166.493 249.92C166.253 250.16 165.953 250.28 165.593 250.28ZM164.801 260V251.702H166.367V260H164.801ZM171.862 260.216C170.818 260.216 169.978 259.958 169.342 259.442C168.718 258.914 168.406 258.272 168.406 257.516H169.954C169.954 257.936 170.134 258.284 170.494 258.56C170.854 258.824 171.334 258.956 171.934 258.956C172.402 258.956 172.774 258.848 173.05 258.632C173.326 258.416 173.464 258.122 173.464 257.75C173.464 257.162 173.194 256.802 172.654 256.67L170.44 256.094C169.252 255.77 168.658 255.026 168.658 253.862C168.658 253.178 168.946 252.614 169.522 252.17C170.098 251.714 170.848 251.486 171.772 251.486C172.78 251.486 173.56 251.72 174.112 252.188C174.676 252.644 174.958 253.244 174.958 253.988H173.41C173.41 253.592 173.26 253.28 172.96 253.052C172.66 252.812 172.24 252.692 171.7 252.692C171.268 252.692 170.908 252.794 170.62 252.998C170.344 253.19 170.206 253.454 170.206 253.79C170.206 254.354 170.512 254.708 171.124 254.852L173.194 255.428C173.782 255.584 174.238 255.86 174.562 256.256C174.886 256.652 175.048 257.102 175.048 257.606C175.048 258.398 174.766 259.034 174.202 259.514C173.638 259.982 172.858 260.216 171.862 260.216ZM71.6913 285.216C70.4313 285.216 69.4293 284.82 68.6853 284.028C67.9413 283.224 67.5693 282.168 67.5693 280.86C67.5693 279.552 67.9413 278.502 68.6853 277.71C69.4293 276.906 70.4313 276.504 71.6913 276.504C72.8073 276.504 73.7073 276.786 74.3913 277.35C75.0753 277.902 75.4653 278.646 75.5613 279.582H73.9953C73.7793 278.466 73.0113 277.908 71.6913 277.908C70.8873 277.908 70.2573 278.172 69.8013 278.7C69.3453 279.216 69.1173 279.936 69.1173 280.86C69.1173 281.784 69.3453 282.51 69.8013 283.038C70.2573 283.554 70.8873 283.812 71.6913 283.812C72.9993 283.812 73.7673 283.272 73.9953 282.192H75.5613C75.4653 283.116 75.0753 283.854 74.3913 284.406C73.7073 284.946 72.8073 285.216 71.6913 285.216ZM81.1654 285.216C79.8814 285.216 78.8734 284.808 78.1414 283.992C77.4214 283.176 77.0614 282.132 77.0614 280.86C77.0614 279.6 77.4334 278.556 78.1774 277.728C78.9334 276.9 79.9414 276.486 81.2014 276.486C81.8494 276.486 82.4314 276.636 82.9474 276.936C83.4634 277.236 83.8534 277.644 84.1174 278.16V276.702H85.6654V285H84.1174V283.542C83.8534 284.046 83.4514 284.454 82.9114 284.766C82.3714 285.066 81.7894 285.216 81.1654 285.216ZM81.3814 283.812C82.2574 283.812 82.9414 283.53 83.4334 282.966C83.9374 282.39 84.1894 281.688 84.1894 280.86C84.1894 280.02 83.9374 279.318 83.4334 278.754C82.9414 278.178 82.2574 277.89 81.3814 277.89C80.5414 277.89 79.8694 278.172 79.3654 278.736C78.8614 279.288 78.6094 279.996 78.6094 280.86C78.6094 281.724 78.8614 282.432 79.3654 282.984C79.8694 283.536 80.5414 283.812 81.3814 283.812ZM91.8182 285.216C90.5582 285.216 89.5562 284.82 88.8122 284.028C88.0682 283.224 87.6962 282.168 87.6962 280.86C87.6962 279.552 88.0682 278.502 88.8122 277.71C89.5562 276.906 90.5582 276.504 91.8182 276.504C92.9342 276.504 93.8342 276.786 94.5182 277.35C95.2022 277.902 95.5922 278.646 95.6882 279.582H94.1222C93.9062 278.466 93.1382 277.908 91.8182 277.908C91.0142 277.908 90.3842 278.172 89.9282 278.7C89.4722 279.216 89.2442 279.936 89.2442 280.86C89.2442 281.784 89.4722 282.51 89.9282 283.038C90.3842 283.554 91.0142 283.812 91.8182 283.812C93.1262 283.812 93.8942 283.272 94.1222 282.192H95.6882C95.5922 283.116 95.2022 283.854 94.5182 284.406C93.8342 284.946 92.9342 285.216 91.8182 285.216ZM102.196 276.486C104.26 276.486 105.292 277.62 105.292 279.888V285H103.726V280.572C103.726 279.636 103.558 278.946 103.222 278.502C102.898 278.058 102.37 277.836 101.638 277.836C100.882 277.836 100.3 278.082 99.8918 278.574C99.4958 279.066 99.2978 279.744 99.2978 280.608V285H97.7318V272.4H99.2978V278.232C99.5258 277.692 99.8858 277.266 100.378 276.954C100.882 276.642 101.488 276.486 102.196 276.486ZM113.921 273.786L108.989 275.892L108.467 274.668L113.399 272.616L113.921 273.786ZM115.271 280.374C115.271 280.602 115.253 280.914 115.217 281.31H108.791C108.803 282.102 109.043 282.726 109.511 283.182C109.979 283.626 110.609 283.848 111.401 283.848C112.505 283.848 113.237 283.44 113.597 282.624H115.163C115.019 283.392 114.599 284.016 113.903 284.496C113.207 284.976 112.373 285.216 111.401 285.216C110.129 285.216 109.115 284.826 108.359 284.046C107.615 283.254 107.243 282.186 107.243 280.842C107.243 279.522 107.615 278.466 108.359 277.674C109.103 276.882 110.093 276.486 111.329 276.486C112.505 276.486 113.453 276.846 114.173 277.566C114.905 278.286 115.271 279.222 115.271 280.374ZM108.791 280.104H113.723C113.723 279.372 113.507 278.796 113.075 278.376C112.655 277.956 112.067 277.746 111.311 277.746C110.567 277.746 109.967 277.962 109.511 278.394C109.067 278.826 108.827 279.396 108.791 280.104ZM120.086 285.216C119.042 285.216 118.202 284.958 117.566 284.442C116.942 283.914 116.63 283.272 116.63 282.516H118.178C118.178 282.936 118.358 283.284 118.718 283.56C119.078 283.824 119.558 283.956 120.158 283.956C120.626 283.956 120.998 283.848 121.274 283.632C121.55 283.416 121.688 283.122 121.688 282.75C121.688 282.162 121.418 281.802 120.878 281.67L118.664 281.094C117.476 280.77 116.882 280.026 116.882 278.862C116.882 278.178 117.17 277.614 117.746 277.17C118.322 276.714 119.072 276.486 119.996 276.486C121.004 276.486 121.784 276.72 122.336 277.188C122.9 277.644 123.182 278.244 123.182 278.988H121.634C121.634 278.592 121.484 278.28 121.184 278.052C120.884 277.812 120.464 277.692 119.924 277.692C119.492 277.692 119.132 277.794 118.844 277.998C118.568 278.19 118.43 278.454 118.43 278.79C118.43 279.354 118.736 279.708 119.348 279.852L121.418 280.428C122.006 280.584 122.462 280.86 122.786 281.256C123.11 281.652 123.272 282.102 123.272 282.606C123.272 283.398 122.99 284.034 122.426 284.514C121.862 284.982 121.082 285.216 120.086 285.216Z" fill="#545454"/>
<path d="M36.2168 121.453L86.8168 166.813L158.697 135.763L102.867 91.4429L36.2168 121.453Z" fill="#101010"/>
<path d="M36.3069 121.463C51.1769 134.253 73.0569 153.193 87.3769 166.183L86.4669 166.033C98.4669 160.893 110.607 156.093 122.607 150.953C134.287 146.023 146.937 140.433 158.467 135.243L158.337 136.243C151.277 130.823 137.187 119.863 130.187 114.383C121.887 107.953 110.307 98.7429 102.187 92.2929L103.247 92.4229C84.3769 100.883 55.5369 113.253 36.2469 121.503L36.3069 121.463ZM36.1069 121.463C47.1969 116.233 74.8569 103.183 85.6069 98.2129C91.1869 95.6029 96.8269 93.0829 102.427 90.5329C102.599 90.4501 102.791 90.4183 102.981 90.4414C103.171 90.4644 103.35 90.5413 103.497 90.6629C121.277 104.663 141.497 120.993 159.037 135.353C159.112 135.413 159.17 135.492 159.206 135.582C159.241 135.672 159.253 135.769 159.24 135.865C159.227 135.96 159.189 136.051 159.131 136.127C159.073 136.204 158.996 136.265 158.907 136.303C152.907 138.823 146.847 141.303 140.857 143.873C129.157 148.803 116.537 154.413 105.017 159.643C99.0169 162.303 93.1369 165.043 87.1469 167.643C86.9976 167.708 86.8327 167.73 86.6716 167.705C86.5105 167.68 86.3598 167.61 86.2369 167.503C71.6069 154.703 50.5569 134.843 36.1069 121.503V121.463Z" fill="#101010"/>
<path d="M42.5552 122.791C50.225 122.179 57.9812 121.956 65.7255 122.125C69.5888 122.244 73.452 122.535 77.3153 122.589C83.1103 122.706 88.9099 122.361 94.6907 122.153C102.413 121.959 110.144 121.806 117.866 122.003C123.632 122.14 129.512 122.343 135.246 122.781V122.962C121.805 123.966 108.212 123.987 94.6907 123.6C88.9099 123.395 83.1103 123.051 77.3153 123.165C73.452 123.219 69.5888 123.512 65.7255 123.629C59.9275 123.748 54.1215 123.657 48.3454 123.357C46.4137 123.261 44.4868 123.141 42.5552 122.962V122.781V122.791Z" fill="white"/>
<path d="M47.5552 129.791C55.225 129.179 62.9812 128.956 70.7255 129.125C74.5888 129.244 78.452 129.535 82.3153 129.589C88.1103 129.706 93.9099 129.361 99.6907 129.153C107.413 128.959 115.144 128.806 122.866 129.003C128.632 129.14 134.512 129.343 140.246 129.781V129.962C126.805 130.966 113.212 130.987 99.6907 130.6C93.9099 130.395 88.1103 130.051 82.3153 130.165C78.452 130.219 74.5888 130.512 70.7255 130.629C64.9275 130.748 59.1215 130.657 53.3454 130.357C51.4137 130.261 49.4868 130.141 47.5552 129.962V129.781V129.791Z" fill="white"/>
<path d="M56.5552 135.791C64.225 135.179 71.9812 134.956 79.7255 135.125C83.5888 135.244 87.452 135.535 91.3153 135.589C97.1103 135.706 102.91 135.361 108.691 135.153C116.413 134.959 124.144 134.806 131.866 135.003C137.632 135.14 143.512 135.343 149.246 135.781V135.962C135.805 136.966 122.212 136.987 108.691 136.6C102.91 136.395 97.1103 136.051 91.3153 136.165C87.452 136.219 83.5888 136.512 79.7255 136.629C73.9275 136.748 68.1215 136.657 62.3454 136.357C60.4137 136.261 58.4868 136.141 56.5552 135.962V135.781V135.791Z" fill="white"/>
<path d="M65.5366 142.791C71.3048 142.179 77.1379 141.956 82.9622 142.125C85.8676 142.244 88.7731 142.535 91.6785 142.589C96.0367 142.706 100.398 142.361 104.746 142.153C110.553 141.959 116.368 141.806 122.175 142.003C126.512 142.14 130.934 142.343 135.246 142.781V142.962C125.137 143.966 114.915 143.987 104.746 143.6C100.398 143.395 96.0367 143.051 91.6785 143.165C88.7731 143.219 85.8676 143.512 82.9622 143.629C78.6017 143.748 74.2352 143.657 69.8912 143.357C68.4385 143.261 66.9893 143.141 65.5366 142.962V142.781V142.791Z" fill="white"/>
<path d="M75.5269 151.791C78.5947 151.179 81.697 150.956 84.7946 151.125C86.3398 151.244 87.8851 151.535 89.4303 151.589C91.7482 151.706 94.068 151.361 96.3802 151.153C99.4688 150.959 102.561 150.806 105.65 151.003C107.956 151.14 110.308 151.343 112.602 151.781V151.962C107.225 152.966 101.789 152.987 96.3802 152.6C94.068 152.395 91.7482 152.051 89.4303 152.165C87.8851 152.219 86.3398 152.512 84.7946 152.629C82.4755 152.748 80.1532 152.657 77.8428 152.357C77.0702 152.261 76.2995 152.141 75.5269 151.962V151.781V151.791Z" fill="white"/>
<path d="M85.0728 159.791C85.9178 159.179 86.7723 158.956 87.6255 159.125C88.0512 159.244 88.4768 159.535 88.9025 159.589C89.5409 159.706 90.1799 159.361 90.8168 159.153C91.6675 158.959 92.5193 158.806 93.3701 159.003C94.0054 159.14 94.6532 159.343 95.2849 159.781V159.962C93.804 160.966 92.3065 160.987 90.8168 160.6C90.1799 160.395 89.5409 160.051 88.9025 160.165C88.4768 160.219 88.0512 160.512 87.6255 160.629C86.9867 160.748 86.3471 160.657 85.7107 160.357C85.4979 160.261 85.2856 160.141 85.0728 159.962V159.781V159.791Z" fill="white"/>
<path d="M36.2168 109.453L86.8168 154.813L158.697 123.763L102.867 79.4429L36.2168 109.453Z" fill="white"/>
<path d="M36.3069 109.463C51.1769 122.253 73.0569 141.193 87.3769 154.183L86.4669 154.033C98.4669 148.893 110.607 144.093 122.607 138.953C134.287 134.023 146.937 128.433 158.467 123.243L158.337 124.243C151.277 118.823 137.187 107.863 130.187 102.383C121.887 95.9529 110.307 86.7429 102.187 80.2929L103.247 80.4229C84.4169 88.8429 55.5769 101.213 36.3069 109.463ZM36.1069 109.463C47.1969 104.233 74.8569 91.1829 85.6069 86.2129C91.1869 83.6029 96.8269 81.0829 102.427 78.5329C102.599 78.4501 102.791 78.4183 102.981 78.4414C103.171 78.4644 103.35 78.5413 103.497 78.6629C121.277 92.6629 141.497 108.993 159.037 123.353C159.125 123.411 159.195 123.492 159.239 123.588C159.283 123.683 159.299 123.789 159.286 123.894C159.272 123.998 159.229 124.097 159.162 124.178C159.095 124.259 159.007 124.32 158.907 124.353C152.907 126.873 146.847 129.353 140.857 131.923C129.157 136.853 116.537 142.463 105.017 147.693C99.0169 150.353 93.1369 153.093 87.1469 155.693C86.9976 155.758 86.8327 155.78 86.6716 155.755C86.5105 155.73 86.3598 155.66 86.2369 155.553C71.6069 142.753 50.5569 122.893 36.1069 109.553V109.463Z" fill="#101010"/>
<path d="M158.627 123.683C148.177 108.683 137.537 94.0229 127.227 79.1729C117.227 64.5229 107.507 49.4529 97.0669 35.0529L97.9369 34.7229L99.4869 45.8629C100.487 52.8629 102.957 72.0229 103.887 79.3229L103.507 78.6329C121.977 92.9629 140.307 109.023 158.627 123.683ZM158.767 123.833C140.377 109.423 120.357 94.9829 102.207 80.2429C102.103 80.1598 102.017 80.0569 101.953 79.9401C101.89 79.8234 101.85 79.6951 101.837 79.5629C101.007 72.1829 98.8369 53.1829 98.1269 46.0229L96.9869 34.8329C96.9785 34.7295 97.0039 34.6262 97.0591 34.5384C97.1144 34.4506 97.1966 34.3831 97.2934 34.3459C97.3902 34.3088 97.4965 34.304 97.5963 34.3323C97.6961 34.3606 97.784 34.4204 97.8469 34.5029C107.817 49.7629 118.497 64.3529 128.927 79.3629C139.037 94.1729 148.807 109.193 158.767 123.833Z" fill="#101010"/>
<path d="M97.4569 114.063C108.293 114.063 117.077 105.279 117.077 94.443C117.077 83.6072 108.293 74.823 97.4569 74.823C86.6211 74.823 77.8369 83.6072 77.8369 94.443C77.8369 105.279 86.6211 114.063 97.4569 114.063Z" fill="#6828ED"/>
<path d="M117.177 94.443C117.307 108.863 103.307 119.313 89.7369 113.093C73.6569 105.583 72.7369 82.663 89.5469 75.353C103.227 69.593 117.307 79.943 117.177 94.443ZM116.977 94.443C116.817 77.953 95.8569 69.823 84.2469 81.233C76.8669 88.153 76.2469 101.003 83.8069 108.093C95.4469 119.403 116.977 110.863 116.977 94.443Z" fill="#101010"/>
<path d="M97.4167 34.8729C80.0767 56.6829 54.5367 88.9329 36.5567 109.763L36.5067 109.173C52.4067 123.863 71.1367 140.003 87.3667 154.233L85.9867 154.783C88.9067 116.043 93.5667 73.7129 97.4167 34.9129V34.8729ZM97.4967 34.6829C95.2767 62.6829 92.9667 96.8229 90.4967 124.603C89.5667 134.733 88.6567 144.823 87.6567 154.893C87.6364 155.114 87.5292 155.318 87.3587 155.461C87.1881 155.603 86.9681 155.672 86.7467 155.653C86.5668 155.634 86.3981 155.557 86.2667 155.433C82.0801 151.653 77.9067 147.823 73.7467 143.943C67.5467 138.163 54.9567 126.683 48.6667 121.023L35.9267 109.763C35.8515 109.683 35.8096 109.578 35.8096 109.468C35.8096 109.358 35.8515 109.253 35.9267 109.173C35.9267 109.173 51.0567 90.1129 51.0667 90.1029C61.3067 77.1729 86.6267 47.7629 97.4967 34.6829Z" fill="#101010"/>
<path d="M63.6766 3.14296C64.7723 3.99815 65.5759 5.17205 65.9766 6.50296C66.1266 7.16296 66.1066 7.90296 66.3166 8.50296C67.0866 10.393 68.7866 11.763 69.4366 13.763C69.9407 15.0356 70.192 16.3942 70.1766 17.763C70.1766 17.7921 70.165 17.8201 70.1444 17.8407C70.1238 17.8614 70.0958 17.873 70.0666 17.873C68.9763 16.9782 68.0956 15.8552 67.4866 14.583C66.4866 12.803 66.5866 10.583 65.7266 8.80296C64.9466 7.70296 63.9066 6.74296 63.7266 5.33296C63.545 4.64533 63.4808 3.93198 63.5366 3.22296C63.5403 3.20396 63.5484 3.18613 63.5605 3.17098C63.5725 3.15583 63.588 3.14381 63.6057 3.13595C63.6234 3.1281 63.6427 3.12463 63.662 3.12585C63.6813 3.12707 63.7001 3.13294 63.7166 3.14296H63.6766Z" fill="#101010"/>
<path d="M132.467 1.76294C132.356 7.84506 130.855 13.8211 128.077 19.2329C128.185 13.1505 129.686 7.17387 132.467 1.76294V1.76294Z" fill="#101010"/>
<path d="M155.577 60.1529C156.768 59.042 158.23 58.2627 159.817 57.8929C160.607 57.7529 161.467 57.7929 162.237 57.5829C164.497 56.8429 166.377 55.1429 168.717 54.5229C170.269 54.0371 171.891 53.814 173.517 53.8629C173.538 53.864 173.559 53.8713 173.576 53.8841C173.594 53.8969 173.607 53.9145 173.614 53.9348C173.622 53.955 173.623 53.977 173.618 53.998C173.613 54.019 173.602 54.0381 173.587 54.0529C171.735 55.6301 169.517 56.7168 167.137 57.2129C165.627 57.6629 163.897 57.5229 162.447 58.2129C160.997 58.9029 159.767 60.0329 158.117 60.2129C157.304 60.3759 156.472 60.4231 155.647 60.3529C155.625 60.3519 155.604 60.3445 155.587 60.3317C155.569 60.3189 155.556 60.3013 155.549 60.2811C155.541 60.2608 155.54 60.2388 155.545 60.2178C155.55 60.1968 155.561 60.1777 155.577 60.1629V60.1529Z" fill="#101010"/>
<path d="M22.4166 57.003C25.0066 57.383 28.7166 58.073 31.3266 58.563C34.3685 58.849 37.3007 59.8458 39.8866 61.473C39.9058 61.4818 39.922 61.4959 39.9334 61.5136C39.9448 61.5313 39.9508 61.5519 39.9508 61.573C39.9508 61.5941 39.9448 61.6147 39.9334 61.6324C39.922 61.6501 39.9058 61.6642 39.8866 61.673C36.8352 61.8623 33.7822 61.3278 30.9766 60.113C28.4466 59.293 24.8766 58.113 22.4166 57.203C22.3166 57.203 22.3466 56.983 22.4666 57.003H22.4166Z" fill="#101010"/>
</svg>
